<?xml version="1.0" standalone="no"?>
<!DOCTYPE svg PUBLIC "-//W3C//DTD SVG 1.1//EN" "http://www.w3.org/Graphics/SVG/1.1/DTD/svg11.dtd" >
<svg xmlns="http://www.w3.org/2000/svg" xmlns:xlink="http://www.w3.org/1999/xlink" version="1.1">
<metadata>
Created by FontForge 20170731 at Mon Jun 20 09:56:20 2022
 By Aleksey,,,
Copyright (c) 2013 by Jonathan Hill . All rights reserved.
</metadata>
<defs>
<font id="NuberNext-BoldWide" horiz-adv-x="1464" >
  <font-face 
    font-family="NuberNext Wide"
    font-weight="700"
    font-stretch="semi-expanded"
    units-per-em="2048"
    panose-1="2 11 8 5 3 3 2 2 2 4"
    ascent="1550"
    descent="-498"
    x-height="1024"
    cap-height="1434"
    bbox="-1061 -504 2855 2177"
    underline-thickness="102"
    underline-position="-307"
    unicode-range="U+0020-FB02"
  />
<missing-glyph horiz-adv-x="1024" 
d="M102 61v1229h820v-1229h-820zM246 205h532v942h-532v-942z" />
    <glyph glyph-name="f_f" unicode="ff" horiz-adv-x="1740" 
d="M1587 1266q-99 0 -140.5 -39.5t-41.5 -124.5v-78h264v-197h-264v-827h-305v827h-549v-827h-305v827h-193v197h193v70q0 103 30.5 175t89 112t132 57.5t170.5 17.5q113 0 184 -10v-189q-61 9 -119 9q-99 0 -140.5 -39.5t-41.5 -124.5v-78h549v70q0 103 30.5 175t89 112
t132 57.5t170.5 17.5q113 0 184 -10v-189q-58 9 -119 9z" />
    <glyph glyph-name="f_f_i" unicode="ffi" horiz-adv-x="2324" 
d="M2202 1024v-1024h-306v827h-491v-827h-305v827h-549v-827h-305v827h-193v197h193v70q0 103 30.5 175t89 112t132 57.5t170.5 17.5q113 0 184 -10v-189q-61 9 -119 9q-99 0 -140.5 -39.5t-41.5 -124.5v-78h549v70q0 103 30.5 175t89 112t132 57.5t170.5 17.5
q113 0 184 -10v-189q-58 9 -119 9q-99 0 -140.5 -39.5t-41.5 -124.5v-78h797zM1894 1386h308v-247h-308v247z" />
    <glyph glyph-name="f_f_l" unicode="ffl" horiz-adv-x="2326" 
d="M1100 1094q0 103 30.5 175t89 112t132 57.5t170.5 17.5q113 0 184 -10v-189q-58 9 -119 9q-99 0 -140.5 -39.5t-41.5 -124.5v-78h264v-197h-264v-827h-305v827h-549v-827h-305v827h-193v197h193v70q0 103 30.5 175t89 112t132 57.5t170.5 17.5q113 0 184 -10v-189
q-61 9 -119 9q-99 0 -140.5 -39.5t-41.5 -124.5v-78h549v70zM1890 1434h305v-1434h-305v1434z" />
    <glyph glyph-name="f_i" unicode="fi" horiz-adv-x="1470" 
d="M1346 1024v-1024h-304v827h-491v-827h-305v827h-193v197h193v70q0 103 30.5 175t89 112t132 57.5t170.5 17.5q113 0 184 -10v-189q-61 9 -119 9q-99 0 -140.5 -39.5t-41.5 -124.5v-78h795zM1040 1386h308v-247h-308v247z" />
    <glyph glyph-name="f_l" unicode="fl" horiz-adv-x="1472" 
d="M246 1094q0 103 30.5 175t89 112t132 57.5t170.5 17.5q113 0 184 -10v-189q-61 9 -119 9q-99 0 -140.5 -39.5t-41.5 -124.5v-78h262v-197h-262v-827h-305v827h-193v197h193v70zM1036 1434h305v-1434h-305v1434z" />
    <glyph glyph-name=".notdef" horiz-adv-x="1024" 
d="M102 61v1229h820v-1229h-820zM246 205h532v942h-532v-942z" />
    <glyph glyph-name=".null" horiz-adv-x="0" 
 />
    <glyph glyph-name="nonmarkingreturn" horiz-adv-x="682" 
 />
    <glyph glyph-name="space" unicode=" " horiz-adv-x="591" 
 />
    <glyph glyph-name="exclam" unicode="!" horiz-adv-x="671" 
d="M211 436l-33 998h316l-37 -998h-246zM188 0v256h295v-256h-295z" />
    <glyph glyph-name="quotedbl" unicode="&#x22;" horiz-adv-x="1173" 
d="M256 887l-33 565h285l-35 -565h-217zM694 887l-32 565h286l-35 -565h-219z" />
    <glyph glyph-name="numbersign" unicode="#" horiz-adv-x="1697" 
d="M1536 819h-276l-60 -274h279l-39 -191h-281l-78 -354h-229l78 354h-318l-77 -354h-228l78 354h-264l39 191h266l59 274h-270l41 191h270l84 383h228l-84 -383h319l84 383h227l-84 -383h275zM971 545l61 274h-319l-60 -274h318z" />
    <glyph glyph-name="dollar" unicode="$" horiz-adv-x="1435" 
d="M1352 428q0 -407 -516 -451v-202h-236v200q-521 36 -530 439h317q0 -219 328 -219q321 0 321 217q0 188 -241 209l-205 20q-114 11 -199 37t-151.5 72.5t-101 121t-34.5 175.5q0 372 496 409v203h236v-203q481 -37 487 -389h-313q0 188 -289 188q-303 0 -303 -200
q0 -38 14.5 -68t36.5 -48.5t55 -32t63.5 -19.5t69.5 -10l220 -21q78 -8 143 -24t128.5 -48t106.5 -78t70 -117t27 -161z" />
    <glyph glyph-name="percent" unicode="%" horiz-adv-x="2181" 
d="M504 -37l946 1505h215l-946 -1505h-215zM514 639q-193 0 -271.5 93t-78.5 310q0 222 80.5 314t271.5 92q193 0 272.5 -94.5t79.5 -311.5q0 -221 -81 -312t-273 -91zM514 784q93 0 126.5 54t33.5 204q0 152 -33.5 206.5t-126.5 54.5q-91 0 -124.5 -54.5t-33.5 -206.5
q0 -149 33.5 -203.5t124.5 -54.5zM1661 -14q-193 0 -271.5 93t-78.5 310q0 222 80.5 314t271.5 92q192 0 271 -94.5t79 -311.5q0 -222 -80 -312.5t-272 -90.5zM1661 131q93 0 126.5 54t33.5 204q0 152 -33.5 206t-126.5 54q-91 0 -124.5 -54.5t-33.5 -205.5
q0 -149 33.5 -203.5t124.5 -54.5z" />
    <glyph glyph-name="ampersand" unicode="&#x26;" horiz-adv-x="1914" 
d="M1802 0h-348l-129 109q-213 -134 -553 -134q-302 0 -461 107t-159 305q0 247 241 352l119 54l-63 53q-71 62 -104.5 124.5t-33.5 143.5q0 169 115.5 255.5t335.5 86.5q225 0 338.5 -86.5t113.5 -241.5q0 -101 -51.5 -172.5t-134.5 -111.5l-147 -74l415 -348
q60 117 60 272h272q0 -256 -137 -434zM766 1284q-115 0 -163 -40.5t-48 -115.5q0 -51 20.5 -85t65.5 -74l92 -76l111 65q61 36 93 74t32 96q0 156 -203 156zM799 170q211 0 350 88l-477 399l-84 -45q-73 -38 -111.5 -89t-38.5 -128q0 -110 90.5 -167.5t270.5 -57.5z" />
    <glyph glyph-name="quotesingle" unicode="'" horiz-adv-x="731" 
d="M256 887l-33 565h285l-35 -565h-217z" />
    <glyph glyph-name="parenleft" unicode="(" horiz-adv-x="980" 
d="M872 -336q-138 -3 -237 14q-138 17 -227.5 65.5t-151.5 151t-88.5 265.5t-26.5 409q0 198 18 341t54 243t96.5 163.5t138 96.5t187.5 47q93 18 237 15v-177q-89 3 -159 -22q-108 -22 -168 -92t-88.5 -216t-28.5 -399t28.5 -399t88.5 -215.5t168 -91.5q72 -26 159 -23
v-176z" />
    <glyph glyph-name="parenright" unicode=")" horiz-adv-x="980" 
d="M109 -336v176q85 -3 161 23q107 22 166.5 91.5t88 215.5t28.5 399t-28.5 399t-88 216t-166.5 92q-73 25 -161 22v177q136 3 237 -15q138 -17 227.5 -65.5t151.5 -151t88.5 -265.5t26.5 -409q0 -198 -18 -341t-54 -243.5t-96.5 -163.5t-138.5 -96.5t-187 -46.5
q-102 -17 -237 -14z" />
    <glyph glyph-name="asterisk" unicode="*" horiz-adv-x="1220" 
d="M422 596l-174 121l221 254l-334 82l68 194l319 -119l-26 324h223l-23 -324l322 119l67 -194l-333 -80l221 -256l-174 -121l-189 278z" />
    <glyph glyph-name="plus" unicode="+" 
d="M1276 633v-223h-426v-347h-236v347h-426v223h426v342h236v-342h426z" />
    <glyph glyph-name="comma" unicode="," horiz-adv-x="669" 
d="M164 328h342v-328l-205 -365h-174l152 365h-115v328z" />
    <glyph glyph-name="hyphen" unicode="-" horiz-adv-x="1107" 
d="M172 485v209h766v-209h-766z" />
    <glyph glyph-name="period" unicode="." horiz-adv-x="669" 
d="M164 0v326h342v-326h-342z" />
    <glyph glyph-name="slash" unicode="/" horiz-adv-x="919" 
d="M39 -51l606 1536h236l-607 -1536h-235z" />
    <glyph glyph-name="zero" unicode="0" horiz-adv-x="1402" 
d="M702 -25q-172 0 -289 40t-190 128.5t-105 220.5t-32 324q0 204 34 342t109.5 225t190 124.5t282.5 37.5q172 0 289 -40.5t190 -131t104.5 -225.5t31.5 -332q0 -264 -63 -419.5t-195.5 -224.5t-356.5 -69zM702 205q117 0 180.5 44t91 147t27.5 294q0 197 -28 304
t-91.5 151.5t-179.5 44.5q-117 0 -180.5 -45t-91 -151t-27.5 -304q0 -191 27.5 -294t91 -147t180.5 -44z" />
    <glyph glyph-name="one" unicode="1" horiz-adv-x="872" 
d="M750 1393v-1393h-316v1124l-391 -198v223l367 244h340z" />
    <glyph glyph-name="two" unicode="2" horiz-adv-x="1333" 
d="M389 338v-115h871v-223h-1188v356q0 83 20.5 147.5t56.5 109t92.5 77t120 52.5t146.5 34l215 37q126 24 176.5 70t50.5 123q0 106 -64 154t-202 48q-140 0 -203 -53t-63 -162h-314q1 119 41 202t118 131t182 69.5t245 21.5q287 0 429.5 -98.5t142.5 -323.5
q0 -180 -107.5 -275t-335.5 -138l-203 -37q-122 -24 -174.5 -73.5t-52.5 -133.5z" />
    <glyph glyph-name="three" unicode="3" horiz-adv-x="1378" 
d="M1073 735q112 -44 164.5 -127.5t52.5 -214.5q0 -222 -147 -319t-467 -97q-172 0 -292 28.5t-188.5 84.5t-98 128.5t-29.5 170.5h299q0 -104 71.5 -148t233.5 -44q171 0 239 48.5t68 164.5q0 118 -67 163t-240 45h-156v218h156q153 0 218.5 41.5t65.5 142.5q0 104 -64 146
t-220 42q-149 0 -214 -41.5t-67 -128.5h-305q1 71 19 127.5t60 104.5t109 80t168 49.5t234 17.5q306 0 447 -88.5t141 -290.5q0 -221 -191 -303z" />
    <glyph glyph-name="four" unicode="4" horiz-adv-x="1441" 
d="M1389 555v-219h-248v-336h-301v336h-783v219l715 838h369v-838h248zM350 555h490v594z" />
    <glyph glyph-name="five" unicode="5" horiz-adv-x="1372" 
d="M799 934q268 0 386 -114t118 -347q0 -146 -39.5 -244t-121 -153.5t-188.5 -78t-260 -22.5q-228 0 -364.5 46.5t-193 133.5t-56.5 226h295q0 -100 73.5 -144t237.5 -44q172 0 245 61t73 207q0 149 -72 210.5t-234 61.5q-140 0 -214 -42t-74 -126h-293v828h1093v-215h-800
v-342q134 98 389 98z" />
    <glyph glyph-name="six" unicode="6" horiz-adv-x="1384" 
d="M819 913q261 0 377.5 -113.5t116.5 -332.5q0 -112 -27 -196t-75.5 -139t-123 -89.5t-161.5 -48.5t-199 -14q-181 0 -303 39.5t-196.5 127t-106 215t-31.5 314.5q0 177 28.5 307t79 213t130.5 132.5t171.5 69t213.5 19.5q555 0 555 -366h-301q0 76 -66.5 119.5
t-183.5 43.5q-166 0 -239 -103.5t-81 -330.5q136 133 422 133zM707 197q161 0 233 64t72 202q0 135 -70 195.5t-219 60.5q-140 0 -228 -62.5t-100 -162.5q6 -160 79 -228.5t233 -68.5z" />
    <glyph glyph-name="seven" unicode="7" horiz-adv-x="1183" 
d="M45 1393h1090v-224l-617 -1169h-309l629 1169h-793v224z" />
    <glyph glyph-name="eight" unicode="8" horiz-adv-x="1386" 
d="M1047 733q258 -87 258 -352q0 -202 -144 -304t-469 -102q-149 0 -259 21.5t-190.5 69t-120.5 126t-40 189.5q0 266 258 352q-231 84 -231 307q0 199 149 288t434 89q586 0 586 -373q0 -226 -231 -311zM694 1214q-140 0 -213 -50.5t-73 -141.5t71.5 -141t214.5 -50
q144 0 214.5 50.5t70.5 140.5q0 95 -73 143.5t-212 48.5zM694 186q320 0 320 217q0 115 -76.5 170.5t-243.5 55.5q-166 0 -243.5 -56.5t-77.5 -166.5q0 -111 77.5 -165.5t243.5 -54.5z" />
    <glyph glyph-name="nine" unicode="9" horiz-adv-x="1384" 
d="M657 1417q181 0 303.5 -39.5t197 -127t106.5 -215t32 -314.5q0 -148 -19 -263.5t-57.5 -196.5t-90.5 -137t-124 -88t-151.5 -45.5t-179.5 -13.5q-555 0 -555 369h301q0 -78 66.5 -121t183.5 -43q166 0 239.5 104t79.5 332q-135 -135 -422 -135q-261 0 -378 113t-117 334
q0 112 27 196t75.5 139t122.5 89.5t161 48.5t199 14zM664 678q140 0 228 64t97 167h2q-7 157 -80.5 224t-232.5 67q-160 0 -232.5 -64t-72.5 -202q0 -136 70.5 -196t220.5 -60z" />
    <glyph glyph-name="colon" unicode=":" horiz-adv-x="669" 
d="M164 709v317h342v-317h-342zM164 0v319h342v-319h-342z" />
    <glyph glyph-name="semicolon" unicode=";" horiz-adv-x="669" 
d="M164 1026h342v-317h-342v317zM164 0v328h342v-328l-205 -365h-174l152 365h-115z" />
    <glyph glyph-name="less" unicode="&#x3c;" 
d="M1288 1018v-250l-819 -248l819 -252v-248l-1112 371v256z" />
    <glyph glyph-name="equal" unicode="=" 
d="M111 629v223h1241v-223h-1241zM111 176v223h1241v-223h-1241z" />
    <glyph glyph-name="greater" unicode="&#x3e;" 
d="M180 1018l1112 -371v-256l-1112 -371v248l819 252l-819 248v250z" />
    <glyph glyph-name="question" unicode="?" horiz-adv-x="1462" 
d="M516 426l-6 158q-3 87 47.5 138.5t155.5 78.5l100 26q114 34 159.5 74t45.5 121q0 110 -76.5 157.5t-230.5 47.5q-139 0 -216 -49t-77 -148h-303q0 212 154.5 316t439.5 104q304 0 462 -106.5t158 -321.5q0 -268 -297 -354l-149 -39q-56 -17 -82 -46.5t-27 -76.5l-2 -80
h-256zM494 0v256h305v-256h-305z" />
    <glyph glyph-name="at" unicode="@" horiz-adv-x="2136" 
d="M1092 1456q878 0 878 -690q0 -118 -25.5 -207.5t-67 -143.5t-102 -87.5t-121 -45.5t-132.5 -12h-262v107q-79 -119 -285 -119q-348 0 -348 371q0 381 356 381q198 0 277 -111v94h206v-559h62q237 0 237 328q0 148 -44 251.5t-132.5 164.5t-209.5 88.5t-287 27.5
q-186 0 -316 -36t-216.5 -115.5t-126.5 -205t-40 -306.5t38 -304t124 -202.5t219 -114.5t330 -35q226 0 366 48l33 -158q-182 -51 -422 -51q-471 0 -684 195t-213 612q0 224 58.5 385t176 259.5t283 144.5t390.5 46zM1257 575v117q0 78 -60.5 127t-158.5 49
q-101 0 -151.5 -57t-50.5 -180q0 -236 200 -236q101 0 161 50.5t60 129.5z" />
    <glyph glyph-name="A" unicode="A" horiz-adv-x="1683" 
d="M1290 0l-114 301h-670l-115 -301h-332l617 1434h332l616 -1434h-334zM586 512h510l-254 676z" />
    <glyph glyph-name="B" unicode="B" horiz-adv-x="1519" 
d="M1180 741q252 -82 252 -346q0 -90 -27.5 -159.5t-73.5 -113.5t-111.5 -72t-136 -39t-153.5 -11h-772v1434h710q84 0 156.5 -13t135.5 -42t108 -72t70.5 -107.5t25.5 -144.5q0 -218 -184 -314zM821 1223h-348v-383h361q225 0 225 190q0 193 -238 193zM856 213
q264 0 264 215q0 109 -65.5 159t-192.5 50h-389v-424h383z" />
    <glyph glyph-name="C" unicode="C" horiz-adv-x="1589" 
d="M827 -25q-372 0 -548.5 179.5t-176.5 562.5q0 381 176.5 560t550.5 179q320 0 501.5 -122t187.5 -369h-314q-6 134 -102.5 200t-270.5 66q-222 0 -316.5 -122.5t-94.5 -391.5q0 -272 94.5 -392t314.5 -120q358 0 375 262h314q-5 -166 -92 -277t-237.5 -163t-361.5 -52z
" />
    <glyph glyph-name="D" unicode="D" horiz-adv-x="1644" 
d="M877 1434q161 0 280.5 -37t208 -119t133.5 -222t45 -337q0 -199 -45 -339.5t-133.5 -223t-208 -119.5t-280.5 -37h-719v1434h719zM854 227q98 0 165 24t114.5 81t69.5 152.5t22 236.5q0 115 -15 198.5t-43.5 138.5t-75 88t-103.5 46.5t-134 13.5h-381v-979h381z" />
    <glyph glyph-name="E" unicode="E" horiz-adv-x="1427" 
d="M485 223h865v-223h-1182v1434h1151v-222h-834v-364h801v-219h-801v-406z" />
    <glyph glyph-name="F" unicode="F" horiz-adv-x="1357" 
d="M1280 1212h-799v-403h762v-219h-762v-590h-317v1434h1116v-222z" />
    <glyph glyph-name="G" unicode="G" horiz-adv-x="1658" 
d="M1540 729v-729h-264v170q-144 -193 -492 -193q-345 0 -513.5 181.5t-168.5 556.5q0 383 178.5 562t555.5 179q325 0 504.5 -123t185.5 -364h-316q-6 130 -103 196t-269 66q-225 0 -321.5 -121.5t-96.5 -392.5q0 -268 102 -391t334 -123q362 0 387 231v101h-364v194h661z
" />
    <glyph glyph-name="H" unicode="H" horiz-adv-x="1693" 
d="M1219 1434h317v-1434h-317v621h-746v-621h-315v1434h315v-588h746v588z" />
    <glyph glyph-name="I" unicode="I" horiz-adv-x="630" 
d="M158 0v1434h315v-1434h-315z" />
    <glyph glyph-name="J" unicode="J" horiz-adv-x="1345" 
d="M631 -25q-130 0 -228.5 19.5t-163 55t-105 89t-57.5 116.5t-18 144h316q1 -104 63.5 -150t194.5 -46q78 0 130 16.5t79.5 49.5t38 74.5t10.5 100.5v990h315v-973q0 -245 -134 -365.5t-441 -120.5z" />
    <glyph glyph-name="K" unicode="K" horiz-adv-x="1562" 
d="M1098 0l-467 672l-158 -144v-528h-315v1434h315v-596l578 596h417l-637 -580l672 -854h-405z" />
    <glyph glyph-name="L" unicode="L" horiz-adv-x="1323" 
d="M473 223h795v-223h-1110v1434h315v-1211z" />
    <glyph glyph-name="M" unicode="M" horiz-adv-x="2078" 
d="M1921 1434v-1434h-303v1128l-440 -1128h-277l-440 1128v-1128h-303v1434h458l424 -1125l424 1125h457z" />
    <glyph glyph-name="N" unicode="N" horiz-adv-x="1705" 
d="M1241 1434h305v-1434h-348l-735 1038v-1038h-305v1434h344l739 -1053v1053z" />
    <glyph glyph-name="O" unicode="O" horiz-adv-x="1658" 
d="M829 -25q-373 0 -550 180.5t-177 561.5q0 382 176.5 560.5t550.5 178.5q375 0 551 -178.5t176 -560.5q0 -381 -177 -561.5t-550 -180.5zM829 205q220 0 314 121.5t94 390.5q0 272 -95 393t-313 121q-220 0 -313.5 -122t-93.5 -392q0 -272 94.5 -392t312.5 -120z" />
    <glyph glyph-name="P" unicode="P" horiz-adv-x="1472" 
d="M874 1434q519 0 519 -441q0 -104 -28 -183t-75 -127.5t-115.5 -79.5t-141 -42.5t-159.5 -11.5h-401v-549h-315v1434h716zM831 770q254 0 254 223q0 115 -65 166t-189 51h-358v-440h358z" />
    <glyph glyph-name="Q" unicode="Q" horiz-adv-x="1658" 
d="M1556 717q0 -259 -80 -423.5t-245 -242.5l119 -254l-191 -84l-131 277q-88 -15 -199 -15q-373 0 -550 180.5t-177 561.5q0 382 176.5 560.5t550.5 178.5q375 0 551 -178.5t176 -560.5zM1114 295q123 117 123 422q0 272 -95 393t-313 121q-220 0 -313.5 -122t-93.5 -392
q0 -272 94.5 -392t312.5 -120q51 0 97 6l-109 229l191 80z" />
    <glyph glyph-name="R" unicode="R" horiz-adv-x="1566" 
d="M1307 459l196 -459h-342l-172 428q-38 96 -85 131t-152 35h-279v-594h-315v1434h731q114 0 204 -22.5t158 -69.5t104 -125.5t36 -184.5q0 -275 -256 -364q59 -27 98 -76t74 -133zM831 1217h-358v-410h358q252 0 252 205t-252 205z" />
    <glyph glyph-name="S" unicode="S" horiz-adv-x="1454" 
d="M715 -25q-636 0 -645 441h323q0 -215 332 -215q326 0 326 219q0 180 -248 198l-207 21q-54 6 -99.5 14t-97.5 23t-93 35t-80 51t-65 70t-41.5 93t-15.5 119q0 412 625 412q606 0 614 -391h-319q0 95 -75.5 137.5t-219.5 42.5q-305 0 -305 -188q0 -49 20 -83.5t57.5 -53
t74.5 -27.5t88 -14l223 -23q79 -9 144.5 -26t131 -49.5t110 -78t72 -115t27.5 -157.5q0 -234 -172 -344.5t-485 -110.5z" />
    <glyph glyph-name="T" unicode="T" horiz-adv-x="1497" 
d="M1444 1434v-224h-537v-1210h-315v1210h-539v224h1391z" />
    <glyph glyph-name="U" unicode="U" horiz-adv-x="1638" 
d="M825 -25q-366 0 -528 163t-162 505v791h318v-791q0 -235 88 -337.5t284 -102.5q198 0 284.5 108t86.5 332v791h315v-793q0 -182 -44.5 -311t-133.5 -207t-213.5 -113t-294.5 -35z" />
    <glyph glyph-name="V" unicode="V" horiz-adv-x="1642" 
d="M1235 1434h350l-586 -1434h-362l-580 1434h351l411 -1151z" />
    <glyph glyph-name="W" unicode="W" horiz-adv-x="2367" 
d="M1980 1434h330l-469 -1434h-325l-332 1147l-334 -1147h-324l-469 1434h330l311 -1139l328 1139h315l328 -1139z" />
    <glyph glyph-name="X" unicode="X" horiz-adv-x="1634" 
d="M1575 0h-379l-379 567l-373 -567h-387l541 735l-506 699h377l352 -551l353 551h380l-516 -699z" />
    <glyph glyph-name="Y" unicode="Y" horiz-adv-x="1626" 
d="M1569 1434l-600 -883v-551h-318v553l-594 881h359l393 -658l403 658h357z" />
    <glyph glyph-name="Z" unicode="Z" horiz-adv-x="1415" 
d="M422 223h928v-223h-1293v223l895 987h-843v224h1210v-224z" />
    <glyph glyph-name="bracketleft" unicode="[" horiz-adv-x="917" 
d="M162 -328v1809h643v-187h-363v-1437h367v-185h-647z" />
    <glyph glyph-name="backslash" unicode="\" horiz-adv-x="919" 
d="M881 -51h-236l-606 1536h235z" />
    <glyph glyph-name="bracketright" unicode="]" horiz-adv-x="917" 
d="M109 -328v185h366v1437h-362v187h643v-1809h-647z" />
    <glyph glyph-name="asciicircum" unicode="^" 
d="M1335 580h-266l-338 641l-336 -641h-266l487 854v2h228v-2z" />
    <glyph glyph-name="underscore" unicode="_" horiz-adv-x="1609" 
d="M236 -307v172h1138v-172h-1138z" />
    <glyph glyph-name="grave" unicode="`" horiz-adv-x="749" 
d="M649 1153h-241l-306 305h332z" />
    <glyph glyph-name="a" unicode="a" horiz-adv-x="1306" 
d="M659 1047q147 0 252 -26t166.5 -76t90 -116.5t28.5 -154.5v-674h-293v156q-129 -181 -424 -181q-198 0 -304.5 87.5t-106.5 244.5q0 80 30 141t83 97t120.5 53.5t149.5 17.5h440v70q0 94 -59.5 138t-180.5 44q-114 0 -178 -38.5t-65 -108.5h-293q1 113 71 187.5
t188.5 106.5t284.5 32zM584 162q130 0 218.5 67t88.5 193v49h-322q-87 0 -139.5 -37t-52.5 -115q0 -82 57.5 -119.5t149.5 -37.5z" />
    <glyph glyph-name="b" unicode="b" horiz-adv-x="1404" 
d="M842 1047q256 0 372.5 -136t116.5 -395q0 -266 -121 -403.5t-383 -137.5q-289 0 -403 175v-150h-291v1434h305v-555q63 83 167.5 125.5t236.5 42.5zM741 172q142 0 213.5 80.5t71.5 257.5q0 173 -71 252.5t-214 79.5q-134 0 -218.5 -71.5t-84.5 -182.5v-166
q0 -108 85 -179t218 -71z" />
    <glyph glyph-name="c" unicode="c" horiz-adv-x="1300" 
d="M680 -25q-315 0 -460.5 135.5t-145.5 403.5q0 266 144.5 399.5t461.5 133.5q270 0 412 -94.5t145 -282.5h-301q-3 180 -256 180q-155 0 -227 -83t-72 -255q0 -175 72.5 -256.5t226.5 -81.5q121 0 187 45t69 133h301q-3 -184 -146.5 -280.5t-410.5 -96.5z" />
    <glyph glyph-name="d" unicode="d" horiz-adv-x="1400" 
d="M967 1434h305v-1434h-293v154q-63 -89 -171 -134t-247 -45q-252 0 -369.5 136.5t-117.5 398.5q0 537 504 537q269 0 389 -152v539zM662 176q134 0 219.5 71.5t85.5 182.5v166q0 108 -85 179t-218 71q-143 0 -214 -80.5t-71 -255.5t70 -254.5t213 -79.5z" />
    <glyph glyph-name="e" unicode="e" horiz-adv-x="1314" 
d="M381 451q11 -147 83 -216t216 -69q115 0 180 40.5t70 112.5h303q-6 -161 -152 -252.5t-407 -91.5q-160 0 -276 36t-187 106.5t-104 167.5t-33 227q0 263 144.5 399t455.5 136q299 0 438 -134t139 -393q0 -29 -4 -69h-866zM674 860q-134 0 -204 -62.5t-87 -199.5h563
q-13 137 -80 199.5t-192 62.5z" />
    <glyph glyph-name="f" unicode="f" horiz-adv-x="886" 
d="M733 1266q-99 0 -140.5 -39.5t-41.5 -124.5v-78h262v-197h-262v-827h-305v827h-193v197h193v70q0 103 30.5 175t89 112t132 57.5t170.5 17.5q113 0 184 -10v-189q-61 9 -119 9z" />
    <glyph glyph-name="g" unicode="g" horiz-adv-x="1384" 
d="M977 1024h289v-1012q0 -213 -141 -317.5t-439 -104.5q-539 0 -547 336h295q1 -73 71 -111t193 -38q134 0 199.5 52t65.5 167v197q-125 -154 -404 -154q-249 0 -367 127.5t-118 359.5q0 521 499 521q285 0 404 -173v150zM657 236q141 0 223.5 66t82.5 179v117
q0 112 -83 179t-223 67q-137 0 -207.5 -75.5t-70.5 -240.5q0 -292 278 -292z" />
    <glyph glyph-name="h" unicode="h" horiz-adv-x="1382" 
d="M842 1047q119 0 203 -29.5t133 -86.5t70.5 -131.5t21.5 -174.5v-625h-305v598q0 127 -59.5 183.5t-178.5 56.5q-56 0 -107 -16.5t-92 -48t-65.5 -82t-24.5 -113.5v-578h-305v1434h305v-562q125 175 404 175z" />
    <glyph glyph-name="i" unicode="i" horiz-adv-x="552" 
d="M123 1139v247h307v-247h-307zM125 0v1024h305v-1024h-305z" />
    <glyph glyph-name="j" unicode="j" horiz-adv-x="557" 
d="M127 1139v247h307v-247h-307zM-131 -410v201q125 0 186 47q74 51 74 156v1030h305v-1022q0 -243 -170 -338q-115 -70 -395 -74z" />
    <glyph glyph-name="k" unicode="k" horiz-adv-x="1312" 
d="M918 0l-328 481l-152 -125v-356h-305v1434h305v-789l420 379h395l-475 -387l504 -637h-364z" />
    <glyph glyph-name="l" unicode="l" horiz-adv-x="567" 
d="M131 0v1434h305v-1434h-305z" />
    <glyph glyph-name="m" unicode="m" horiz-adv-x="2134" 
d="M1610 1047q117 0 200.5 -34.5t128 -96.5t63.5 -132.5t19 -158.5v-625h-305v598q0 120 -55.5 180t-159.5 60q-117 0 -196.5 -66t-79.5 -188v-584h-305v598q0 120 -55.5 180t-159.5 60q-115 0 -197 -69t-82 -191v-578h-303v1024h289v-168q120 191 403 191q277 0 369 -203
q62 100 173 151.5t253 51.5z" />
    <glyph glyph-name="n" unicode="n" horiz-adv-x="1372" 
d="M836 1047q228 0 326 -109.5t98 -312.5v-625h-306v598q0 127 -59.5 183.5t-177.5 56.5q-119 0 -205 -68.5t-86 -191.5v-578h-303v1024h291v-162q126 185 422 185z" />
    <glyph glyph-name="o" unicode="o" horiz-adv-x="1359" 
d="M680 -25q-316 0 -461 135t-145 404q0 266 145 399.5t461 133.5q318 0 462 -134t144 -399q0 -268 -145.5 -403.5t-460.5 -135.5zM680 168q157 0 229 84t72 260q0 179 -72 261.5t-229 82.5q-158 0 -229.5 -83.5t-71.5 -260.5q0 -178 73 -261t228 -83z" />
    <glyph glyph-name="p" unicode="p" horiz-adv-x="1404" 
d="M846 1047q253 0 369 -136t116 -393q0 -269 -120.5 -406t-385.5 -137q-269 0 -387 144v-529h-305v1434h291v-162q63 92 172 138.5t250 46.5zM739 172q144 0 215.5 80.5t71.5 257.5q0 173 -71 252.5t-214 79.5q-133 0 -218 -71.5t-85 -182.5v-168q0 -110 84.5 -179
t216.5 -69z" />
    <glyph glyph-name="q" unicode="q" horiz-adv-x="1400" 
d="M979 1024h293v-1434h-305v545q-121 -160 -404 -160q-254 0 -371.5 136.5t-117.5 396.5q0 539 501 539q285 0 404 -168v145zM662 174q136 0 220.5 70.5t84.5 187.5v162q0 108 -85.5 179t-219.5 71q-141 0 -212 -79.5t-71 -254.5t70.5 -255.5t212.5 -80.5z" />
    <glyph glyph-name="r" unicode="r" horiz-adv-x="903" 
d="M778 1047q21 0 84 -7v-231q-66 12 -117 12q-61 0 -117 -18.5t-101.5 -54t-73 -94t-27.5 -132.5v-522h-303v1024h291v-180q59 100 154 151.5t210 51.5z" />
    <glyph glyph-name="s" unicode="s" horiz-adv-x="1228" 
d="M614 -25q-288 0 -415.5 84t-132.5 246h292q0 -78 69.5 -116.5t195.5 -38.5q245 0 245 143q0 113 -190 129l-172 12q-90 7 -159 24.5t-129 50.5t-92 90t-32 136q0 165 132.5 238.5t391.5 73.5q265 0 387.5 -75.5t122.5 -223.5h-282q0 133 -234 133q-108 0 -168.5 -31
t-60.5 -94q0 -106 176 -119l191 -14q66 -6 119.5 -16.5t110 -33.5t94.5 -56t62.5 -87t24.5 -123q0 -174 -137 -253t-410 -79z" />
    <glyph glyph-name="t" unicode="t" horiz-adv-x="909" 
d="M831 827h-270v-481q0 -88 38 -126t132 -38q59 0 98 4v-196q-83 -13 -172 -13q-77 0 -134.5 9t-110 33.5t-85.5 65.5t-52 107.5t-19 157.5v477h-205v197h205v289h305v-289h270v-197z" />
    <glyph glyph-name="u" unicode="u" horiz-adv-x="1355" 
d="M932 1024h303v-1024h-291v160q-60 -91 -163 -138t-240 -47q-230 0 -331 107.5t-101 318.5v623h305v-600q0 -72 17 -121.5t50 -76t72.5 -37.5t91.5 -11q53 0 102.5 15.5t91.5 45.5t67.5 80.5t25.5 114.5v590z" />
    <glyph glyph-name="v" unicode="v" horiz-adv-x="1329" 
d="M977 1024h317l-444 -1024h-369l-446 1024h317l314 -803z" />
    <glyph glyph-name="w" unicode="w" horiz-adv-x="2039" 
d="M1675 1024h316l-389 -1024h-334l-252 782l-256 -782h-334l-377 1024h313l252 -791l250 791h303l248 -797z" />
    <glyph glyph-name="x" unicode="x" horiz-adv-x="1286" 
d="M1251 0h-350l-262 393l-264 -393h-340l403 522l-377 502h336l244 -389l250 389h332l-373 -502z" />
    <glyph glyph-name="y" unicode="y" horiz-adv-x="1339" 
d="M985 1024h320l-650 -1434h-278l180 410h-59l-463 1024h319l310 -778z" />
    <glyph glyph-name="z" unicode="z" horiz-adv-x="1198" 
d="M432 201h703v-201h-1082v201l699 622h-662v201h1024v-201z" />
    <glyph glyph-name="braceleft" unicode="{" horiz-adv-x="964" 
d="M856 -324q-198 0 -324 50q-108 41 -159 120.5t-51 202.5v281q0 69 -43.5 112t-112.5 43h-51v187h51q69 0 112.5 43t43.5 112v281q0 234 192 315q132 60 342 60v-180q-122 -4 -174 -33q-88 -52 -88 -172v-273q0 -81 -45.5 -147t-122.5 -98q77 -34 122.5 -100.5
t45.5 -147.5v-273q0 -122 90 -170q58 -32 172 -32v-181z" />
    <glyph glyph-name="bar" unicode="|" horiz-adv-x="755" 
d="M254 -346v1884h248v-1884h-248z" />
    <glyph glyph-name="braceright" unicode="}" horiz-adv-x="964" 
d="M111 -324v181q114 0 172 32q90 50 90 170v273q0 82 45 149t123 99q-78 32 -123 97.5t-45 147.5v273q0 122 -90 172q-52 29 -172 33v180q208 0 340 -60q192 -82 192 -315v-281q0 -69 44 -112t114 -43h51v-187h-51q-70 0 -114 -43t-44 -112v-281q0 -122 -51 -201.5
t-160 -121.5q-126 -50 -321 -50z" />
    <glyph glyph-name="asciitilde" unicode="~" 
d="M119 356q0 161 77 246.5t222 85.5q72 0 162 -22l358 -88q66 -17 109 -17q73 0 114 35t43 98h142q0 -160 -75 -244.5t-216 -84.5q-70 0 -156 22l-356 88q-70 17 -115 17q-77 0 -121 -36t-45 -100h-143z" />
    <glyph glyph-name="uni00A0" unicode="&#xa0;" horiz-adv-x="591" 
 />
    <glyph glyph-name="exclamdown" unicode="&#xa1;" horiz-adv-x="671" 
d="M188 1024h295v-256h-295v256zM211 588h246l37 -998h-316z" />
    <glyph glyph-name="cent" unicode="&#xa2;" horiz-adv-x="1310" 
d="M676 176q250 0 256 176h301q-3 -162 -116 -256t-326 -114v-199h-234v201q-250 24 -366.5 157t-116.5 373q0 239 116 370.5t367 155.5v201h234v-199q436 -41 442 -372h-301q-6 178 -256 178q-155 0 -227 -82t-72 -254q0 -173 72.5 -254.5t226.5 -81.5z" />
    <glyph glyph-name="sterling" unicode="&#xa3;" horiz-adv-x="1798" 
d="M727 209h883v-209h-1424v209h224v383h-224v199h224v116q0 284 142.5 416.5t461.5 132.5q294 0 436.5 -113.5t144.5 -347.5h-315q0 128 -66.5 185t-201.5 57q-142 0 -213.5 -62.5t-71.5 -209.5v-174h731v-199h-731v-383z" />
    <glyph glyph-name="currency" unicode="&#xa4;" 
d="M1225 522q0 -132 -86 -241l116 -117l-133 -127l-125 125q-119 -64 -264 -64q-139 0 -264 64l-125 -125l-133 127l119 117q-86 106 -86 241q0 133 82 238l-117 117l133 127l123 -123q118 67 268 67q149 0 271 -67l122 123l131 -127l-114 -117q82 -109 82 -238zM733 285
q126 0 207.5 69t81.5 170q0 98 -81.5 166t-207.5 68t-207.5 -68t-81.5 -166q0 -101 81.5 -170t207.5 -69z" />
    <glyph glyph-name="yen" unicode="&#xa5;" horiz-adv-x="1763" 
d="M1632 1434l-375 -555h191v-187h-318l-92 -137v-51h410v-187h-410v-317h-319v317h-410v187h410v53l-90 135h-320v187h195l-373 555h358l390 -648l397 648h356z" />
    <glyph glyph-name="brokenbar" unicode="&#xa6;" horiz-adv-x="755" 
d="M254 760v778h248v-778h-248zM254 -346v778h248v-778h-248z" />
    <glyph glyph-name="section" unicode="&#xa7;" horiz-adv-x="1562" 
d="M1376 555q0 -169 -112 -264q84 -91 84 -232q0 -207 -154.5 -306t-435.5 -99q-279 0 -432.5 95.5t-157.5 293.5h283q0 -195 309 -195q305 0 305 197q0 161 -221 180l-197 19q-42 4 -76.5 8.5t-82 16t-84.5 27t-76 42.5t-64.5 61t-42 83.5t-16.5 109.5q0 172 129 256
q-98 85 -98 239q0 369 559 369q558 0 561 -348h-281q0 164 -272 164q-285 0 -285 -174q0 -152 217 -170l209 -19q432 -38 432 -354zM705 444l221 -20q53 -6 116 -18q54 48 54 129q0 157 -219 178l-211 20q-46 3 -105 15q-74 -46 -74 -138q0 -76 58 -117t160 -49z" />
    <glyph glyph-name="dieresis" unicode="&#xa8;" horiz-adv-x="989" 
d="M102 1145v223h271v-223h-271zM616 1145v223h271v-223h-271z" />
    <glyph glyph-name="copyright" unicode="&#xa9;" horiz-adv-x="2131" 
d="M1065 -27q-417 0 -656 196t-239 548t239 547.5t656 195.5q419 0 658 -196.5t239 -546.5q0 -351 -240.5 -547.5t-656.5 -196.5zM1065 98q349 0 549.5 164t200.5 455q0 292 -200.5 455t-549.5 163q-350 0 -549 -163t-199 -455t200 -455.5t548 -163.5zM1065 311
q-222 0 -327 102t-105 304t105.5 303.5t330.5 101.5q189 0 290.5 -71.5t102.5 -210.5h-190q-3 139 -203 139q-129 0 -185.5 -63t-56.5 -199t57.5 -199t182.5 -63q199 0 205 137h188q-1 -137 -103.5 -209t-291.5 -72z" />
    <glyph glyph-name="ordfeminine" unicode="&#xaa;" horiz-adv-x="927" 
d="M471 1456q197 0 283 -67.5t86 -192.5v-465h-203v109q-85 -121 -291 -121q-137 0 -211 60t-74 165q0 109 74 162t191 53h303v45q0 64 -40.5 93.5t-123.5 29.5q-80 0 -125 -25.5t-45 -72.5h-201q0 118 100 172.5t277 54.5zM418 846q90 0 150.5 45.5t60.5 132.5v33h-221
q-61 0 -97.5 -25.5t-36.5 -79.5q0 -106 144 -106z" />
    <glyph glyph-name="guillemotleft" unicode="&#xab;" horiz-adv-x="1468" 
d="M729 776l-450 -262l450 -264v-223l-614 366v240l614 366v-223zM1335 999v-223l-450 -262l450 -264v-223l-614 366v240z" />
    <glyph glyph-name="logicalnot" unicode="&#xac;" 
d="M1276 852v-569h-234v346h-854v223h1088z" />
    <glyph glyph-name="uni00AD" unicode="&#xad;" horiz-adv-x="1107" 
d="M172 485v209h766v-209h-766z" />
    <glyph glyph-name="registered" unicode="&#xae;" horiz-adv-x="1542" 
d="M776 1456q275 0 432.5 -132t157.5 -366q0 -235 -157.5 -367t-432.5 -132q-279 0 -437.5 132t-158.5 367t158.5 366.5t437.5 131.5zM776 547q229 0 357.5 109t128.5 302t-128 301.5t-358 108.5q-231 0 -361 -109.5t-130 -300.5q0 -192 130 -301.5t361 -109.5zM911 944
q42 -16 66 -78l74 -170h-129l-64 160q-16 36 -32.5 49t-55.5 13h-104v-222h-121v531h276q86 0 136.5 -35.5t50.5 -110.5q0 -102 -97 -137zM801 1147h-135v-150h135q92 0 92 76q0 74 -92 74z" />
    <glyph glyph-name="macron" unicode="&#xaf;" horiz-adv-x="866" 
d="M102 1161v172h662v-172h-662z" />
    <glyph glyph-name="degree" unicode="&#xb0;" horiz-adv-x="1140" 
d="M569 889q-179 0 -265.5 67t-86.5 218q0 149 86.5 215.5t265.5 66.5q181 0 268 -66.5t87 -215.5q0 -151 -87 -218t-268 -67zM569 1016q92 0 136.5 37t44.5 118q0 86 -45 122t-134 36q-91 0 -135.5 -37t-44.5 -116q0 -86 44.5 -123t133.5 -37z" />
    <glyph glyph-name="plusminus" unicode="&#xb1;" 
d="M850 872h412v-223h-412v-297h-236v297h-413v223h413v295h236v-295zM205 0v223h1055v-223h-1055z" />
    <glyph glyph-name="uni00B2" unicode="&#xb2;" horiz-adv-x="833" 
d="M258 907v-57h522v-150h-729v218q0 63 18.5 108.5t56 73.5t83.5 44.5t110 26.5l130 21q73 13 103 38t30 68q0 111 -154 111q-82 0 -119 -29.5t-37 -91.5h-202q0 141 91 200.5t269 59.5q176 0 264 -60t88 -192q0 -114 -66.5 -171.5t-205.5 -80.5l-119 -20
q-70 -13 -101.5 -41t-31.5 -76z" />
    <glyph glyph-name="uni00B3" unicode="&#xb3;" horiz-adv-x="849" 
d="M678 1145q121 -53 121 -205q0 -131 -89.5 -191.5t-285.5 -60.5q-107 0 -181 17.5t-115 52t-59 78.5t-18 104h195q0 -60 41 -86.5t135 -26.5q95 0 135.5 30t40.5 93q0 64 -39.5 89.5t-136.5 25.5h-94v145h94q87 0 124.5 21.5t37.5 77.5q0 52 -38.5 76t-123.5 24
q-87 0 -123.5 -22.5t-38.5 -73.5h-199q1 56 18.5 97.5t58 73.5t112 48t174.5 16q185 0 272.5 -56t87.5 -171q0 -125 -106 -176z" />
    <glyph glyph-name="acute" unicode="&#xb4;" horiz-adv-x="751" 
d="M102 1153l215 305h332l-305 -305h-242z" />
    <glyph glyph-name="paragraph" unicode="&#xb6;" horiz-adv-x="1701" 
d="M1538 1434v-183h-102v-1599h-252v1599h-226v-1599h-253v971h-130q-204 0 -317 101.5t-113 301.5q0 204 114.5 306t315.5 102h963z" />
    <glyph glyph-name="periodcentered" unicode="&#xb7;" horiz-adv-x="669" 
d="M164 453v325h342v-325h-342z" />
    <glyph glyph-name="cedilla" unicode="&#xb8;" horiz-adv-x="790" 
d="M434 -78q42 0 73 -2.5t67.5 -12.5t59.5 -27t38.5 -48.5t15.5 -75.5q0 -98 -76.5 -144t-228.5 -46q-154 0 -217.5 47.5t-63.5 140.5h170q0 -61 117 -61q125 0 125 65q0 62 -111 62h-141l84 196h141z" />
    <glyph glyph-name="uni00B9" unicode="&#xb9;" horiz-adv-x="616" 
d="M494 1538v-838h-207v664l-236 -119v146l221 147h222z" />
    <glyph glyph-name="ordmasculine" unicode="&#xba;" horiz-adv-x="954" 
d="M477 719q-218 0 -318 92t-100 276t100 276.5t318 92.5q219 0 318.5 -92.5t99.5 -276.5q0 -183 -100.5 -275.5t-317.5 -92.5zM477 852q107 0 157 57.5t50 177.5q0 123 -50 179.5t-157 56.5q-108 0 -158.5 -57t-50.5 -179t50.5 -178.5t158.5 -56.5z" />
    <glyph glyph-name="guillemotright" unicode="&#xbb;" horiz-adv-x="1468" 
d="M750 633v-240l-617 -366v223l451 264l-451 262v223zM739 999l615 -366v-240l-615 -366v223l451 264l-451 262v223z" />
    <glyph glyph-name="onequarter" unicode="&#xbc;" horiz-adv-x="1851" 
d="M1249 1468h191l-1016 -1505h-191zM287 598v664l-236 -119v145l221 148h222v-838h-207zM1800 338v-145h-145v-193h-197v193h-473v145l432 500h238v-500h145zM1182 338h276v336z" />
    <glyph glyph-name="onehalf" unicode="&#xbd;" horiz-adv-x="1839" 
d="M1249 1468h191l-1016 -1505h-191zM287 598v664l-236 -119v145l221 148h222v-838h-207zM1264 207v-57h522v-150h-729v217q0 121 68 177t200 77l129 21q73 13 102 38t29 68q0 57 -36.5 84t-114.5 27q-82 0 -119 -29.5t-37 -91.5h-203q0 141 91 200.5t270 59.5
q176 0 264 -60t88 -192q0 -114 -66.5 -171.5t-205.5 -80.5l-119 -20q-70 -13 -101.5 -41t-31.5 -76z" />
    <glyph glyph-name="threequarters" unicode="&#xbe;" horiz-adv-x="2031" 
d="M1430 1468h190l-1016 -1505h-190zM799 838q0 -131 -89.5 -191.5t-285.5 -60.5q-107 0 -181 17.5t-115 52t-59 78.5t-18 104h195q0 -60 41 -86.5t135 -26.5q95 0 135.5 30t40.5 93q0 64 -39.5 89.5t-136.5 25.5h-94v145h94q87 0 124.5 21t37.5 77q0 52 -38.5 76.5
t-123.5 24.5q-87 0 -123.5 -23t-38.5 -74h-199q1 56 18.5 97.5t58 73.5t112 48.5t174.5 16.5q185 0 272.5 -56t87.5 -171q0 -126 -106 -177q121 -53 121 -204zM1980 338v-145h-145v-193h-197v193h-473v145l432 500h238v-500h145zM1362 338h276v336z" />
    <glyph glyph-name="questiondown" unicode="&#xbf;" horiz-adv-x="1462" 
d="M969 1024v-256h-303v256h303zM946 598l6 -158q4 -86 -46 -138t-154 -79l-101 -26q-114 -34 -160.5 -74t-46.5 -121q0 -110 77.5 -157.5t230.5 -47.5q140 0 217.5 49t77.5 148h303q-1 -212 -155.5 -316t-438.5 -104q-304 0 -462.5 106.5t-158.5 321.5q0 268 295 354
l150 39q55 17 80.5 46.5t27.5 76.5l2 80h256z" />
    <glyph glyph-name="Agrave" unicode="&#xc0;" horiz-adv-x="1683" 
d="M969 1559h-242l-305 307h332zM1290 0l-114 301h-670l-115 -301h-332l617 1434h332l616 -1434h-334zM586 512h510l-254 676z" />
    <glyph glyph-name="Aacute" unicode="&#xc1;" horiz-adv-x="1683" 
d="M1237 1868l-305 -305h-242l215 305h332zM1290 0l-114 301h-670l-115 -301h-332l617 1434h332l616 -1434h-334zM586 512h510l-254 676z" />
    <glyph glyph-name="Acircumflex" unicode="&#xc2;" horiz-adv-x="1683" 
d="M840 1737l-162 -176h-258l297 305h246l297 -305h-259zM1290 0l-114 301h-670l-115 -301h-332l617 1434h332l616 -1434h-334zM586 512h510l-254 676z" />
    <glyph glyph-name="Atilde" unicode="&#xc3;" horiz-adv-x="1683" 
d="M668 1640q-54 0 -83.5 -24t-29.5 -68h-154q0 126 63 196.5t177 70.5q62 0 139 -25l117 -39q56 -20 109 -20t81.5 22.5t28.5 63.5h162q0 -122 -65 -191.5t-179 -69.5q-62 0 -139 25l-121 41q-58 18 -106 18zM1290 0l-114 301h-670l-115 -301h-332l617 1434h332l616 -1434
h-334zM586 512h510l-254 676z" />
    <glyph glyph-name="Adieresis" unicode="&#xc4;" horiz-adv-x="1683" 
d="M721 1778v-224h-270v224h270zM1235 1778v-224h-270v224h270zM1290 0l-114 301h-670l-115 -301h-332l617 1434h332l616 -1434h-334zM586 512h510l-254 676z" />
    <glyph glyph-name="Aring" unicode="&#xc5;" horiz-adv-x="1683" 
d="M842 1511q-269 0 -269 211q0 213 267 213q270 0 270 -209q0 -215 -268 -215zM842 1823q-119 0 -119 -99q0 -53 28 -76.5t91 -23.5q121 0 121 98q0 53 -30 77t-91 24zM1290 0l-114 301h-670l-115 -301h-332l617 1434h332l616 -1434h-334zM586 512h510l-254 676z" />
    <glyph glyph-name="AE" unicode="&#xc6;" horiz-adv-x="2297" 
d="M1542 223h676v-223h-928l-76 332h-671l-160 -332h-324l740 1434h1388v-222h-887l91 -366h761v-219h-708zM643 543h524l-151 669h-53z" />
    <glyph glyph-name="Ccedilla" unicode="&#xc7;" horiz-adv-x="1589" 
d="M829 205q358 0 375 262h314q-7 -237 -173 -359t-462 -133l-31 -53q42 0 73 -2.5t67.5 -12.5t59.5 -27t38.5 -48.5t15.5 -75.5q0 -98 -76.5 -144t-228.5 -46q-154 0 -217.5 47.5t-63.5 140.5h170q0 -61 117 -61q125 0 125 65q0 62 -111 62h-141l68 157q-330 19 -488 199
t-158 541q0 381 176.5 560t550.5 179q320 0 501.5 -122t187.5 -369h-314q-6 134 -102.5 200t-270.5 66q-222 0 -316.5 -122.5t-94.5 -391.5q0 -272 94.5 -392t314.5 -120z" />
    <glyph glyph-name="Egrave" unicode="&#xc8;" horiz-adv-x="1427" 
d="M870 1559h-241l-305 307h331zM485 223h865v-223h-1182v1434h1151v-222h-834v-364h801v-219h-801v-406z" />
    <glyph glyph-name="Eacute" unicode="&#xc9;" horiz-adv-x="1427" 
d="M1137 1868l-306 -305h-241l215 305h332zM485 223h865v-223h-1182v1434h1151v-222h-834v-364h801v-219h-801v-406z" />
    <glyph glyph-name="Ecircumflex" unicode="&#xca;" horiz-adv-x="1427" 
d="M741 1737l-161 -176h-258l296 305h246l297 -305h-258zM485 223h865v-223h-1182v1434h1151v-222h-834v-364h801v-219h-801v-406z" />
    <glyph glyph-name="Edieresis" unicode="&#xcb;" horiz-adv-x="1427" 
d="M623 1778v-224h-271v224h271zM1137 1778v-224h-271v224h271zM485 223h865v-223h-1182v1434h1151v-222h-834v-364h801v-219h-801v-406z" />
    <glyph glyph-name="Igrave" unicode="&#xcc;" horiz-adv-x="630" 
d="M444 1559h-241l-305 307h331zM158 0v1434h315v-1434h-315z" />
    <glyph glyph-name="Iacute" unicode="&#xcd;" horiz-adv-x="630" 
d="M166 1563l215 305h332l-305 -305h-242zM158 0v1434h315v-1434h-315z" />
    <glyph glyph-name="Icircumflex" unicode="&#xce;" horiz-adv-x="630" 
d="M438 1866l297 -305h-258l-162 176l-161 -176h-258l297 305h245zM158 0v1434h315v-1434h-315z" />
    <glyph glyph-name="Idieresis" unicode="&#xcf;" horiz-adv-x="630" 
d="M-2 1554v224h244v-224h-244zM389 1554v224h244v-224h-244zM158 0v1434h315v-1434h-315z" />
    <glyph glyph-name="Eth" unicode="&#xd0;" horiz-adv-x="1644" 
d="M877 1434q161 0 280.5 -37t208 -119t133.5 -222t45 -337q0 -199 -45 -339.5t-133.5 -223t-208 -119.5t-280.5 -37h-719v612h-158v215h158v607h719zM854 227q98 0 165 24t114.5 81t69.5 152.5t22 236.5q0 115 -15 198.5t-43.5 138.5t-75 88t-103.5 46.5t-134 13.5h-381
v-379h428v-215h-428v-385h381z" />
    <glyph glyph-name="Ntilde" unicode="&#xd1;" horiz-adv-x="1705" 
d="M682 1640q-54 0 -83.5 -24t-29.5 -68h-153q0 126 62.5 196.5t176.5 70.5q63 0 140 -25l116 -39q56 -20 109 -20t81.5 22.5t28.5 63.5h162q0 -122 -64.5 -191.5t-178.5 -69.5q-63 0 -140 25l-121 41q-58 18 -106 18zM1241 1434h305v-1434h-348l-735 1038v-1038h-305v1434
h344l739 -1053v1053z" />
    <glyph glyph-name="Ograve" unicode="&#xd2;" horiz-adv-x="1658" 
d="M958 1559h-241l-305 307h331zM829 -25q-373 0 -550 180.5t-177 561.5q0 382 176.5 560.5t550.5 178.5q375 0 551 -178.5t176 -560.5q0 -381 -177 -561.5t-550 -180.5zM829 205q220 0 314 121.5t94 390.5q0 272 -95 393t-313 121q-220 0 -313.5 -122t-93.5 -392
q0 -272 94.5 -392t312.5 -120z" />
    <glyph glyph-name="Oacute" unicode="&#xd3;" horiz-adv-x="1658" 
d="M680 1563l215 305h332l-305 -305h-242zM829 -25q-373 0 -550 180.5t-177 561.5q0 382 176.5 560.5t550.5 178.5q375 0 551 -178.5t176 -560.5q0 -381 -177 -561.5t-550 -180.5zM829 205q220 0 314 121.5t94 390.5q0 272 -95 393t-313 121q-220 0 -313.5 -122t-93.5 -392
q0 -272 94.5 -392t312.5 -120z" />
    <glyph glyph-name="Ocircumflex" unicode="&#xd4;" horiz-adv-x="1658" 
d="M829 1737l-161 -176h-258l297 305h245l297 -305h-258zM829 1456q375 0 551 -178.5t176 -560.5q0 -381 -177 -561.5t-550 -180.5t-550 180.5t-177 561.5q0 382 176.5 560.5t550.5 178.5zM829 205q220 0 314 121.5t94 390.5q0 272 -95 393t-313 121q-220 0 -313.5 -122
t-93.5 -392q0 -272 94.5 -392t312.5 -120z" />
    <glyph glyph-name="Otilde" unicode="&#xd5;" horiz-adv-x="1658" 
d="M391 1548q0 126 63 196.5t177 70.5q62 0 139 -25l117 -39q56 -20 108 -20q53 0 82 22.5t29 63.5h162q0 -122 -65 -191.5t-179 -69.5q-62 0 -139 25l-121 41q-58 18 -107 18q-54 0 -83 -24t-29 -68h-154zM829 -25q-373 0 -550 180.5t-177 561.5q0 382 176.5 560.5
t550.5 178.5q375 0 551 -178.5t176 -560.5q0 -381 -177 -561.5t-550 -180.5zM829 205q220 0 314 121.5t94 390.5q0 272 -95 393t-313 121q-220 0 -313.5 -122t-93.5 -392q0 -272 94.5 -392t312.5 -120z" />
    <glyph glyph-name="Odieresis" unicode="&#xd6;" horiz-adv-x="1658" 
d="M440 1554v224h271v-224h-271zM954 1554v224h271v-224h-271zM829 -25q-373 0 -550 180.5t-177 561.5q0 382 176.5 560.5t550.5 178.5q375 0 551 -178.5t176 -560.5q0 -381 -177 -561.5t-550 -180.5zM829 205q220 0 314 121.5t94 390.5q0 272 -95 393t-313 121
q-220 0 -313.5 -122t-93.5 -392q0 -272 94.5 -392t312.5 -120z" />
    <glyph glyph-name="multiply" unicode="&#xd7;" 
d="M1227 221l-158 -158l-336 312l-338 -312l-157 158l329 305l-327 301l159 158l334 -307l332 307l160 -158l-328 -301z" />
    <glyph glyph-name="Oslash" unicode="&#xd8;" horiz-adv-x="1658" 
d="M1352 1305q204 -178 204 -588q0 -381 -177 -561.5t-550 -180.5q-210 0 -364 60l-96 -137h-224l162 231q-205 178 -205 588q0 382 176.5 560.5t550.5 178.5q219 0 365 -57l96 137h223zM422 717q0 -220 59 -338l566 809q-85 43 -218 43q-220 0 -313.5 -122t-93.5 -392z
M829 205q220 0 314 121.5t94 390.5q0 220 -59 338l-566 -807q85 -43 217 -43z" />
    <glyph glyph-name="Ugrave" unicode="&#xd9;" horiz-adv-x="1638" 
d="M952 1559h-241l-305 307h331zM825 -25q-366 0 -528 163t-162 505v791h318v-791q0 -235 88 -337.5t284 -102.5q198 0 284.5 108t86.5 332v791h315v-793q0 -182 -44.5 -311t-133.5 -207t-213.5 -113t-294.5 -35z" />
    <glyph glyph-name="Uacute" unicode="&#xda;" horiz-adv-x="1638" 
d="M672 1563l215 305h332l-306 -305h-241zM825 -25q-366 0 -528 163t-162 505v791h318v-791q0 -235 88 -337.5t284 -102.5q198 0 284.5 108t86.5 332v791h315v-793q0 -182 -44.5 -311t-133.5 -207t-213.5 -113t-294.5 -35z" />
    <glyph glyph-name="Ucircumflex" unicode="&#xdb;" horiz-adv-x="1638" 
d="M823 1737l-161 -176h-259l297 305h246l297 -305h-258zM1196 1434h315v-793q0 -182 -44.5 -311t-133.5 -207t-213.5 -113t-294.5 -35q-366 0 -528 163t-162 505v791h318v-791q0 -235 88 -337.5t284 -102.5q198 0 284.5 108t86.5 332v791z" />
    <glyph glyph-name="Udieresis" unicode="&#xdc;" horiz-adv-x="1638" 
d="M434 1554v224h271v-224h-271zM948 1554v224h271v-224h-271zM825 -25q-366 0 -528 163t-162 505v791h318v-791q0 -235 88 -337.5t284 -102.5q198 0 284.5 108t86.5 332v791h315v-793q0 -182 -44.5 -311t-133.5 -207t-213.5 -113t-294.5 -35z" />
    <glyph glyph-name="Yacute" unicode="&#xdd;" horiz-adv-x="1626" 
d="M1212 1868l-305 -305h-241l215 305h331zM1569 1434l-600 -883v-551h-318v553l-594 881h359l393 -658l403 658h357z" />
    <glyph glyph-name="Thorn" unicode="&#xde;" horiz-adv-x="1472" 
d="M874 1184q519 0 519 -443q0 -444 -519 -444h-401v-297h-315v1434h315v-250h401zM831 520q127 0 190.5 54t63.5 169q0 218 -254 218h-358v-441h358z" />
    <glyph glyph-name="germandbls" unicode="&#xdf;" horiz-adv-x="1402" 
d="M1022 805q293 -73 293 -389q0 -125 -40.5 -212t-121 -136.5t-186.5 -71t-252 -21.5q-81 0 -160 11v190q52 -8 127 -8q182 0 257 64.5t75 199.5q0 54 -12 97t-30.5 70.5t-47 47.5t-54 30.5t-60 16.5t-57.5 7t-53 1h-145v191h125q120 0 180 42t60 144q0 93 -54 140t-180 47
q-64 0 -110.5 -16t-72.5 -40.5t-41 -61t-19.5 -68.5t-4.5 -72v-1008h-305v965q0 37 1 64t6.5 69.5t15.5 73.5t30 70.5t47 68t69 57.5t95 47t125.5 29.5t159.5 11.5q278 0 408.5 -97t130.5 -269q0 -209 -199 -285z" />
    <glyph glyph-name="agrave" unicode="&#xe0;" horiz-adv-x="1306" 
d="M795 1149h-242l-305 307h332zM659 1047q147 0 252 -26t166.5 -76t90 -116.5t28.5 -154.5v-674h-293v156q-129 -181 -424 -181q-198 0 -304.5 87.5t-106.5 244.5q0 80 30 141t83 97t120.5 53.5t149.5 17.5h440v70q0 94 -59.5 138t-180.5 44q-114 0 -178 -38.5t-65 -108.5
h-293q1 113 71 187.5t188.5 106.5t284.5 32zM584 162q130 0 218.5 67t88.5 193v49h-322q-87 0 -139.5 -37t-52.5 -115q0 -82 57.5 -119.5t149.5 -37.5z" />
    <glyph glyph-name="aacute" unicode="&#xe1;" horiz-adv-x="1306" 
d="M1061 1458l-305 -305h-242l215 305h332zM659 1047q147 0 252 -26t166.5 -76t90 -116.5t28.5 -154.5v-674h-293v156q-129 -181 -424 -181q-198 0 -304.5 87.5t-106.5 244.5q0 80 30 141t83 97t120.5 53.5t149.5 17.5h440v70q0 94 -59.5 138t-180.5 44q-114 0 -178 -38.5
t-65 -108.5h-293q1 113 71 187.5t188.5 106.5t284.5 32zM584 162q130 0 218.5 67t88.5 193v49h-322q-87 0 -139.5 -37t-52.5 -115q0 -82 57.5 -119.5t149.5 -37.5z" />
    <glyph glyph-name="acircumflex" unicode="&#xe2;" horiz-adv-x="1306" 
d="M666 1327l-162 -176h-258l297 305h245l297 -305h-258zM659 1047q147 0 252 -26t166.5 -76t90 -116.5t28.5 -154.5v-674h-293v156q-129 -181 -424 -181q-198 0 -304.5 87.5t-106.5 244.5q0 80 30 141t83 97t120.5 53.5t149.5 17.5h440v70q0 94 -59.5 138t-180.5 44
q-114 0 -178 -38.5t-65 -108.5h-293q1 113 71 187.5t188.5 106.5t284.5 32zM584 162q130 0 218.5 67t88.5 193v49h-322q-87 0 -139.5 -37t-52.5 -115q0 -82 57.5 -119.5t149.5 -37.5z" />
    <glyph glyph-name="atilde" unicode="&#xe3;" horiz-adv-x="1306" 
d="M494 1231q-54 0 -83.5 -24t-29.5 -68h-154q0 126 63 196t177 70q62 0 139 -25l117 -39q56 -20 108 -20q53 0 82 22.5t29 63.5h162q0 -121 -65 -190.5t-179 -69.5q-65 0 -139 24l-121 41q-62 19 -106 19zM659 1047q147 0 252 -26t166.5 -76t90 -116.5t28.5 -154.5v-674
h-293v156q-129 -181 -424 -181q-198 0 -304.5 87.5t-106.5 244.5q0 80 30 141t83 97t120.5 53.5t149.5 17.5h440v70q0 94 -59.5 138t-180.5 44q-114 0 -178 -38.5t-65 -108.5h-293q1 113 71 187.5t188.5 106.5t284.5 32zM584 162q130 0 218.5 67t88.5 193v49h-322
q-87 0 -139.5 -37t-52.5 -115q0 -82 57.5 -119.5t149.5 -37.5z" />
    <glyph glyph-name="adieresis" unicode="&#xe4;" horiz-adv-x="1306" 
d="M547 1368v-223h-271v223h271zM1061 1368v-223h-270v223h270zM659 1047q147 0 252 -26t166.5 -76t90 -116.5t28.5 -154.5v-674h-293v156q-129 -181 -424 -181q-198 0 -304.5 87.5t-106.5 244.5q0 80 30 141t83 97t120.5 53.5t149.5 17.5h440v70q0 94 -59.5 138t-180.5 44
q-114 0 -178 -38.5t-65 -108.5h-293q1 113 71 187.5t188.5 106.5t284.5 32zM584 162q130 0 218.5 67t88.5 193v49h-322q-87 0 -139.5 -37t-52.5 -115q0 -82 57.5 -119.5t149.5 -37.5z" />
    <glyph glyph-name="aring" unicode="&#xe5;" horiz-adv-x="1306" 
d="M666 1102q-269 0 -269 211q0 213 267 213q270 0 270 -209q0 -215 -268 -215zM666 1413q-119 0 -119 -98q0 -53 28 -77t91 -24q120 0 120 99q0 53 -29.5 76.5t-90.5 23.5zM659 1047q147 0 252 -26t166.5 -76t90 -116.5t28.5 -154.5v-674h-293v156q-129 -181 -424 -181
q-198 0 -304.5 87.5t-106.5 244.5q0 80 30 141t83 97t120.5 53.5t149.5 17.5h440v70q0 94 -59.5 138t-180.5 44q-114 0 -178 -38.5t-65 -108.5h-293q1 113 71 187.5t188.5 106.5t284.5 32zM584 162q130 0 218.5 67t88.5 193v49h-322q-87 0 -139.5 -37t-52.5 -115
q0 -82 57.5 -119.5t149.5 -37.5z" />
    <glyph glyph-name="ae" unicode="&#xe6;" horiz-adv-x="2134" 
d="M1200 461q8 -153 80 -225t219 -72q116 0 181.5 41t68.5 114h303q-5 -162 -150 -252t-405 -90q-356 0 -491 193q-67 -92 -190.5 -141t-287.5 -49q-225 0 -342.5 87t-117.5 240q0 149 107 225t274 76h446v78q0 90 -59.5 132t-180.5 42q-118 0 -182.5 -36.5t-66.5 -104.5
h-293q1 85 40 149t108.5 102.5t159 57.5t197.5 19q295 0 408 -168q139 168 473 168q572 0 572 -521q0 -21 -1.5 -39t-1.5 -26h-868zM1493 860q-132 0 -202 -61.5t-87 -194.5h563q-13 133 -80.5 194.5t-193.5 61.5zM588 162q83 0 150.5 27t111.5 87.5t45 145.5v39h-328
q-86 0 -139 -36.5t-53 -107.5q0 -155 213 -155z" />
    <glyph glyph-name="ccedilla" unicode="&#xe7;" horiz-adv-x="1300" 
d="M680 174q121 0 187 45t69 133h301q-3 -174 -133.5 -271t-372.5 -106l-33 -55q42 0 73 -2.5t67.5 -12.5t59.5 -27t38.5 -48.5t15.5 -75.5q0 -98 -76.5 -144t-228.5 -46q-154 0 -217 47.5t-63 140.5h170q0 -61 116 -61q125 0 125 65q0 62 -110 62h-142l68 159
q-270 18 -395 153t-125 384q0 266 144.5 399.5t461.5 133.5q270 0 412 -94.5t145 -282.5h-301q-3 180 -256 180q-155 0 -227 -83t-72 -255q0 -175 72.5 -256.5t226.5 -81.5z" />
    <glyph glyph-name="egrave" unicode="&#xe8;" horiz-adv-x="1314" 
d="M803 1149h-242l-305 307h332zM381 451q11 -147 83 -216t216 -69q115 0 180 40.5t70 112.5h303q-6 -161 -152 -252.5t-407 -91.5q-160 0 -276 36t-187 106.5t-104 167.5t-33 227q0 263 144.5 399t455.5 136q299 0 438 -134t139 -393q0 -29 -4 -69h-866zM674 860
q-134 0 -204 -62.5t-87 -199.5h563q-13 137 -80 199.5t-192 62.5z" />
    <glyph glyph-name="eacute" unicode="&#xe9;" horiz-adv-x="1314" 
d="M1071 1458l-305 -305h-242l215 305h332zM381 451q11 -147 83 -216t216 -69q115 0 180 40.5t70 112.5h303q-6 -161 -152 -252.5t-407 -91.5q-160 0 -276 36t-187 106.5t-104 167.5t-33 227q0 263 144.5 399t455.5 136q299 0 438 -134t139 -393q0 -29 -4 -69h-866zM674 860
q-134 0 -204 -62.5t-87 -199.5h563q-13 137 -80 199.5t-192 62.5z" />
    <glyph glyph-name="ecircumflex" unicode="&#xea;" horiz-adv-x="1314" 
d="M674 1327l-162 -176h-258l297 305h246l297 -305h-258zM381 451q11 -147 83 -216t216 -69q115 0 180 40.5t70 112.5h303q-6 -161 -152 -252.5t-407 -91.5q-160 0 -276 36t-187 106.5t-104 167.5t-33 227q0 263 144.5 399t455.5 136q299 0 438 -134t139 -393q0 -29 -4 -69
h-866zM674 860q-134 0 -204 -62.5t-87 -199.5h563q-13 137 -80 199.5t-192 62.5z" />
    <glyph glyph-name="edieresis" unicode="&#xeb;" horiz-adv-x="1314" 
d="M555 1368v-223h-270v223h270zM1069 1368v-223h-270v223h270zM381 451q11 -147 83 -216t216 -69q115 0 180 40.5t70 112.5h303q-6 -161 -152 -252.5t-407 -91.5q-160 0 -276 36t-187 106.5t-104 167.5t-33 227q0 263 144.5 399t455.5 136q299 0 438 -134t139 -393
q0 -29 -4 -69h-866zM674 860q-134 0 -204 -62.5t-87 -199.5h563q-13 137 -80 199.5t-192 62.5z" />
    <glyph glyph-name="igrave" unicode="&#xec;" horiz-adv-x="552" 
d="M408 1149h-242l-305 307h332zM125 0v1024h305v-1024h-305z" />
    <glyph glyph-name="iacute" unicode="&#xed;" horiz-adv-x="552" 
d="M127 1153l215 305h332l-305 -305h-242zM125 0v1024h305v-1024h-305z" />
    <glyph glyph-name="icircumflex" unicode="&#xee;" horiz-adv-x="552" 
d="M401 1456l297 -305h-258l-161 176l-162 -176h-258l297 305h245zM125 0v1024h305v-1024h-305z" />
    <glyph glyph-name="idieresis" unicode="&#xef;" horiz-adv-x="552" 
d="M-37 1145v223h244v-223h-244zM346 1145v223h244v-223h-244zM125 0v1024h305v-1024h-305z" />
    <glyph glyph-name="eth" unicode="&#xf0;" horiz-adv-x="1353" 
d="M969 1311q307 -224 307 -674q0 -118 -17.5 -212.5t-61 -179.5t-114.5 -141t-182 -89t-258 -33q-575 0 -575 483q0 101 28.5 183t87.5 146.5t160 100t238 35.5q253 0 387 -127q-29 234 -215 377l-275 -166l-73 106l223 135q-186 86 -430 86l104 154q313 0 541 -111
l190 117l74 -106zM659 188q156 0 231.5 69.5t82.5 244.5q-9 112 -91 171.5t-227 59.5q-284 0 -284 -264q0 -147 71.5 -214t216.5 -67z" />
    <glyph glyph-name="ntilde" unicode="&#xf1;" horiz-adv-x="1372" 
d="M520 1231q-54 0 -83 -24t-29 -68h-154q0 126 63 196t177 70q62 0 139 -25l117 -39q56 -20 108 -20q53 0 82 22.5t29 63.5h161q0 -122 -64.5 -191t-178.5 -69q-66 0 -139 24l-121 41q-62 19 -107 19zM836 1047q228 0 326 -109.5t98 -312.5v-625h-306v598
q0 127 -59.5 183.5t-177.5 56.5q-119 0 -205 -68.5t-86 -191.5v-578h-303v1024h291v-162q126 185 422 185z" />
    <glyph glyph-name="ograve" unicode="&#xf2;" horiz-adv-x="1359" 
d="M811 1155h-242l-305 307h332zM680 -25q-316 0 -461 135t-145 404q0 266 145 399.5t461 133.5q318 0 462 -134t144 -399q0 -268 -145.5 -403.5t-460.5 -135.5zM680 168q157 0 229 84t72 260q0 179 -72 261.5t-229 82.5q-158 0 -229.5 -83.5t-71.5 -260.5q0 -178 73 -261
t228 -83z" />
    <glyph glyph-name="oacute" unicode="&#xf3;" horiz-adv-x="1359" 
d="M530 1159l215 305h332l-305 -305h-242zM680 -25q-316 0 -461 135t-145 404q0 266 145 399.5t461 133.5q318 0 462 -134t144 -399q0 -268 -145.5 -403.5t-460.5 -135.5zM680 168q157 0 229 84t72 260q0 179 -72 261.5t-229 82.5q-158 0 -229.5 -83.5t-71.5 -260.5
q0 -178 73 -261t228 -83z" />
    <glyph glyph-name="ocircumflex" unicode="&#xf4;" horiz-adv-x="1359" 
d="M682 1333l-162 -176h-258l297 305h246l297 -305h-258zM680 1047q318 0 462 -134t144 -399q0 -268 -145.5 -403.5t-460.5 -135.5q-316 0 -461 135t-145 404q0 266 145 399.5t461 133.5zM680 168q157 0 229 84t72 260q0 179 -72 261.5t-229 82.5q-158 0 -229.5 -83.5
t-71.5 -260.5q0 -178 73 -261t228 -83z" />
    <glyph glyph-name="otilde" unicode="&#xf5;" horiz-adv-x="1359" 
d="M244 1145q0 126 62.5 196t176.5 70q63 0 140 -25l116 -38q59 -21 109 -21q53 0 81.5 22.5t28.5 63.5h162q0 -122 -64.5 -191t-178.5 -69q-63 0 -140 25l-121 41q-59 18 -106 18q-54 0 -83.5 -24t-29.5 -68h-153zM680 -25q-316 0 -461 135t-145 404q0 266 145 399.5
t461 133.5q318 0 462 -134t144 -399q0 -268 -145.5 -403.5t-460.5 -135.5zM680 168q157 0 229 84t72 260q0 179 -72 261.5t-229 82.5q-158 0 -229.5 -83.5t-71.5 -260.5q0 -178 73 -261t228 -83z" />
    <glyph glyph-name="odieresis" unicode="&#xf6;" horiz-adv-x="1359" 
d="M293 1151v223h270v-223h-270zM807 1151v223h270v-223h-270zM680 -25q-316 0 -461 135t-145 404q0 266 145 399.5t461 133.5q318 0 462 -134t144 -399q0 -268 -145.5 -403.5t-460.5 -135.5zM680 168q157 0 229 84t72 260q0 179 -72 261.5t-229 82.5q-158 0 -229.5 -83.5
t-71.5 -260.5q0 -178 73 -261t228 -83z" />
    <glyph glyph-name="divide" unicode="&#xf7;" 
d="M608 799v260h252v-260h-252zM150 410v223h1165v-223h-1165zM608 -25v261h252v-261h-252z" />
    <glyph glyph-name="oslash" unicode="&#xf8;" horiz-adv-x="1359" 
d="M1130 924q156 -129 156 -410q0 -268 -145.5 -403.5t-460.5 -135.5q-188 0 -318 50l-67 -80h-205l135 159q-151 131 -151 410q0 266 145 399.5t461 133.5q178 0 311 -46l74 86h205zM379 512q0 -114 31 -193l432 506q-67 31 -162 31q-158 0 -229.5 -83.5t-71.5 -260.5z
M680 168q157 0 229 84t72 260q0 126 -33 199l-434 -508q63 -35 166 -35z" />
    <glyph glyph-name="ugrave" unicode="&#xf9;" horiz-adv-x="1355" 
d="M799 1149h-242l-305 307h332zM932 1024h303v-1024h-291v160q-60 -91 -163 -138t-240 -47q-230 0 -331 107.5t-101 318.5v623h305v-600q0 -72 17 -121.5t50 -76t72.5 -37.5t91.5 -11q53 0 102.5 15.5t91.5 45.5t67.5 80.5t25.5 114.5v590z" />
    <glyph glyph-name="uacute" unicode="&#xfa;" horiz-adv-x="1355" 
d="M1067 1458l-305 -305h-242l215 305h332zM932 1024h303v-1024h-291v160q-60 -91 -163 -138t-240 -47q-230 0 -331 107.5t-101 318.5v623h305v-600q0 -72 17 -121.5t50 -76t72.5 -37.5t91.5 -11q53 0 102.5 15.5t91.5 45.5t67.5 80.5t25.5 114.5v590z" />
    <glyph glyph-name="ucircumflex" unicode="&#xfb;" horiz-adv-x="1355" 
d="M670 1327l-162 -176h-258l297 305h246l297 -305h-259zM932 1024h303v-1024h-291v160q-60 -91 -163 -138t-240 -47q-230 0 -331 107.5t-101 318.5v623h305v-600q0 -72 17 -121.5t50 -76t72.5 -37.5t91.5 -11q53 0 102.5 15.5t91.5 45.5t67.5 80.5t25.5 114.5v590z" />
    <glyph glyph-name="udieresis" unicode="&#xfc;" horiz-adv-x="1355" 
d="M551 1368v-223h-270v223h270zM1065 1368v-223h-270v223h270zM932 1024h303v-1024h-291v160q-60 -91 -163 -138t-240 -47q-230 0 -331 107.5t-101 318.5v623h305v-600q0 -72 17 -121.5t50 -76t72.5 -37.5t91.5 -11q53 0 102.5 15.5t91.5 45.5t67.5 80.5t25.5 114.5v590z
" />
    <glyph glyph-name="yacute" unicode="&#xfd;" horiz-adv-x="1339" 
d="M1069 1458l-305 -305h-242l215 305h332zM985 1024h320l-650 -1434h-278l180 410h-59l-463 1024h319l310 -778z" />
    <glyph glyph-name="thorn" unicode="&#xfe;" horiz-adv-x="1404" 
d="M846 1047q253 0 369 -137t116 -394q0 -264 -120.5 -399t-385.5 -135q-269 0 -387 141v-533h-305v1844h305v-553q129 166 408 166zM739 176q144 0 215.5 80t71.5 254q0 173 -71 251.5t-214 78.5q-133 0 -218 -71.5t-85 -180.5v-164q0 -110 84.5 -179t216.5 -69z" />
    <glyph glyph-name="ydieresis" unicode="&#xff;" horiz-adv-x="1339" 
d="M553 1368v-223h-270v223h270zM1067 1368v-223h-270v223h270zM985 1024h320l-650 -1434h-278l180 410h-59l-463 1024h319l310 -778z" />
    <glyph glyph-name="Amacron" unicode="&#x100;" horiz-adv-x="1683" 
d="M1169 1743v-172h-661v172h661zM1290 0l-114 301h-670l-115 -301h-332l617 1434h332l616 -1434h-334zM586 512h510l-254 676z" />
    <glyph glyph-name="amacron" unicode="&#x101;" horiz-adv-x="1306" 
d="M995 1333v-172h-661v172h661zM659 1047q147 0 252 -26t166.5 -76t90 -116.5t28.5 -154.5v-674h-293v156q-129 -181 -424 -181q-198 0 -304.5 87.5t-106.5 244.5q0 80 30 141t83 97t120.5 53.5t149.5 17.5h440v70q0 94 -59.5 138t-180.5 44q-114 0 -178 -38.5t-65 -108.5
h-293q1 113 71 187.5t188.5 106.5t284.5 32zM584 162q130 0 218.5 67t88.5 193v49h-322q-87 0 -139.5 -37t-52.5 -115q0 -82 57.5 -119.5t149.5 -37.5z" />
    <glyph glyph-name="Abreve" unicode="&#x102;" horiz-adv-x="1683" 
d="M840 1550q-408 0 -408 295h199q0 -143 207 -143q211 0 211 143h198q0 -156 -105 -225.5t-302 -69.5zM1290 0l-114 301h-670l-115 -301h-332l617 1434h332l616 -1434h-334zM586 512h510l-254 676z" />
    <glyph glyph-name="abreve" unicode="&#x103;" horiz-adv-x="1306" 
d="M664 1141q-408 0 -408 295h199q0 -144 207 -144q210 0 210 144h199q0 -156 -105 -225.5t-302 -69.5zM659 1047q147 0 252 -26t166.5 -76t90 -116.5t28.5 -154.5v-674h-293v156q-129 -181 -424 -181q-198 0 -304.5 87.5t-106.5 244.5q0 80 30 141t83 97t120.5 53.5
t149.5 17.5h440v70q0 94 -59.5 138t-180.5 44q-114 0 -178 -38.5t-65 -108.5h-293q1 113 71 187.5t188.5 106.5t284.5 32zM584 162q130 0 218.5 67t88.5 193v49h-322q-87 0 -139.5 -37t-52.5 -115q0 -82 57.5 -119.5t149.5 -37.5z" />
    <glyph glyph-name="Aogonek" unicode="&#x104;" horiz-adv-x="1683" 
d="M1526 -266q56 0 123 18v-145q-104 -37 -207 -37q-119 0 -191.5 50.5t-72.5 139.5q0 151 211 240h-99l-114 301h-670l-115 -301h-332l617 1434h332l616 -1434h-76q-149 -79 -149 -174q0 -92 127 -92zM586 512h510l-254 676z" />
    <glyph glyph-name="aogonek" unicode="&#x105;" horiz-adv-x="1306" 
d="M1118 -266q56 0 123 18v-145q-104 -37 -207 -37q-119 0 -192.5 50.5t-73.5 139.5q0 151 213 240h-78v156q-129 -181 -424 -181q-198 0 -304.5 87.5t-106.5 244.5q0 80 30 141t83 97t120.5 53.5t149.5 17.5h440v70q0 94 -59.5 138t-180.5 44q-114 0 -178 -38.5t-65 -108.5
h-293q1 113 71 187.5t188.5 106.5t284.5 32q147 0 252 -26t166.5 -76t90 -116.5t28.5 -154.5v-674h-55q-150 -80 -150 -174q0 -92 127 -92zM584 162q130 0 218.5 67t88.5 193v49h-322q-87 0 -139.5 -37t-52.5 -115q0 -82 57.5 -119.5t149.5 -37.5z" />
    <glyph glyph-name="Cacute" unicode="&#x106;" horiz-adv-x="1589" 
d="M674 1563l215 305h332l-306 -305h-241zM827 -25q-372 0 -548.5 179.5t-176.5 562.5q0 381 176.5 560t550.5 179q320 0 501.5 -122t187.5 -369h-314q-6 134 -102.5 200t-270.5 66q-222 0 -316.5 -122.5t-94.5 -391.5q0 -272 94.5 -392t314.5 -120q358 0 375 262h314
q-5 -166 -92 -277t-237.5 -163t-361.5 -52z" />
    <glyph glyph-name="cacute" unicode="&#x107;" horiz-adv-x="1300" 
d="M514 1153l215 305h332l-305 -305h-242zM680 -25q-315 0 -460.5 135.5t-145.5 403.5q0 266 144.5 399.5t461.5 133.5q270 0 412 -94.5t145 -282.5h-301q-3 180 -256 180q-155 0 -227 -83t-72 -255q0 -175 72.5 -256.5t226.5 -81.5q121 0 187 45t69 133h301
q-3 -184 -146.5 -280.5t-410.5 -96.5z" />
    <glyph glyph-name="Ccircumflex" unicode="&#x108;" horiz-adv-x="1589" 
d="M825 1737l-161 -176h-258l296 305h246l297 -305h-258zM829 205q358 0 375 262h314q-5 -166 -92 -277t-237.5 -163t-361.5 -52q-372 0 -548.5 179.5t-176.5 562.5q0 381 176.5 560t550.5 179q320 0 501.5 -122t187.5 -369h-314q-6 134 -102.5 200t-270.5 66
q-222 0 -316.5 -122.5t-94.5 -391.5q0 -272 94.5 -392t314.5 -120z" />
    <glyph glyph-name="ccircumflex" unicode="&#x109;" horiz-adv-x="1300" 
d="M666 1327l-162 -176h-258l297 305h245l297 -305h-258zM680 174q121 0 187 45t69 133h301q-3 -184 -146.5 -280.5t-410.5 -96.5q-315 0 -460.5 135.5t-145.5 403.5q0 266 144.5 399.5t461.5 133.5q270 0 412 -94.5t145 -282.5h-301q-3 180 -256 180q-155 0 -227 -83
t-72 -255q0 -175 72.5 -256.5t226.5 -81.5z" />
    <glyph glyph-name="Cdotaccent" unicode="&#x10a;" horiz-adv-x="1589" 
d="M686 1548v232h279v-232h-279zM827 -25q-372 0 -548.5 179.5t-176.5 562.5q0 381 176.5 560t550.5 179q320 0 501.5 -122t187.5 -369h-314q-6 134 -102.5 200t-270.5 66q-222 0 -316.5 -122.5t-94.5 -391.5q0 -272 94.5 -392t314.5 -120q358 0 375 262h314
q-5 -166 -92 -277t-237.5 -163t-361.5 -52z" />
    <glyph glyph-name="cdotaccent" unicode="&#x10b;" horiz-adv-x="1300" 
d="M524 1139v231h279v-231h-279zM680 -25q-315 0 -460.5 135.5t-145.5 403.5q0 266 144.5 399.5t461.5 133.5q270 0 412 -94.5t145 -282.5h-301q-3 180 -256 180q-155 0 -227 -83t-72 -255q0 -175 72.5 -256.5t226.5 -81.5q121 0 187 45t69 133h301q-3 -184 -146.5 -280.5
t-410.5 -96.5z" />
    <glyph glyph-name="Ccaron" unicode="&#x10c;" horiz-adv-x="1589" 
d="M702 1563l-296 307h258l161 -178l162 178h258l-297 -307h-246zM829 205q358 0 375 262h314q-5 -166 -92 -277t-237.5 -163t-361.5 -52q-372 0 -548.5 179.5t-176.5 562.5q0 381 176.5 560t550.5 179q320 0 501.5 -122t187.5 -369h-314q-6 134 -102.5 200t-270.5 66
q-222 0 -316.5 -122.5t-94.5 -391.5q0 -272 94.5 -392t314.5 -120z" />
    <glyph glyph-name="ccaron" unicode="&#x10d;" horiz-adv-x="1300" 
d="M543 1153l-297 307h258l162 -178l161 178h258l-297 -307h-245zM680 174q121 0 187 45t69 133h301q-3 -184 -146.5 -280.5t-410.5 -96.5q-315 0 -460.5 135.5t-145.5 403.5q0 266 144.5 399.5t461.5 133.5q270 0 412 -94.5t145 -282.5h-301q-3 180 -256 180
q-155 0 -227 -83t-72 -255q0 -175 72.5 -256.5t226.5 -81.5z" />
    <glyph glyph-name="Dcaron" unicode="&#x10e;" horiz-adv-x="1644" 
d="M616 1563l-297 307h259l161 -178l162 178h258l-297 -307h-246zM877 1434q161 0 280.5 -37t208 -119t133.5 -222t45 -337q0 -199 -45 -339.5t-133.5 -223t-208 -119.5t-280.5 -37h-719v1434h719zM854 227q98 0 165 24t114.5 81t69.5 152.5t22 236.5q0 115 -15 198.5
t-43.5 138.5t-75 88t-103.5 46.5t-134 13.5h-381v-979h381z" />
    <glyph glyph-name="dcaron" unicode="&#x10f;" horiz-adv-x="1382" 
d="M967 895v539h305v-1434h-293v154q-63 -89 -171 -134t-247 -45q-252 0 -369.5 136.5t-117.5 398.5q0 537 504 537q269 0 389 -152zM1419 1434h267l-144 -568h-205zM662 176q134 0 219.5 71.5t85.5 182.5v166q0 108 -85 179t-218 71q-143 0 -214 -80.5t-71 -255.5
t70 -254.5t213 -79.5z" />
    <glyph glyph-name="Dcroat" unicode="&#x110;" horiz-adv-x="1644" 
d="M877 1434q161 0 280.5 -37t208 -119t133.5 -222t45 -337q0 -199 -45 -339.5t-133.5 -223t-208 -119.5t-280.5 -37h-719v612h-158v215h158v607h719zM854 227q98 0 165 24t114.5 81t69.5 152.5t22 236.5q0 115 -15 198.5t-43.5 138.5t-75 88t-103.5 46.5t-134 13.5h-381
v-379h428v-215h-428v-385h381z" />
    <glyph glyph-name="dcroat" unicode="&#x111;" horiz-adv-x="1400" 
d="M1415 1282v-160h-143v-1122h-293v154q-63 -89 -171 -134t-247 -45q-252 0 -369.5 136.5t-117.5 398.5q0 537 504 537q269 0 389 -152v227h-334v160h334v152h305v-152h143zM662 176q134 0 219.5 71.5t85.5 182.5v166q0 108 -85 179t-218 71q-143 0 -214 -80.5t-71 -255.5
t70 -254.5t213 -79.5z" />
    <glyph glyph-name="Emacron" unicode="&#x112;" horiz-adv-x="1427" 
d="M1071 1743v-172h-661v172h661zM485 223h865v-223h-1182v1434h1151v-222h-834v-364h801v-219h-801v-406z" />
    <glyph glyph-name="emacron" unicode="&#x113;" horiz-adv-x="1314" 
d="M1004 1333v-172h-662v172h662zM381 451q11 -147 83 -216t216 -69q115 0 180 40.5t70 112.5h303q-6 -161 -152 -252.5t-407 -91.5q-160 0 -276 36t-187 106.5t-104 167.5t-33 227q0 263 144.5 399t455.5 136q299 0 438 -134t139 -393q0 -29 -4 -69h-866zM674 860
q-134 0 -204 -62.5t-87 -199.5h563q-13 137 -80 199.5t-192 62.5z" />
    <glyph glyph-name="Ebreve" unicode="&#x114;" horiz-adv-x="1427" 
d="M739 1550q-407 0 -407 295h198q0 -143 207 -143q211 0 211 143h199q0 -156 -105.5 -225.5t-302.5 -69.5zM485 223h865v-223h-1182v1434h1151v-222h-834v-364h801v-219h-801v-406z" />
    <glyph glyph-name="ebreve" unicode="&#x115;" horiz-adv-x="1314" 
d="M674 1141q-408 0 -408 295h199q0 -144 207 -144q211 0 211 144h198q0 -156 -105 -225.5t-302 -69.5zM381 451q11 -147 83 -216t216 -69q115 0 180 40.5t70 112.5h303q-6 -161 -152 -252.5t-407 -91.5q-160 0 -276 36t-187 106.5t-104 167.5t-33 227q0 263 144.5 399
t455.5 136q299 0 438 -134t139 -393q0 -29 -4 -69h-866zM674 860q-134 0 -204 -62.5t-87 -199.5h563q-13 137 -80 199.5t-192 62.5z" />
    <glyph glyph-name="Edotaccent" unicode="&#x116;" horiz-adv-x="1427" 
d="M879 1780v-232h-279v232h279zM485 223h865v-223h-1182v1434h1151v-222h-834v-364h801v-219h-801v-406z" />
    <glyph glyph-name="edotaccent" unicode="&#x117;" horiz-adv-x="1314" 
d="M813 1370v-231h-278v231h278zM381 451q11 -147 83 -216t216 -69q115 0 180 40.5t70 112.5h303q-6 -161 -152 -252.5t-407 -91.5q-160 0 -276 36t-187 106.5t-104 167.5t-33 227q0 263 144.5 399t455.5 136q299 0 438 -134t139 -393q0 -29 -4 -69h-866zM674 860
q-134 0 -204 -62.5t-87 -199.5h563q-13 137 -80 199.5t-192 62.5z" />
    <glyph glyph-name="Eogonek" unicode="&#x118;" horiz-adv-x="1427" 
d="M1249 0q-149 -79 -149 -174q0 -92 129 -92q57 0 121 18v-145q-101 -37 -207 -37q-119 0 -191.5 50.5t-72.5 139.5q0 151 211 240h-922v1434h1151v-222h-834v-364h801v-219h-801v-406h865v-223h-101z" />
    <glyph glyph-name="eogonek" unicode="&#x119;" horiz-adv-x="1314" 
d="M381 451q11 -147 83 -216t216 -69q115 0 180 40.5t70 112.5h303q-3 -94 -54.5 -164.5t-146.5 -113.5l-57 -31q-168 -85 -168 -184q0 -92 129 -92q56 0 123 18v-145q-104 -37 -209 -37q-118 0 -191 50.5t-73 139.5q0 133 164 217q-25 -2 -76 -2q-160 0 -276 36t-187 106.5
t-104 167.5t-33 227q0 263 144.5 399t455.5 136q299 0 438 -134t139 -393q0 -29 -4 -69h-866zM674 860q-134 0 -204 -62.5t-87 -199.5h563q-13 137 -80 199.5t-192 62.5z" />
    <glyph glyph-name="Ecaron" unicode="&#x11a;" horiz-adv-x="1427" 
d="M618 1563l-296 307h258l161 -178l162 178h258l-297 -307h-246zM485 223h865v-223h-1182v1434h1151v-222h-834v-364h801v-219h-801v-406z" />
    <glyph glyph-name="ecaron" unicode="&#x11b;" horiz-adv-x="1314" 
d="M551 1153l-297 307h258l162 -178l162 178h258l-297 -307h-246zM381 451q11 -147 83 -216t216 -69q115 0 180 40.5t70 112.5h303q-6 -161 -152 -252.5t-407 -91.5q-160 0 -276 36t-187 106.5t-104 167.5t-33 227q0 263 144.5 399t455.5 136q299 0 438 -134t139 -393
q0 -29 -4 -69h-866zM674 860q-134 0 -204 -62.5t-87 -199.5h563q-13 137 -80 199.5t-192 62.5z" />
    <glyph glyph-name="Gcircumflex" unicode="&#x11c;" horiz-adv-x="1658" 
d="M834 1737l-162 -176h-258l297 305h245l297 -305h-258zM1540 729v-729h-264v170q-144 -193 -492 -193q-345 0 -513.5 181.5t-168.5 556.5q0 383 178.5 562t555.5 179q325 0 504.5 -123t185.5 -364h-316q-6 130 -103 196t-269 66q-225 0 -321.5 -121.5t-96.5 -392.5
q0 -268 102 -391t334 -123q362 0 387 231v101h-364v194h661z" />
    <glyph glyph-name="gcircumflex" unicode="&#x11d;" horiz-adv-x="1384" 
d="M682 1327l-162 -176h-258l297 305h246l297 -305h-258zM977 1024h289v-1012q0 -213 -141 -317.5t-439 -104.5q-539 0 -547 336h295q1 -73 71 -111t193 -38q134 0 199.5 52t65.5 167v197q-125 -154 -404 -154q-249 0 -367 127.5t-118 359.5q0 521 499 521q285 0 404 -173
v150zM657 236q141 0 223.5 66t82.5 179v117q0 112 -83 179t-223 67q-137 0 -207.5 -75.5t-70.5 -240.5q0 -292 278 -292z" />
    <glyph glyph-name="Gbreve" unicode="&#x11e;" horiz-adv-x="1658" 
d="M834 1550q-408 0 -408 295h199q0 -75 52 -109t154 -34q211 0 211 143h199q0 -156 -105 -225.5t-302 -69.5zM1540 729v-729h-264v170q-144 -193 -492 -193q-345 0 -513.5 181.5t-168.5 556.5q0 383 178.5 562t555.5 179q325 0 504.5 -123t185.5 -364h-316q-6 130 -103 196
t-269 66q-225 0 -321.5 -121.5t-96.5 -392.5q0 -268 102 -391t334 -123q362 0 387 231v101h-364v194h661z" />
    <glyph glyph-name="gbreve" unicode="&#x11f;" horiz-adv-x="1384" 
d="M680 1141q-408 0 -408 295h199q0 -144 207 -144q211 0 211 144h198q0 -156 -105 -225.5t-302 -69.5zM977 1024h289v-1012q0 -213 -141 -317.5t-439 -104.5q-539 0 -547 336h295q1 -73 71 -111t193 -38q134 0 199.5 52t65.5 167v197q-125 -154 -404 -154
q-249 0 -367 127.5t-118 359.5q0 521 499 521q285 0 404 -173v150zM657 236q141 0 223.5 66t82.5 179v117q0 112 -83 179t-223 67q-137 0 -207.5 -75.5t-70.5 -240.5q0 -292 278 -292z" />
    <glyph glyph-name="Gdotaccent" unicode="&#x120;" horiz-adv-x="1658" 
d="M973 1780v-232h-279v232h279zM1540 729v-729h-264v170q-144 -193 -492 -193q-345 0 -513.5 181.5t-168.5 556.5q0 383 178.5 562t555.5 179q325 0 504.5 -123t185.5 -364h-316q-6 130 -103 196t-269 66q-225 0 -321.5 -121.5t-96.5 -392.5q0 -268 102 -391t334 -123
q362 0 387 231v101h-364v194h661z" />
    <glyph glyph-name="gdotaccent" unicode="&#x121;" horiz-adv-x="1384" 
d="M819 1370v-231h-278v231h278zM977 1024h289v-1012q0 -213 -141 -317.5t-439 -104.5q-539 0 -547 336h295q1 -73 71 -111t193 -38q134 0 199.5 52t65.5 167v197q-125 -154 -404 -154q-249 0 -367 127.5t-118 359.5q0 521 499 521q285 0 404 -173v150zM657 236
q141 0 223.5 66t82.5 179v117q0 112 -83 179t-223 67q-137 0 -207.5 -75.5t-70.5 -240.5q0 -292 278 -292z" />
    <glyph glyph-name="uni0122" unicode="&#x122;" horiz-adv-x="1658" 
d="M1540 729v-729h-264v170q-144 -193 -492 -193q-345 0 -513.5 181.5t-168.5 556.5q0 383 178.5 562t555.5 179q325 0 504.5 -123t185.5 -364h-316q-6 130 -103 196t-269 66q-225 0 -321.5 -121.5t-96.5 -392.5q0 -268 102 -391t334 -123q362 0 387 231v101h-364v194h661z
M721 -299v215h258v-215l-129 -205h-129l86 205h-86z" />
    <glyph glyph-name="uni0123" unicode="&#x123;" horiz-adv-x="1384" 
d="M805 1321v-215h-258v215l129 207h131l-88 -207h86zM977 1024h289v-1012q0 -213 -141 -317.5t-439 -104.5q-539 0 -547 336h295q1 -73 71 -111t193 -38q134 0 199.5 52t65.5 167v197q-125 -154 -404 -154q-249 0 -367 127.5t-118 359.5q0 521 499 521q285 0 404 -173v150z
M657 236q141 0 223.5 66t82.5 179v117q0 112 -83 179t-223 67q-137 0 -207.5 -75.5t-70.5 -240.5q0 -292 278 -292z" />
    <glyph glyph-name="Hcircumflex" unicode="&#x124;" horiz-adv-x="1693" 
d="M846 1737l-162 -176h-258l297 305h246l297 -305h-258zM1219 1434h317v-1434h-317v621h-746v-621h-315v1434h315v-588h746v588z" />
    <glyph glyph-name="hcircumflex" unicode="&#x125;" horiz-adv-x="1382" 
d="M449 1561l-162 176l-162 -176h-258l297 305h246l297 -305h-258zM842 1047q119 0 203 -29.5t133 -86.5t70.5 -131.5t21.5 -174.5v-625h-305v598q0 127 -59.5 183.5t-178.5 56.5q-56 0 -107 -16.5t-92 -48t-65.5 -82t-24.5 -113.5v-578h-305v1434h305v-562q125 175 404 175
z" />
    <glyph glyph-name="Hbar" unicode="&#x126;" horiz-adv-x="1693" 
d="M1694 1229v-150h-158v-1079h-317v621h-746v-621h-315v1079h-158v150h158v205h315v-205h746v205h317v-205h158zM1219 846v233h-746v-233h746z" />
    <glyph glyph-name="hbar" unicode="&#x127;" horiz-adv-x="1382" 
d="M842 1047q119 0 203 -29.5t133 -86.5t70.5 -131.5t21.5 -174.5v-625h-305v598q0 127 -59.5 183.5t-178.5 56.5q-56 0 -107 -16.5t-92 -48t-65.5 -82t-24.5 -113.5v-578h-305v1122h-143v160h143v152h305v-152h350v-160h-350v-250q125 175 404 175z" />
    <glyph glyph-name="Itilde" unicode="&#x128;" horiz-adv-x="630" 
d="M-121 1548q0 126 63 196.5t177 70.5q62 0 139 -25l117 -39q56 -20 108 -20q53 0 82 22.5t29 63.5h162q0 -122 -65 -191.5t-179 -69.5q-62 0 -139 25l-121 41q-59 18 -107 18q-54 0 -83 -24t-29 -68h-154zM158 0v1434h315v-1434h-315z" />
    <glyph glyph-name="itilde" unicode="&#x129;" horiz-adv-x="552" 
d="M-109 1139q0 121 56.5 189.5t156.5 68.5q54 0 121 -23l101 -37q49 -18 88 -18q45 0 70.5 22t25.5 62h154q0 -120 -58.5 -188t-161.5 -68q-56 0 -120 24l-107 37q-49 19 -82 19q-46 0 -71 -23.5t-25 -64.5h-148zM125 0v1024h305v-1024h-305z" />
    <glyph glyph-name="Imacron" unicode="&#x12a;" horiz-adv-x="630" 
d="M-14 1571v172h661v-172h-661zM158 0v1434h315v-1434h-315z" />
    <glyph glyph-name="imacron" unicode="&#x12b;" horiz-adv-x="552" 
d="M-53 1161v172h661v-172h-661zM125 0v1024h305v-1024h-305z" />
    <glyph glyph-name="Iogonek" unicode="&#x12e;" horiz-adv-x="630" 
d="M387 -266q55 0 123 18v-145q-104 -37 -209 -37q-118 0 -191 50.5t-73 139.5q0 151 213 240h-92v1434h315v-1434h-63q-152 -81 -152 -174q0 -92 129 -92z" />
    <glyph glyph-name="iogonek" unicode="&#x12f;" horiz-adv-x="552" 
d="M430 1386v-247h-307v247h307zM342 -266q57 0 121 18v-145q-104 -37 -207 -37q-119 0 -191.5 50.5t-72.5 139.5q0 151 211 240h-78v1024h305v-1024h-68q-149 -79 -149 -174q0 -92 129 -92z" />
    <glyph glyph-name="Idotaccent" unicode="&#x130;" horiz-adv-x="630" 
d="M176 1548v232h279v-232h-279zM158 0v1434h315v-1434h-315z" />
    <glyph glyph-name="dotlessi" unicode="&#x131;" horiz-adv-x="552" 
d="M125 0v1024h305v-1024h-305z" />
    <glyph glyph-name="IJ" unicode="&#x132;" horiz-adv-x="1978" 
d="M158 0v1434h315v-1434h-315zM1262 -25q-130 0 -228.5 19.5t-163 55t-105 89t-57.5 116.5t-18 144h316q1 -104 63.5 -150t194.5 -46q78 0 130 16.5t79.5 49.5t38 74.5t10.5 100.5v990h315v-973q0 -245 -134 -365.5t-441 -120.5z" />
    <glyph glyph-name="ij" unicode="&#x133;" horiz-adv-x="1110" 
d="M123 1139v247h307v-247h-307zM680 1139v247h307v-247h-307zM125 0v1024h305v-1024h-305zM422 -410v201q125 0 186 47q74 51 74 156v1030h305v-1022q0 -243 -170 -338q-115 -70 -395 -74z" />
    <glyph glyph-name="Jcircumflex" unicode="&#x134;" horiz-adv-x="1345" 
d="M1171 1866l297 -305h-258l-161 176l-162 -176h-258l297 305h245zM891 444v990h315v-973q0 -245 -134 -365.5t-441 -120.5q-130 0 -228.5 19.5t-163 55t-105 89t-57.5 116.5t-18 144h316q1 -104 63.5 -150t194.5 -46q78 0 130 16.5t79.5 49.5t38 74.5t10.5 100.5z" />
    <glyph glyph-name="jcircumflex" unicode="&#x135;" horiz-adv-x="557" 
d="M455 1456l297 -305h-258l-162 176l-162 -176h-258l297 305h246zM129 -6v1030h305v-1022q0 -243 -170 -338q-115 -70 -395 -74v201q125 0 186 47q74 51 74 156z" />
    <glyph glyph-name="uni0136" unicode="&#x136;" horiz-adv-x="1562" 
d="M831 854l672 -854h-405l-467 672l-158 -144v-528h-315v1434h315v-596l578 596h417zM657 -299v215h258v-215l-129 -205h-129l86 205h-86z" />
    <glyph glyph-name="uni0137" unicode="&#x137;" horiz-adv-x="1312" 
d="M778 637l504 -637h-364l-328 481l-152 -125v-356h-305v1434h305v-789l420 379h395zM524 -299v215h258v-215l-129 -205h-129l86 205h-86z" />
    <glyph glyph-name="Lacute" unicode="&#x139;" horiz-adv-x="1323" 
d="M715 1868l-305 -305h-242l215 305h332zM473 223h795v-223h-1110v1434h315v-1211z" />
    <glyph glyph-name="lacute" unicode="&#x13a;" horiz-adv-x="567" 
d="M137 1563l215 305h332l-305 -305h-242zM131 0v1434h305v-1434h-305z" />
    <glyph glyph-name="uni013B" unicode="&#x13b;" horiz-adv-x="1323" 
d="M473 223h795v-223h-1110v1434h315v-1211zM590 -299v215h258v-215l-129 -205h-129l86 205h-86z" />
    <glyph glyph-name="uni013C" unicode="&#x13c;" horiz-adv-x="567" 
d="M131 1434h305v-1434h-305v1434zM162 -299v215h258v-215l-129 -205h-129l86 205h-86z" />
    <glyph glyph-name="Lcaron" unicode="&#x13d;" horiz-adv-x="1323" 
d="M473 223h795v-223h-1110v1434h315v-1211zM1149 1434l-143 -568h-205l82 568h266z" />
    <glyph glyph-name="lcaron" unicode="&#x13e;" horiz-adv-x="552" 
d="M131 0v1434h305v-1434h-305zM506 866l82 568h266l-143 -568h-205z" />
    <glyph glyph-name="Ldot" unicode="&#x13f;" horiz-adv-x="1323" 
d="M473 223h795v-223h-1110v1434h315v-1211zM991 842v-236h-282v236h282z" />
    <glyph glyph-name="ldot" unicode="&#x140;" horiz-adv-x="968" 
d="M131 0v1434h305v-1434h-305zM627 598v236h282v-236h-282z" />
    <glyph glyph-name="Lslash" unicode="&#x141;" horiz-adv-x="1323" 
d="M473 223h795v-223h-1110v492l-158 -74v241l158 74v701h315v-555l453 211v-242l-453 -211v-414z" />
    <glyph glyph-name="lslash" unicode="&#x142;" horiz-adv-x="567" 
d="M567 987v-256l-131 -78v-653h-305v475l-131 -78v258l131 76v703h305v-523z" />
    <glyph glyph-name="Nacute" unicode="&#x143;" horiz-adv-x="1705" 
d="M1251 1868l-305 -305h-241l215 305h331zM1241 1434h305v-1434h-348l-735 1038v-1038h-305v1434h344l739 -1053v1053z" />
    <glyph glyph-name="nacute" unicode="&#x144;" horiz-adv-x="1372" 
d="M1087 1458l-305 -305h-241l215 305h331zM836 1047q228 0 326 -109.5t98 -312.5v-625h-306v598q0 127 -59.5 183.5t-177.5 56.5q-119 0 -205 -68.5t-86 -191.5v-578h-303v1024h291v-162q126 185 422 185z" />
    <glyph glyph-name="uni0145" unicode="&#x145;" horiz-adv-x="1705" 
d="M1241 1434h305v-1434h-348l-735 1038v-1038h-305v1434h344l739 -1053v1053zM731 -299v215h258v-215l-129 -205h-129l86 205h-86z" />
    <glyph glyph-name="uni0146" unicode="&#x146;" horiz-adv-x="1372" 
d="M836 1047q228 0 326 -109.5t98 -312.5v-625h-306v598q0 127 -59.5 183.5t-177.5 56.5q-119 0 -205 -68.5t-86 -191.5v-578h-303v1024h291v-162q126 185 422 185zM567 -299v215h258v-215l-129 -205h-129l86 205h-86z" />
    <glyph glyph-name="Ncaron" unicode="&#x147;" horiz-adv-x="1705" 
d="M731 1563l-297 307h258l162 -178l162 178h258l-297 -307h-246zM1241 1434h305v-1434h-348l-735 1038v-1038h-305v1434h344l739 -1053v1053z" />
    <glyph glyph-name="ncaron" unicode="&#x148;" horiz-adv-x="1372" 
d="M569 1153l-297 307h258l162 -178l162 178h258l-297 -307h-246zM836 1047q228 0 326 -109.5t98 -312.5v-625h-306v598q0 127 -59.5 183.5t-177.5 56.5q-119 0 -205 -68.5t-86 -191.5v-578h-303v1024h291v-162q126 185 422 185z" />
    <glyph glyph-name="Eng" unicode="&#x14a;" horiz-adv-x="1705" 
d="M1241 1434h307v-1438q0 -101 -20.5 -172t-63 -120.5t-115.5 -78t-169 -40.5t-234 -13v227q155 0 225 39.5t70 155.5v10l-778 1049v-1053h-305v1434h344l739 -1008v1008z" />
    <glyph glyph-name="eng" unicode="&#x14b;" horiz-adv-x="1372" 
d="M834 1047q118 0 202 -29.5t132.5 -87t70 -132t21.5 -173.5v-625q0 -117 -37.5 -198t-113 -127t-175 -65.5t-236.5 -19.5v199q256 0 256 203v606q0 125 -59.5 181.5t-177.5 56.5q-121 0 -206 -68t-85 -193v-575h-303v1024h291v-160q127 183 420 183z" />
    <glyph glyph-name="Omacron" unicode="&#x14c;" horiz-adv-x="1658" 
d="M498 1571v172h661v-172h-661zM829 -25q-373 0 -550 180.5t-177 561.5q0 382 176.5 560.5t550.5 178.5q375 0 551 -178.5t176 -560.5q0 -381 -177 -561.5t-550 -180.5zM829 205q220 0 314 121.5t94 390.5q0 272 -95 393t-313 121q-220 0 -313.5 -122t-93.5 -392
q0 -272 94.5 -392t312.5 -120z" />
    <glyph glyph-name="omacron" unicode="&#x14d;" horiz-adv-x="1359" 
d="M350 1167v172h662v-172h-662zM680 -25q-316 0 -461 135t-145 404q0 266 145 399.5t461 133.5q318 0 462 -134t144 -399q0 -268 -145.5 -403.5t-460.5 -135.5zM680 168q157 0 229 84t72 260q0 179 -72 261.5t-229 82.5q-158 0 -229.5 -83.5t-71.5 -260.5q0 -178 73 -261
t228 -83z" />
    <glyph glyph-name="Obreve" unicode="&#x14e;" horiz-adv-x="1658" 
d="M829 1550q-407 0 -407 295h199q0 -75 52 -109t154 -34q211 0 211 143h199q0 -156 -105.5 -225.5t-302.5 -69.5zM829 -25q-373 0 -550 180.5t-177 561.5q0 382 176.5 560.5t550.5 178.5q375 0 551 -178.5t176 -560.5q0 -381 -177 -561.5t-550 -180.5zM829 205
q220 0 314 121.5t94 390.5q0 272 -95 393t-313 121q-220 0 -313.5 -122t-93.5 -392q0 -272 94.5 -392t312.5 -120z" />
    <glyph glyph-name="obreve" unicode="&#x14f;" horiz-adv-x="1359" 
d="M680 1147q-408 0 -408 295h199q0 -144 207 -144q211 0 211 144h198q0 -156 -105 -225.5t-302 -69.5zM680 -25q-316 0 -461 135t-145 404q0 266 145 399.5t461 133.5q318 0 462 -134t144 -399q0 -268 -145.5 -403.5t-460.5 -135.5zM680 168q157 0 229 84t72 260
q0 179 -72 261.5t-229 82.5q-158 0 -229.5 -83.5t-71.5 -260.5q0 -178 73 -261t228 -83z" />
    <glyph glyph-name="Ohungarumlaut" unicode="&#x150;" horiz-adv-x="1658" 
d="M496 1563l221 305h301l-285 -305h-237zM930 1563l221 305h301l-285 -305h-237zM829 -25q-373 0 -550 180.5t-177 561.5q0 382 176.5 560.5t550.5 178.5q375 0 551 -178.5t176 -560.5q0 -381 -177 -561.5t-550 -180.5zM829 205q220 0 314 121.5t94 390.5q0 272 -95 393
t-313 121q-220 0 -313.5 -122t-93.5 -392q0 -272 94.5 -392t312.5 -120z" />
    <glyph glyph-name="ohungarumlaut" unicode="&#x151;" horiz-adv-x="1359" 
d="M348 1159l221 305h301l-284 -305h-238zM782 1159l222 305h301l-285 -305h-238zM680 -25q-316 0 -461 135t-145 404q0 266 145 399.5t461 133.5q318 0 462 -134t144 -399q0 -268 -145.5 -403.5t-460.5 -135.5zM680 168q157 0 229 84t72 260q0 179 -72 261.5t-229 82.5
q-158 0 -229.5 -83.5t-71.5 -260.5q0 -178 73 -261t228 -83z" />
    <glyph glyph-name="OE" unicode="&#x152;" horiz-adv-x="2504" 
d="M1559 223h866v-223h-1176v94q-173 -117 -448 -117q-348 0 -523.5 180.5t-175.5 557.5q0 380 175.5 560.5t523.5 180.5q278 0 448 -115v93h1145v-222h-835v-364h800v-219h-800v-406zM831 203q220 0 314 121.5t94 392.5q0 273 -94.5 393.5t-313.5 120.5
q-224 0 -318.5 -121.5t-94.5 -392.5q0 -273 95 -393.5t318 -120.5z" />
    <glyph glyph-name="oe" unicode="&#x153;" horiz-adv-x="2222" 
d="M1288 451q11 -147 83 -216t216 -69q116 0 181.5 40.5t70.5 112.5h301q-5 -162 -150.5 -252t-406.5 -90q-298 0 -448 134q-152 -134 -455 -134q-316 0 -461 134t-145 403q0 267 145 400t461 133q306 0 455 -134q153 134 448 134q296 0 436 -131t140 -386q0 -56 -2 -79
h-869zM1583 860q-134 0 -204 -61t-87 -195h563q-15 134 -81.5 195t-190.5 61zM680 168q157 0 229 84t72 260q0 179 -72 261.5t-229 82.5q-158 0 -229.5 -83.5t-71.5 -260.5q0 -178 73 -261t228 -83z" />
    <glyph glyph-name="Racute" unicode="&#x154;" horiz-adv-x="1566" 
d="M1122 1868l-305 -305h-242l216 305h331zM1307 459l196 -459h-342l-172 428q-38 96 -85 131t-152 35h-279v-594h-315v1434h731q114 0 204 -22.5t158 -69.5t104 -125.5t36 -184.5q0 -275 -256 -364q59 -27 98 -76t74 -133zM831 1217h-358v-410h358q252 0 252 205t-252 205z
" />
    <glyph glyph-name="racute" unicode="&#x155;" horiz-adv-x="903" 
d="M844 1458l-305 -305h-242l215 305h332zM778 1047q21 0 84 -7v-231q-66 12 -117 12q-61 0 -117 -18.5t-101.5 -54t-73 -94t-27.5 -132.5v-522h-303v1024h291v-180q59 100 154 151.5t210 51.5z" />
    <glyph glyph-name="uni0156" unicode="&#x156;" horiz-adv-x="1566" 
d="M1307 459l196 -459h-342l-172 428q-38 96 -85 131t-152 35h-279v-594h-315v1434h731q114 0 204 -22.5t158 -69.5t104 -125.5t36 -184.5q0 -275 -256 -364q59 -27 98 -76t74 -133zM831 1217h-358v-410h358q252 0 252 205t-252 205zM662 -299v215h258v-215l-129 -205h-129
l86 205h-86z" />
    <glyph glyph-name="uni0157" unicode="&#x157;" horiz-adv-x="903" 
d="M778 1047q21 0 84 -7v-231q-66 12 -117 12q-61 0 -117 -18.5t-101.5 -54t-73 -94t-27.5 -132.5v-522h-303v1024h291v-180q59 100 154 151.5t210 51.5zM150 -299v215h258v-215l-129 -205h-129l86 205h-86z" />
    <glyph glyph-name="Rcaron" unicode="&#x158;" horiz-adv-x="1566" 
d="M602 1563l-297 307h258l162 -178l162 178h258l-297 -307h-246zM1307 459l196 -459h-342l-172 428q-38 96 -85 131t-152 35h-279v-594h-315v1434h731q114 0 204 -22.5t158 -69.5t104 -125.5t36 -184.5q0 -275 -256 -364q59 -27 98 -76t74 -133zM831 1217h-358v-410h358
q252 0 252 205t-252 205z" />
    <glyph glyph-name="rcaron" unicode="&#x159;" horiz-adv-x="903" 
d="M326 1153l-297 307h258l162 -178l161 178h258l-297 -307h-245zM414 844q59 100 154 151.5t210 51.5q21 0 84 -7v-231q-66 12 -117 12q-61 0 -117 -18.5t-101.5 -54t-73 -94t-27.5 -132.5v-522h-303v1024h291v-180z" />
    <glyph glyph-name="Sacute" unicode="&#x15a;" horiz-adv-x="1454" 
d="M565 1563l215 305h332l-305 -305h-242zM715 -25q-636 0 -645 441h323q0 -215 332 -215q326 0 326 219q0 180 -248 198l-207 21q-54 6 -99.5 14t-97.5 23t-93 35t-80 51t-65 70t-41.5 93t-15.5 119q0 412 625 412q606 0 614 -391h-319q0 95 -75.5 137.5t-219.5 42.5
q-305 0 -305 -188q0 -49 20 -83.5t57.5 -53t74.5 -27.5t88 -14l223 -23q79 -9 144.5 -26t131 -49.5t110 -78t72 -115t27.5 -157.5q0 -234 -172 -344.5t-485 -110.5z" />
    <glyph glyph-name="sacute" unicode="&#x15b;" horiz-adv-x="1228" 
d="M465 1153l215 305h332l-305 -305h-242zM614 -25q-288 0 -415.5 84t-132.5 246h292q0 -78 69.5 -116.5t195.5 -38.5q245 0 245 143q0 113 -190 129l-172 12q-90 7 -159 24.5t-129 50.5t-92 90t-32 136q0 165 132.5 238.5t391.5 73.5q265 0 387.5 -75.5t122.5 -223.5h-282
q0 133 -234 133q-108 0 -168.5 -31t-60.5 -94q0 -106 176 -119l191 -14q66 -6 119.5 -16.5t110 -33.5t94.5 -56t62.5 -87t24.5 -123q0 -174 -137 -253t-410 -79z" />
    <glyph glyph-name="Scircumflex" unicode="&#x15c;" horiz-adv-x="1454" 
d="M717 1737l-162 -176h-258l297 305h246l297 -305h-258zM887 856q79 -9 144.5 -26t131 -49.5t110 -78t72 -115t27.5 -157.5q0 -234 -172 -344.5t-485 -110.5q-636 0 -645 441h323q0 -215 332 -215q326 0 326 219q0 180 -248 198l-207 21q-54 6 -99.5 14t-97.5 23t-93 35
t-80 51t-65 70t-41.5 93t-15.5 119q0 412 625 412q606 0 614 -391h-319q0 95 -75.5 137.5t-219.5 42.5q-305 0 -305 -188q0 -49 20 -83.5t57.5 -53t74.5 -27.5t88 -14z" />
    <glyph glyph-name="scircumflex" unicode="&#x15d;" horiz-adv-x="1228" 
d="M616 1327l-161 -176h-258l297 305h245l297 -305h-258zM750 623q66 -6 119.5 -16.5t110 -33.5t94.5 -56t62.5 -87t24.5 -123q0 -174 -137 -253t-410 -79q-288 0 -415.5 84t-132.5 246h292q0 -78 69.5 -116.5t195.5 -38.5q245 0 245 143q0 113 -190 129l-172 12
q-90 7 -159 24.5t-129 50.5t-92 90t-32 136q0 165 132.5 238.5t391.5 73.5q265 0 387.5 -75.5t122.5 -223.5h-282q0 133 -234 133q-108 0 -168.5 -31t-60.5 -94q0 -106 176 -119z" />
    <glyph glyph-name="Scedilla" unicode="&#x15e;" horiz-adv-x="1454" 
d="M1372 430q0 -221 -154.5 -331.5t-435.5 -121.5l-30 -55q42 0 73 -2.5t67.5 -12.5t59.5 -27t38.5 -48.5t15.5 -75.5q0 -190 -306 -190q-154 0 -217 47.5t-63 140.5h170q0 -61 117 -61q124 0 124 65q0 62 -110 62h-141l67 157q-568 22 -577 439h323q0 -215 332 -215
q326 0 326 219q0 180 -248 198l-207 21q-54 6 -99.5 14t-97.5 23t-93 35t-80 51t-65 70t-41.5 93t-15.5 119q0 412 625 412q606 0 614 -391h-319q0 95 -75.5 137.5t-219.5 42.5q-305 0 -305 -188q0 -49 20 -83.5t57.5 -53t74.5 -27.5t88 -14l223 -23q79 -9 144.5 -26
t131 -49.5t110 -78t72 -115t27.5 -157.5z" />
    <glyph glyph-name="scedilla" unicode="&#x15f;" horiz-adv-x="1228" 
d="M1161 307q0 -164 -121.5 -243t-361.5 -87l-31 -55q42 0 73 -2.5t67.5 -12.5t59.5 -27t38.5 -48.5t15.5 -75.5q0 -98 -76.5 -144t-228.5 -46q-154 0 -217.5 47.5t-63.5 140.5h170q0 -61 117 -61q125 0 125 65q0 62 -111 62h-141l68 157q-250 10 -361 93t-116 235h292
q0 -78 69.5 -116.5t195.5 -38.5q245 0 245 143q0 113 -190 129l-172 12q-90 7 -159 24.5t-129 50.5t-92 90t-32 136q0 165 132.5 238.5t391.5 73.5q265 0 387.5 -75.5t122.5 -223.5h-282q0 133 -234 133q-108 0 -168.5 -31t-60.5 -94q0 -106 176 -119l191 -14
q66 -6 119.5 -16.5t110 -33.5t94.5 -56t62.5 -87t24.5 -123z" />
    <glyph glyph-name="Scaron" unicode="&#x160;" horiz-adv-x="1454" 
d="M594 1563l-297 307h258l162 -178l162 178h258l-297 -307h-246zM887 856q79 -9 144.5 -26t131 -49.5t110 -78t72 -115t27.5 -157.5q0 -234 -172 -344.5t-485 -110.5q-636 0 -645 441h323q0 -215 332 -215q326 0 326 219q0 180 -248 198l-207 21q-54 6 -99.5 14t-97.5 23
t-93 35t-80 51t-65 70t-41.5 93t-15.5 119q0 412 625 412q606 0 614 -391h-319q0 95 -75.5 137.5t-219.5 42.5q-305 0 -305 -188q0 -49 20 -83.5t57.5 -53t74.5 -27.5t88 -14z" />
    <glyph glyph-name="scaron" unicode="&#x161;" horiz-adv-x="1228" 
d="M494 1153l-297 307h258l161 -178l162 178h258l-297 -307h-245zM750 623q66 -6 119.5 -16.5t110 -33.5t94.5 -56t62.5 -87t24.5 -123q0 -174 -137 -253t-410 -79q-288 0 -415.5 84t-132.5 246h292q0 -78 69.5 -116.5t195.5 -38.5q245 0 245 143q0 113 -190 129l-172 12
q-90 7 -159 24.5t-129 50.5t-92 90t-32 136q0 165 132.5 238.5t391.5 73.5q265 0 387.5 -75.5t122.5 -223.5h-282q0 133 -234 133q-108 0 -168.5 -31t-60.5 -94q0 -106 176 -119z" />
    <glyph glyph-name="uni0162" unicode="&#x162;" horiz-adv-x="1497" 
d="M907 0h-84l-45 -78q42 0 73 -2.5t67.5 -12.5t59.5 -27t38.5 -48.5t15.5 -75.5q0 -98 -76.5 -144t-228.5 -46q-154 0 -217.5 47.5t-63.5 140.5h170q0 -61 117 -61q125 0 125 65q0 62 -110 62h-142l78 180h-92v1210h-539v224h1391v-224h-537v-1210z" />
    <glyph glyph-name="uni0163" unicode="&#x163;" horiz-adv-x="909" 
d="M618 -78q42 0 73 -2.5t67.5 -12.5t59.5 -27t38.5 -48.5t15.5 -75.5q0 -98 -76.5 -144t-228.5 -46q-154 0 -217 47.5t-63 140.5h170q0 -61 116 -61q125 0 125 65q0 62 -110 62h-142l72 168q-85 14 -140.5 51.5t-88.5 114.5t-33 196v477h-205v197h205v289h305v-289h270
v-197h-270v-481q0 -88 38 -126t132 -38q59 0 98 4v-196q-83 -13 -172 -13h-8z" />
    <glyph glyph-name="Tcaron" unicode="&#x164;" horiz-adv-x="1497" 
d="M627 1563l-297 307h258l162 -178l161 178h258l-297 -307h-245zM1444 1434v-224h-537v-1210h-315v1210h-539v224h1391z" />
    <glyph glyph-name="tcaron" unicode="&#x165;" horiz-adv-x="909" 
d="M705 1454h268l-113 -373h-217zM561 1313v-289h270v-197h-270v-481q0 -88 38 -126t132 -38q59 0 98 4v-196q-83 -13 -172 -13q-77 0 -134.5 9t-110 33.5t-85.5 65.5t-52 107.5t-19 157.5v477h-205v197h205v289h305z" />
    <glyph glyph-name="Tbar" unicode="&#x166;" horiz-adv-x="1497" 
d="M1444 1210h-537v-403h355v-170h-355v-637h-315v637h-350v170h350v403h-539v224h1391v-224z" />
    <glyph glyph-name="tbar" unicode="&#x167;" horiz-adv-x="909" 
d="M831 827h-270v-163h268v-158h-268v-160q0 -88 38 -126t132 -38q59 0 98 4v-196q-83 -13 -172 -13q-77 0 -134.5 9t-110 33.5t-85.5 65.5t-52 107.5t-19 157.5v156h-203v158h203v163h-205v197h205v289h305v-289h270v-197z" />
    <glyph glyph-name="Utilde" unicode="&#x168;" horiz-adv-x="1638" 
d="M385 1548q0 126 63 196.5t177 70.5q62 0 139 -25l117 -39q56 -20 108 -20q53 0 82 22.5t29 63.5h162q0 -122 -65 -191.5t-179 -69.5q-62 0 -139 25l-121 41q-58 18 -107 18q-54 0 -83 -24t-29 -68h-154zM825 -25q-366 0 -528 163t-162 505v791h318v-791q0 -235 88 -337.5
t284 -102.5q198 0 284.5 108t86.5 332v791h315v-793q0 -182 -44.5 -311t-133.5 -207t-213.5 -113t-294.5 -35z" />
    <glyph glyph-name="utilde" unicode="&#x169;" horiz-adv-x="1355" 
d="M498 1231q-54 0 -83.5 -24t-29.5 -68h-154q0 126 63 196t177 70q62 0 139 -25l117 -39q56 -20 109 -20t81.5 22.5t28.5 63.5h162q0 -121 -65 -190.5t-179 -69.5q-66 0 -139 24l-121 41q-62 19 -106 19zM932 1024h303v-1024h-291v160q-60 -91 -163 -138t-240 -47
q-230 0 -331 107.5t-101 318.5v623h305v-600q0 -72 17 -121.5t50 -76t72.5 -37.5t91.5 -11q53 0 102.5 15.5t91.5 45.5t67.5 80.5t25.5 114.5v590z" />
    <glyph glyph-name="Umacron" unicode="&#x16a;" horiz-adv-x="1638" 
d="M492 1571v172h661v-172h-661zM825 -25q-366 0 -528 163t-162 505v791h318v-791q0 -235 88 -337.5t284 -102.5q198 0 284.5 108t86.5 332v791h315v-793q0 -182 -44.5 -311t-133.5 -207t-213.5 -113t-294.5 -35z" />
    <glyph glyph-name="umacron" unicode="&#x16b;" horiz-adv-x="1355" 
d="M999 1333v-172h-661v172h661zM932 1024h303v-1024h-291v160q-60 -91 -163 -138t-240 -47q-230 0 -331 107.5t-101 318.5v623h305v-600q0 -72 17 -121.5t50 -76t72.5 -37.5t91.5 -11q53 0 102.5 15.5t91.5 45.5t67.5 80.5t25.5 114.5v590z" />
    <glyph glyph-name="Ubreve" unicode="&#x16c;" horiz-adv-x="1638" 
d="M823 1550q-407 0 -407 295h198q0 -143 207 -143q211 0 211 143h199q0 -156 -105.5 -225.5t-302.5 -69.5zM825 -25q-366 0 -528 163t-162 505v791h318v-791q0 -235 88 -337.5t284 -102.5q198 0 284.5 108t86.5 332v791h315v-793q0 -182 -44.5 -311t-133.5 -207
t-213.5 -113t-294.5 -35z" />
    <glyph glyph-name="ubreve" unicode="&#x16d;" horiz-adv-x="1355" 
d="M670 1141q-408 0 -408 295h199q0 -144 207 -144q211 0 211 144h198q0 -156 -105 -225.5t-302 -69.5zM932 1024h303v-1024h-291v160q-60 -91 -163 -138t-240 -47q-230 0 -331 107.5t-101 318.5v623h305v-600q0 -72 17 -121.5t50 -76t72.5 -37.5t91.5 -11q53 0 102.5 15.5
t91.5 45.5t67.5 80.5t25.5 114.5v590z" />
    <glyph glyph-name="Uring" unicode="&#x16e;" horiz-adv-x="1638" 
d="M825 1511q-268 0 -268 211q0 105 63.5 159t202.5 54q271 0 271 -209q0 -215 -269 -215zM825 1624q121 0 121 98q0 53 -30 77t-91 24q-118 0 -118 -99q0 -53 27.5 -76.5t90.5 -23.5zM825 -25q-366 0 -528 163t-162 505v791h318v-791q0 -235 88 -337.5t284 -102.5
q198 0 284.5 108t86.5 332v791h315v-793q0 -182 -44.5 -311t-133.5 -207t-213.5 -113t-294.5 -35z" />
    <glyph glyph-name="uring" unicode="&#x16f;" horiz-adv-x="1355" 
d="M672 1102q-269 0 -269 211q0 213 267 213q270 0 270 -209q0 -215 -268 -215zM672 1413q-119 0 -119 -98q0 -53 28 -77t91 -24q121 0 121 99q0 53 -30 76.5t-91 23.5zM932 1024h303v-1024h-291v160q-60 -91 -163 -138t-240 -47q-230 0 -331 107.5t-101 318.5v623h305v-600
q0 -72 17 -121.5t50 -76t72.5 -37.5t91.5 -11q53 0 102.5 15.5t91.5 45.5t67.5 80.5t25.5 114.5v590z" />
    <glyph glyph-name="Uhungarumlaut" unicode="&#x170;" horiz-adv-x="1638" 
d="M489 1563l222 305h301l-285 -305h-238zM924 1563l221 305h301l-285 -305h-237zM825 -25q-366 0 -528 163t-162 505v791h318v-791q0 -235 88 -337.5t284 -102.5q198 0 284.5 108t86.5 332v791h315v-793q0 -182 -44.5 -311t-133.5 -207t-213.5 -113t-294.5 -35z" />
    <glyph glyph-name="uhungarumlaut" unicode="&#x171;" horiz-adv-x="1355" 
d="M858 1458l-285 -305h-237l221 305h301zM1008 1153h-238l221 305h301zM932 434v590h303v-1024h-291v160q-60 -91 -163 -138t-240 -47q-230 0 -331 107.5t-101 318.5v623h305v-600q0 -72 17 -121.5t50 -76t72.5 -37.5t91.5 -11q53 0 102.5 15.5t91.5 45.5t67.5 80.5
t25.5 114.5z" />
    <glyph glyph-name="Uogonek" unicode="&#x172;" horiz-adv-x="1638" 
d="M1196 1434h315v-793q0 -165 -36 -285.5t-109 -199t-175.5 -121t-242.5 -55.5q-119 -74 -119 -154q0 -92 129 -92q56 0 123 18v-145q-104 -37 -209 -37q-118 0 -191 50.5t-73 139.5q0 134 162 215q-336 12 -485.5 175.5t-149.5 492.5v791h318v-791q0 -235 88 -337.5
t284 -102.5q198 0 284.5 108t86.5 332v791z" />
    <glyph glyph-name="uogonek" unicode="&#x173;" horiz-adv-x="1355" 
d="M1163 -266q57 0 121 18v-145q-101 -37 -207 -37q-119 0 -191.5 50.5t-72.5 139.5q0 151 211 240h-80v160q-60 -91 -163 -138t-240 -47q-230 0 -331 107.5t-101 318.5v623h305v-600q0 -72 17 -121.5t50 -76t72.5 -37.5t91.5 -11q53 0 102.5 15.5t91.5 45.5t67.5 80.5
t25.5 114.5v590h303v-1024h-51q-150 -80 -150 -174q0 -92 129 -92z" />
    <glyph glyph-name="Wcircumflex" unicode="&#x174;" horiz-adv-x="2367" 
d="M1182 1737l-162 -176h-258l297 305h246l297 -305h-259zM1980 1434h330l-469 -1434h-325l-332 1147l-334 -1147h-324l-469 1434h330l311 -1139l328 1139h315l328 -1139z" />
    <glyph glyph-name="wcircumflex" unicode="&#x175;" horiz-adv-x="2039" 
d="M1016 1327l-162 -176h-258l297 305h246l297 -305h-258zM1675 1024h316l-389 -1024h-334l-252 782l-256 -782h-334l-377 1024h313l252 -791l250 791h303l248 -797z" />
    <glyph glyph-name="Ycircumflex" unicode="&#x176;" horiz-adv-x="1626" 
d="M817 1737l-162 -176h-258l297 305h246l297 -305h-258zM1569 1434l-600 -883v-551h-318v553l-594 881h359l393 -658l403 658h357z" />
    <glyph glyph-name="ycircumflex" unicode="&#x177;" horiz-adv-x="1339" 
d="M672 1327l-162 -176h-258l297 305h246l297 -305h-258zM985 1024h320l-650 -1434h-278l180 410h-59l-463 1024h319l310 -778z" />
    <glyph glyph-name="Ydieresis" unicode="&#x178;" horiz-adv-x="1626" 
d="M698 1778v-224h-270v224h270zM1212 1778v-224h-270v224h270zM1569 1434l-600 -883v-551h-318v553l-594 881h359l393 -658l403 658h357z" />
    <glyph glyph-name="Zacute" unicode="&#x179;" horiz-adv-x="1415" 
d="M1094 1868l-306 -305h-241l215 305h332zM422 223h928v-223h-1293v223l895 987h-843v224h1210v-224z" />
    <glyph glyph-name="zacute" unicode="&#x17a;" horiz-adv-x="1198" 
d="M987 1458l-305 -305h-242l215 305h332zM432 201h703v-201h-1082v201l699 622h-662v201h1024v-201z" />
    <glyph glyph-name="Zdotaccent" unicode="&#x17b;" horiz-adv-x="1415" 
d="M838 1780v-232h-279v232h279zM422 223h928v-223h-1293v223l895 987h-843v224h1210v-224z" />
    <glyph glyph-name="zdotaccent" unicode="&#x17c;" horiz-adv-x="1198" 
d="M729 1370v-231h-278v231h278zM432 201h703v-201h-1082v201l699 622h-662v201h1024v-201z" />
    <glyph glyph-name="Zcaron" unicode="&#x17d;" horiz-adv-x="1415" 
d="M575 1563l-296 307h258l161 -178l162 178h258l-297 -307h-246zM422 223h928v-223h-1293v223l895 987h-843v224h1210v-224z" />
    <glyph glyph-name="zcaron" unicode="&#x17e;" horiz-adv-x="1198" 
d="M467 1153l-297 307h258l162 -178l162 178h258l-297 -307h-246zM432 201h703v-201h-1082v201l699 622h-662v201h1024v-201z" />
    <glyph glyph-name="uni018F" unicode="&#x18f;" horiz-adv-x="1652" 
d="M825 1456q374 0 550.5 -178.5t176.5 -560.5q0 -381 -177 -561.5t-550 -180.5q-374 0 -551.5 180.5t-177.5 561.5q0 36 4 114h1129q-19 210 -114.5 305t-289.5 95q-161 0 -255.5 -59t-123.5 -187h-321q43 240 214.5 355.5t485.5 115.5zM825 203q198 0 293.5 99.5
t110.5 315.5h-809q15 -218 111 -316.5t294 -98.5z" />
    <glyph glyph-name="florin" unicode="&#x192;" horiz-adv-x="1187" 
d="M913 1264q-97 0 -138.5 -39t-41.5 -121v-234h260v-202h-260v-668q0 -203 -109 -299t-325 -107q-47 -4 -137 -4v205q55 0 90 6q176 18 176 191v676h-215v202h215v224q0 102 30.5 174t89 112t132 58t170.5 18q113 0 184 -10v-191q-56 9 -121 9z" />
    <glyph glyph-name="uni01CD" unicode="&#x1cd;" horiz-adv-x="1683" 
d="M717 1563l-297 307h258l162 -178l161 178h259l-297 -307h-246zM1290 0l-114 301h-670l-115 -301h-332l617 1434h332l616 -1434h-334zM586 512h510l-254 676z" />
    <glyph glyph-name="uni01CE" unicode="&#x1ce;" horiz-adv-x="1306" 
d="M543 1153l-297 305h258l162 -176l161 176h258l-297 -305h-245zM659 1047q147 0 252 -26t166.5 -76t90 -116.5t28.5 -154.5v-674h-293v156q-129 -181 -424 -181q-198 0 -304.5 87.5t-106.5 244.5q0 80 30 141t83 97t120.5 53.5t149.5 17.5h440v70q0 94 -59.5 138
t-180.5 44q-114 0 -178 -38.5t-65 -108.5h-293q1 113 71 187.5t188.5 106.5t284.5 32zM584 162q130 0 218.5 67t88.5 193v49h-322q-87 0 -139.5 -37t-52.5 -115q0 -82 57.5 -119.5t149.5 -37.5z" />
    <glyph glyph-name="uni01CF" unicode="&#x1cf;" horiz-adv-x="630" 
d="M193 1563l-297 307h258l161 -178l162 178h258l-297 -307h-245zM158 0v1434h315v-1434h-315z" />
    <glyph glyph-name="uni01D0" unicode="&#x1d0;" horiz-adv-x="552" 
d="M156 1153l-297 307h258l162 -178l161 178h258l-297 -307h-245zM125 0v1024h305v-1024h-305z" />
    <glyph glyph-name="uni01D1" unicode="&#x1d1;" horiz-adv-x="1658" 
d="M707 1563l-297 307h258l161 -178l162 178h258l-297 -307h-245zM829 1456q375 0 551 -178.5t176 -560.5q0 -381 -177 -561.5t-550 -180.5t-550 180.5t-177 561.5q0 382 176.5 560.5t550.5 178.5zM829 205q220 0 314 121.5t94 390.5q0 272 -95 393t-313 121
q-220 0 -313.5 -122t-93.5 -392q0 -272 94.5 -392t312.5 -120z" />
    <glyph glyph-name="uni01D2" unicode="&#x1d2;" horiz-adv-x="1359" 
d="M559 1159l-297 307h258l162 -178l162 178h258l-297 -307h-246zM680 1047q318 0 462 -134t144 -399q0 -268 -145.5 -403.5t-460.5 -135.5q-316 0 -461 135t-145 404q0 266 145 399.5t461 133.5zM680 168q157 0 229 84t72 260q0 179 -72 261.5t-229 82.5
q-158 0 -229.5 -83.5t-71.5 -260.5q0 -178 73 -261t228 -83z" />
    <glyph glyph-name="uni01D3" unicode="&#x1d3;" horiz-adv-x="1638" 
d="M700 1563l-297 307h259l161 -178l162 178h258l-297 -307h-246zM1196 1434h315v-793q0 -182 -44.5 -311t-133.5 -207t-213.5 -113t-294.5 -35q-366 0 -528 163t-162 505v791h318v-791q0 -235 88 -337.5t284 -102.5q198 0 284.5 108t86.5 332v791z" />
    <glyph glyph-name="uni01D4" unicode="&#x1d4;" horiz-adv-x="1355" 
d="M547 1153l-297 307h258l162 -178l161 178h259l-297 -307h-246zM932 1024h303v-1024h-291v160q-60 -91 -163 -138t-240 -47q-230 0 -331 107.5t-101 318.5v623h305v-600q0 -72 17 -121.5t50 -76t72.5 -37.5t91.5 -11q53 0 102.5 15.5t91.5 45.5t67.5 80.5t25.5 114.5v590z
" />
    <glyph glyph-name="uni01D5" unicode="&#x1d5;" horiz-adv-x="1638" 
d="M498 1858v172h659v-172h-659zM434 1554v224h271v-224h-271zM948 1554v224h271v-224h-271zM825 -25q-366 0 -528 163t-162 505v791h318v-791q0 -235 88 -337.5t284 -102.5q198 0 284.5 108t86.5 332v791h315v-793q0 -182 -44.5 -311t-133.5 -207t-213.5 -113t-294.5 -35z
" />
    <glyph glyph-name="uni01D6" unicode="&#x1d6;" horiz-adv-x="1355" 
d="M1004 1620v-172h-660v172h660zM551 1368v-223h-270v223h270zM795 1145v223h270v-223h-270zM932 1024h303v-1024h-291v160q-60 -91 -163 -138t-240 -47q-230 0 -331 107.5t-101 318.5v623h305v-600q0 -72 17 -121.5t50 -76t72.5 -37.5t91.5 -11q53 0 102.5 15.5t91.5 45.5
t67.5 80.5t25.5 114.5v590z" />
    <glyph glyph-name="uni01D7" unicode="&#x1d7;" horiz-adv-x="1638" 
d="M678 1849l215 305h332l-307 -305h-240zM434 1554v224h271v-224h-271zM948 1554v224h271v-224h-271zM825 -25q-366 0 -528 163t-162 505v791h318v-791q0 -235 88 -337.5t284 -102.5q198 0 284.5 108t86.5 332v791h315v-793q0 -182 -44.5 -311t-133.5 -207t-213.5 -113
t-294.5 -35z" />
    <glyph glyph-name="uni01D8" unicode="&#x1d8;" horiz-adv-x="1355" 
d="M1071 1745l-307 -305h-240l215 305h332zM551 1368v-223h-270v223h270zM1065 1145h-270v223h270v-223zM932 1024h303v-1024h-291v160q-60 -91 -163 -138t-240 -47q-230 0 -331 107.5t-101 318.5v623h305v-600q0 -72 17 -121.5t50 -76t72.5 -37.5t91.5 -11q53 0 102.5 15.5
t91.5 45.5t67.5 80.5t25.5 114.5v590z" />
    <glyph glyph-name="uni01D9" unicode="&#x1d9;" horiz-adv-x="1638" 
d="M705 1849l-297 308h258l161 -179l162 179h258l-297 -308h-245zM705 1554h-271v224h271v-224zM948 1554v224h271v-224h-271zM1196 1434h315v-793q0 -182 -44.5 -311t-133.5 -207t-213.5 -113t-294.5 -35q-366 0 -528 163t-162 505v791h318v-791q0 -235 88 -337.5
t284 -102.5q198 0 284.5 108t86.5 332v791z" />
    <glyph glyph-name="uni01DA" unicode="&#x1da;" horiz-adv-x="1355" 
d="M551 1440l-297 307h258l162 -178l162 178h258l-297 -307h-246zM551 1145h-270v223h270v-223zM795 1145v223h270v-223h-270zM932 1024h303v-1024h-291v160q-60 -91 -163 -138t-240 -47q-230 0 -331 107.5t-101 318.5v623h305v-600q0 -72 17 -121.5t50 -76t72.5 -37.5
t91.5 -11q53 0 102.5 15.5t91.5 45.5t67.5 80.5t25.5 114.5v590z" />
    <glyph glyph-name="uni01DB" unicode="&#x1db;" horiz-adv-x="1638" 
d="M956 1847h-241l-305 305h331zM434 1554v224h271v-224h-271zM948 1554v224h271v-224h-271zM825 -25q-366 0 -528 163t-162 505v791h318v-791q0 -235 88 -337.5t284 -102.5q198 0 284.5 108t86.5 332v791h315v-793q0 -182 -44.5 -311t-133.5 -207t-213.5 -113t-294.5 -35z
" />
    <glyph glyph-name="uni01DC" unicode="&#x1dc;" horiz-adv-x="1355" 
d="M803 1438h-242l-305 305h332zM551 1145h-270v223h270v-223zM795 1145v223h270v-223h-270zM932 1024h303v-1024h-291v160q-60 -91 -163 -138t-240 -47q-230 0 -331 107.5t-101 318.5v623h305v-600q0 -72 17 -121.5t50 -76t72.5 -37.5t91.5 -11q53 0 102.5 15.5t91.5 45.5
t67.5 80.5t25.5 114.5v590z" />
    <glyph glyph-name="uni01DE" unicode="&#x1de;" horiz-adv-x="1683" 
d="M1174 2030v-172h-660v172h660zM721 1778v-224h-270v224h270zM965 1554v224h270v-224h-270zM1290 0l-114 301h-670l-115 -301h-332l617 1434h332l616 -1434h-334zM586 512h510l-254 676z" />
    <glyph glyph-name="uni01DF" unicode="&#x1df;" horiz-adv-x="1306" 
d="M999 1620v-172h-659v172h659zM547 1368v-223h-271v223h271zM791 1145v223h270v-223h-270zM659 1047q147 0 252 -26t166.5 -76t90 -116.5t28.5 -154.5v-674h-293v156q-129 -181 -424 -181q-198 0 -304.5 87.5t-106.5 244.5q0 80 30 141t83 97t120.5 53.5t149.5 17.5h440
v70q0 94 -59.5 138t-180.5 44q-114 0 -178 -38.5t-65 -108.5h-293q1 113 71 187.5t188.5 106.5t284.5 32zM584 162q130 0 218.5 67t88.5 193v49h-322q-87 0 -139.5 -37t-52.5 -115q0 -82 57.5 -119.5t149.5 -37.5z" />
    <glyph glyph-name="Gcaron" unicode="&#x1e6;" horiz-adv-x="1658" 
d="M711 1563l-297 307h258l162 -178l161 178h258l-297 -307h-245zM1540 729v-729h-264v170q-144 -193 -492 -193q-345 0 -513.5 181.5t-168.5 556.5q0 383 178.5 562t555.5 179q325 0 504.5 -123t185.5 -364h-316q-6 130 -103 196t-269 66q-225 0 -321.5 -121.5
t-96.5 -392.5q0 -268 102 -391t334 -123q362 0 387 231v101h-364v194h661z" />
    <glyph glyph-name="gcaron" unicode="&#x1e7;" horiz-adv-x="1384" 
d="M559 1153l-297 307h258l162 -178l162 178h258l-297 -307h-246zM977 1024h289v-1012q0 -213 -141 -317.5t-439 -104.5q-539 0 -547 336h295q1 -73 71 -111t193 -38q134 0 199.5 52t65.5 167v197q-125 -154 -404 -154q-249 0 -367 127.5t-118 359.5q0 521 499 521
q285 0 404 -173v150zM657 236q141 0 223.5 66t82.5 179v117q0 112 -83 179t-223 67q-137 0 -207.5 -75.5t-70.5 -240.5q0 -292 278 -292z" />
    <glyph glyph-name="Oslashacute" unicode="&#x1fe;" horiz-adv-x="1658" 
d="M1233 1868l-305 -305h-242l215 305h332zM1352 1305q204 -178 204 -588q0 -381 -177 -561.5t-550 -180.5q-210 0 -364 60l-96 -137h-224l162 231q-205 178 -205 588q0 382 176.5 560.5t550.5 178.5q219 0 365 -57l96 137h223zM422 717q0 -220 59 -338l566 809
q-85 43 -218 43q-220 0 -313.5 -122t-93.5 -392zM829 205q220 0 314 121.5t94 390.5q0 220 -59 338l-566 -807q85 -43 217 -43z" />
    <glyph glyph-name="oslashacute" unicode="&#x1ff;" horiz-adv-x="1359" 
d="M1083 1464l-305 -305h-241l215 305h331zM1130 924q156 -129 156 -410q0 -268 -145.5 -403.5t-460.5 -135.5q-188 0 -318 50l-67 -80h-205l135 159q-151 131 -151 410q0 266 145 399.5t461 133.5q178 0 311 -46l74 86h205zM379 512q0 -114 31 -193l432 506q-67 31 -162 31
q-158 0 -229.5 -83.5t-71.5 -260.5zM680 168q157 0 229 84t72 260q0 126 -33 199l-434 -508q63 -35 166 -35z" />
    <glyph glyph-name="uni0218" unicode="&#x218;" horiz-adv-x="1454" 
d="M887 856q79 -9 144.5 -26t131 -49.5t110 -78t72 -115t27.5 -157.5q0 -234 -172 -344.5t-485 -110.5q-636 0 -645 441h323q0 -215 332 -215q326 0 326 219q0 180 -248 198l-207 21q-54 6 -99.5 14t-97.5 23t-93 35t-80 51t-65 70t-41.5 93t-15.5 119q0 412 625 412
q606 0 614 -391h-319q0 95 -75.5 137.5t-219.5 42.5q-305 0 -305 -188q0 -49 20 -83.5t57.5 -53t74.5 -27.5t88 -14zM600 -299v215h258v-215l-129 -205h-129l86 205h-86z" />
    <glyph glyph-name="uni0219" unicode="&#x219;" horiz-adv-x="1228" 
d="M750 623q66 -6 119.5 -16.5t110 -33.5t94.5 -56t62.5 -87t24.5 -123q0 -174 -137 -253t-410 -79q-288 0 -415.5 84t-132.5 246h292q0 -78 69.5 -116.5t195.5 -38.5q245 0 245 143q0 113 -190 129l-172 12q-90 7 -159 24.5t-129 50.5t-92 90t-32 136q0 165 132.5 238.5
t391.5 73.5q265 0 387.5 -75.5t122.5 -223.5h-282q0 133 -234 133q-108 0 -168.5 -31t-60.5 -94q0 -106 176 -119zM496 -299v215h258v-215l-129 -205h-129l86 205h-86z" />
    <glyph glyph-name="uni021A" unicode="&#x21a;" horiz-adv-x="1497" 
d="M1444 1434v-224h-537v-1210h-315v1210h-539v224h1391zM627 -299v215h258v-215l-129 -205h-129l86 205h-86z" />
    <glyph glyph-name="uni021B" unicode="&#x21b;" horiz-adv-x="909" 
d="M831 827h-270v-481q0 -88 38 -126t132 -38q59 0 98 4v-196q-83 -13 -172 -13q-77 0 -134.5 9t-110 33.5t-85.5 65.5t-52 107.5t-19 157.5v477h-205v197h205v289h305v-289h270v-197zM467 -299v215h258v-215l-129 -205h-129l86 205h-86z" />
    <glyph glyph-name="uni0228" unicode="&#x228;" horiz-adv-x="1427" 
d="M1350 0h-502l-45 -78q42 0 73 -2.5t67.5 -12.5t59.5 -27t38.5 -48.5t15.5 -75.5q0 -98 -76.5 -144t-228.5 -46q-154 0 -217.5 47.5t-63.5 140.5h170q0 -61 117 -61q125 0 125 65q0 62 -111 62h-141l78 180h-541v1434h1151v-222h-834v-364h801v-219h-801v-406h865v-223z
" />
    <glyph glyph-name="uni0229" unicode="&#x229;" horiz-adv-x="1314" 
d="M381 451q11 -147 83 -216t216 -69q115 0 180 40.5t70 112.5h303q-6 -152 -134.5 -242t-361.5 -100l-30 -55q42 0 73 -2.5t67.5 -12.5t59.5 -27t38.5 -48.5t15.5 -75.5q0 -190 -306 -190q-154 0 -217 47.5t-63 140.5h170q0 -61 117 -61q124 0 124 65q0 62 -110 62h-141
l67 157q-277 15 -402.5 151t-125.5 384q0 263 144.5 399t455.5 136q299 0 438 -134t139 -393q0 -29 -4 -69h-866zM674 860q-134 0 -204 -62.5t-87 -199.5h563q-13 137 -80 199.5t-192 62.5z" />
    <glyph glyph-name="uni0237" unicode="&#x237;" horiz-adv-x="557" 
d="M-131 -410v201q125 0 186 47q74 51 74 156v1030h305v-1022q0 -243 -170 -338q-115 -70 -395 -74z" />
    <glyph glyph-name="uni0259" unicode="&#x259;" horiz-adv-x="1314" 
d="M641 1049q314 0 457 -137t143 -400t-144.5 -399t-455.5 -136q-299 0 -438.5 134t-139.5 393q0 18 1.5 39.5t1.5 29.5h868q-11 147 -83 216t-216 69q-116 0 -181.5 -40.5t-68.5 -112.5h-303q5 161 151 252.5t408 91.5zM639 164q136 0 206 62.5t87 199.5h-565
q15 -137 81.5 -199.5t190.5 -62.5z" />
    <glyph glyph-name="circumflex" unicode="&#x2c6;" horiz-adv-x="1044" 
d="M942 1151h-258l-162 176l-162 -176h-258l297 305h246z" />
    <glyph glyph-name="caron" unicode="&#x2c7;" horiz-adv-x="1044" 
d="M684 1458h258l-297 -305h-246l-297 305h258l162 -176z" />
    <glyph glyph-name="breve" unicode="&#x2d8;" horiz-adv-x="1019" 
d="M510 1141q-408 0 -408 295h199q0 -144 207 -144q211 0 211 144h199q0 -156 -105.5 -225.5t-302.5 -69.5z" />
    <glyph glyph-name="dotaccent" unicode="&#x2d9;" horiz-adv-x="512" 
d="M117 1139v231h278v-231h-278z" />
    <glyph glyph-name="ring" unicode="&#x2da;" horiz-adv-x="741" 
d="M371 1102q-269 0 -269 211q0 213 267 213q270 0 270 -209q0 -215 -268 -215zM371 1214q121 0 121 99q0 53 -30 76.5t-91 23.5q-119 0 -119 -98q0 -53 28 -77t91 -24z" />
    <glyph glyph-name="ogonek" unicode="&#x2db;" horiz-adv-x="677" 
d="M367 -430q-118 0 -191.5 50.5t-73.5 139.5q0 161 238 250h156q-172 -84 -172 -184q0 -92 129 -92q55 0 120 18v-145q-101 -37 -206 -37z" />
    <glyph glyph-name="tilde" unicode="&#x2dc;" horiz-adv-x="1081" 
d="M102 1139q0 126 63 196t177 70q62 0 139 -25l117 -39q56 -20 109 -20t81.5 22.5t28.5 63.5h162q0 -121 -65 -190.5t-179 -69.5q-65 0 -139 24l-121 41q-62 19 -106 19q-54 0 -83.5 -24t-29.5 -68h-154z" />
    <glyph glyph-name="hungarumlaut" unicode="&#x2dd;" horiz-adv-x="1161" 
d="M102 1153l222 305h301l-285 -305h-238zM537 1153l221 305h301l-285 -305h-237z" />
    <glyph glyph-name="gravecomb" unicode="&#x300;" horiz-adv-x="0" 
d="M-102 1149h-242l-305 307h332z" />
    <glyph glyph-name="acutecomb" unicode="&#x301;" horiz-adv-x="0" 
d="M-651 1153l215 305h332l-306 -305h-241z" />
    <glyph glyph-name="uni0302" unicode="&#x302;" horiz-adv-x="0" 
d="M-106 1151h-259l-161 176l-162 -176h-258l297 305h246z" />
    <glyph glyph-name="tildecomb" unicode="&#x303;" horiz-adv-x="0" 
d="M-981 1139q0 126 63 196t177 70q62 0 139 -25l117 -39q56 -20 108 -20q53 0 82 22.5t29 63.5h162q0 -121 -65 -190.5t-179 -69.5q-66 0 -139 24l-121 41q-62 19 -107 19q-54 0 -83 -24t-29 -68h-154z" />
    <glyph glyph-name="uni0304" unicode="&#x304;" horiz-adv-x="0" 
d="M-766 1161v172h662v-172h-662z" />
    <glyph glyph-name="uni0306" unicode="&#x306;" horiz-adv-x="0" 
d="M-514 1141q-408 0 -408 295h199q0 -144 207 -144q211 0 211 144h199q0 -156 -105.5 -225.5t-302.5 -69.5z" />
    <glyph glyph-name="uni0307" unicode="&#x307;" horiz-adv-x="0" 
d="M-397 1139v231h278v-231h-278z" />
    <glyph glyph-name="uni0308" unicode="&#x308;" horiz-adv-x="0" 
d="M-889 1145v223h271v-223h-271zM-375 1145v223h271v-223h-271z" />
    <glyph glyph-name="uni030A" unicode="&#x30a;" horiz-adv-x="0" 
d="M-375 1102q-268 0 -268 211q0 105 63.5 159t202.5 54q271 0 271 -209q0 -215 -269 -215zM-375 1214q121 0 121 99q0 53 -30 76.5t-91 23.5q-119 0 -119 -98q0 -53 28 -77t91 -24z" />
    <glyph glyph-name="uni030B" unicode="&#x30b;" horiz-adv-x="0" 
d="M-1061 1153l221 305h301l-284 -305h-238zM-627 1153l221 305h302l-285 -305h-238z" />
    <glyph glyph-name="uni030C" unicode="&#x30c;" horiz-adv-x="0" 
d="M-367 1460h258l-297 -307h-245l-297 307h258l162 -178z" />
    <glyph glyph-name="uni0312" unicode="&#x312;" horiz-adv-x="0" 
d="M-115 1438l-88 -207h86v-215h-258v215l129 207h131z" />
    <glyph glyph-name="dotbelowcomb" unicode="&#x323;" horiz-adv-x="0" 
d="M-397 -371v234h278v-234h-278z" />
    <glyph glyph-name="uni0326" unicode="&#x326;" horiz-adv-x="0" 
d="M-360 -84h258v-215l-129 -205h-129l86 205h-86v215z" />
    <glyph glyph-name="uni0327" unicode="&#x327;" horiz-adv-x="0" 
d="M-360 -78q42 0 73 -2.5t67.5 -12.5t59.5 -27t38.5 -48.5t15.5 -75.5q0 -190 -306 -190q-154 0 -217 47.5t-63 140.5h170q0 -61 116 -61q125 0 125 65q0 62 -110 62h-141l83 196h142z" />
    <glyph glyph-name="uni0328" unicode="&#x328;" horiz-adv-x="0" 
d="M-313 -430q-118 0 -191.5 50.5t-73.5 139.5q0 161 238 250h156q-172 -84 -172 -184q0 -92 129 -92q57 0 121 18v-145q-101 -37 -207 -37z" />
    <glyph glyph-name="uni032D" unicode="&#x32d;" horiz-adv-x="0" 
d="M-106 -387h-259l-161 176l-162 -176h-258l297 305h246z" />
    <glyph glyph-name="uni0331" unicode="&#x331;" horiz-adv-x="0" 
d="M-834 -360v172h728v-172h-728z" />
    <glyph glyph-name="uni0401" unicode="&#x401;" horiz-adv-x="1427" 
d="M623 1778v-224h-271v224h271zM1137 1778v-224h-271v224h271zM485 223h865v-223h-1182v1434h1151v-222h-834v-364h801v-219h-801v-406z" />
    <glyph glyph-name="uni0402" unicode="&#x402;" horiz-adv-x="2033" 
d="M1368 946q278 0 432 -134t154 -382q0 -258 -177.5 -400.5t-498.5 -142.5v219q172 0 265 81.5t93 234.5q0 307 -323 307q-191 0 -406 -111v-618h-315v1210h-539v224h1460v-224h-606v-364q229 100 461 100z" />
    <glyph glyph-name="uni0403" unicode="&#x403;" horiz-adv-x="1230" 
d="M1073 1868l-305 -305h-242l215 305h332zM1178 1434v-228h-705v-1206h-315v1434h1020z" />
    <glyph glyph-name="uni0404" unicode="&#x404;" horiz-adv-x="1589" 
d="M829 205q176 0 271 62.5t104 197.5h314q-6 -246 -188 -368t-503 -122q-372 0 -548.5 179.5t-176.5 562.5q0 381 176.5 560t550.5 179q157 0 281.5 -29t215.5 -88t140.5 -152.5t51.5 -217.5h-314q-6 131 -102.5 196.5t-270.5 65.5q-198 0 -293.5 -98t-113.5 -308h680v-219
h-680q17 -211 113 -306t292 -95z" />
    <glyph glyph-name="uni0405" unicode="&#x405;" horiz-adv-x="1454" 
d="M715 -25q-636 0 -645 441h323q0 -215 332 -215q326 0 326 219q0 180 -248 198l-207 21q-54 6 -99.5 14t-97.5 23t-93 35t-80 51t-65 70t-41.5 93t-15.5 119q0 412 625 412q606 0 614 -391h-319q0 95 -75.5 137.5t-219.5 42.5q-305 0 -305 -188q0 -49 20 -83.5t57.5 -53
t74.5 -27.5t88 -14l223 -23q79 -9 144.5 -26t131 -49.5t110 -78t72 -115t27.5 -157.5q0 -234 -172 -344.5t-485 -110.5z" />
    <glyph glyph-name="uni0406" unicode="&#x406;" horiz-adv-x="630" 
d="M158 0v1434h315v-1434h-315z" />
    <glyph glyph-name="uni0407" unicode="&#x407;" horiz-adv-x="630" 
d="M-2 1554v224h244v-224h-244zM389 1554v224h244v-224h-244zM158 0v1434h315v-1434h-315z" />
    <glyph glyph-name="uni0408" unicode="&#x408;" horiz-adv-x="1345" 
d="M631 -25q-130 0 -228.5 19.5t-163 55t-105 89t-57.5 116.5t-18 144h316q1 -104 63.5 -150t194.5 -46q78 0 130 16.5t79.5 49.5t38 74.5t10.5 100.5v990h315v-973q0 -245 -134 -365.5t-441 -120.5z" />
    <glyph glyph-name="uni0409" unicode="&#x409;" horiz-adv-x="2492" 
d="M1878 922q535 0 535 -467q0 -455 -535 -455h-698v1206h-557l-23 -540q-4 -100 -10.5 -170t-22.5 -148t-40.5 -129.5t-65.5 -101.5t-97 -78.5t-136.5 -46t-182.5 -17.5v271q39 0 69.5 6.5t54 21t41 32.5t30 48.5t20.5 60t14 74.5t9 86t6 101l33 758h1173v-512h383z
M1808 221q289 0 289 238q0 241 -289 241h-313v-479h313z" />
    <glyph glyph-name="uni040A" unicode="&#x40a;" horiz-adv-x="2533" 
d="M1919 885q266 0 400.5 -113.5t134.5 -337.5q0 -215 -135 -324.5t-402 -109.5h-698v662h-746v-662h-315v1434h315v-549h746v549h317v-549h383zM1849 223q289 0 289 215q0 224 -289 224h-313v-439h313z" />
    <glyph glyph-name="uni040B" unicode="&#x40b;" horiz-adv-x="1992" 
d="M1315 928q283 0 432 -123t149 -361v-444h-315v430q0 128 -86.5 198t-245.5 70q-182 0 -342 -69v-629h-315v1210h-539v224h1460v-224h-606v-354q184 72 408 72z" />
    <glyph glyph-name="uni040C" unicode="&#x40c;" horiz-adv-x="1568" 
d="M1174 1868l-306 -305h-241l215 305h332zM1120 0l-432 629h-215v-629h-315v1434h315v-580h213l420 580h375l-535 -695l563 -739h-389z" />
    <glyph glyph-name="uni040D" unicode="&#x40d;" horiz-adv-x="1699" 
d="M977 1559h-242l-305 307h332zM1542 1434v-1434h-311v1036l-731 -1036h-342v1434h311v-1033l721 1033h352z" />
    <glyph glyph-name="uni040E" unicode="&#x40e;" horiz-adv-x="1607" 
d="M803 1550q-408 0 -408 295h199q0 -143 207 -143q211 0 211 143h198q0 -156 -105 -225.5t-302 -69.5zM1210 1434h338l-886 -1434h-338l290 500l-557 934h344l387 -674z" />
    <glyph glyph-name="uni040F" unicode="&#x40f;" horiz-adv-x="1699" 
d="M1227 1434h315v-1434h-532v-315h-318v315h-534v1434h315v-1207h754v1207z" />
    <glyph glyph-name="uni0410" unicode="&#x410;" horiz-adv-x="1683" 
d="M1290 0l-114 301h-670l-115 -301h-332l617 1434h332l616 -1434h-334zM586 512h510l-254 676z" />
    <glyph glyph-name="uni0411" unicode="&#x411;" horiz-adv-x="1474" 
d="M856 909q535 0 535 -460q0 -449 -535 -449h-698v1434h1093v-224h-778v-301h383zM786 221q291 0 291 230q0 237 -291 237h-313v-467h313z" />
    <glyph glyph-name="uni0412" unicode="&#x412;" horiz-adv-x="1519" 
d="M1180 741q252 -82 252 -346q0 -90 -27.5 -159.5t-73.5 -113.5t-111.5 -72t-136 -39t-153.5 -11h-772v1434h710q84 0 156.5 -13t135.5 -42t108 -72t70.5 -107.5t25.5 -144.5q0 -218 -184 -314zM821 1223h-348v-383h361q225 0 225 190q0 193 -238 193zM856 213
q264 0 264 215q0 109 -65.5 159t-192.5 50h-389v-424h383z" />
    <glyph glyph-name="uni0413" unicode="&#x413;" horiz-adv-x="1230" 
d="M1178 1434v-228h-705v-1206h-315v1434h1020z" />
    <glyph glyph-name="uni0414" unicode="&#x414;" horiz-adv-x="1849" 
d="M1548 227h246v-542h-315v315h-1114v-315h-318v542h2q61 0 107 21.5t76 60t49.5 99.5t29 131t13.5 163l28 732h1196v-1207zM518 227h715v979h-580l-22 -508q-13 -313 -113 -471z" />
    <glyph glyph-name="uni0415" unicode="&#x415;" horiz-adv-x="1427" 
d="M485 223h865v-223h-1182v1434h1151v-222h-834v-364h801v-219h-801v-406z" />
    <glyph glyph-name="uni0416" unicode="&#x416;" horiz-adv-x="2478" 
d="M2034 0l-428 629h-209v-629h-316v629h-207l-430 -629h-387l564 741l-533 693h371l415 -580h207v580h316v-580h207l415 580h373l-532 -695l561 -739h-387z" />
    <glyph glyph-name="uni0417" unicode="&#x417;" horiz-adv-x="1425" 
d="M1116 748q117 -45 169 -128.5t52 -213.5q0 -226 -154 -327.5t-483 -101.5q-332 0 -480 102t-148 310h303q0 -105 77.5 -150.5t247.5 -45.5q180 0 251 50.5t71 168.5q0 121 -70.5 169t-253.5 48h-192v219h190q170 0 237.5 45.5t67.5 150.5q0 108 -70 151.5t-235 43.5
q-158 0 -229.5 -42t-71.5 -134h-305q0 197 145 294t467 97q317 0 462 -90t145 -301q0 -120 -45.5 -196.5t-147.5 -118.5z" />
    <glyph glyph-name="uni0418" unicode="&#x418;" horiz-adv-x="1699" 
d="M1542 1434v-1434h-311v1036l-731 -1036h-342v1434h311v-1033l721 1033h352z" />
    <glyph glyph-name="uni0419" unicode="&#x419;" horiz-adv-x="1699" 
d="M848 1550q-408 0 -408 295h199q0 -143 207 -143q211 0 211 143h198q0 -156 -105 -225.5t-302 -69.5zM1542 1434v-1434h-311v1036l-731 -1036h-342v1434h311v-1033l721 1033h352z" />
    <glyph glyph-name="uni041A" unicode="&#x41a;" horiz-adv-x="1568" 
d="M1120 0l-432 629h-215v-629h-315v1434h315v-580h213l420 580h375l-535 -695l563 -739h-389z" />
    <glyph glyph-name="uni041B" unicode="&#x41b;" horiz-adv-x="1652" 
d="M1495 1434v-1434h-315v1206h-557l-23 -540q-4 -100 -10.5 -170t-22.5 -148t-40.5 -129.5t-65.5 -101.5t-97 -78.5t-136.5 -46t-182.5 -17.5v271q39 0 69.5 6.5t54 21t41 32.5t30 48.5t20.5 60t14 74.5t9 86t6 101l33 758h1173z" />
    <glyph glyph-name="uni041C" unicode="&#x41c;" horiz-adv-x="2078" 
d="M1921 1434v-1434h-303v1128l-440 -1128h-277l-440 1128v-1128h-303v1434h458l424 -1125l424 1125h457z" />
    <glyph glyph-name="uni041D" unicode="&#x41d;" horiz-adv-x="1693" 
d="M1219 1434h317v-1434h-317v621h-746v-621h-315v1434h315v-588h746v588z" />
    <glyph glyph-name="uni041E" unicode="&#x41e;" horiz-adv-x="1658" 
d="M829 -25q-373 0 -550 180.5t-177 561.5q0 382 176.5 560.5t550.5 178.5q375 0 551 -178.5t176 -560.5q0 -381 -177 -561.5t-550 -180.5zM829 205q220 0 314 121.5t94 390.5q0 272 -95 393t-313 121q-220 0 -313.5 -122t-93.5 -392q0 -272 94.5 -392t312.5 -120z" />
    <glyph glyph-name="uni041F" unicode="&#x41f;" horiz-adv-x="1699" 
d="M1542 1434v-1434h-315v1206h-754v-1206h-315v1434h1384z" />
    <glyph glyph-name="uni0420" unicode="&#x420;" horiz-adv-x="1472" 
d="M874 1434q519 0 519 -441q0 -104 -28 -183t-75 -127.5t-115.5 -79.5t-141 -42.5t-159.5 -11.5h-401v-549h-315v1434h716zM831 770q254 0 254 223q0 115 -65 166t-189 51h-358v-440h358z" />
    <glyph glyph-name="uni0421" unicode="&#x421;" horiz-adv-x="1589" 
d="M827 -25q-372 0 -548.5 179.5t-176.5 562.5q0 381 176.5 560t550.5 179q320 0 501.5 -122t187.5 -369h-314q-6 134 -102.5 200t-270.5 66q-222 0 -316.5 -122.5t-94.5 -391.5q0 -272 94.5 -392t314.5 -120q358 0 375 262h314q-5 -166 -92 -277t-237.5 -163t-361.5 -52z
" />
    <glyph glyph-name="uni0422" unicode="&#x422;" horiz-adv-x="1497" 
d="M1444 1434v-224h-537v-1210h-315v1210h-539v224h1391z" />
    <glyph glyph-name="uni0423" unicode="&#x423;" horiz-adv-x="1607" 
d="M1210 1434h338l-886 -1434h-338l290 500l-557 934h344l387 -674z" />
    <glyph glyph-name="uni0424" unicode="&#x424;" horiz-adv-x="1986" 
d="M1290 1257q320 0 464 -130t144 -408q0 -281 -144.5 -413t-463.5 -132h-139v-174h-315v174h-140q-320 0 -465 132t-145 413q0 278 145 408t465 130h140v177h315v-177h139zM713 393h123v647h-123q-170 0 -244 -79t-74 -244t74 -244.5t244 -79.5zM1274 393q169 0 243 79.5
t74 244.5t-73.5 244t-243.5 79h-123v-647h123z" />
    <glyph glyph-name="uni0425" unicode="&#x425;" horiz-adv-x="1634" 
d="M1575 0h-379l-379 567l-373 -567h-387l541 735l-506 699h377l352 -551l353 551h380l-516 -699z" />
    <glyph glyph-name="uni0426" unicode="&#x426;" horiz-adv-x="1826" 
d="M1526 227h246v-542h-318v315h-1296v1434h315v-1207h735v1207h318v-1207z" />
    <glyph glyph-name="uni0427" unicode="&#x427;" horiz-adv-x="1556" 
d="M1083 1434h316v-1434h-316v559q-179 -67 -407 -67q-284 0 -433 122t-149 359v461h316v-447q0 -127 85.5 -195.5t245.5 -68.5q184 0 342 68v643z" />
    <glyph glyph-name="uni0428" unicode="&#x428;" horiz-adv-x="2398" 
d="M1923 1434h318v-1434h-2083v1434h315v-1207h567v1207h318v-1207h565v1207z" />
    <glyph glyph-name="uni0429" unicode="&#x429;" horiz-adv-x="2535" 
d="M2241 227h241v-542h-317v315h-2007v1434h315v-1207h567v1207h318v-1207h565v1207h318v-1207z" />
    <glyph glyph-name="uni042A" unicode="&#x42a;" horiz-adv-x="1718" 
d="M1102 922q267 0 401.5 -117.5t134.5 -349.5q0 -226 -134.5 -340.5t-401.5 -114.5h-699v1206h-350v228h666v-512h383zM1032 221q291 0 291 238q0 241 -291 241h-313v-479h313z" />
    <glyph glyph-name="uni042B" unicode="&#x42b;" horiz-adv-x="2068" 
d="M856 922q535 0 535 -467q0 -455 -535 -455h-698v1434h315v-512h383zM1593 1434h318v-1434h-318v1434zM786 221q291 0 291 238q0 241 -291 241h-313v-479h313z" />
    <glyph glyph-name="uni042C" unicode="&#x42c;" horiz-adv-x="1472" 
d="M856 922q535 0 535 -467q0 -455 -535 -455h-698v1434h315v-512h383zM786 221q291 0 291 238q0 241 -291 241h-313v-479h313z" />
    <glyph glyph-name="uni042D" unicode="&#x42d;" horiz-adv-x="1589" 
d="M760 1456q374 0 551.5 -179.5t177.5 -559.5q0 -383 -177 -562.5t-550 -179.5q-320 0 -502 122t-188 368h315q7 -135 102 -197.5t273 -62.5q195 0 290.5 95t112.5 306h-686v219h686q-18 210 -113.5 308t-293.5 98q-174 0 -270.5 -65.5t-100.5 -196.5h-315q3 165 89.5 275
t237 161t361.5 51z" />
    <glyph glyph-name="uni042E" unicode="&#x42e;" horiz-adv-x="2381" 
d="M1552 1456q376 0 552.5 -178.5t176.5 -560.5q0 -381 -177.5 -561.5t-551.5 -180.5q-348 0 -525.5 158t-199.5 488h-354v-621h-315v1434h315v-588h358q28 314 204 462t517 148zM1552 205q220 0 314 121.5t94 390.5q0 272 -95 393t-313 121q-220 0 -313.5 -122t-93.5 -392
q0 -272 94.5 -392t312.5 -120z" />
    <glyph glyph-name="uni042F" unicode="&#x42f;" horiz-adv-x="1536" 
d="M1378 1434v-1434h-315v580h-250l-397 -580h-359l443 590q-166 28 -260.5 130t-94.5 284q0 212 135 321t373 109h725zM700 788h363v429h-363q-119 0 -183 -54t-64 -162q0 -104 63.5 -158.5t183.5 -54.5z" />
    <glyph glyph-name="uni0430" unicode="&#x430;" horiz-adv-x="1306" 
d="M659 1047q147 0 252 -26t166.5 -76t90 -116.5t28.5 -154.5v-674h-293v156q-129 -181 -424 -181q-198 0 -304.5 87.5t-106.5 244.5q0 80 30 141t83 97t120.5 53.5t149.5 17.5h440v70q0 94 -59.5 138t-180.5 44q-114 0 -178 -38.5t-65 -108.5h-293q1 113 71 187.5
t188.5 106.5t284.5 32zM584 162q130 0 218.5 67t88.5 193v49h-322q-87 0 -139.5 -37t-52.5 -115q0 -82 57.5 -119.5t149.5 -37.5z" />
    <glyph glyph-name="uni0431" unicode="&#x431;" horiz-adv-x="1361" 
d="M760 946q528 0 528 -467q0 -258 -144.5 -381t-457.5 -123q-316 0 -464 146t-148 438q0 192 35.5 327t112.5 226.5t191.5 141.5t280.5 71q149 19 201.5 39t52.5 70h299q0 -67 -17 -115t-47.5 -80t-86.5 -54t-118.5 -35t-158.5 -24q-150 -17 -239 -54.5t-133 -100.5
t-58 -166q53 68 148.5 104.5t222.5 36.5zM684 168q162 0 231.5 72.5t69.5 232.5q0 158 -71.5 226.5t-229.5 68.5q-160 0 -229.5 -68t-69.5 -221q0 -167 70 -239t229 -72z" />
    <glyph glyph-name="uni0432" unicode="&#x432;" horiz-adv-x="1310" 
d="M1032 532q108 -26 159.5 -85t51.5 -158q0 -154 -117.5 -221.5t-353.5 -67.5h-649v1024h610q232 0 346.5 -62.5t114.5 -205.5q0 -158 -162 -224zM684 856h-258v-252h274q98 0 143.5 31t45.5 96q0 67 -50.5 96t-154.5 29zM705 170q116 0 170.5 33.5t54.5 105.5
q0 76 -53.5 109t-163.5 33h-287v-281h279z" />
    <glyph glyph-name="uni0433" unicode="&#x433;" horiz-adv-x="995" 
d="M954 1024v-205h-528v-819h-303v1024h831z" />
    <glyph glyph-name="uni0434" unicode="&#x434;" horiz-adv-x="1492" 
d="M1460 205v-471h-297v266h-835v-266h-297v471q113 0 160 74t55 233l24 512h992v-819h198zM463 205h495v618h-405l-14 -313q-10 -202 -76 -305z" />
    <glyph glyph-name="uni0435" unicode="&#x435;" horiz-adv-x="1314" 
d="M381 451q11 -147 83 -216t216 -69q115 0 180 40.5t70 112.5h303q-6 -161 -152 -252.5t-407 -91.5q-160 0 -276 36t-187 106.5t-104 167.5t-33 227q0 263 144.5 399t455.5 136q299 0 438 -134t139 -393q0 -29 -4 -69h-866zM674 860q-134 0 -204 -62.5t-87 -199.5h563
q-13 137 -80 199.5t-192 62.5z" />
    <glyph glyph-name="uni0436" unicode="&#x436;" horiz-adv-x="1908" 
d="M1528 0l-293 424h-129v-424h-305v424h-127l-293 -424h-346l407 516l-393 508h334l291 -412h127v412h305v-412h129l291 412h334l-396 -508l410 -516h-346z" />
    <glyph glyph-name="uni0437" unicode="&#x437;" horiz-adv-x="1216" 
d="M924 537q118 -31 171.5 -94.5t53.5 -161.5q0 -153 -132.5 -227t-416.5 -74q-192 0 -312.5 41t-172.5 114.5t-52 183.5h295q0 -163 244 -163q128 0 188 35.5t60 109.5q0 76 -61.5 112t-190.5 36h-213v169h215q223 0 223 130q0 65 -53.5 95.5t-165.5 30.5q-211 0 -217 -145
h-301q0 153 122 233t392 80q268 0 395 -69.5t127 -212.5q0 -84 -46.5 -138.5t-151.5 -84.5z" />
    <glyph glyph-name="uni0438" unicode="&#x438;" horiz-adv-x="1382" 
d="M1260 1024v-1024h-302v688l-526 -688h-309v1024h301v-690l522 690h314z" />
    <glyph glyph-name="uni0439" unicode="&#x439;" horiz-adv-x="1382" 
d="M690 1141q-407 0 -407 295h198q0 -144 207 -144q211 0 211 144h199q0 -156 -105.5 -225.5t-302.5 -69.5zM1260 1024v-1024h-302v688l-526 -688h-309v1024h301v-690l522 690h314z" />
    <glyph glyph-name="uni043A" unicode="&#x43a;" horiz-adv-x="1241" 
d="M854 0l-295 424h-133v-424h-303v1024h303v-412h133l295 412h336l-397 -508l413 -516h-352z" />
    <glyph glyph-name="uni043B" unicode="&#x43b;" horiz-adv-x="1372" 
d="M1249 1024v-1024h-305v819h-407l-17 -354q-5 -98 -19.5 -168.5t-46.5 -132t-84.5 -99t-135 -58.5t-195.5 -21v229q106 0 141 63.5t43 235.5l25 510h1001z" />
    <glyph glyph-name="uni043C" unicode="&#x43c;" horiz-adv-x="1685" 
d="M1565 1024v-1024h-297v776l-301 -776h-246l-303 776v-776h-295v1024h422l299 -805l297 805h424z" />
    <glyph glyph-name="uni043D" unicode="&#x43d;" horiz-adv-x="1380" 
d="M954 1024h306v-1024h-306v412h-528v-412h-303v1024h303v-410h528v410z" />
    <glyph glyph-name="uni043E" unicode="&#x43e;" horiz-adv-x="1359" 
d="M680 -25q-316 0 -461 135t-145 404q0 266 145 399.5t461 133.5q318 0 462 -134t144 -399q0 -268 -145.5 -403.5t-460.5 -135.5zM680 168q157 0 229 84t72 260q0 179 -72 261.5t-229 82.5q-158 0 -229.5 -83.5t-71.5 -260.5q0 -178 73 -261t228 -83z" />
    <glyph glyph-name="uni043F" unicode="&#x43f;" horiz-adv-x="1380" 
d="M1260 1024v-1024h-306v819h-528v-819h-303v1024h1137z" />
    <glyph glyph-name="uni0440" unicode="&#x440;" horiz-adv-x="1404" 
d="M846 1047q253 0 369 -136t116 -393q0 -269 -120.5 -406t-385.5 -137q-269 0 -387 144v-529h-305v1434h291v-162q63 92 172 138.5t250 46.5zM739 172q144 0 215.5 80.5t71.5 257.5q0 173 -71 252.5t-214 79.5q-133 0 -218 -71.5t-85 -182.5v-168q0 -110 84.5 -179
t216.5 -69z" />
    <glyph glyph-name="uni0441" unicode="&#x441;" horiz-adv-x="1300" 
d="M680 -25q-315 0 -460.5 135.5t-145.5 403.5q0 266 144.5 399.5t461.5 133.5q270 0 412 -94.5t145 -282.5h-301q-3 180 -256 180q-155 0 -227 -83t-72 -255q0 -175 72.5 -256.5t226.5 -81.5q121 0 187 45t69 133h301q-3 -184 -146.5 -280.5t-410.5 -96.5z" />
    <glyph glyph-name="uni0442" unicode="&#x442;" horiz-adv-x="1234" 
d="M1198 1024v-205h-428v-819h-305v819h-428v205h1161z" />
    <glyph glyph-name="uni0443" unicode="&#x443;" horiz-adv-x="1339" 
d="M985 1024h320l-650 -1434h-278l180 410h-59l-463 1024h319l310 -778z" />
    <glyph glyph-name="uni0444" unicode="&#x444;" horiz-adv-x="1689" 
d="M1012 1044q321 0 462.5 -130t141.5 -402t-141 -402t-463 -130h-15v-390h-305v390h-14q-320 0 -462 131t-142 403t141.5 401t462.5 129h14v390h305v-390h15zM682 174h10v678h-10q-159 0 -231 -81t-72 -257q0 -178 73 -259t230 -81zM1010 172q157 0 229 82t72 258
q0 179 -72 258.5t-229 79.5h-13v-678h13z" />
    <glyph glyph-name="uni0445" unicode="&#x445;" horiz-adv-x="1286" 
d="M1251 0h-350l-262 393l-264 -393h-340l403 522l-377 502h336l244 -389l250 389h332l-373 -502z" />
    <glyph glyph-name="uni0446" unicode="&#x446;" horiz-adv-x="1490" 
d="M1260 205h198v-471h-301v266h-1034v1024h303v-819h528v819h306v-819z" />
    <glyph glyph-name="uni0447" unicode="&#x447;" horiz-adv-x="1259" 
d="M834 1024h303v-1024h-303v334q-124 -45 -304 -45q-219 0 -337.5 96.5t-118.5 286.5v352h305v-330q0 -200 227 -200q132 0 228 38v492z" />
    <glyph glyph-name="uni0448" unicode="&#x448;" horiz-adv-x="2037" 
d="M1612 1024h303v-1024h-1792v1024h303v-819h440v819h305v-819h441v819z" />
    <glyph glyph-name="uni0449" unicode="&#x449;" horiz-adv-x="2148" 
d="M1915 205h199v-471h-302v266h-1689v1024h303v-819h440v819h305v-819h441v819h303v-819z" />
    <glyph glyph-name="uni044A" unicode="&#x44a;" horiz-adv-x="1503" 
d="M944 737q266 0 383 -87.5t117 -284.5q0 -193 -119.5 -279t-386.5 -86h-610v819h-291v205h594v-287h313zM862 184q148 0 211.5 42.5t63.5 142.5q0 99 -62 141.5t-205 42.5h-239v-369h231z" />
    <glyph glyph-name="uni044B" unicode="&#x44b;" horiz-adv-x="1826" 
d="M739 737q266 0 383 -87.5t117 -284.5q0 -193 -119.5 -279t-386.5 -86h-610v1024h303v-287h313zM1401 1024h305v-1024h-305v1024zM657 184q148 0 211.5 42.5t63.5 142.5q0 99 -61.5 141.5t-204.5 42.5h-240v-369h231z" />
    <glyph glyph-name="uni044C" unicode="&#x44c;" horiz-adv-x="1298" 
d="M739 737q266 0 383 -87.5t117 -284.5q0 -193 -119.5 -279t-386.5 -86h-610v1024h303v-287h313zM657 184q148 0 211.5 42.5t63.5 142.5q0 99 -61.5 141.5t-204.5 42.5h-240v-369h231z" />
    <glyph glyph-name="uni044D" unicode="&#x44d;" horiz-adv-x="1300" 
d="M621 1047q317 0 461.5 -133.5t144.5 -399.5q0 -268 -145.5 -403.5t-460.5 -135.5q-268 0 -413 94t-145 275h302q3 -170 256 -170q132 0 204.5 60.5t89.5 187.5h-479v180h479q-17 126 -88.5 187t-205.5 61q-256 0 -256 -174h-302q0 185 143 278t415 93z" />
    <glyph glyph-name="uni044E" unicode="&#x44e;" horiz-adv-x="1945" 
d="M1266 1047q318 0 462 -134t144 -399q0 -268 -145.5 -403.5t-460.5 -135.5q-284 0 -429.5 109.5t-170.5 327.5h-240v-412h-303v1024h303v-410h240q25 216 170 324.5t430 108.5zM1266 168q157 0 230 84t73 260q0 179 -72.5 261.5t-230.5 82.5q-157 0 -229 -84t-72 -260
q0 -178 73 -261t228 -83z" />
    <glyph glyph-name="uni044F" unicode="&#x44f;" horiz-adv-x="1288" 
d="M1165 1024v-1024h-303v389h-203l-270 -389h-354l338 399q-275 44 -275 303q0 322 422 322h645zM610 561h252v285h-252q-104 0 -156.5 -33.5t-52.5 -110.5q0 -74 52.5 -107.5t156.5 -33.5z" />
    <glyph glyph-name="uni0451" unicode="&#x451;" horiz-adv-x="1314" 
d="M555 1368v-223h-270v223h270zM1069 1368v-223h-270v223h270zM381 451q11 -147 83 -216t216 -69q115 0 180 40.5t70 112.5h303q-6 -161 -152 -252.5t-407 -91.5q-160 0 -276 36t-187 106.5t-104 167.5t-33 227q0 263 144.5 399t455.5 136q299 0 438 -134t139 -393
q0 -29 -4 -69h-866zM674 860q-134 0 -204 -62.5t-87 -199.5h563q-13 137 -80 199.5t-192 62.5z" />
    <glyph glyph-name="uni0452" unicode="&#x452;" horiz-adv-x="1452" 
d="M795 930q280 0 431.5 -133t151.5 -375q0 -249 -173 -391t-486 -142v189q172 0 263 87t91 251q0 160 -78.5 243.5t-236.5 83.5q-157 0 -324 -77v-666h-305v1085h-139v175h139v174h305v-174h522v-175h-522v-223q181 68 361 68z" />
    <glyph glyph-name="uni0453" unicode="&#x453;" horiz-adv-x="995" 
d="M936 1458l-305 -305h-242l215 305h332zM954 1024v-205h-528v-819h-303v1024h831z" />
    <glyph glyph-name="uni0454" unicode="&#x454;" horiz-adv-x="1300" 
d="M680 174q256 0 256 170h301q0 -181 -144.5 -275t-412.5 -94q-315 0 -460.5 135.5t-145.5 403.5q0 266 144.5 399.5t461.5 133.5q272 0 414.5 -93t142.5 -278h-301q0 174 -256 174q-133 0 -204.5 -61.5t-88.5 -186.5h479v-180h-479q17 -127 89 -187.5t204 -60.5z" />
    <glyph glyph-name="uni0455" unicode="&#x455;" horiz-adv-x="1228" 
d="M614 -25q-288 0 -415.5 84t-132.5 246h292q0 -78 69.5 -116.5t195.5 -38.5q245 0 245 143q0 113 -190 129l-172 12q-90 7 -159 24.5t-129 50.5t-92 90t-32 136q0 165 132.5 238.5t391.5 73.5q265 0 387.5 -75.5t122.5 -223.5h-282q0 133 -234 133q-108 0 -168.5 -31
t-60.5 -94q0 -106 176 -119l191 -14q66 -6 119.5 -16.5t110 -33.5t94.5 -56t62.5 -87t24.5 -123q0 -174 -137 -253t-410 -79z" />
    <glyph glyph-name="uni0456" unicode="&#x456;" horiz-adv-x="552" 
d="M123 1139v247h307v-247h-307zM125 0v1024h305v-1024h-305z" />
    <glyph glyph-name="uni0457" unicode="&#x457;" horiz-adv-x="552" 
d="M-37 1145v223h244v-223h-244zM346 1145v223h244v-223h-244zM125 0v1024h305v-1024h-305z" />
    <glyph glyph-name="uni0458" unicode="&#x458;" horiz-adv-x="557" 
d="M127 1139v247h307v-247h-307zM-131 -410v201q125 0 186 47q74 51 74 156v1030h305v-1022q0 -243 -170 -338q-115 -70 -395 -74z" />
    <glyph glyph-name="uni0459" unicode="&#x459;" horiz-adv-x="2117" 
d="M1548 737q271 0 391.5 -87.5t120.5 -284.5q0 -194 -121.5 -279.5t-396.5 -85.5h-600v819h-407l-17 -354q-5 -99 -19 -168.5t-46 -131.5t-84.5 -99.5t-134.5 -58.5t-195 -21v229q106 0 141 63.5t43 235.5l25 510h999v-287h301zM1468 184q152 0 217.5 42.5t65.5 142.5
q0 99 -63.5 141.5t-210.5 42.5h-230v-369h221z" />
    <glyph glyph-name="uni045A" unicode="&#x45a;" horiz-adv-x="2129" 
d="M1561 672q272 0 391 -79.5t119 -260.5q0 -175 -122.5 -253.5t-394.5 -78.5h-600v483h-528v-483h-303v1024h303v-352h528v352h306v-352h301zM1481 184q152 0 217 34.5t65 117.5t-63.5 118t-210.5 35h-229v-305h221z" />
    <glyph glyph-name="uni045B" unicode="&#x45b;" horiz-adv-x="1378" 
d="M838 930q119 0 203 -29.5t133 -86.5t70.5 -131.5t21.5 -174.5v-508h-305v481q0 126 -60 182t-178 56q-119 0 -204 -67.5t-85 -192.5v-459h-305v1085h-139v175h139v174h305v-174h522v-175h-522v-331q123 176 404 176z" />
    <glyph glyph-name="uni045C" unicode="&#x45c;" horiz-adv-x="1241" 
d="M1030 1458l-305 -305h-242l215 305h332zM854 0l-295 424h-133v-424h-303v1024h303v-412h133l295 412h336l-397 -508l413 -516h-352z" />
    <glyph glyph-name="uni045D" unicode="&#x45d;" horiz-adv-x="1382" 
d="M821 1149h-241l-306 307h332zM1260 1024v-1024h-302v688l-526 -688h-309v1024h301v-690l522 690h314z" />
    <glyph glyph-name="uni045E" unicode="&#x45e;" horiz-adv-x="1339" 
d="M672 1141q-408 0 -408 295h199q0 -144 207 -144q211 0 211 144h198q0 -156 -105 -225.5t-302 -69.5zM985 1024h320l-650 -1434h-278l180 410h-59l-463 1024h319l310 -778z" />
    <glyph glyph-name="uni045F" unicode="&#x45f;" horiz-adv-x="1380" 
d="M954 1024h306v-1024h-418v-266h-301v266h-418v1024h303v-819h528v819z" />
    <glyph glyph-name="uni0490" unicode="&#x490;" horiz-adv-x="1230" 
d="M879 1657h299v-451h-705v-1206h-315v1434h721v223z" />
    <glyph glyph-name="uni0491" unicode="&#x491;" horiz-adv-x="995" 
d="M678 1241h276v-422h-528v-819h-303v1024h555v217z" />
    <glyph glyph-name="uni0492" unicode="&#x492;" horiz-adv-x="1230" 
d="M1178 1206h-705v-360h442v-225h-442v-621h-315v621h-146v225h146v588h1020v-228z" />
    <glyph glyph-name="uni0493" unicode="&#x493;" horiz-adv-x="995" 
d="M954 819h-528v-241h342v-175h-342v-403h-303v403h-123v175h123v446h831v-205z" />
    <glyph glyph-name="uni0496" unicode="&#x496;" horiz-adv-x="2619" 
d="M2249 227h315v-542h-315v315h-215l-428 629h-209v-629h-316v629h-207l-430 -629h-387l564 741l-533 693h371l415 -580h207v580h316v-580h207l415 580h373l-532 -695z" />
    <glyph glyph-name="uni0497" unicode="&#x497;" horiz-adv-x="2015" 
d="M1714 203h268v-469h-296v266h-158l-293 424h-129v-424h-305v424h-127l-293 -424h-346l407 516l-393 508h334l291 -412h127v412h305v-412h129l291 412h334l-396 -508z" />
    <glyph glyph-name="uni049A" unicode="&#x49a;" horiz-adv-x="1699" 
d="M1337 227h308v-542h-316v315h-215v8l-426 621h-215v-629h-315v1434h315v-580h213l420 580h375l-535 -695z" />
    <glyph glyph-name="uni049B" unicode="&#x49b;" horiz-adv-x="1359" 
d="M1044 203h283v-469h-297v266h-176l-295 424h-133v-424h-303v1024h303v-412h133l295 412h336l-397 -508z" />
    <glyph glyph-name="uni049C" unicode="&#x49c;" horiz-adv-x="1853" 
d="M1405 0l-399 629h-119v-283h-254v283h-160v-629h-315v1434h315v-580h160v281h254v-281h114l390 580h374l-505 -691l536 -743h-391z" />
    <glyph glyph-name="uni049D" unicode="&#x49d;" horiz-adv-x="1392" 
d="M1014 0l-275 424h-51v-178h-190v178h-72v-424h-303v1024h303v-412h72v193h190v-193h49l275 412h331l-372 -508l387 -516h-344z" />
    <glyph glyph-name="uni04A2" unicode="&#x4a2;" horiz-adv-x="1837" 
d="M1536 227h246v-542h-318v315h-245v621h-746v-621h-315v1434h315v-588h746v588h317v-1207z" />
    <glyph glyph-name="uni04A3" unicode="&#x4a3;" horiz-adv-x="1490" 
d="M1260 205h198v-471h-297v266h-207v412h-528v-412h-303v1024h303v-410h528v410h306v-819z" />
    <glyph glyph-name="uni04AE" unicode="&#x4ae;" horiz-adv-x="1626" 
d="M1569 1434l-600 -883v-551h-318v553l-594 881h359l393 -658l403 658h357z" />
    <glyph glyph-name="uni04AF" unicode="&#x4af;" horiz-adv-x="1329" 
d="M977 1024h317l-477 -1024v-410h-305v410l-477 1024h317l314 -750z" />
    <glyph glyph-name="uni04B0" unicode="&#x4b0;" horiz-adv-x="1626" 
d="M1569 1434l-416 -613h285v-227h-441l-28 -43v-551h-318v553l-26 41h-439v227h285l-414 613h359l393 -658l403 658h357z" />
    <glyph glyph-name="uni04B1" unicode="&#x4b1;" horiz-adv-x="1329" 
d="M1294 1024l-395 -850h240v-174h-322v-410h-305v410h-324v174h242l-395 850h317l314 -750l311 750h317z" />
    <glyph glyph-name="uni04B2" unicode="&#x4b2;" horiz-adv-x="1781" 
d="M1726 227v-542h-315v315h-215l-379 567l-373 -567h-387l541 735l-506 699h377l352 -551l353 551h380l-516 -699l371 -508h317z" />
    <glyph glyph-name="uni04B3" unicode="&#x4b3;" horiz-adv-x="1406" 
d="M1096 203h276v-469h-297v266h-174l-262 393l-264 -393h-340l403 522l-377 502h336l244 -389l250 389h332l-373 -502z" />
    <glyph glyph-name="uni04B6" unicode="&#x4b6;" horiz-adv-x="1701" 
d="M1399 227h248v-542h-318v315h-246v559q-179 -67 -407 -67q-284 0 -433 122t-149 359v461h316v-447q0 -127 85.5 -195.5t245.5 -68.5q184 0 342 68v643h316v-1207z" />
    <glyph glyph-name="uni04B7" unicode="&#x4b7;" horiz-adv-x="1368" 
d="M1137 203h198v-469h-297v266h-204v334q-124 -45 -304 -45q-219 0 -337.5 96.5t-118.5 286.5v352h305v-330q0 -200 227 -200q132 0 228 38v492h303v-821z" />
    <glyph glyph-name="uni04B8" unicode="&#x4b8;" horiz-adv-x="1677" 
d="M1204 1434h316v-1434h-316v567q-125 -45 -270 -63v-236h-254v226q-287 12 -436.5 133.5t-149.5 345.5v461h316v-447q0 -106 69 -171t201 -85v397h254v-397q154 16 270 64v639z" />
    <glyph glyph-name="uni04B9" unicode="&#x4b9;" horiz-adv-x="1310" 
d="M883 1024h305v-1024h-305v334q-77 -24 -156 -35v-147h-190v137q-222 5 -342.5 101t-120.5 282v352h305v-330q0 -158 158 -192v262h190v-266q94 13 156 37v489z" />
    <glyph glyph-name="uni04BA" unicode="&#x4ba;" horiz-adv-x="1558" 
d="M881 942q284 0 432.5 -122t148.5 -359v-461h-315v446q0 128 -86 196.5t-246 68.5q-184 0 -342 -68v-643h-315v1434h315v-560q182 68 408 68z" />
    <glyph glyph-name="uni04BB" unicode="&#x4bb;" horiz-adv-x="1382" 
d="M842 1047q119 0 203 -29.5t133 -86.5t70.5 -131.5t21.5 -174.5v-625h-305v598q0 127 -59.5 183.5t-178.5 56.5q-56 0 -107 -16.5t-92 -48t-65.5 -82t-24.5 -113.5v-578h-305v1434h305v-562q125 175 404 175z" />
    <glyph glyph-name="uni04C0" unicode="&#x4c0;" horiz-adv-x="630" 
d="M158 0v1434h315v-1434h-315z" />
    <glyph glyph-name="uni04CF" unicode="&#x4cf;" horiz-adv-x="577" 
d="M131 0v1434h315v-1434h-315z" />
    <glyph glyph-name="uni04D8" unicode="&#x4d8;" horiz-adv-x="1652" 
d="M825 1456q374 0 550.5 -178.5t176.5 -560.5q0 -381 -177 -561.5t-550 -180.5q-374 0 -551.5 180.5t-177.5 561.5q0 36 4 114h1129q-19 210 -114.5 305t-289.5 95q-161 0 -255.5 -59t-123.5 -187h-321q43 240 214.5 355.5t485.5 115.5zM825 203q198 0 293.5 99.5
t110.5 315.5h-809q15 -218 111 -316.5t294 -98.5z" />
    <glyph glyph-name="uni04D9" unicode="&#x4d9;" horiz-adv-x="1314" 
d="M641 1049q160 0 276 -36t187 -106.5t104 -167.5t33 -227q0 -263 -144.5 -399t-455.5 -136q-299 0 -438.5 134t-139.5 393q0 19 5 69h866q-11 147 -83 216t-216 69q-115 0 -180 -40.5t-70 -112.5h-303q6 161 152 252.5t407 91.5zM641 164q134 0 204 62.5t87 199.5h-563
q13 -137 80 -199.5t192 -62.5z" />
    <glyph glyph-name="uni04E2" unicode="&#x4e2;" horiz-adv-x="1699" 
d="M1180 1743v-172h-662v172h662zM1542 1434v-1434h-311v1036l-731 -1036h-342v1434h311v-1033l721 1033h352z" />
    <glyph glyph-name="uni04E3" unicode="&#x4e3;" horiz-adv-x="1382" 
d="M1022 1333v-172h-662v172h662zM1260 1024v-1024h-302v688l-526 -688h-309v1024h301v-690l522 690h314z" />
    <glyph glyph-name="uni04E8" unicode="&#x4e8;" horiz-adv-x="1658" 
d="M829 1456q375 0 551 -178.5t176 -560.5q0 -381 -177 -561.5t-550 -180.5t-550 180.5t-177 561.5q0 382 176.5 560.5t550.5 178.5zM829 1231q-192 0 -286.5 -92.5t-114.5 -292.5h803q-20 202 -115.5 293.5t-286.5 91.5zM829 205q200 0 295 99.5t109 316.5h-807
q14 -219 109 -317.5t294 -98.5z" />
    <glyph glyph-name="uni04E9" unicode="&#x4e9;" horiz-adv-x="1359" 
d="M680 1047q318 0 462 -134t144 -399q0 -268 -145.5 -403.5t-460.5 -135.5q-316 0 -461 135t-145 404q0 266 145 399.5t461 133.5zM680 856q-137 0 -208.5 -62t-86.5 -192h590q-15 130 -87.5 192t-207.5 62zM680 168q136 0 208 62.5t87 191.5h-590q17 -130 89 -192t206 -62
z" />
    <glyph glyph-name="uni04EE" unicode="&#x4ee;" horiz-adv-x="1607" 
d="M1135 1743v-172h-662v172h662zM1210 1434h338l-886 -1434h-338l290 500l-557 934h344l387 -674z" />
    <glyph glyph-name="uni04EF" unicode="&#x4ef;" horiz-adv-x="1339" 
d="M1004 1333v-172h-662v172h662zM985 1024h320l-650 -1434h-278l180 410h-59l-463 1024h319l310 -778z" />
    <glyph glyph-name="uni1E04" unicode="&#x1e04;" horiz-adv-x="1519" 
d="M1180 741q252 -82 252 -346q0 -90 -27.5 -159.5t-73.5 -113.5t-111.5 -72t-136 -39t-153.5 -11h-772v1434h710q84 0 156.5 -13t135.5 -42t108 -72t70.5 -107.5t25.5 -144.5q0 -218 -184 -314zM821 1223h-348v-383h361q225 0 225 190q0 193 -238 193zM856 213
q264 0 264 215q0 109 -65.5 159t-192.5 50h-389v-424h383zM621 -371v234h278v-234h-278z" />
    <glyph glyph-name="uni1E05" unicode="&#x1e05;" horiz-adv-x="1404" 
d="M842 1047q256 0 372.5 -136t116.5 -395q0 -266 -121 -403.5t-383 -137.5q-289 0 -403 175v-150h-291v1434h305v-555q63 83 167.5 125.5t236.5 42.5zM741 172q142 0 213.5 80.5t71.5 257.5q0 173 -71 252.5t-214 79.5q-134 0 -218.5 -71.5t-84.5 -182.5v-166
q0 -108 85 -179t218 -71zM637 -371v234h278v-234h-278z" />
    <glyph glyph-name="uni1E0C" unicode="&#x1e0c;" horiz-adv-x="1644" 
d="M877 1434q161 0 280.5 -37t208 -119t133.5 -222t45 -337q0 -199 -45 -339.5t-133.5 -223t-208 -119.5t-280.5 -37h-719v1434h719zM854 227q98 0 165 24t114.5 81t69.5 152.5t22 236.5q0 115 -15 198.5t-43.5 138.5t-75 88t-103.5 46.5t-134 13.5h-381v-979h381zM614 -371
v234h279v-234h-279z" />
    <glyph glyph-name="uni1E0D" unicode="&#x1e0d;" horiz-adv-x="1400" 
d="M967 1434h305v-1434h-293v154q-63 -89 -171 -134t-247 -45q-252 0 -369.5 136.5t-117.5 398.5q0 537 504 537q269 0 389 -152v539zM662 176q134 0 219.5 71.5t85.5 182.5v166q0 108 -85 179t-218 71q-143 0 -214 -80.5t-71 -255.5t70 -254.5t213 -79.5zM549 -371v234h278
v-234h-278z" />
    <glyph glyph-name="uni1E0E" unicode="&#x1e0e;" horiz-adv-x="1644" 
d="M877 1434q161 0 280.5 -37t208 -119t133.5 -222t45 -337q0 -199 -45 -339.5t-133.5 -223t-208 -119.5t-280.5 -37h-719v1434h719zM854 227q98 0 165 24t114.5 81t69.5 152.5t22 236.5q0 115 -15 198.5t-43.5 138.5t-75 88t-103.5 46.5t-134 13.5h-381v-979h381zM391 -360
v172h727v-172h-727z" />
    <glyph glyph-name="uni1E0F" unicode="&#x1e0f;" horiz-adv-x="1400" 
d="M967 1434h305v-1434h-293v154q-63 -89 -171 -134t-247 -45q-252 0 -369.5 136.5t-117.5 398.5q0 537 504 537q269 0 389 -152v539zM662 176q134 0 219.5 71.5t85.5 182.5v166q0 108 -85 179t-218 71q-143 0 -214 -80.5t-71 -255.5t70 -254.5t213 -79.5zM326 -360v172h727
v-172h-727z" />
    <glyph glyph-name="uni1E12" unicode="&#x1e12;" horiz-adv-x="1644" 
d="M877 1434q161 0 280.5 -37t208 -119t133.5 -222t45 -337q0 -199 -45 -339.5t-133.5 -223t-208 -119.5t-280.5 -37h-719v1434h719zM854 227q98 0 165 24t114.5 81t69.5 152.5t22 236.5q0 115 -15 198.5t-43.5 138.5t-75 88t-103.5 46.5t-134 13.5h-381v-979h381zM877 -82
l297 -305h-259l-161 176l-162 -176h-258l297 305h246z" />
    <glyph glyph-name="uni1E13" unicode="&#x1e13;" horiz-adv-x="1400" 
d="M967 1434h305v-1434h-293v154q-63 -89 -171 -134t-247 -45q-252 0 -369.5 136.5t-117.5 398.5q0 537 504 537q269 0 389 -152v539zM662 176q134 0 219.5 71.5t85.5 182.5v166q0 108 -85 179t-218 71q-143 0 -214 -80.5t-71 -255.5t70 -254.5t213 -79.5zM813 -82l297 -305
h-258l-162 176l-162 -176h-258l297 305h246z" />
    <glyph glyph-name="uni1E24" unicode="&#x1e24;" horiz-adv-x="1693" 
d="M1219 1434h317v-1434h-317v621h-746v-621h-315v1434h315v-588h746v588zM702 -371v234h279v-234h-279z" />
    <glyph glyph-name="uni1E25" unicode="&#x1e25;" horiz-adv-x="1382" 
d="M842 1047q119 0 203 -29.5t133 -86.5t70.5 -131.5t21.5 -174.5v-625h-305v598q0 127 -59.5 183.5t-178.5 56.5q-56 0 -107 -16.5t-92 -48t-65.5 -82t-24.5 -113.5v-578h-305v1434h305v-562q125 175 404 175zM561 -371v234h279v-234h-279z" />
    <glyph glyph-name="uni1E2E" unicode="&#x1e2e;" horiz-adv-x="630" 
d="M170 1849l215 305h332l-307 -305h-240zM-74 1554v224h271v-224h-271zM440 1554v224h271v-224h-271zM158 0v1434h315v-1434h-315z" />
    <glyph glyph-name="uni1E2F" unicode="&#x1e2f;" horiz-adv-x="552" 
d="M131 1452l215 307h332l-305 -307h-242zM-37 1145v223h244v-223h-244zM346 1145v223h244v-223h-244zM125 0v1024h305v-1024h-305z" />
    <glyph glyph-name="uni1E36" unicode="&#x1e36;" horiz-adv-x="1323" 
d="M473 223h795v-223h-1110v1434h315v-1211zM571 -371v234h279v-234h-279z" />
    <glyph glyph-name="uni1E37" unicode="&#x1e37;" horiz-adv-x="567" 
d="M131 0v1434h305v-1434h-305zM143 -371v234h279v-234h-279z" />
    <glyph glyph-name="uni1E3C" unicode="&#x1e3c;" horiz-adv-x="1323" 
d="M473 223h795v-223h-1110v1434h315v-1211zM836 -82l297 -305h-259l-161 176l-162 -176h-258l297 305h246z" />
    <glyph glyph-name="uni1E3D" unicode="&#x1e3d;" horiz-adv-x="567" 
d="M436 1434v-1434h-305v1434h305zM705 -387h-259l-161 176l-162 -176h-258l297 305h246z" />
    <glyph glyph-name="uni1E3E" unicode="&#x1e3e;" horiz-adv-x="2078" 
d="M1436 1868l-306 -305h-241l215 305h332zM1921 1434v-1434h-303v1128l-440 -1128h-277l-440 1128v-1128h-303v1434h458l424 -1125l424 1125h457z" />
    <glyph glyph-name="uni1E3F" unicode="&#x1e3f;" horiz-adv-x="2134" 
d="M1466 1458l-305 -305h-241l215 305h331zM1610 1047q117 0 200.5 -34.5t128 -96.5t63.5 -132.5t19 -158.5v-625h-305v598q0 120 -55.5 180t-159.5 60q-117 0 -196.5 -66t-79.5 -188v-584h-305v598q0 120 -55.5 180t-159.5 60q-115 0 -197 -69t-82 -191v-578h-303v1024h289
v-168q120 191 403 191q277 0 369 -203q62 100 173 151.5t253 51.5z" />
    <glyph glyph-name="uni1E44" unicode="&#x1e44;" horiz-adv-x="1705" 
d="M993 1780v-232h-278v232h278zM1241 1434h305v-1434h-348l-735 1038v-1038h-305v1434h344l739 -1053v1053z" />
    <glyph glyph-name="uni1E45" unicode="&#x1e45;" horiz-adv-x="1372" 
d="M829 1370v-231h-278v231h278zM836 1047q228 0 326 -109.5t98 -312.5v-625h-306v598q0 127 -59.5 183.5t-177.5 56.5q-119 0 -205 -68.5t-86 -191.5v-578h-303v1024h291v-162q126 185 422 185z" />
    <glyph glyph-name="uni1E46" unicode="&#x1e46;" horiz-adv-x="1705" 
d="M1241 1434h305v-1434h-348l-735 1038v-1038h-305v1434h344l739 -1053v1053zM713 -371v234h278v-234h-278z" />
    <glyph glyph-name="uni1E47" unicode="&#x1e47;" horiz-adv-x="1372" 
d="M836 1047q228 0 326 -109.5t98 -312.5v-625h-306v598q0 127 -59.5 183.5t-177.5 56.5q-119 0 -205 -68.5t-86 -191.5v-578h-303v1024h291v-162q126 185 422 185zM549 -371v234h278v-234h-278z" />
    <glyph glyph-name="uni1E4A" unicode="&#x1e4a;" horiz-adv-x="1705" 
d="M1241 1434h305v-1434h-348l-735 1038v-1038h-305v1434h344l739 -1053v1053zM977 -82l297 -305h-258l-162 176l-162 -176h-258l297 305h246z" />
    <glyph glyph-name="uni1E4B" unicode="&#x1e4b;" horiz-adv-x="1372" 
d="M836 1047q228 0 326 -109.5t98 -312.5v-625h-306v598q0 127 -59.5 183.5t-177.5 56.5q-119 0 -205 -68.5t-86 -191.5v-578h-303v1024h291v-162q126 185 422 185zM813 -82l297 -305h-258l-162 176l-162 -176h-258l297 305h246z" />
    <glyph glyph-name="uni1E4C" unicode="&#x1e4c;" horiz-adv-x="1658" 
d="M682 1872l217 305h330l-305 -305h-242zM391 1548q0 126 63 196.5t177 70.5q62 0 139 -25l117 -39q56 -20 108 -20q53 0 82 22.5t29 63.5h162q0 -122 -65 -191.5t-179 -69.5q-62 0 -139 25l-121 41q-58 18 -107 18q-54 0 -83 -24t-29 -68h-154zM829 -25q-373 0 -550 180.5
t-177 561.5q0 382 176.5 560.5t550.5 178.5q375 0 551 -178.5t176 -560.5q0 -381 -177 -561.5t-550 -180.5zM829 205q220 0 314 121.5t94 390.5q0 272 -95 393t-313 121q-220 0 -313.5 -122t-93.5 -392q0 -272 94.5 -392t312.5 -120z" />
    <glyph glyph-name="uni1E4D" unicode="&#x1e4d;" horiz-adv-x="1359" 
d="M535 1468l217 306h329l-305 -306h-241zM244 1145q0 126 62.5 196t176.5 70q63 0 140 -25l116 -38q59 -21 109 -21q53 0 81.5 22.5t28.5 63.5h162q0 -122 -64.5 -191t-178.5 -69q-63 0 -140 25l-121 41q-59 18 -106 18q-54 0 -83.5 -24t-29.5 -68h-153zM680 -25
q-316 0 -461 135t-145 404q0 266 145 399.5t461 133.5q318 0 462 -134t144 -399q0 -268 -145.5 -403.5t-460.5 -135.5zM680 168q157 0 229 84t72 260q0 179 -72 261.5t-229 82.5q-158 0 -229.5 -83.5t-71.5 -260.5q0 -178 73 -261t228 -83z" />
    <glyph glyph-name="uni1E50" unicode="&#x1e50;" horiz-adv-x="1658" 
d="M1016 1868h-242l-305 307h332zM500 1571v172h661v-172h-661zM829 -25q-373 0 -550 180.5t-177 561.5q0 382 176.5 560.5t550.5 178.5q375 0 551 -178.5t176 -560.5q0 -381 -177 -561.5t-550 -180.5zM829 205q220 0 314 121.5t94 390.5q0 272 -95 393t-313 121
q-220 0 -313.5 -122t-93.5 -392q0 -272 94.5 -392t312.5 -120z" />
    <glyph glyph-name="uni1E51" unicode="&#x1e51;" horiz-adv-x="1359" 
d="M866 1464h-241l-306 308h332zM350 1167v172h662v-172h-662zM680 -25q-316 0 -461 135t-145 404q0 266 145 399.5t461 133.5q318 0 462 -134t144 -399q0 -268 -145.5 -403.5t-460.5 -135.5zM680 168q157 0 229 84t72 260q0 179 -72 261.5t-229 82.5q-158 0 -229.5 -83.5
t-71.5 -260.5q0 -178 73 -261t228 -83z" />
    <glyph glyph-name="uni1E52" unicode="&#x1e52;" horiz-adv-x="1658" 
d="M688 1868l217 307h330l-305 -307h-242zM500 1571v172h661v-172h-661zM829 -25q-373 0 -550 180.5t-177 561.5q0 382 176.5 560.5t550.5 178.5q375 0 551 -178.5t176 -560.5q0 -381 -177 -561.5t-550 -180.5zM829 205q220 0 314 121.5t94 390.5q0 272 -95 393t-313 121
q-220 0 -313.5 -122t-93.5 -392q0 -272 94.5 -392t312.5 -120z" />
    <glyph glyph-name="uni1E53" unicode="&#x1e53;" horiz-adv-x="1359" 
d="M539 1464l217 308h329l-305 -308h-241zM350 1167v172h662v-172h-662zM680 -25q-316 0 -461 135t-145 404q0 266 145 399.5t461 133.5q318 0 462 -134t144 -399q0 -268 -145.5 -403.5t-460.5 -135.5zM680 168q157 0 229 84t72 260q0 179 -72 261.5t-229 82.5
q-158 0 -229.5 -83.5t-71.5 -260.5q0 -178 73 -261t228 -83z" />
    <glyph glyph-name="uni1E62" unicode="&#x1e62;" horiz-adv-x="1454" 
d="M715 -25q-636 0 -645 441h323q0 -215 332 -215q326 0 326 219q0 180 -248 198l-207 21q-54 6 -99.5 14t-97.5 23t-93 35t-80 51t-65 70t-41.5 93t-15.5 119q0 412 625 412q606 0 614 -391h-319q0 95 -75.5 137.5t-219.5 42.5q-305 0 -305 -188q0 -49 20 -83.5t57.5 -53
t74.5 -27.5t88 -14l223 -23q79 -9 144.5 -26t131 -49.5t110 -78t72 -115t27.5 -157.5q0 -234 -172 -344.5t-485 -110.5zM582 -371v234h278v-234h-278z" />
    <glyph glyph-name="uni1E63" unicode="&#x1e63;" horiz-adv-x="1228" 
d="M614 -25q-288 0 -415.5 84t-132.5 246h292q0 -78 69.5 -116.5t195.5 -38.5q245 0 245 143q0 113 -190 129l-172 12q-90 7 -159 24.5t-129 50.5t-92 90t-32 136q0 165 132.5 238.5t391.5 73.5q265 0 387.5 -75.5t122.5 -223.5h-282q0 133 -234 133q-108 0 -168.5 -31
t-60.5 -94q0 -106 176 -119l191 -14q66 -6 119.5 -16.5t110 -33.5t94.5 -56t62.5 -87t24.5 -123q0 -174 -137 -253t-410 -79zM477 -371v234h279v-234h-279z" />
    <glyph glyph-name="uni1E6C" unicode="&#x1e6c;" horiz-adv-x="1497" 
d="M1444 1434v-224h-537v-1210h-315v1210h-539v224h1391zM608 -371v234h279v-234h-279z" />
    <glyph glyph-name="uni1E6D" unicode="&#x1e6d;" horiz-adv-x="909" 
d="M831 827h-270v-481q0 -88 38 -126t132 -38q59 0 98 4v-196q-83 -13 -172 -13q-77 0 -134.5 9t-110 33.5t-85.5 65.5t-52 107.5t-19 157.5v477h-205v197h205v289h305v-289h270v-197zM449 -371v234h278v-234h-278z" />
    <glyph glyph-name="uni1E6E" unicode="&#x1e6e;" horiz-adv-x="1497" 
d="M1444 1434v-224h-537v-1210h-315v1210h-539v224h1391zM385 -360v172h727v-172h-727z" />
    <glyph glyph-name="uni1E6F" unicode="&#x1e6f;" horiz-adv-x="909" 
d="M256 350v477h-205v197h205v289h305v-289h270v-197h-270v-481q0 -88 38 -126t132 -38q59 0 98 4v-196q-83 -13 -172 -13q-77 0 -134.5 9t-110 33.5t-85.5 65.5t-52 107.5t-19 157.5zM227 -188h727v-172h-727v172z" />
    <glyph glyph-name="uni1E70" unicode="&#x1e70;" horiz-adv-x="1497" 
d="M1444 1434v-224h-537v-1210h-315v1210h-539v224h1391zM872 -82l297 -305h-258l-161 176l-162 -176h-258l297 305h245z" />
    <glyph glyph-name="uni1E71" unicode="&#x1e71;" horiz-adv-x="909" 
d="M256 350v477h-205v197h205v289h305v-289h270v-197h-270v-481q0 -88 38 -126t132 -38q59 0 98 4v-196q-83 -13 -172 -13q-77 0 -134.5 9t-110 33.5t-85.5 65.5t-52 107.5t-19 157.5zM1010 -387h-258l-162 176l-162 -176h-258l297 305h246z" />
    <glyph glyph-name="Wgrave" unicode="&#x1e80;" horiz-adv-x="2367" 
d="M1311 1559h-242l-305 307h332zM1980 1434h330l-469 -1434h-325l-332 1147l-334 -1147h-324l-469 1434h330l311 -1139l328 1139h315l328 -1139z" />
    <glyph glyph-name="wgrave" unicode="&#x1e81;" horiz-adv-x="2039" 
d="M1147 1149h-242l-305 307h332zM1675 1024h316l-389 -1024h-334l-252 782l-256 -782h-334l-377 1024h313l252 -791l250 791h303l248 -797z" />
    <glyph glyph-name="Wacute" unicode="&#x1e82;" horiz-adv-x="2367" 
d="M1579 1868l-305 -305h-242l215 305h332zM1980 1434h330l-469 -1434h-325l-332 1147l-334 -1147h-324l-469 1434h330l311 -1139l328 1139h315l328 -1139z" />
    <glyph glyph-name="wacute" unicode="&#x1e83;" horiz-adv-x="2039" 
d="M1413 1458l-305 -305h-242l215 305h332zM1675 1024h316l-389 -1024h-334l-252 782l-256 -782h-334l-377 1024h313l252 -791l250 791h303l248 -797z" />
    <glyph glyph-name="Wdieresis" unicode="&#x1e84;" horiz-adv-x="2367" 
d="M1063 1778v-224h-270v224h270zM1577 1778v-224h-270v224h270zM1980 1434h330l-469 -1434h-325l-332 1147l-334 -1147h-324l-469 1434h330l311 -1139l328 1139h315l328 -1139z" />
    <glyph glyph-name="wdieresis" unicode="&#x1e85;" horiz-adv-x="2039" 
d="M899 1368v-223h-270v223h270zM1413 1368v-223h-270v223h270zM1675 1024h316l-389 -1024h-334l-252 782l-256 -782h-334l-377 1024h313l252 -791l250 791h303l248 -797z" />
    <glyph glyph-name="uni1E92" unicode="&#x1e92;" horiz-adv-x="1415" 
d="M422 223h928v-223h-1293v223l895 987h-843v224h1210v-224zM580 -371v234h278v-234h-278z" />
    <glyph glyph-name="uni1E93" unicode="&#x1e93;" horiz-adv-x="1198" 
d="M432 201h703v-201h-1082v201l699 622h-662v201h1024v-201zM459 -371v234h278v-234h-278z" />
    <glyph glyph-name="uni1E9E" unicode="&#x1e9e;" horiz-adv-x="1521" 
d="M1022 815q416 -56 416 -393q0 -234 -166.5 -340.5t-485.5 -106.5q-110 0 -196 11v217q78 -8 166 -8q192 0 277 62t85 187q0 55 -17.5 95.5t-49.5 66.5t-82.5 42t-110 22.5t-139.5 7.5v149l280 293q-23 38 -86.5 62t-156.5 24h-283v-1206h-315v1434h598q251 0 394.5 -84.5
t174.5 -227.5z" />
    <glyph glyph-name="uni1EA1" unicode="&#x1ea1;" horiz-adv-x="1306" 
d="M659 1047q147 0 252 -26t166.5 -76t90 -116.5t28.5 -154.5v-674h-293v156q-129 -181 -424 -181q-198 0 -304.5 87.5t-106.5 244.5q0 80 30 141t83 97t120.5 53.5t149.5 17.5h440v70q0 94 -59.5 138t-180.5 44q-114 0 -178 -38.5t-65 -108.5h-293q1 113 71 187.5
t188.5 106.5t284.5 32zM584 162q130 0 218.5 67t88.5 193v49h-322q-87 0 -139.5 -37t-52.5 -115q0 -82 57.5 -119.5t149.5 -37.5zM485 -371v234h279v-234h-279z" />
    <glyph glyph-name="uni1EAC" unicode="&#x1eac;" horiz-adv-x="1683" 
d="M840 1737l-162 -176h-258l297 305h246l297 -305h-259zM1624 0h-334l-114 301h-670l-115 -301h-332l617 1434h332zM586 512h510l-254 676zM702 -371v234h279v-234h-279z" />
    <glyph glyph-name="uni1EAD" unicode="&#x1ead;" horiz-adv-x="1306" 
d="M666 1327l-162 -176h-258l297 305h245l297 -305h-258zM659 1047q147 0 252 -26t166.5 -76t90 -116.5t28.5 -154.5v-674h-293v156q-129 -181 -424 -181q-198 0 -304.5 87.5t-106.5 244.5q0 80 30 141t83 97t120.5 53.5t149.5 17.5h440v70q0 94 -59.5 138t-180.5 44
q-114 0 -178 -38.5t-65 -108.5h-293q1 113 71 187.5t188.5 106.5t284.5 32zM584 162q130 0 218.5 67t88.5 193v49h-322q-87 0 -139.5 -37t-52.5 -115q0 -82 57.5 -119.5t149.5 -37.5zM485 -371v234h279v-234h-279z" />
    <glyph glyph-name="uni1EB8" unicode="&#x1eb8;" horiz-adv-x="1427" 
d="M485 223h865v-223h-1182v1434h1151v-222h-834v-364h801v-219h-801v-406zM633 -371v234h278v-234h-278z" />
    <glyph glyph-name="uni1EB9" unicode="&#x1eb9;" horiz-adv-x="1314" 
d="M381 451q11 -147 83 -216t216 -69q115 0 180 40.5t70 112.5h303q-6 -161 -152 -252.5t-407 -91.5q-160 0 -276 36t-187 106.5t-104 167.5t-33 227q0 263 144.5 399t455.5 136q299 0 438 -134t139 -393q0 -29 -4 -69h-866zM674 860q-134 0 -204 -62.5t-87 -199.5h563
q-13 137 -80 199.5t-192 62.5zM537 -371v234h278v-234h-278z" />
    <glyph glyph-name="uni1EBC" unicode="&#x1ebc;" horiz-adv-x="1427" 
d="M569 1640q-54 0 -83 -24t-29 -68h-154q0 126 63 196.5t177 70.5q62 0 139 -25l117 -39q56 -20 108 -20q53 0 82 22.5t29 63.5h162q0 -122 -65 -191.5t-179 -69.5q-62 0 -139 25l-121 41q-58 18 -107 18zM485 223h865v-223h-1182v1434h1151v-222h-834v-364h801v-219h-801
v-406z" />
    <glyph glyph-name="uni1EBD" unicode="&#x1ebd;" horiz-adv-x="1314" 
d="M502 1231q-54 0 -83.5 -24t-29.5 -68h-153q0 126 62.5 196t176.5 70q62 0 139 -25l117 -39q56 -20 109 -20t81.5 22.5t28.5 63.5h162q0 -121 -65 -190.5t-179 -69.5q-66 0 -139 24l-121 41q-62 19 -106 19zM381 451q11 -147 83 -216t216 -69q115 0 180 40.5t70 112.5h303
q-6 -161 -152 -252.5t-407 -91.5q-160 0 -276 36t-187 106.5t-104 167.5t-33 227q0 263 144.5 399t455.5 136q299 0 438 -134t139 -393q0 -29 -4 -69h-866zM674 860q-134 0 -204 -62.5t-87 -199.5h563q-13 137 -80 199.5t-192 62.5z" />
    <glyph glyph-name="uni1EC6" unicode="&#x1ec6;" horiz-adv-x="1427" 
d="M741 1737l-161 -176h-258l296 305h246l297 -305h-258zM485 223h865v-223h-1182v1434h1151v-222h-834v-364h801v-219h-801v-406zM633 -371v234h278v-234h-278z" />
    <glyph glyph-name="uni1EC7" unicode="&#x1ec7;" horiz-adv-x="1314" 
d="M674 1327l-162 -176h-258l297 305h246l297 -305h-258zM381 451q11 -147 83 -216t216 -69q115 0 180 40.5t70 112.5h303q-6 -161 -152 -252.5t-407 -91.5q-160 0 -276 36t-187 106.5t-104 167.5t-33 227q0 263 144.5 399t455.5 136q299 0 438 -134t139 -393q0 -29 -4 -69
h-866zM674 860q-134 0 -204 -62.5t-87 -199.5h563q-13 137 -80 199.5t-192 62.5zM537 -371v234h278v-234h-278z" />
    <glyph glyph-name="uni1ECA" unicode="&#x1eca;" horiz-adv-x="630" 
d="M158 0v1434h315v-1434h-315zM176 -371v234h279v-234h-279z" />
    <glyph glyph-name="uni1ECB" unicode="&#x1ecb;" horiz-adv-x="552" 
d="M123 1139v247h307v-247h-307zM125 0v1024h305v-1024h-305zM137 -371v234h279v-234h-279z" />
    <glyph glyph-name="uni1ECC" unicode="&#x1ecc;" horiz-adv-x="1658" 
d="M829 -25q-373 0 -550 180.5t-177 561.5q0 382 176.5 560.5t550.5 178.5q375 0 551 -178.5t176 -560.5q0 -381 -177 -561.5t-550 -180.5zM829 205q220 0 314 121.5t94 390.5q0 272 -95 393t-313 121q-220 0 -313.5 -122t-93.5 -392q0 -272 94.5 -392t312.5 -120zM688 -371
v234h279v-234h-279z" />
    <glyph glyph-name="uni1ECD" unicode="&#x1ecd;" horiz-adv-x="1359" 
d="M680 -25q-316 0 -461 135t-145 404q0 266 145 399.5t461 133.5q318 0 462 -134t144 -399q0 -268 -145.5 -403.5t-460.5 -135.5zM680 168q157 0 229 84t72 260q0 179 -72 261.5t-229 82.5q-158 0 -229.5 -83.5t-71.5 -260.5q0 -178 73 -261t228 -83zM541 -371v234h278
v-234h-278z" />
    <glyph glyph-name="uni1ED8" unicode="&#x1ed8;" horiz-adv-x="1658" 
d="M829 1737l-161 -176h-258l297 305h245l297 -305h-258zM829 1456q375 0 551 -178.5t176 -560.5q0 -381 -177 -561.5t-550 -180.5t-550 180.5t-177 561.5q0 382 176.5 560.5t550.5 178.5zM829 205q220 0 314 121.5t94 390.5q0 272 -95 393t-313 121q-220 0 -313.5 -122
t-93.5 -392q0 -272 94.5 -392t312.5 -120zM688 -371v234h279v-234h-279z" />
    <glyph glyph-name="uni1ED9" unicode="&#x1ed9;" horiz-adv-x="1359" 
d="M682 1333l-162 -176h-258l297 305h246l297 -305h-258zM680 1047q318 0 462 -134t144 -399q0 -268 -145.5 -403.5t-460.5 -135.5q-316 0 -461 135t-145 404q0 266 145 399.5t461 133.5zM680 168q157 0 229 84t72 260q0 179 -72 261.5t-229 82.5q-158 0 -229.5 -83.5
t-71.5 -260.5q0 -178 73 -261t228 -83zM541 -371v234h278v-234h-278z" />
    <glyph glyph-name="uni1EE4" unicode="&#x1ee4;" horiz-adv-x="1638" 
d="M825 -25q-366 0 -528 163t-162 505v791h318v-791q0 -235 88 -337.5t284 -102.5q198 0 284.5 108t86.5 332v791h315v-793q0 -182 -44.5 -311t-133.5 -207t-213.5 -113t-294.5 -35zM682 -371v234h279v-234h-279z" />
    <glyph glyph-name="uni1EE5" unicode="&#x1ee5;" horiz-adv-x="1355" 
d="M932 1024h303v-1024h-291v160q-60 -91 -163 -138t-240 -47q-230 0 -331 107.5t-101 318.5v623h305v-600q0 -72 17 -121.5t50 -76t72.5 -37.5t91.5 -11q53 0 102.5 15.5t91.5 45.5t67.5 80.5t25.5 114.5v590zM541 -371v234h278v-234h-278z" />
    <glyph glyph-name="Ygrave" unicode="&#x1ef2;" horiz-adv-x="1626" 
d="M946 1559h-241l-306 307h332zM1569 1434l-600 -883v-551h-318v553l-594 881h359l393 -658l403 658h357z" />
    <glyph glyph-name="ygrave" unicode="&#x1ef3;" horiz-adv-x="1339" 
d="M801 1149h-242l-305 307h332zM985 1024h320l-650 -1434h-278l180 410h-59l-463 1024h319l310 -778z" />
    <glyph glyph-name="endash" unicode="&#x2013;" horiz-adv-x="1478" 
d="M172 487v209h1137v-209h-1137z" />
    <glyph glyph-name="emdash" unicode="&#x2014;" horiz-adv-x="2254" 
d="M172 487v209h1913v-209h-1913z" />
    <glyph glyph-name="quoteleft" unicode="&#x2018;" horiz-adv-x="669" 
d="M543 1618l-150 -365h115v-325h-344v325l205 365h174z" />
    <glyph glyph-name="quoteright" unicode="&#x2019;" horiz-adv-x="669" 
d="M164 1612h342v-326l-205 -364h-174l152 364h-115v326z" />
    <glyph glyph-name="quotesinglbase" unicode="&#x201a;" horiz-adv-x="669" 
d="M164 328h342v-328l-205 -365h-174l152 365h-115v328z" />
    <glyph glyph-name="quotedblleft" unicode="&#x201c;" horiz-adv-x="1251" 
d="M369 1618h174l-150 -365h115v-325h-344v325zM1122 1618l-149 -365h114v-325h-344v325l207 365h172z" />
    <glyph glyph-name="quotedblright" unicode="&#x201d;" horiz-adv-x="1251" 
d="M164 1286v326h342v-326l-205 -364h-174l152 364h-115zM743 1612h342v-326l-204 -364h-174l151 364h-115v326z" />
    <glyph glyph-name="quotedblbase" unicode="&#x201e;" horiz-adv-x="1251" 
d="M164 0v328h342v-328l-205 -365h-174l152 365h-115zM743 328h342v-328l-204 -365h-174l151 365h-115v328z" />
    <glyph glyph-name="dagger" unicode="&#x2020;" horiz-adv-x="1406" 
d="M1278 1020v-207h-436v-1153h-277v1153h-436v207h436v450h277v-450h436z" />
    <glyph glyph-name="daggerdbl" unicode="&#x2021;" 
d="M1307 813h-437v-504h437v-207h-437v-442h-276v442h-436v207h436v504h-436v207h436v450h276v-450h437v-207z" />
    <glyph glyph-name="bullet" unicode="&#x2022;" horiz-adv-x="1044" 
d="M522 276q-168 0 -248.5 88t-80.5 240q0 167 89 247.5t242 80.5q165 0 245.5 -88.5t80.5 -241.5q0 -166 -88.5 -246t-239.5 -80z" />
    <glyph glyph-name="ellipsis" unicode="&#x2026;" horiz-adv-x="2736" 
d="M285 0v326h344v-326h-344zM1196 0v326h344v-326h-344zM2109 0v326h342v-326h-342z" />
    <glyph glyph-name="perthousand" unicode="&#x2030;" horiz-adv-x="3020" 
d="M504 -37l946 1505h215l-946 -1505h-215zM514 639q-193 0 -271.5 93t-78.5 310q0 222 80.5 314t271.5 92q193 0 272.5 -94.5t79.5 -311.5q0 -221 -81 -312t-273 -91zM514 784q93 0 126.5 54t33.5 204q0 152 -33.5 206.5t-126.5 54.5q-91 0 -124.5 -54.5t-33.5 -206.5
q0 -149 33.5 -203.5t124.5 -54.5zM1661 -14q-193 0 -271.5 93t-78.5 310q0 222 80.5 314t271.5 92q192 0 271 -94.5t79 -311.5q0 -222 -80 -312.5t-272 -90.5zM2503 -14q-193 0 -273 93.5t-80 309.5q0 222 81 314t272 92q194 0 273 -94.5t79 -311.5q0 -222 -80 -312.5
t-272 -90.5zM1661 131q93 0 126.5 54t33.5 204q0 152 -33.5 206t-126.5 54q-91 0 -124.5 -54.5t-33.5 -205.5q0 -149 33.5 -203.5t124.5 -54.5zM2503 131q92 0 125.5 54t33.5 204q0 152 -33.5 206t-125.5 54t-125 -54t-33 -206q0 -149 33.5 -203.5t124.5 -54.5z" />
    <glyph glyph-name="guilsinglleft" unicode="&#x2039;" horiz-adv-x="864" 
d="M729 999v-223l-450 -262l450 -264v-223l-614 366v240z" />
    <glyph glyph-name="guilsinglright" unicode="&#x203a;" horiz-adv-x="864" 
d="M133 999l617 -366v-240l-617 -366v223l451 264l-451 262v223z" />
    <glyph glyph-name="fraction" unicode="&#x2044;" horiz-adv-x="335" 
d="M-436 -37l1016 1505h190l-1016 -1505h-190z" />
    <glyph glyph-name="Euro" unicode="&#x20ac;" horiz-adv-x="1916" 
d="M1053 209q169 0 263 64t101 194h314q-7 -246 -187.5 -368t-496.5 -122q-310 0 -482 122.5t-219 381.5h-182v156h164q-2 27 -2 80q0 41 2 59h-164v156h178q44 268 216 396t489 128q319 0 498.5 -122t185.5 -367h-314q-6 127 -101 192.5t-263 65.5q-172 0 -265.5 -70.5
t-125.5 -222.5h530v-156h-547q-2 -18 -2 -59q0 -55 2 -80h547v-156h-526q35 -141 128 -206.5t259 -65.5z" />
    <glyph glyph-name="uni20B9" unicode="&#x20b9;" 
d="M1395 1249h-258q44 -62 59 -153h199v-185h-207q-48 -191 -254 -256q61 -27 101 -77.5t77 -139.5l184 -438h-342l-155 401q-37 96 -85 131t-147 35h-428v211h500q190 0 240 133h-740v185h742q-45 133 -242 133h-500v205h1256v-185z" />
    <glyph glyph-name="uni20BA" unicode="&#x20ba;" 
d="M1139 502h286q-4 -128 -52 -224.5t-134.5 -157t-204.5 -90.5t-266 -30h-594v348l-162 -76v224l162 75v156l-162 -76v223l162 76v484h315v-336l529 245v-223l-529 -246v-155l529 246v-224l-529 -245v-273h279q170 0 267.5 70.5t103.5 208.5z" />
    <glyph glyph-name="uni20BD" unicode="&#x20bd;" horiz-adv-x="1497" 
d="M901 559h-401v-170h444v-211h-444v-178h-318v178h-164v211h164v170h-164v221h164v654h719q516 0 516 -437q0 -102 -28 -179.5t-74.5 -126t-114 -79t-140 -42t-159.5 -11.5zM500 1214v-434h356q127 0 190.5 53t63.5 166q0 114 -64.5 164.5t-189.5 50.5h-356z" />
    <glyph glyph-name="trademark" unicode="&#x2122;" horiz-adv-x="2058" 
d="M842 1434v-115h-271v-610h-159v610h-273v115h703zM1804 1434v-725h-157v569l-224 -569h-135l-225 573v-573h-158v725h228l223 -586l223 586h225z" />
    <glyph glyph-name="uni2153" unicode="&#x2153;" horiz-adv-x="1855" 
d="M1249 1468h191l-1016 -1505h-191zM287 598v664l-236 -119v145l221 148h222v-838h-207zM1683 444q121 -53 121 -204q0 -131 -89 -191.5t-285 -60.5q-107 0 -181 17.5t-115 52t-59 78.5t-18 104h194q0 -60 41 -86.5t135 -26.5q95 0 136 30t41 93q0 64 -40 89.5t-137 25.5
h-94v145h94q87 0 124.5 21t37.5 77q0 52 -38.5 76.5t-123.5 24.5q-87 0 -123 -23t-38 -74h-199q1 56 18.5 97.5t58 73.5t112 48.5t174.5 16.5q185 0 272.5 -56t87.5 -171q0 -125 -107 -177z" />
    <glyph glyph-name="uni2154" unicode="&#x2154;" horiz-adv-x="2031" 
d="M1446 1468h190l-1018 -1505h-190zM780 748v-150h-729v217q0 121 68 177t200 77l130 21q73 13 103 38t30 68q0 111 -154 111q-82 0 -119 -29.5t-37 -91.5h-202q0 141 91 200.5t269 59.5q176 0 264 -60t88 -192q0 -114 -66.5 -171.5t-205.5 -80.5l-119 -20
q-70 -13 -101.5 -41t-31.5 -76v-57h522zM1858 444q122 -52 122 -204q0 -131 -89.5 -191.5t-284.5 -60.5q-107 0 -181 17.5t-115 52t-59 78.5t-18 104h194q0 -60 41.5 -86.5t135.5 -26.5q95 0 135.5 30t40.5 93q0 64 -39.5 89.5t-138.5 25.5h-93v145h93q89 0 126 21t37 77
q0 52 -38 76.5t-123 24.5q-87 0 -123.5 -23t-38.5 -74h-199q1 56 18.5 97.5t58 73.5t112 48.5t174.5 16.5q185 0 272.5 -56t87.5 -171q0 -126 -108 -177z" />
    <glyph glyph-name="oneeighth" unicode="&#x215b;" horiz-adv-x="1861" 
d="M1253 1468h193l-1018 -1505h-190zM287 598v664l-236 -119v145l221 148h222v-838h-207zM1665 438q145 -53 145 -202q0 -123 -87.5 -186.5t-286.5 -63.5q-188 0 -281.5 59.5t-93.5 187.5q0 150 147 205q-131 53 -131 183q0 227 359 227q360 0 360 -227q0 -128 -131 -183z
M1438 713q-83 0 -125.5 -28.5t-42.5 -76.5q0 -50 43 -77t125 -27q83 0 124.5 27.5t41.5 76.5q0 50 -42 77.5t-124 27.5zM1438 125q180 0 180 123q0 125 -180 125q-185 0 -185 -125q0 -123 185 -123z" />
    <glyph glyph-name="threeeighths" unicode="&#x215c;" horiz-adv-x="2035" 
d="M1430 1468h190l-1016 -1505h-190zM799 838q0 -131 -89.5 -191.5t-285.5 -60.5q-107 0 -181 17.5t-115 52t-59 78.5t-18 104h195q0 -60 41 -86.5t135 -26.5q95 0 135.5 30t40.5 93q0 64 -39.5 89.5t-136.5 25.5h-94v145h94q87 0 124.5 21t37.5 77q0 52 -38.5 76.5
t-123.5 24.5q-87 0 -123.5 -23t-38.5 -74h-199q1 56 18.5 97.5t58 73.5t112 48.5t174.5 16.5q185 0 272.5 -56t87.5 -171q0 -126 -106 -177q121 -53 121 -204zM1841 438q146 -53 146 -202q0 -123 -88 -186.5t-287 -63.5q-188 0 -281.5 59.5t-93.5 187.5q0 150 147 205
q-131 53 -131 183q0 227 359 227q360 0 360 -227q0 -128 -131 -183zM1614 713q-83 0 -125.5 -28.5t-42.5 -76.5q0 -50 43 -77t125 -27q83 0 124.5 27.5t41.5 76.5q0 50 -42 77.5t-124 27.5zM1614 125q180 0 180 123q0 125 -180 125q-184 0 -184 -125q0 -123 184 -123z" />
    <glyph glyph-name="fiveeighths" unicode="&#x215d;" horiz-adv-x="2039" 
d="M1434 1468h190l-1016 -1505h-190zM803 887q0 -90 -24 -150t-74 -93t-115.5 -46.5t-159.5 -13.5q-208 0 -293.5 60t-85.5 190h195q0 -56 42 -81.5t138 -25.5q98 0 140 35t42 115q0 84 -42 119.5t-134 35.5q-81 0 -124.5 -24.5t-43.5 -69.5h-192v498h676v-146h-484v-182
q82 57 232 57q163 0 235 -69t72 -209zM1845 438q146 -53 146 -202q0 -123 -88 -186.5t-287 -63.5q-188 0 -281.5 59.5t-93.5 187.5q0 149 148 205q-132 53 -132 183q0 227 359 227q360 0 360 -227q0 -128 -131 -183zM1618 713q-83 0 -125.5 -28.5t-42.5 -76.5q0 -50 43 -77
t125 -27q83 0 124.5 27.5t41.5 76.5q0 50 -42 77.5t-124 27.5zM1618 125q180 0 180 123q0 125 -180 125q-184 0 -184 -125q0 -123 184 -123z" />
    <glyph glyph-name="seveneighths" unicode="&#x215e;" horiz-adv-x="1873" 
d="M1268 1468h190l-1018 -1505h-190zM346 598h-203l375 688h-467v150h664v-150zM1677 438q146 -53 146 -202q0 -123 -88 -186.5t-287 -63.5q-188 0 -281.5 59.5t-93.5 187.5q0 149 150 205q-131 53 -131 183q0 227 356 227q360 0 360 -227q0 -128 -131 -183zM1450 713
q-83 0 -124.5 -28.5t-41.5 -76.5q0 -104 166 -104q83 0 124.5 27.5t41.5 76.5q0 50 -42 77.5t-124 27.5zM1450 125q180 0 180 123q0 125 -180 125q-182 0 -182 -125q0 -123 182 -123z" />
    <glyph glyph-name="minus" unicode="&#x2212;" 
d="M113 410v223h1239v-223h-1239z" />
    <glyph glyph-name="approxequal" unicode="&#x2248;" 
d="M117 584q0 161 77 247.5t222 86.5q60 0 162 -25l356 -88q57 -14 110 -14q74 0 114.5 34t41.5 97h143q0 -160 -74.5 -244t-215.5 -84q-77 0 -158 20l-354 88q-73 17 -115 17q-78 0 -121 -35t-45 -100h-143zM117 150q0 162 77 247.5t222 85.5q76 0 162 -24l356 -86
q70 -17 110 -17q74 0 114.5 34.5t41.5 98.5h143q0 -160 -74.5 -244.5t-215.5 -84.5q-68 0 -158 22l-354 86q-68 19 -115 19q-78 0 -121.5 -35.5t-44.5 -101.5h-143z" />
    <glyph glyph-name="notequal" unicode="&#x2260;" 
d="M1352 629h-443l-129 -230h572v-223h-699l-149 -262h-225l149 262h-317v223h444l129 230h-573v223h700l150 262h225l-150 -262h316v-223z" />
    <glyph glyph-name="lessequal" unicode="&#x2264;" 
d="M1288 1163v-217l-819 -215l819 -219v-217l-1112 321v224zM172 -2v203h1116v-203h-1116z" />
    <glyph glyph-name="greaterequal" unicode="&#x2265;" 
d="M176 1169l1112 -321v-223l-1112 -322v215l819 219l-819 215v217zM442 -2v203h668v-203h-668z" />
    <glyph glyph-name="fi" unicode="&#xfb01;" horiz-adv-x="1470" 
d="M1346 1024v-1024h-304v827h-491v-827h-305v827h-193v197h193v70q0 103 30.5 175t89 112t132 57.5t170.5 17.5q113 0 184 -10v-189q-61 9 -119 9q-99 0 -140.5 -39.5t-41.5 -124.5v-78h795zM1040 1386h308v-247h-308v247z" />
    <glyph glyph-name="fl" unicode="&#xfb02;" horiz-adv-x="1472" 
d="M246 1094q0 103 30.5 175t89 112t132 57.5t170.5 17.5q113 0 184 -10v-189q-61 9 -119 9q-99 0 -140.5 -39.5t-41.5 -124.5v-78h262v-197h-262v-827h-305v827h-193v197h193v70zM1036 1434h305v-1434h-305v1434z" />
    <glyph glyph-name="Iacute_J.loclNLD" horiz-adv-x="1978" 
d="M205 1563l215 305h332l-308 -305h-239zM1565 1563l215 305h331l-305 -305h-241zM158 0v1434h315v-1434h-315zM1262 -25q-130 0 -228.5 19.5t-163 55t-105 89t-57.5 116.5t-18 144h316q1 -104 63.5 -150t194.5 -46q78 0 130 16.5t79.5 49.5t38 74.5t10.5 100.5v990h315
v-973q0 -245 -134 -365.5t-441 -120.5z" />
    <glyph glyph-name="R.ss01" horiz-adv-x="1560" 
d="M1147 0l-330 594h-344v-594h-315v1434h731q115 0 205 -23t157.5 -71t103.5 -128.5t36 -189.5q0 -306 -279 -393l387 -629h-352zM473 1217v-406h358q254 0 254 203t-254 203h-358z" />
    <glyph glyph-name="Racute.ss01" horiz-adv-x="1560" 
d="M1108 1868l-305 -305h-242l215 305h332zM1147 0l-330 594h-344v-594h-315v1434h731q115 0 205 -23t157.5 -71t103.5 -128.5t36 -189.5q0 -306 -279 -393l387 -629h-352zM473 1217v-406h358q254 0 254 203t-254 203h-358z" />
    <glyph glyph-name="Rcaron.ss01" horiz-adv-x="1560" 
d="M588 1563l-297 307h258l162 -178l161 178h258l-296 -307h-246zM1147 0l-330 594h-344v-594h-315v1434h731q115 0 205 -23t157.5 -71t103.5 -128.5t36 -189.5q0 -306 -279 -393l387 -629h-352zM473 1217v-406h358q254 0 254 203t-254 203h-358z" />
    <glyph glyph-name="uni0156.ss01" horiz-adv-x="1560" 
d="M1112 629l387 -629h-352l-330 594h-344v-594h-315v1434h731q115 0 205 -23t157.5 -71t103.5 -128.5t36 -189.5q0 -306 -279 -393zM473 1217v-406h358q254 0 254 203t-254 203h-358zM647 -299v215h258v-215l-129 -205h-129l86 205h-86z" />
    <glyph glyph-name="i.loclTRK" horiz-adv-x="552" 
d="M139 1139v231h279v-231h-279zM125 0v1024h305v-1024h-305z" />
    <glyph glyph-name="i.locl.TRK" horiz-adv-x="595" 
d="M166 1139v247h307v-247h-307zM168 0v1024h305v-1024h-305z" />
    <glyph glyph-name="iacute_j.loclNLD" horiz-adv-x="1110" 
d="M127 1153l215 305h332l-305 -305h-242zM733 1153l215 305h332l-305 -305h-242zM125 0v1024h305v-1024h-305zM422 -410v201q125 0 186 47q74 51 74 156v1030h305v-1022q0 -243 -170 -338q-115 -70 -395 -74z" />
    <glyph glyph-name="a.ss02" horiz-adv-x="1386" 
d="M973 1024h291v-1024h-289v162q-123 -180 -416 -180q-251 0 -368 135t-117 393q0 261 123.5 399t375.5 138q284 0 400 -162v139zM657 178q134 0 219 72t85 182v164q0 107 -85 177.5t-217 70.5q-141 0 -211.5 -80t-70.5 -254q0 -172 70 -252t210 -80z" />
    <glyph glyph-name="aacute.ss02" horiz-adv-x="1386" 
d="M1079 1458l-305 -305h-242l216 305h331zM973 1024h291v-1024h-289v162q-123 -180 -416 -180q-251 0 -368 135t-117 393q0 261 123.5 399t375.5 138q284 0 400 -162v139zM657 178q134 0 219 72t85 182v164q0 107 -85 177.5t-217 70.5q-141 0 -211.5 -80t-70.5 -254
q0 -172 70 -252t210 -80z" />
    <glyph glyph-name="abreve.ss02" horiz-adv-x="1386" 
d="M682 1141q-408 0 -408 295h199q0 -144 207 -144q211 0 211 144h199q0 -156 -105.5 -225.5t-302.5 -69.5zM973 1024h291v-1024h-289v162q-123 -180 -416 -180q-251 0 -368 135t-117 393q0 261 123.5 399t375.5 138q284 0 400 -162v139zM657 178q134 0 219 72t85 182v164
q0 107 -85 177.5t-217 70.5q-141 0 -211.5 -80t-70.5 -254q0 -172 70 -252t210 -80z" />
    <glyph glyph-name="uni01CE.ss02" horiz-adv-x="1386" 
d="M559 1153l-297 307h258l162 -178l162 178h258l-297 -307h-246zM973 1024h291v-1024h-289v162q-123 -180 -416 -180q-251 0 -368 135t-117 393q0 261 123.5 399t375.5 138q284 0 400 -162v139zM657 178q134 0 219 72t85 182v164q0 107 -85 177.5t-217 70.5
q-141 0 -211.5 -80t-70.5 -254q0 -172 70 -252t210 -80z" />
    <glyph glyph-name="acircumflex.ss02" horiz-adv-x="1386" 
d="M682 1327l-162 -176h-258l297 305h246l297 -305h-258zM973 1024h291v-1024h-289v162q-123 -180 -416 -180q-251 0 -368 135t-117 393q0 261 123.5 399t375.5 138q284 0 400 -162v139zM657 178q134 0 219 72t85 182v164q0 107 -85 177.5t-217 70.5q-141 0 -211.5 -80
t-70.5 -254q0 -172 70 -252t210 -80z" />
    <glyph glyph-name="uni1EAD.ss02" horiz-adv-x="1386" 
d="M682 1327l-162 -176h-258l297 305h246l297 -305h-258zM973 1024h291v-1024h-289v162q-123 -180 -416 -180q-251 0 -368 135t-117 393q0 261 123.5 399t375.5 138q284 0 400 -162v139zM657 178q134 0 219 72t85 182v164q0 107 -85 177.5t-217 70.5q-141 0 -211.5 -80
t-70.5 -254q0 -172 70 -252t210 -80zM547 -371v234h278v-234h-278z" />
    <glyph glyph-name="adieresis.ss02" horiz-adv-x="1386" 
d="M563 1368v-223h-270v223h270zM1077 1368v-223h-270v223h270zM973 1024h291v-1024h-289v162q-123 -180 -416 -180q-251 0 -368 135t-117 393q0 261 123.5 399t375.5 138q284 0 400 -162v139zM657 178q134 0 219 72t85 182v164q0 107 -85 177.5t-217 70.5
q-141 0 -211.5 -80t-70.5 -254q0 -172 70 -252t210 -80z" />
    <glyph glyph-name="uni01DF.ss02" horiz-adv-x="1386" 
d="M1016 1620v-172h-660v172h660zM563 1368v-223h-270v223h270zM807 1145v223h270v-223h-270zM973 1024h291v-1024h-289v162q-123 -180 -416 -180q-251 0 -368 135t-117 393q0 261 123.5 399t375.5 138q284 0 400 -162v139zM657 178q134 0 219 72t85 182v164
q0 107 -85 177.5t-217 70.5q-141 0 -211.5 -80t-70.5 -254q0 -172 70 -252t210 -80z" />
    <glyph glyph-name="uni1EA1.ss02" horiz-adv-x="1386" 
d="M973 1024h291v-1024h-289v162q-123 -180 -416 -180q-251 0 -368 135t-117 393q0 261 123.5 399t375.5 138q284 0 400 -162v139zM657 178q134 0 219 72t85 182v164q0 107 -85 177.5t-217 70.5q-141 0 -211.5 -80t-70.5 -254q0 -172 70 -252t210 -80zM547 -371v234h278
v-234h-278z" />
    <glyph glyph-name="agrave.ss02" horiz-adv-x="1386" 
d="M811 1149h-242l-305 307h332zM973 1024h291v-1024h-289v162q-123 -180 -416 -180q-251 0 -368 135t-117 393q0 261 123.5 399t375.5 138q284 0 400 -162v139zM657 178q134 0 219 72t85 182v164q0 107 -85 177.5t-217 70.5q-141 0 -211.5 -80t-70.5 -254q0 -172 70 -252
t210 -80z" />
    <glyph glyph-name="amacron.ss02" horiz-adv-x="1386" 
d="M1014 1333v-172h-662v172h662zM973 1024h291v-1024h-289v162q-123 -180 -416 -180q-251 0 -368 135t-117 393q0 261 123.5 399t375.5 138q284 0 400 -162v139zM657 178q134 0 219 72t85 182v164q0 107 -85 177.5t-217 70.5q-141 0 -211.5 -80t-70.5 -254q0 -172 70 -252
t210 -80z" />
    <glyph glyph-name="aogonek.ss02" horiz-adv-x="1386" 
d="M1194 -266q56 0 121 18v-145q-101 -37 -207 -37q-118 0 -191 50.5t-73 139.5q0 151 211 240h-80v162q-123 -180 -416 -180q-251 0 -368 135t-117 393q0 261 123.5 399t375.5 138q284 0 400 -162v139h291v-1024h-47q-152 -79 -152 -174q0 -92 129 -92zM657 178
q134 0 219 72t85 182v164q0 107 -85 177.5t-217 70.5q-141 0 -211.5 -80t-70.5 -254q0 -172 70 -252t210 -80z" />
    <glyph glyph-name="aring.ss02" horiz-adv-x="1386" 
d="M684 1102q-268 0 -268 211q0 105 63.5 159t202.5 54q270 0 270 -209q0 -215 -268 -215zM684 1413q-119 0 -119 -98q0 -53 28 -77t91 -24q121 0 121 99q0 53 -30 76.5t-91 23.5zM973 1024h291v-1024h-289v162q-123 -180 -416 -180q-251 0 -368 135t-117 393
q0 261 123.5 399t375.5 138q284 0 400 -162v139zM657 178q134 0 219 72t85 182v164q0 107 -85 177.5t-217 70.5q-141 0 -211.5 -80t-70.5 -254q0 -172 70 -252t210 -80z" />
    <glyph glyph-name="atilde.ss02" horiz-adv-x="1386" 
d="M512 1231q-54 0 -83.5 -24t-29.5 -68h-153q0 126 62.5 196t176.5 70q63 0 140 -25l116 -39q56 -20 109 -20t82 22.5t29 63.5h161q0 -122 -64.5 -191t-178.5 -69q-67 0 -140 24l-121 41q-62 19 -106 19zM973 1024h291v-1024h-289v162q-123 -180 -416 -180q-251 0 -368 135
t-117 393q0 261 123.5 399t375.5 138q284 0 400 -162v139zM657 178q134 0 219 72t85 182v164q0 107 -85 177.5t-217 70.5q-141 0 -211.5 -80t-70.5 -254q0 -172 70 -252t210 -80z" />
    <glyph glyph-name="ae.ss02" horiz-adv-x="2199" 
d="M1266 453q9 -148 81.5 -218.5t217.5 -70.5q116 0 181.5 41t70.5 114h301q-4 -160 -132.5 -251t-345.5 -91q-249 0 -380 144v-121h-287v158q-122 -178 -414 -178q-251 0 -368 135t-117 395q0 537 499 537q284 0 400 -168v145h287v-119q129 142 368 142q264 0 386 -133.5
t122 -395.5q0 -42 -2 -65h-868zM1559 860q-133 0 -203.5 -62.5t-87.5 -199.5h565q-13 137 -80 199.5t-194 62.5zM657 178q134 0 219 71.5t85 182.5v164q0 107 -85 177.5t-217 70.5q-141 0 -211.5 -80.5t-70.5 -255.5q0 -172 69.5 -251t210.5 -79z" />
    <glyph glyph-name="ae.ss03" horiz-adv-x="2076" 
d="M1468 166q113 0 175.5 39t64.5 104h297q0 -161 -145.5 -246.5t-389.5 -85.5q-337 0 -462 191q-68 -91 -191.5 -139.5t-288.5 -48.5q-226 0 -343 84.5t-117 234.5q0 145 107 219t274 74h446v94q0 90 -59.5 132t-180.5 42q-118 0 -182.5 -36.5t-66.5 -104.5h-293
q1 85 40 149t108.5 102.5t159 57.5t197.5 19q297 0 412 -170q133 170 459 170q258 0 391 -92.5t133 -241.5q0 -65 -30.5 -110.5t-89.5 -76t-161 -48t-229 -25.5t-311 -9q12 -148 78.5 -213t197.5 -65zM1483 860q-133 0 -203.5 -62t-85.5 -206q284 2 398 30t114 107
q0 66 -61.5 98.5t-161.5 32.5zM588 162q49 0 93.5 9t83.5 28.5t68 48t45.5 70t16.5 92.5v36h-328q-86 0 -139 -34.5t-53 -102.5q0 -147 213 -147z" />
    <glyph glyph-name="e.ss03" horiz-adv-x="1294" 
d="M674 166q118 0 184 39.5t68 103.5h297q0 -108 -70.5 -183.5t-194 -112t-290.5 -36.5q-309 0 -451.5 134t-142.5 399q0 270 150.5 403.5t459.5 133.5q271 0 409 -96t138 -257q0 -60 -20.5 -105.5t-66 -78.5t-110.5 -55t-163 -35.5t-213 -19.5t-271 -7q20 -119 90.5 -173
t196.5 -54zM684 860q-145 0 -219.5 -72.5t-83.5 -234.5q212 1 328 16.5t165.5 48t49.5 91.5q0 76 -66 113.5t-174 37.5z" />
    <glyph glyph-name="eacute.ss03" horiz-adv-x="1294" 
d="M1055 1458l-305 -305h-242l215 305h332zM674 166q118 0 184 39.5t68 103.5h297q0 -108 -70.5 -183.5t-194 -112t-290.5 -36.5q-309 0 -451.5 134t-142.5 399q0 270 150.5 403.5t459.5 133.5q271 0 409 -96t138 -257q0 -60 -20.5 -105.5t-66 -78.5t-110.5 -55t-163 -35.5
t-213 -19.5t-271 -7q20 -119 90.5 -173t196.5 -54zM684 860q-145 0 -219.5 -72.5t-83.5 -234.5q212 1 328 16.5t165.5 48t49.5 91.5q0 76 -66 113.5t-174 37.5z" />
    <glyph glyph-name="ebreve.ss03" horiz-adv-x="1294" 
d="M657 1141q-407 0 -407 295h199q0 -144 206 -144q211 0 211 144h199q0 -156 -105.5 -225.5t-302.5 -69.5zM674 166q118 0 184 39.5t68 103.5h297q0 -108 -70.5 -183.5t-194 -112t-290.5 -36.5q-309 0 -451.5 134t-142.5 399q0 270 150.5 403.5t459.5 133.5q271 0 409 -96
t138 -257q0 -60 -20.5 -105.5t-66 -78.5t-110.5 -55t-163 -35.5t-213 -19.5t-271 -7q20 -119 90.5 -173t196.5 -54zM684 860q-145 0 -219.5 -72.5t-83.5 -234.5q212 1 328 16.5t165.5 48t49.5 91.5q0 76 -66 113.5t-174 37.5z" />
    <glyph glyph-name="ecaron.ss03" horiz-adv-x="1294" 
d="M537 1153l-297 307h258l161 -178l162 178h258l-297 -307h-245zM674 166q118 0 184 39.5t68 103.5h297q0 -108 -70.5 -183.5t-194 -112t-290.5 -36.5q-309 0 -451.5 134t-142.5 399q0 270 150.5 403.5t459.5 133.5q271 0 409 -96t138 -257q0 -60 -20.5 -105.5t-66 -78.5
t-110.5 -55t-163 -35.5t-213 -19.5t-271 -7q20 -119 90.5 -173t196.5 -54zM684 860q-145 0 -219.5 -72.5t-83.5 -234.5q212 1 328 16.5t165.5 48t49.5 91.5q0 76 -66 113.5t-174 37.5z" />
    <glyph glyph-name="uni0229.ss03" horiz-adv-x="1294" 
d="M674 166q118 0 184 39.5t68 103.5h297q0 -151 -132 -235.5t-360 -93.5l-33 -58q42 0 73 -2.5t67.5 -12.5t59.5 -27t38.5 -48.5t15.5 -75.5q0 -98 -76.5 -144t-228.5 -46q-154 0 -217 47.5t-63 140.5h170q0 -61 116 -61q125 0 125 65q0 62 -110 62h-142l68 160
q-270 15 -395 147.5t-125 382.5q0 270 150.5 403.5t459.5 133.5q271 0 409 -96t138 -257q0 -60 -20.5 -105.5t-66 -78.5t-110.5 -55t-163 -35.5t-213 -19.5t-271 -7q20 -119 90.5 -173t196.5 -54zM684 860q-145 0 -219.5 -72.5t-83.5 -234.5q212 1 328 16.5t165.5 48
t49.5 91.5q0 76 -66 113.5t-174 37.5z" />
    <glyph glyph-name="ecircumflex.ss03" horiz-adv-x="1294" 
d="M659 1327l-161 -176h-258l297 305h245l297 -305h-258zM674 166q118 0 184 39.5t68 103.5h297q0 -108 -70.5 -183.5t-194 -112t-290.5 -36.5q-309 0 -451.5 134t-142.5 399q0 270 150.5 403.5t459.5 133.5q271 0 409 -96t138 -257q0 -60 -20.5 -105.5t-66 -78.5
t-110.5 -55t-163 -35.5t-213 -19.5t-271 -7q20 -119 90.5 -173t196.5 -54zM684 860q-145 0 -219.5 -72.5t-83.5 -234.5q212 1 328 16.5t165.5 48t49.5 91.5q0 76 -66 113.5t-174 37.5z" />
    <glyph glyph-name="uni1EC7.ss03" horiz-adv-x="1294" 
d="M659 1327l-161 -176h-258l297 305h245l297 -305h-258zM674 166q118 0 184 39.5t68 103.5h297q0 -108 -70.5 -183.5t-194 -112t-290.5 -36.5q-309 0 -451.5 134t-142.5 399q0 270 150.5 403.5t459.5 133.5q271 0 409 -96t138 -257q0 -60 -20.5 -105.5t-66 -78.5
t-110.5 -55t-163 -35.5t-213 -19.5t-271 -7q20 -119 90.5 -173t196.5 -54zM684 860q-145 0 -219.5 -72.5t-83.5 -234.5q212 1 328 16.5t165.5 48t49.5 91.5q0 76 -66 113.5t-174 37.5zM530 -371v234h279v-234h-279z" />
    <glyph glyph-name="edieresis.ss03" horiz-adv-x="1294" 
d="M541 1368v-223h-271v223h271zM1055 1368v-223h-271v223h271zM674 166q118 0 184 39.5t68 103.5h297q0 -108 -70.5 -183.5t-194 -112t-290.5 -36.5q-309 0 -451.5 134t-142.5 399q0 270 150.5 403.5t459.5 133.5q271 0 409 -96t138 -257q0 -60 -20.5 -105.5t-66 -78.5
t-110.5 -55t-163 -35.5t-213 -19.5t-271 -7q20 -119 90.5 -173t196.5 -54zM684 860q-145 0 -219.5 -72.5t-83.5 -234.5q212 1 328 16.5t165.5 48t49.5 91.5q0 76 -66 113.5t-174 37.5z" />
    <glyph glyph-name="edotaccent.ss03" horiz-adv-x="1294" 
d="M797 1370v-231h-279v231h279zM674 166q118 0 184 39.5t68 103.5h297q0 -108 -70.5 -183.5t-194 -112t-290.5 -36.5q-309 0 -451.5 134t-142.5 399q0 270 150.5 403.5t459.5 133.5q271 0 409 -96t138 -257q0 -60 -20.5 -105.5t-66 -78.5t-110.5 -55t-163 -35.5t-213 -19.5
t-271 -7q20 -119 90.5 -173t196.5 -54zM684 860q-145 0 -219.5 -72.5t-83.5 -234.5q212 1 328 16.5t165.5 48t49.5 91.5q0 76 -66 113.5t-174 37.5z" />
    <glyph glyph-name="uni1EB9.ss03" horiz-adv-x="1294" 
d="M674 166q118 0 184 39.5t68 103.5h297q0 -108 -70.5 -183.5t-194 -112t-290.5 -36.5q-309 0 -451.5 134t-142.5 399q0 270 150.5 403.5t459.5 133.5q271 0 409 -96t138 -257q0 -60 -20.5 -105.5t-66 -78.5t-110.5 -55t-163 -35.5t-213 -19.5t-271 -7q20 -119 90.5 -173
t196.5 -54zM684 860q-145 0 -219.5 -72.5t-83.5 -234.5q212 1 328 16.5t165.5 48t49.5 91.5q0 76 -66 113.5t-174 37.5zM530 -371v234h279v-234h-279z" />
    <glyph glyph-name="egrave.ss03" horiz-adv-x="1294" 
d="M788 1149h-241l-305 307h331zM674 166q118 0 184 39.5t68 103.5h297q0 -108 -70.5 -183.5t-194 -112t-290.5 -36.5q-309 0 -451.5 134t-142.5 399q0 270 150.5 403.5t459.5 133.5q271 0 409 -96t138 -257q0 -60 -20.5 -105.5t-66 -78.5t-110.5 -55t-163 -35.5t-213 -19.5
t-271 -7q20 -119 90.5 -173t196.5 -54zM684 860q-145 0 -219.5 -72.5t-83.5 -234.5q212 1 328 16.5t165.5 48t49.5 91.5q0 76 -66 113.5t-174 37.5z" />
    <glyph glyph-name="emacron.ss03" horiz-adv-x="1294" 
d="M989 1333v-172h-661v172h661zM674 166q118 0 184 39.5t68 103.5h297q0 -108 -70.5 -183.5t-194 -112t-290.5 -36.5q-309 0 -451.5 134t-142.5 399q0 270 150.5 403.5t459.5 133.5q271 0 409 -96t138 -257q0 -60 -20.5 -105.5t-66 -78.5t-110.5 -55t-163 -35.5t-213 -19.5
t-271 -7q20 -119 90.5 -173t196.5 -54zM684 860q-145 0 -219.5 -72.5t-83.5 -234.5q212 1 328 16.5t165.5 48t49.5 91.5q0 76 -66 113.5t-174 37.5z" />
    <glyph glyph-name="eogonek.ss03" horiz-adv-x="1294" 
d="M674 166q118 0 184 39.5t68 103.5h297q0 -185 -197 -270l-61 -33q-168 -90 -168 -184q0 -92 129 -92q58 0 123 18v-147q-103 -35 -209 -35q-118 0 -191.5 50.5t-73.5 139.5q0 138 177 224q-40 -3 -84 -3q-309 0 -451.5 134t-142.5 399q0 270 150.5 403.5t459.5 133.5
q271 0 409 -96t138 -257q0 -60 -20.5 -105.5t-66 -78.5t-110.5 -55t-163 -35.5t-213 -19.5t-271 -7q20 -119 90.5 -173t196.5 -54zM684 860q-145 0 -219.5 -72.5t-83.5 -234.5q212 1 328 16.5t165.5 48t49.5 91.5q0 76 -66 113.5t-174 37.5z" />
    <glyph glyph-name="uni1EBD.ss03" horiz-adv-x="1294" 
d="M487 1231q-54 0 -83 -24t-29 -68h-154q0 126 63 196t177 70q62 0 139 -25l117 -39q56 -20 108 -20q53 0 82 22.5t29 63.5h162q0 -121 -65 -190.5t-179 -69.5q-65 0 -139 24l-121 41q-62 19 -107 19zM674 166q118 0 184 39.5t68 103.5h297q0 -108 -70.5 -183.5t-194 -112
t-290.5 -36.5q-309 0 -451.5 134t-142.5 399q0 270 150.5 403.5t459.5 133.5q271 0 409 -96t138 -257q0 -60 -20.5 -105.5t-66 -78.5t-110.5 -55t-163 -35.5t-213 -19.5t-271 -7q20 -119 90.5 -173t196.5 -54zM684 860q-145 0 -219.5 -72.5t-83.5 -234.5q212 1 328 16.5
t165.5 48t49.5 91.5q0 76 -66 113.5t-174 37.5z" />
    <glyph glyph-name="oe.ss03" horiz-adv-x="2199" 
d="M1577 166q118 0 184 41t68 110h299q-1 -112 -72 -188.5t-194 -112.5t-291 -36q-302 0 -443 129q-144 -129 -448 -129q-316 0 -461 133t-145 401q0 265 145.5 399t460.5 134q305 0 455 -134q149 134 452 134q272 0 409.5 -95.5t137.5 -257.5q0 -70 -28 -119.5t-86.5 -84.5
t-161 -55.5t-238 -30t-330.5 -11.5q21 -119 91.5 -173t195.5 -54zM1587 860q-145 0 -220.5 -72.5t-84.5 -234.5q218 1 335 16.5t163.5 48t46.5 91.5q0 76 -66 113.5t-174 37.5zM680 170q157 0 229 83t72 259q0 178 -72 260t-229 82q-158 0 -229.5 -83t-71.5 -259
q0 -178 72.5 -260t228.5 -82z" />
    <glyph glyph-name="g.ss04" horiz-adv-x="1409" 
d="M725 213q333 -6 474.5 -73t141.5 -228q0 -174 -158.5 -248t-486.5 -74q-176 0 -298.5 18.5t-193.5 56t-102.5 87.5t-31.5 119q0 179 217 235q-82 48 -82 144q0 93 82 147q-160 81 -160 285q0 194 134.5 278t428.5 84q149 0 252 -20h395v-160h-127q43 -70 43 -178
q0 -189 -134.5 -272.5t-426.5 -83.5q-120 0 -209 12q-43 -25 -43 -59q0 -41 60 -54t225 -16zM692 868q-157 0 -223 -44t-66 -136q0 -96 69 -138t218 -42q154 0 220.5 44t66.5 134q0 96 -68.5 139t-216.5 43zM698 -231q183 0 259.5 34.5t76.5 104.5q0 35 -15 59t-39 38
t-69 22.5t-89.5 12t-116.5 5.5q-39 0 -109 4q-221 -14 -221 -139q0 -77 77.5 -109t245.5 -32z" />
    <glyph glyph-name="gbreve.ss04" horiz-adv-x="1409" 
d="M700 1141q-407 0 -407 295h199q0 -144 206 -144q211 0 211 144h199q0 -156 -105.5 -225.5t-302.5 -69.5zM725 213q333 -6 474.5 -73t141.5 -228q0 -174 -158.5 -248t-486.5 -74q-176 0 -298.5 18.5t-193.5 56t-102.5 87.5t-31.5 119q0 179 217 235q-82 48 -82 144
q0 93 82 147q-160 81 -160 285q0 194 134.5 278t428.5 84q149 0 252 -20h395v-160h-127q43 -70 43 -178q0 -189 -134.5 -272.5t-426.5 -83.5q-120 0 -209 12q-43 -25 -43 -59q0 -41 60 -54t225 -16zM692 868q-157 0 -223 -44t-66 -136q0 -96 69 -138t218 -42q154 0 220.5 44
t66.5 134q0 96 -68.5 139t-216.5 43zM698 -231q183 0 259.5 34.5t76.5 104.5q0 35 -15 59t-39 38t-69 22.5t-89.5 12t-116.5 5.5q-39 0 -109 4q-221 -14 -221 -139q0 -77 77.5 -109t245.5 -32z" />
    <glyph glyph-name="gcaron.ss04" horiz-adv-x="1409" 
d="M578 1153l-297 307h258l161 -178l162 178h258l-297 -307h-245zM725 213q333 -6 474.5 -73t141.5 -228q0 -174 -158.5 -248t-486.5 -74q-176 0 -298.5 18.5t-193.5 56t-102.5 87.5t-31.5 119q0 179 217 235q-82 48 -82 144q0 93 82 147q-160 81 -160 285q0 194 134.5 278
t428.5 84q149 0 252 -20h395v-160h-127q43 -70 43 -178q0 -189 -134.5 -272.5t-426.5 -83.5q-120 0 -209 12q-43 -25 -43 -59q0 -41 60 -54t225 -16zM692 868q-157 0 -223 -44t-66 -136q0 -96 69 -138t218 -42q154 0 220.5 44t66.5 134q0 96 -68.5 139t-216.5 43zM698 -231
q183 0 259.5 34.5t76.5 104.5q0 35 -15 59t-39 38t-69 22.5t-89.5 12t-116.5 5.5q-39 0 -109 4q-221 -14 -221 -139q0 -77 77.5 -109t245.5 -32z" />
    <glyph glyph-name="gcircumflex.ss04" horiz-adv-x="1409" 
d="M700 1327l-161 -176h-258l297 305h245l297 -305h-258zM725 213q333 -6 474.5 -73t141.5 -228q0 -174 -158.5 -248t-486.5 -74q-176 0 -298.5 18.5t-193.5 56t-102.5 87.5t-31.5 119q0 179 217 235q-82 48 -82 144q0 93 82 147q-160 81 -160 285q0 194 134.5 278t428.5 84
q149 0 252 -20h395v-160h-127q43 -70 43 -178q0 -189 -134.5 -272.5t-426.5 -83.5q-120 0 -209 12q-43 -25 -43 -59q0 -41 60 -54t225 -16zM692 868q-157 0 -223 -44t-66 -136q0 -96 69 -138t218 -42q154 0 220.5 44t66.5 134q0 96 -68.5 139t-216.5 43zM698 -231
q183 0 259.5 34.5t76.5 104.5q0 35 -15 59t-39 38t-69 22.5t-89.5 12t-116.5 5.5q-39 0 -109 4q-221 -14 -221 -139q0 -77 77.5 -109t245.5 -32z" />
    <glyph glyph-name="uni0123.ss04" horiz-adv-x="1409" 
d="M823 1321v-215h-258v215l129 207h131l-88 -207h86zM725 213q333 -6 474.5 -73t141.5 -228q0 -174 -158.5 -248t-486.5 -74q-176 0 -298.5 18.5t-193.5 56t-102.5 87.5t-31.5 119q0 179 217 235q-82 48 -82 144q0 93 82 147q-160 81 -160 285q0 194 134.5 278t428.5 84
q149 0 252 -20h395v-160h-127q43 -70 43 -178q0 -189 -134.5 -272.5t-426.5 -83.5q-120 0 -209 12q-43 -25 -43 -59q0 -41 60 -54t225 -16zM692 868q-157 0 -223 -44t-66 -136q0 -96 69 -138t218 -42q154 0 220.5 44t66.5 134q0 96 -68.5 139t-216.5 43zM698 -231
q183 0 259.5 34.5t76.5 104.5q0 35 -15 59t-39 38t-69 22.5t-89.5 12t-116.5 5.5q-39 0 -109 4q-221 -14 -221 -139q0 -77 77.5 -109t245.5 -32z" />
    <glyph glyph-name="gdotaccent.ss04" horiz-adv-x="1409" 
d="M840 1370v-231h-279v231h279zM725 213q333 -6 474.5 -73t141.5 -228q0 -174 -158.5 -248t-486.5 -74q-176 0 -298.5 18.5t-193.5 56t-102.5 87.5t-31.5 119q0 179 217 235q-82 48 -82 144q0 93 82 147q-160 81 -160 285q0 194 134.5 278t428.5 84q149 0 252 -20h395v-160
h-127q43 -70 43 -178q0 -189 -134.5 -272.5t-426.5 -83.5q-120 0 -209 12q-43 -25 -43 -59q0 -41 60 -54t225 -16zM692 868q-157 0 -223 -44t-66 -136q0 -96 69 -138t218 -42q154 0 220.5 44t66.5 134q0 96 -68.5 139t-216.5 43zM698 -231q183 0 259.5 34.5t76.5 104.5
q0 35 -15 59t-39 38t-69 22.5t-89.5 12t-116.5 5.5q-39 0 -109 4q-221 -14 -221 -139q0 -77 77.5 -109t245.5 -32z" />
    <glyph glyph-name="y.ss05" horiz-adv-x="1353" 
d="M932 1024h303v-1014q0 -214 -140 -319t-431 -105q-118 0 -212 18.5t-167 57t-113 104.5t-41 156h293q3 -72 71 -110.5t183 -38.5q126 0 190 52.5t64 166.5v211q-127 -164 -391 -164q-229 0 -329.5 106t-100.5 312v567h303v-547q0 -69 17 -117t50 -73.5t72.5 -36
t91.5 -10.5q53 0 103 15.5t91.5 45t67 80t25.5 113.5v530z" />
    <glyph glyph-name="yacute.ss05" horiz-adv-x="1353" 
d="M1071 1458l-305 -305h-242l215 305h332zM932 1024h303v-1014q0 -214 -140 -319t-431 -105q-118 0 -212 18.5t-167 57t-113 104.5t-41 156h293q3 -72 71 -110.5t183 -38.5q126 0 190 52.5t64 166.5v211q-127 -164 -391 -164q-229 0 -329.5 106t-100.5 312v567h303v-547
q0 -69 17 -117t50 -73.5t72.5 -36t91.5 -10.5q53 0 103 15.5t91.5 45t67 80t25.5 113.5v530z" />
    <glyph glyph-name="ycircumflex.ss05" horiz-adv-x="1353" 
d="M676 1327l-162 -176h-258l297 305h246l297 -305h-258zM932 1024h303v-1014q0 -214 -140 -319t-431 -105q-118 0 -212 18.5t-167 57t-113 104.5t-41 156h293q3 -72 71 -110.5t183 -38.5q126 0 190 52.5t64 166.5v211q-127 -164 -391 -164q-229 0 -329.5 106t-100.5 312
v567h303v-547q0 -69 17 -117t50 -73.5t72.5 -36t91.5 -10.5q53 0 103 15.5t91.5 45t67 80t25.5 113.5v530z" />
    <glyph glyph-name="ydieresis.ss05" horiz-adv-x="1353" 
d="M557 1368v-223h-270v223h270zM1071 1368v-223h-270v223h270zM932 1024h303v-1014q0 -214 -140 -319t-431 -105q-118 0 -212 18.5t-167 57t-113 104.5t-41 156h293q3 -72 71 -110.5t183 -38.5q126 0 190 52.5t64 166.5v211q-127 -164 -391 -164q-229 0 -329.5 106
t-100.5 312v567h303v-547q0 -69 17 -117t50 -73.5t72.5 -36t91.5 -10.5q53 0 103 15.5t91.5 45t67 80t25.5 113.5v530z" />
    <glyph glyph-name="ygrave.ss05" horiz-adv-x="1353" 
d="M805 1149h-242l-305 307h332zM932 1024h303v-1014q0 -214 -140 -319t-431 -105q-118 0 -212 18.5t-167 57t-113 104.5t-41 156h293q3 -72 71 -110.5t183 -38.5q126 0 190 52.5t64 166.5v211q-127 -164 -391 -164q-229 0 -329.5 106t-100.5 312v567h303v-547
q0 -69 17 -117t50 -73.5t72.5 -36t91.5 -10.5q53 0 103 15.5t91.5 45t67 80t25.5 113.5v530z" />
    <glyph glyph-name="f_f_j" horiz-adv-x="2324" 
d="M2202 1024v-1022q0 -243 -170 -338q-115 -70 -396 -74v201q126 0 187 47q73 51 73 156v833h-491v-827h-305v827h-549v-827h-305v827h-193v197h193v70q0 103 30.5 175t89 112t132 57.5t170.5 17.5q113 0 184 -10v-189q-61 9 -119 9q-99 0 -140.5 -39.5t-41.5 -124.5v-78
h549v70q0 103 30.5 175t89 112t132 57.5t170.5 17.5q113 0 184 -10v-189q-58 9 -119 9q-99 0 -140.5 -39.5t-41.5 -124.5v-78h797zM1894 1386h308v-247h-308v247z" />
    <glyph glyph-name="f_j" horiz-adv-x="1470" 
d="M1346 1024v-1022q0 -244 -168 -338q-115 -70 -396 -74v201q123 0 187 47q73 51 73 156v833h-491v-827h-305v827h-193v197h193v70q0 103 30.5 175t89 112t132 57.5t170.5 17.5q113 0 184 -10v-189q-61 9 -119 9q-99 0 -140.5 -39.5t-41.5 -124.5v-78h795zM1040 1386h308
v-247h-308v247z" />
    <glyph glyph-name="a_e" horiz-adv-x="2168" 
d="M1556 166q118 0 184 39.5t66 103.5h291q-1 -161 -129 -245t-342 -84q-240 0 -366 114v-94h-287v158q-122 -178 -414 -178q-251 0 -368 135t-117 395q0 537 499 537q284 0 400 -168v145h287v-98q133 121 372 121q233 0 352 -96t119 -257q0 -72 -30 -122.5t-89 -84.5
t-162.5 -54t-233.5 -29t-318 -11q21 -119 92 -173t194 -54zM1567 860q-143 0 -218.5 -72.5t-84.5 -234.5q217 2 333 18t162.5 48t46.5 90q0 76 -65.5 113.5t-173.5 37.5zM657 176q134 0 219 72.5t85 183.5v164q0 107 -85 177.5t-217 70.5q-141 0 -211.5 -80.5t-70.5 -255.5
q0 -172 70 -252t210 -80z" />
    <glyph glyph-name="uni0414.loclBGR" horiz-adv-x="1943" 
d="M1681 227h207v-542h-317v315h-1200v-315h-316v542h203l522 1207h371zM604 227h731l-368 940z" />
    <glyph glyph-name="uni041B.loclBGR" horiz-adv-x="1642" 
d="M1585 0h-350l-416 1151l-411 -1151h-351l580 1434h362z" />
    <glyph glyph-name="uni0424.loclBGR" horiz-adv-x="2097" 
d="M1208 1362q405 0 597 -156.5t192 -488.5q0 -331 -192 -488t-597 -157v-140h-317v140q-406 0 -597.5 156.5t-191.5 488.5q0 333 191.5 489t597.5 156v139h317v-139zM891 297v842q-253 0 -363 -100.5t-110 -321.5q0 -222 111 -321t362 -99zM1208 297q250 0 360.5 99
t110.5 321q0 221 -109 321.5t-362 100.5v-842z" />
    <glyph glyph-name="uni0432.loclBGR" horiz-adv-x="1320" 
d="M993 748q254 -91 254 -347q0 -207 -142 -314t-419 -107q-282 0 -423.5 119t-141.5 374v504q0 244 136.5 360.5t408.5 116.5q265 0 399.5 -97.5t134.5 -289.5q0 -225 -207 -319zM424 977v-139h227q116 0 180 54t64 157q0 110 -57.5 162.5t-173.5 52.5q-125 0 -182.5 -65
t-57.5 -222zM684 170q258 0 258 242q0 235 -283 235h-235v-174q0 -163 63 -233t197 -70z" />
    <glyph glyph-name="uni0433.loclBGR" horiz-adv-x="1228" 
d="M614 -25q-273 0 -409.5 79t-136.5 253q0 69 24 123t62 87t94.5 56t110 33.5t120.5 16.5l189 14q178 16 178 119q0 63 -61 94t-169 31q-233 0 -233 -133h-285q2 149 123.5 224t388.5 75q259 0 392 -73.5t133 -238.5q0 -79 -32 -136t-92 -90t-129 -50.5t-159 -24.5
l-172 -12q-193 -16 -193 -129q0 -69 62 -106t186 -37q125 0 194.5 38.5t69.5 116.5h293q-5 -162 -133 -246t-416 -84z" />
    <glyph glyph-name="uni0434.loclBGR" horiz-adv-x="1384" 
d="M977 1024h289v-1012q0 -213 -141 -317.5t-439 -104.5q-539 0 -547 336h295q1 -73 71 -111t193 -38q134 0 199.5 52t65.5 167v197q-125 -154 -404 -154q-249 0 -367 127.5t-118 359.5q0 521 499 521q285 0 404 -173v150zM657 236q141 0 223.5 66t82.5 179v117
q0 112 -83 179t-223 67q-137 0 -207.5 -75.5t-70.5 -240.5q0 -292 278 -292z" />
    <glyph glyph-name="uni0436.loclBGR" horiz-adv-x="1875" 
d="M1528 0l-293 424h-129v-424h-305v424h-127l-293 -424h-346l407 516l-393 508h334l291 -412h127v822h305v-822h129l291 412h334l-396 -508l410 -516h-346z" />
    <glyph glyph-name="uni0437.loclBGR" horiz-adv-x="1245" 
d="M938 354q121 -40 178.5 -122.5t57.5 -215.5q0 -210 -145 -318t-421 -108q-545 0 -545 361h299q0 -87 61.5 -128.5t188.5 -41.5q133 0 196.5 57t63.5 174q0 242 -258 242h-198v188h200q111 0 172.5 53.5t61.5 157.5q0 201 -238 201q-119 0 -175.5 -40.5t-59.5 -129.5h-297
q0 360 534 360q265 0 400 -98t135 -289q0 -226 -211 -303z" />
    <glyph glyph-name="uni0438.loclBGR" horiz-adv-x="1355" 
d="M932 1024h303v-1024h-291v160q-60 -91 -163 -138t-240 -47q-230 0 -331 107.5t-101 318.5v623h305v-600q0 -72 17 -121.5t50 -76t72.5 -37.5t91.5 -11q53 0 102.5 15.5t91.5 45.5t67.5 80.5t25.5 114.5v590z" />
    <glyph glyph-name="uni0439.loclBGR" horiz-adv-x="1355" 
d="M670 1141q-408 0 -408 295h199q0 -144 207 -144q211 0 211 144h198q0 -156 -105 -225.5t-302 -69.5zM932 1024h303v-1024h-291v160q-60 -91 -163 -138t-240 -47q-230 0 -331 107.5t-101 318.5v623h305v-600q0 -72 17 -121.5t50 -76t72.5 -37.5t91.5 -11q53 0 102.5 15.5
t91.5 45.5t67.5 80.5t25.5 114.5v590z" />
    <glyph glyph-name="uni045D.loclBGR" horiz-adv-x="1355" 
d="M799 1149h-242l-305 307h332zM932 1024h303v-1024h-291v160q-60 -91 -163 -138t-240 -47q-230 0 -331 107.5t-101 318.5v623h305v-600q0 -72 17 -121.5t50 -76t72.5 -37.5t91.5 -11q53 0 102.5 15.5t91.5 45.5t67.5 80.5t25.5 114.5v590z" />
    <glyph glyph-name="uni043A.loclBGR" horiz-adv-x="1251" 
d="M864 0l-293 424h-133v-424h-305v1434h305v-822h131l295 412h336l-397 -508l414 -516h-353z" />
    <glyph glyph-name="uni043B.loclBGR" horiz-adv-x="1329" 
d="M1294 0h-317l-311 803l-314 -803h-317l446 1024h369z" />
    <glyph glyph-name="uni043F.loclBGR" horiz-adv-x="1372" 
d="M836 1047q228 0 326 -109.5t98 -312.5v-625h-306v598q0 127 -59.5 183.5t-177.5 56.5q-119 0 -205 -68.5t-86 -191.5v-578h-303v1024h291v-162q126 185 422 185z" />
    <glyph glyph-name="uni0442.loclBGR" horiz-adv-x="2134" 
d="M1610 1047q117 0 200.5 -34.5t128 -96.5t63.5 -132.5t19 -158.5v-625h-305v598q0 120 -55.5 180t-159.5 60q-117 0 -196.5 -66t-79.5 -188v-584h-305v598q0 120 -55.5 180t-159.5 60q-115 0 -197 -69t-82 -191v-578h-303v1024h289v-168q120 191 403 191q277 0 369 -203
q62 100 173 151.5t253 51.5z" />
    <glyph glyph-name="uni0446.loclBGR" horiz-adv-x="1466" 
d="M1235 203h199v-469h-297v266h-193v160q-60 -91 -163 -138t-240 -47q-230 0 -331 107.5t-101 318.5v623h305v-600q0 -72 17 -121.5t50 -76t72.5 -37.5t91.5 -11q53 0 102.5 15.5t91.5 45.5t67.5 80.5t25.5 114.5v590h303v-821z" />
    <glyph glyph-name="uni0448.loclBGR" horiz-adv-x="2134" 
d="M1708 1024h303v-1024h-289v168q-120 -191 -403 -191q-277 0 -369 203q-62 -100 -173 -151.5t-253 -51.5q-117 0 -200.5 34.5t-128 96.5t-63.5 132.5t-19 158.5v625h305v-598q0 -120 55.5 -180t159.5 -60q117 0 196.5 66t79.5 190v582h305v-598q0 -120 56 -180t160 -60
q115 0 196.5 68.5t81.5 191.5v578z" />
    <glyph glyph-name="uni0449.loclBGR" horiz-adv-x="2244" 
d="M2011 203h199v-469h-297v266h-191v168q-120 -191 -403 -191q-280 0 -371 205q-62 -100 -172.5 -152.5t-251.5 -52.5q-117 0 -200.5 34.5t-128 96.5t-63.5 132.5t-19 158.5v625h303v-598q0 -120 56 -180t161 -60q117 0 196.5 66t79.5 190v582h303v-598q0 -119 56.5 -179.5
t161.5 -60.5q115 0 196.5 68.5t81.5 191.5v578h303v-821z" />
    <glyph glyph-name="uni044C.loclBGR" horiz-adv-x="1298" 
d="M743 743q243 0 369.5 -96t126.5 -282q0 -192 -137 -288.5t-422 -96.5q-272 0 -414.5 94.5t-142.5 261.5v688h303v-338q126 57 317 57zM680 164q252 0 252 201q0 194 -248 194q-119 0 -188.5 -41.5t-69.5 -109.5v-60q0 -184 254 -184z" />
    <glyph glyph-name="uni044A.loclBGR" horiz-adv-x="1503" 
d="M948 743q243 0 369.5 -96t126.5 -282q0 -192 -137 -288.5t-422 -96.5q-272 0 -414.5 94.5t-142.5 261.5v483h-291v205h594v-338q126 57 317 57zM885 164q252 0 252 201q0 194 -248 194q-119 0 -188.5 -41.5t-69.5 -109.5v-60q0 -184 254 -184z" />
    <glyph glyph-name="uni044E.loclBGR" horiz-adv-x="1957" 
d="M1276 1047q319 0 463.5 -134t144.5 -399q0 -267 -146 -403t-462 -136q-284 0 -428.5 109.5t-169.5 327.5h-240v-412h-305v1434h305v-820h240q25 217 169 325t429 108zM1278 168q156 0 228.5 84t72.5 260q0 179 -72 261.5t-229 82.5q-158 0 -229.5 -83.5t-71.5 -260.5
q0 -179 72 -261.5t229 -82.5z" />
    <glyph glyph-name="uni0431.loclSRB" horiz-adv-x="1359" 
d="M1022 897q139 -72 201.5 -179.5t62.5 -258.5q0 -244 -144.5 -363t-461.5 -119t-461.5 119t-144.5 363q0 215 111.5 331t355.5 142l-133 67q-92 48 -139.5 100.5t-47.5 123.5q0 92 80 151.5t213 59.5h616v-197h-516q-77 0 -77 -49q0 -23 14.5 -38t54.5 -36zM680 168
q163 0 232 72t69 225q0 156 -69.5 225.5t-231.5 69.5q-164 0 -232.5 -70.5t-68.5 -224.5q0 -156 70 -226.5t231 -70.5z" />
    <glyph glyph-name="zero.lf" horiz-adv-x="1398" 
d="M698 -25q-171 0 -287 41t-188.5 132t-104.5 227.5t-32 335.5q0 209 34 350.5t109.5 230t188.5 126.5t280 38q172 0 288 -41t189 -133t104.5 -230t31.5 -341q0 -275 -63 -435t-195 -230.5t-355 -70.5zM698 205q117 0 181 45.5t92 153t28 307.5q0 206 -28.5 316.5
t-91.5 156t-181 45.5q-117 0 -179.5 -45t-91 -155.5t-28.5 -317.5q0 -199 28 -307t91.5 -153.5t179.5 -45.5z" />
    <glyph glyph-name="one.lf" horiz-adv-x="872" 
d="M750 1434v-1434h-316v1165l-391 -200v225l367 244h340z" />
    <glyph glyph-name="two.lf" horiz-adv-x="1333" 
d="M389 367v-142h871v-225h-1188v381q0 83 20.5 147.5t56.5 109t92.5 77t120 52.5t146.5 34l215 39q125 24 176 73.5t51 128.5q0 107 -64 156t-202 49q-140 0 -203 -54.5t-63 -166.5h-314q1 120 41 204.5t118 133.5t182 70.5t245 21.5q286 0 429 -99.5t143 -324.5
q0 -97 -27 -168.5t-84.5 -121.5t-137.5 -82.5t-194 -53.5l-203 -37q-121 -26 -174 -74t-53 -128z" />
    <glyph glyph-name="three.lf" horiz-adv-x="1378" 
d="M1065 760q116 -46 170.5 -134.5t54.5 -230.5q0 -223 -146.5 -319t-467.5 -96q-172 0 -292 28.5t-188.5 84t-98 128t-29.5 170.5h299q0 -104 71.5 -149t233.5 -45q171 0 239 49t68 166q0 131 -66.5 179t-240.5 48h-156v219h156q152 0 218 46.5t66 156.5q0 102 -64 144
t-220 42q-149 0 -214 -43.5t-67 -134.5h-305q0 74 18 132t60 107t109 81t168.5 49.5t234.5 17.5q306 0 447 -88.5t141 -288.5q0 -231 -199 -319z" />
    <glyph glyph-name="four.lf" horiz-adv-x="1441" 
d="M1389 571v-221h-248v-350h-301v350h-783v221l715 863h369v-863h248zM348 571h492v613z" />
    <glyph glyph-name="five.lf" horiz-adv-x="1372" 
d="M799 958q269 0 386.5 -117t117.5 -362q0 -119 -27 -206.5t-75.5 -144.5t-125.5 -91t-168.5 -48t-212.5 -14q-228 0 -364.5 46.5t-193 134t-56.5 227.5h295q0 -101 73 -144.5t238 -43.5q172 0 245 62t73 210q0 161 -71.5 226t-234.5 65q-140 0 -214 -42t-74 -126h-293v844
h1093v-215h-800v-359q134 98 389 98z" />
    <glyph glyph-name="six.lf" horiz-adv-x="1384" 
d="M821 940q260 0 376 -118t116 -347q0 -115 -27 -201t-75.5 -142.5t-123 -91t-161.5 -49t-199 -14.5q-182 0 -303.5 40.5t-196 130t-106 221.5t-31.5 327q0 182 28.5 315.5t79 218.5t130.5 136t171.5 70.5t213.5 19.5q555 0 555 -369h-301q0 78 -66.5 122t-183.5 44
q-167 0 -240.5 -103.5t-81.5 -348.5q139 139 426 139zM709 195q160 0 232.5 66.5t72.5 209.5q0 144 -70 206t-219 62q-140 0 -229 -63t-101 -166q7 -172 80 -243.5t234 -71.5z" />
    <glyph glyph-name="seven.lf" horiz-adv-x="1183" 
d="M45 1434h1090v-226l-617 -1208h-309l631 1208h-795v226z" />
    <glyph glyph-name="eight.lf" horiz-adv-x="1386" 
d="M1044 752q261 -90 261 -367q0 -135 -58 -223.5t-195.5 -137.5t-359.5 -49q-308 0 -459 96t-151 320q0 275 258 361q-231 81 -231 311q0 211 146.5 302t436.5 91q307 0 446.5 -98t139.5 -293q0 -231 -234 -313zM694 1251q-142 0 -214 -52.5t-72 -154.5q0 -192 286 -192
q285 0 285 192q0 207 -285 207zM694 188q166 0 243 56t77 170q0 120 -76.5 177.5t-243.5 57.5t-244 -57.5t-77 -175.5t76.5 -173t244.5 -55z" />
    <glyph glyph-name="nine.lf" horiz-adv-x="1384" 
d="M657 1458q182 0 304 -40.5t196.5 -130t106.5 -221.5t32 -327q0 -182 -28.5 -316t-79 -219t-130.5 -136.5t-171.5 -71t-212.5 -19.5q-555 0 -555 371h299q0 -78 66.5 -122t183.5 -44q167 0 240 103.5t81 349.5q-139 -139 -426 -139q-259 0 -375 117t-116 345
q0 115 27 201.5t75.5 143t122.5 91.5t161 49.5t199 14.5zM659 696q142 0 230 63.5t100 168.5q-6 169 -79 240t-234 71q-160 0 -231.5 -66t-71.5 -208q0 -145 68.5 -207t217.5 -62z" />
    <glyph glyph-name="zero.osf" horiz-adv-x="1396" 
d="M698 -25q-172 0 -288.5 30t-189 96.5t-103.5 165.5t-31 243q0 291 140.5 414t471.5 123q173 0 289.5 -30.5t189 -97.5t103.5 -165.5t31 -243.5q0 -291 -141 -413t-472 -122zM698 178q169 0 236 75.5t67 258.5q0 184 -68 259t-235 75q-168 0 -235.5 -77t-67.5 -259
q0 -185 67 -258.5t236 -73.5z" />
    <glyph glyph-name="one.osf" horiz-adv-x="845" 
d="M723 1024v-1024h-307v791l-373 -146v199l350 180h330z" />
    <glyph glyph-name="two.osf" horiz-adv-x="1312" 
d="M381 254v-55h856v-199h-1165v262q0 145 106 215t328 94l199 23q239 28 239 137q0 121 -264 121q-277 0 -277 -129h-305q1 174 140.5 249t439.5 75q291 0 427 -74.5t136 -249.5q0 -77 -27 -130.5t-85.5 -88.5t-136.5 -55t-195 -35l-195 -23q-118 -17 -169.5 -49.5
t-51.5 -87.5z" />
    </font>
</defs>
</svg>
