<?xml version="1.0" standalone="no"?>
<!DOCTYPE svg PUBLIC "-//W3C//DTD SVG 1.1//EN" "http://www.w3.org/Graphics/SVG/1.1/DTD/svg11.dtd" >
<svg xmlns="http://www.w3.org/2000/svg" xmlns:xlink="http://www.w3.org/1999/xlink" version="1.1">
<metadata>
Created by FontForge 20170731 at Mon Jun 20 13:06:37 2022
 By Aleksey,,,
Copyright (c) 2013 by Jonathan Hill . All rights reserved.
</metadata>
<defs>
<font id="NuberNext-Bold" horiz-adv-x="1228" >
  <font-face 
    font-family="NuberNext"
    font-weight="700"
    font-stretch="normal"
    units-per-em="2048"
    panose-1="2 11 8 4 3 3 2 2 2 4"
    ascent="1550"
    descent="-498"
    x-height="1024"
    cap-height="1434"
    bbox="-958 -489 2406 2177"
    underline-thickness="102"
    underline-position="-307"
    unicode-range="U+0020-FB02"
  />
<missing-glyph horiz-adv-x="1024" 
d="M102 61v1229h820v-1229h-820zM246 205h532v942h-532v-942z" />
    <glyph glyph-name="f_f" unicode="ff" horiz-adv-x="1484" 
d="M1364 1268q-87 0 -122.5 -37t-35.5 -111v-96h213v-190h-213v-834h-260v834h-469v-834h-260v834h-164v190h164v106q0 176 95.5 250t275.5 74q76 0 141 -8v-186q-47 8 -94 8q-87 0 -122.5 -37t-35.5 -111v-96h469v106q0 176 95.5 250t273.5 74q75 0 143 -8v-186
q-49 8 -94 8z" />
    <glyph glyph-name="f_f_i" unicode="ffi" horiz-adv-x="2009" 
d="M1890 1024v-1024h-260v834h-424v-834h-260v834h-469v-834h-260v834h-164v190h164v106q0 176 95.5 250t275.5 74q76 0 141 -8v-186q-47 8 -94 8q-87 0 -122.5 -37t-35.5 -111v-96h469v106q0 176 95.5 250t273.5 74q75 0 143 -8v-186q-49 8 -94 8q-87 0 -122.5 -37
t-35.5 -111v-96h684zM1628 1384h264v-249h-264v249z" />
    <glyph glyph-name="f_f_l" unicode="ffl" horiz-adv-x="2011" 
d="M946 1130q0 176 95.5 250t273.5 74q75 0 143 -8v-186q-49 8 -94 8q-87 0 -122.5 -37t-35.5 -111v-96h213v-190h-213v-834h-260v834h-469v-834h-260v834h-164v190h164v106q0 176 95.5 250t275.5 74q76 0 141 -8v-186q-47 8 -94 8q-87 0 -122.5 -37t-35.5 -111v-96h469v106
zM1630 1434h260v-1434h-260v1434z" />
    <glyph glyph-name="f_i" unicode="fi" horiz-adv-x="1280" 
d="M1161 1024v-1024h-260v834h-424v-834h-260v834h-164v190h164v106q0 176 95.5 250t275.5 74q76 0 141 -8v-186q-47 8 -94 8q-87 0 -122.5 -37t-35.5 -111v-96h684zM899 1384h264v-249h-264v249z" />
    <glyph glyph-name="f_l" unicode="fl" horiz-adv-x="1284" 
d="M217 1130q0 176 95.5 250t275.5 74q76 0 141 -8v-186q-47 8 -94 8q-87 0 -122.5 -37t-35.5 -111v-96h213v-190h-213v-834h-260v834h-164v190h164v106zM901 1434h260v-1434h-260v1434z" />
    <glyph glyph-name=".notdef" horiz-adv-x="1024" 
d="M102 61v1229h820v-1229h-820zM246 205h532v942h-532v-942z" />
    <glyph glyph-name=".null" horiz-adv-x="0" 
 />
    <glyph glyph-name="nonmarkingreturn" horiz-adv-x="682" 
 />
    <glyph glyph-name="space" unicode=" " horiz-adv-x="509" 
 />
    <glyph glyph-name="exclam" unicode="!" horiz-adv-x="610" 
d="M190 438l-20 996h270l-26 -996h-224zM178 0v256h254v-256h-254z" />
    <glyph glyph-name="quotedbl" unicode="&#x22;" horiz-adv-x="1038" 
d="M242 889l-27 563h244l-29 -563h-188zM604 889l-26 563h243l-28 -563h-189z" />
    <glyph glyph-name="numbersign" unicode="#" horiz-adv-x="1462" 
d="M1313 825h-238l-59 -280h244l-35 -185h-248l-78 -360h-197l78 360h-237l-78 -360h-197l78 360h-231l35 185h235l59 280h-243l37 185h245l82 383h197l-82 -383h238l81 383h197l-82 -383h234zM819 545l60 280h-238l-59 -280h237z" />
    <glyph glyph-name="dollar" unicode="$" horiz-adv-x="1232" 
d="M1157 430q0 -203 -114.5 -312t-319.5 -132v-209h-213v207q-212 21 -328.5 129t-120.5 305h285q0 -219 268 -219q265 0 265 221q0 96 -50 142t-143 56l-176 19q-95 11 -167.5 37t-128.5 73t-85 120.5t-29 172.5q0 187 107.5 286.5t302.5 119.5v211h213v-209
q404 -39 407 -385h-270q0 180 -235 180q-123 0 -186.5 -50.5t-63.5 -148.5q0 -82 47.5 -122.5t142.5 -49.5l189 -22q403 -44 403 -420z" />
    <glyph glyph-name="percent" unicode="%" horiz-adv-x="1841" 
d="M438 -35l772 1503h179l-771 -1503h-180zM453 639q-165 0 -231 93.5t-66 309.5q0 222 68 313t231 91q165 0 231 -94t66 -310q0 -220 -68.5 -311.5t-230.5 -91.5zM453 786q71 0 98 54t27 202t-27 203t-98 55q-70 0 -96.5 -55t-26.5 -203q0 -147 26.5 -201.5t96.5 -54.5z
M1384 -14q-165 0 -231 93.5t-66 309.5q0 221 67 312.5t230 91.5q165 0 231 -94t66 -310q0 -221 -67.5 -312t-229.5 -91zM1384 133q71 0 97 53.5t26 202.5t-26 202.5t-97 53.5t-96.5 -53.5t-25.5 -202.5t25.5 -202.5t96.5 -53.5z" />
    <glyph glyph-name="ampersand" unicode="&#x26;" horiz-adv-x="1642" 
d="M1538 0h-299l-109 111q-183 -134 -460 -134q-259 0 -393 108t-134 308q0 251 230 363l78 39l-39 41q-70 71 -100.5 131.5t-30.5 140.5q0 346 383 346q193 0 291 -85.5t98 -244.5q0 -199 -179 -295l-108 -59l340 -340q43 113 43 264h235q0 -256 -112 -430zM670 1288
q-96 0 -134 -40.5t-38 -121.5q0 -53 19 -89.5t61 -80.5l63 -63l115 74q86 53 86 159q0 83 -40 122.5t-132 39.5zM690 162q177 0 295 94l-403 408l-66 -48q-119 -77 -119 -223q0 -112 77 -171.5t216 -59.5z" />
    <glyph glyph-name="quotesingle" unicode="'" horiz-adv-x="673" 
d="M242 889l-27 563h244l-29 -563h-188z" />
    <glyph glyph-name="parenleft" unicode="(" horiz-adv-x="843" 
d="M743 -338q-120 -3 -202 12q-115 17 -189 63.5t-125 148t-72.5 265.5t-21.5 416q0 202 14.5 345.5t43.5 243.5t79.5 162t114.5 94t156 46q73 18 202 12v-155q-71 0 -129 -21q-70 -17 -113.5 -57.5t-71 -127t-38 -214t-10.5 -328.5t10.5 -328.5t38 -214t71 -128
t113.5 -58.5q59 -18 129 -18v-158z" />
    <glyph glyph-name="parenright" unicode=")" horiz-adv-x="843" 
d="M102 -338v158q68 0 127 18q93 23 142.5 95.5t70.5 219.5t21 414q0 201 -10.5 328.5t-38.5 213.5t-71.5 127t-113.5 58q-58 21 -127 21v155q118 6 201 -12q116 -17 190 -63.5t125 -148t72 -264.5t21 -415q0 -253 -21 -416.5t-72 -265t-125 -148t-190 -63.5
q-83 -15 -201 -12z" />
    <glyph glyph-name="asterisk" unicode="*" horiz-adv-x="1101" 
d="M385 645l-158 115l199 237l-299 76l59 184l287 -110l-22 305h196l-20 -305l288 110l60 -184l-299 -76l196 -237l-155 -115l-166 262z" />
    <glyph glyph-name="plus" unicode="+" 
d="M1069 633v-219h-344v-348h-219v348h-346v219h346v342h219v-342h344z" />
    <glyph glyph-name="comma" unicode="," horiz-adv-x="608" 
d="M158 319h291v-319l-177 -365h-155l135 365h-94v319z" />
    <glyph glyph-name="hyphen" unicode="-" horiz-adv-x="974" 
d="M164 487v205h647v-205h-647z" />
    <glyph glyph-name="period" unicode="." horiz-adv-x="608" 
d="M158 0v319h291v-319h-291z" />
    <glyph glyph-name="slash" unicode="/" horiz-adv-x="821" 
d="M33 -51l557 1536h201l-558 -1536h-200z" />
    <glyph glyph-name="zero" unicode="0" horiz-adv-x="1185" 
d="M592 -20q-144 0 -242 40.5t-158 130t-86 219.5t-26 320q0 204 28 342t91.5 224t158 123.5t234.5 37.5q145 0 243.5 -41.5t158.5 -132.5t86 -224.5t26 -328.5q0 -263 -53 -418t-163.5 -223.5t-297.5 -68.5zM592 203q95 0 146.5 44t74.5 147.5t23 295.5q0 199 -23 305.5
t-74.5 151.5t-146.5 45t-145.5 -44.5t-73.5 -151.5t-23 -306q0 -191 22.5 -295t74 -148t145.5 -44z" />
    <glyph glyph-name="one" unicode="1" horiz-adv-x="755" 
d="M629 1393v-1393h-269v1124l-319 -200v223l303 246h285z" />
    <glyph glyph-name="two" unicode="2" horiz-adv-x="1110" 
d="M334 350v-135h710v-215h-978v365q0 99 25 171.5t74.5 119.5t111.5 74.5t147 43.5l176 37q100 21 139 68t39 133q0 107 -49 152.5t-158 45.5q-113 0 -161 -51t-48 -162h-270q1 93 25 165t65.5 120t102.5 78.5t132 43.5t158 13q472 0 472 -413q0 -185 -89 -281t-280 -135
l-162 -37q-99 -22 -140.5 -71.5t-41.5 -129.5z" />
    <glyph glyph-name="three" unicode="3" horiz-adv-x="1155" 
d="M883 735q105 -44 148.5 -128.5t43.5 -215.5q0 -214 -123.5 -311.5t-386.5 -97.5q-92 0 -167 12.5t-127 33.5t-90.5 53t-61.5 65.5t-37 77t-18.5 83t-4.5 86.5h252q0 -107 59 -150.5t195 -43.5q144 0 199 49t55 170q0 124 -55.5 167.5t-198.5 43.5h-141v211h141
q129 0 178.5 41t49.5 141q0 108 -50.5 148t-177.5 40q-124 0 -173.5 -38.5t-51.5 -127.5h-262q1 62 11.5 110.5t42 99.5t83 85t141 56t209.5 22q252 0 370 -90t118 -289q0 -116 -38 -190t-132 -113z" />
    <glyph glyph-name="four" unicode="4" horiz-adv-x="1191" 
d="M1145 553v-211h-203v-342h-258v342h-635v211l582 840h311v-840h203zM307 553h377v586z" />
    <glyph glyph-name="five" unicode="5" horiz-adv-x="1144" 
d="M664 934q119 0 201.5 -31t129.5 -93t67.5 -142.5t20.5 -190.5q0 -118 -24 -205.5t-65.5 -143t-106.5 -89t-138.5 -46.5t-170.5 -13q-118 0 -206 18.5t-144.5 51.5t-91 84t-48.5 110.5t-14 136.5h241q0 -102 61 -144t195 -42q149 0 209 60.5t60 207.5q0 151 -59.5 210.5
t-192.5 59.5q-125 0 -181.5 -40t-56.5 -126h-250v826h904v-209h-654v-332q110 82 314 82z" />
    <glyph glyph-name="six" unicode="6" horiz-adv-x="1161" 
d="M680 918q95 0 167.5 -22t119 -60.5t76 -96.5t41.5 -123.5t12 -146.5q0 -111 -24 -196t-65.5 -139.5t-104 -89t-132 -48.5t-156.5 -14q-128 0 -221.5 31t-153 86.5t-95 145t-49 192t-13.5 241.5q0 178 25 309t68 213t110.5 131t143 67.5t175.5 18.5q233 0 343 -94
t110 -254h-254q0 73 -54 112.5t-145 39.5q-133 0 -195 -104t-73 -329q114 130 344 130zM598 199q134 0 192 65t58 205q0 138 -57 196t-181 58q-122 0 -194.5 -64t-81.5 -165q7 -163 70 -229t194 -66z" />
    <glyph glyph-name="seven" unicode="7" horiz-adv-x="983" 
d="M37 1393h905v-215l-512 -1178h-264l516 1178h-645v215z" />
    <glyph glyph-name="eight" unicode="8" horiz-adv-x="1165" 
d="M850 741q120 -39 181 -125t61 -229q0 -98 -23 -168.5t-78.5 -126.5t-157.5 -84t-251 -28q-124 0 -214 20t-158 65t-102 124t-34 192q0 135 53.5 226t183.5 134q-219 72 -219 308q0 83 24 146.5t66 105t104.5 68t134.5 37.5t161 11q138 0 236 -27t152.5 -77.5t78.5 -114
t24 -145.5q0 -238 -223 -312zM584 1219q-121 0 -180.5 -48t-59.5 -137q0 -94 58 -141t182 -47q127 0 182 49t55 139q0 185 -237 185zM584 186q146 0 207 55.5t61 164.5q0 124 -63.5 179.5t-204.5 55.5q-148 0 -208.5 -57.5t-60.5 -175.5q0 -115 64.5 -168.5t204.5 -53.5z
" />
    <glyph glyph-name="nine" unicode="9" horiz-adv-x="1161" 
d="M547 1417q128 0 221.5 -31t153 -86.5t95 -145t49 -192t13.5 -241.5q0 -178 -25 -309t-68 -213t-110.5 -131t-142.5 -67.5t-174 -18.5q-233 0 -343 94t-110 254h252q0 -73 54 -112.5t147 -39.5q133 0 194 103t72 329q-113 -129 -344 -129q-95 0 -167.5 22t-119 60.5
t-75.5 96.5t-41 123t-12 147q0 111 24 196t65.5 139.5t103.5 89t131.5 48.5t156.5 14zM551 676q122 0 194.5 64t81.5 165q-7 163 -70 229t-194 66q-134 0 -192 -65t-58 -205q0 -138 57.5 -196t180.5 -58z" />
    <glyph glyph-name="colon" unicode=":" horiz-adv-x="608" 
d="M158 705v319h291v-319h-291zM158 0v319h291v-319h-291z" />
    <glyph glyph-name="semicolon" unicode=";" horiz-adv-x="608" 
d="M158 1024h291v-319h-291v319zM158 0v319h291v-319l-177 -365h-155l135 365h-94z" />
    <glyph glyph-name="less" unicode="&#x3c;" 
d="M1069 1020v-240l-670 -258l670 -260v-239l-909 376v246z" />
    <glyph glyph-name="equal" unicode="=" 
d="M96 627v219h1034v-219h-1034zM96 174v219h1034v-219h-1034z" />
    <glyph glyph-name="greater" unicode="&#x3e;" 
d="M164 1020l909 -375v-246l-909 -376v239l670 260l-670 258v240z" />
    <glyph glyph-name="question" unicode="?" horiz-adv-x="1236" 
d="M420 426l-6 172q-3 150 172 203l69 22q104 34 143.5 73t39.5 124q0 106 -59.5 156.5t-180.5 50.5q-240 0 -240 -189h-256q1 200 128 304t364 104q248 0 382 -108.5t134 -313.5q0 -271 -258 -356l-100 -31q-105 -35 -105 -125l-2 -86h-225zM399 0v256h269v-256h-269z" />
    <glyph glyph-name="at" unicode="@" horiz-adv-x="1820" 
d="M932 1454q138 0 248.5 -23t201.5 -74.5t152 -131.5t94 -197t33 -268q0 -123 -23.5 -214.5t-58.5 -142.5t-88 -82t-100.5 -40t-106.5 -9h-223v93q-79 -105 -236 -105q-142 0 -212 90t-70 275q0 374 295 374q147 0 221 -92v78h178v-551h51q32 0 56 5t52 24t45.5 52t29.5 94
t12 145q0 130 -23 224.5t-65 157t-110 100t-150 52.5t-193 15q-325 0 -454.5 -150t-129.5 -522q0 -155 20 -265.5t61.5 -187.5t111.5 -122t162.5 -65t222.5 -20q192 0 313 47l27 -151q-148 -49 -354 -49q-393 0 -568.5 190t-175.5 613q0 225 45.5 383.5t140.5 258
t234.5 145.5t333.5 46zM1059 551v158q0 77 -47.5 118t-122.5 41q-87 0 -127.5 -56t-40.5 -185q0 -125 40 -180.5t126 -55.5q79 0 125.5 43t46.5 117z" />
    <glyph glyph-name="A" unicode="A" horiz-adv-x="1429" 
d="M1094 0l-99 301h-561l-98 -301h-283l516 1434h289l518 -1434h-282zM502 506h426l-213 649z" />
    <glyph glyph-name="B" unicode="B" horiz-adv-x="1288" 
d="M952 739q126 -32 190 -112.5t64 -223.5q0 -113 -36 -193t-104 -125t-153 -65t-196 -20h-574v1434h531q481 0 481 -377q0 -232 -203 -318zM647 1221h-233v-383h258q112 0 164.5 47.5t52.5 142.5q0 105 -62.5 149t-179.5 44zM670 213q132 0 199 53t67 166q0 60 -18 101.5
t-53 64.5t-79 33t-102 10h-270v-428h256z" />
    <glyph glyph-name="C" unicode="C" horiz-adv-x="1347" 
d="M705 -20q-315 0 -463 183t-148 556q0 374 148.5 554.5t468.5 180.5q273 0 422 -122t149 -363h-272q0 138 -73.5 200t-225.5 62q-188 0 -264 -120.5t-76 -395.5q0 -277 75.5 -393.5t258.5 -116.5q153 0 227.5 62t77.5 196h272q-3 -238 -154 -360.5t-423 -122.5z" />
    <glyph glyph-name="D" unicode="D" horiz-adv-x="1388" 
d="M705 1434q143 0 248.5 -36t183.5 -117.5t117.5 -221t39.5 -338.5q0 -197 -39 -337t-117 -223.5t-184 -122t-249 -38.5h-562v1434h562zM705 223q75 0 129 21.5t97.5 74.5t65 153.5t21.5 248.5q0 124 -16 213.5t-42 142t-68.5 83t-85 40.5t-101.5 10h-291v-987h291z" />
    <glyph glyph-name="E" unicode="E" horiz-adv-x="1198" 
d="M422 219h708v-219h-978v1434h954v-220h-684v-362h657v-219h-657v-414z" />
    <glyph glyph-name="F" unicode="F" horiz-adv-x="1134" 
d="M1065 1214h-651v-407h614v-217h-614v-590h-271v1434h922v-220z" />
    <glyph glyph-name="G" unicode="G" horiz-adv-x="1423" 
d="M1311 729v-729h-230v168q-118 -188 -424 -188q-123 0 -217.5 32.5t-159.5 92.5t-107 151t-60.5 202t-18.5 251q0 384 149.5 564.5t475.5 180.5q286 0 432.5 -124t146.5 -353h-274q0 254 -299 254q-196 0 -275 -117.5t-79 -394.5q0 -281 81 -396.5t285 -115.5
q49 0 91.5 6.5t85 24t72.5 45t48.5 71.5t18.5 101v84h-295v190h553z" />
    <glyph glyph-name="H" unicode="H" horiz-adv-x="1429" 
d="M1016 1434h270v-1434h-270v629h-602v-629h-271v1434h271v-588h602v588z" />
    <glyph glyph-name="I" unicode="I" horiz-adv-x="555" 
d="M143 0v1434h271v-1434h-271z" />
    <glyph glyph-name="J" unicode="J" horiz-adv-x="1138" 
d="M537 -20q-114 0 -199.5 19.5t-139.5 54t-86.5 87t-45.5 112.5t-13 138h273q0 -102 49.5 -145t154.5 -43q115 0 160 51t45 176v1004h273v-1004q0 -106 -23 -185.5t-63 -129.5t-100.5 -80.5t-129 -42.5t-155.5 -12z" />
    <glyph glyph-name="K" unicode="K" horiz-adv-x="1343" 
d="M944 0l-399 670l-131 -140v-530h-271v1434h271v-578l487 578h354l-536 -578l575 -856h-350z" />
    <glyph glyph-name="L" unicode="L" horiz-adv-x="1120" 
d="M414 219h657v-219h-928v1434h271v-1215z" />
    <glyph glyph-name="M" unicode="M" horiz-adv-x="1767" 
d="M1624 1434v-1434h-264v1096l-352 -1096h-246l-354 1098v-1098h-265v1434h398l344 -1125l342 1125h397z" />
    <glyph glyph-name="N" unicode="N" horiz-adv-x="1443" 
d="M1030 1434h268v-1434h-274l-612 1032v-1032h-269v1434h299l588 -1006v1006z" />
    <glyph glyph-name="O" unicode="O" horiz-adv-x="1419" 
d="M709 -20q-317 0 -466 183t-149 554q0 376 148 556.5t467 180.5q320 0 468 -180t148 -557q0 -372 -148.5 -554.5t-467.5 -182.5zM709 205q188 0 264 119.5t76 392.5q0 278 -77.5 396t-262.5 118q-186 0 -262 -121t-76 -393q0 -279 77 -395.5t261 -116.5z" />
    <glyph glyph-name="P" unicode="P" horiz-adv-x="1239" 
d="M664 1434q255 0 379 -104.5t124 -325.5q0 -99 -25 -175t-68 -125t-107.5 -80t-138 -44t-164.5 -13h-250v-567h-271v1434h521zM659 784q248 0 248 220q0 117 -66 165t-182 48h-245v-433h245z" />
    <glyph glyph-name="Q" unicode="Q" horiz-adv-x="1419" 
d="M1325 717q0 -260 -71.5 -426.5t-221.5 -243.5l105 -256l-183 -72l-108 271q-72 -10 -137 -10q-317 0 -466 183t-149 554q0 376 148 556.5t467 180.5q320 0 468 -180t148 -557zM938 283q59 57 85 163t26 271q0 278 -77.5 396t-262.5 118q-186 0 -262 -121t-76 -393
q0 -279 77 -395.5t261 -116.5q33 0 49 2l-96 235l182 74z" />
    <glyph glyph-name="R" unicode="R" horiz-adv-x="1316" 
d="M1112 440l150 -440h-285l-143 451q-27 89 -73.5 119t-148.5 30h-198v-600h-271v1434h521q503 0 503 -400q0 -270 -227 -352q62 -25 99 -80t73 -162zM659 1217h-245v-410h245q246 0 246 207q0 203 -246 203z" />
    <glyph glyph-name="S" unicode="S" horiz-adv-x="1253" 
d="M623 -20q-263 0 -410.5 109.5t-151.5 328.5h287q0 -219 277 -219q272 0 272 221q0 96 -51.5 142t-147.5 56l-178 19q-97 11 -171.5 37.5t-131.5 73.5t-87 120.5t-30 171.5q0 109 38 189.5t109 129t166.5 72t217.5 23.5q253 0 386 -97t134 -292h-274q0 180 -242 180
q-254 0 -254 -201q0 -82 48 -121.5t146 -50.5l193 -20q410 -47 410 -422q0 -229 -147.5 -339.5t-407.5 -110.5z" />
    <glyph glyph-name="T" unicode="T" horiz-adv-x="1236" 
d="M1190 1434v-220h-434v-1214h-273v1214h-436v220h1143z" />
    <glyph glyph-name="U" unicode="U" horiz-adv-x="1376" 
d="M696 -20q-162 0 -274 40.5t-175.5 121t-90.5 187t-27 253.5v852h270v-852q0 -108 19.5 -182.5t59 -117t92.5 -61t126 -18.5q161 0 226 93.5t65 285.5v852h270v-852q0 -138 -26 -242t-72.5 -172t-117.5 -110.5t-154.5 -60t-190.5 -17.5z" />
    <glyph glyph-name="V" unicode="V" horiz-adv-x="1380" 
d="M1034 1434h295l-481 -1434h-322l-475 1434h295l342 -1139z" />
    <glyph glyph-name="W" unicode="W" horiz-adv-x="1990" 
d="M1657 1434h282l-403 -1434h-276l-265 1120l-264 -1120h-276l-404 1434h283l262 -1112l268 1112h262l269 -1115z" />
    <glyph glyph-name="X" unicode="X" horiz-adv-x="1359" 
d="M1309 0h-303l-324 569l-315 -569h-316l463 745l-426 689h309l289 -535l289 535h313l-434 -691z" />
    <glyph glyph-name="Y" unicode="Y" horiz-adv-x="1384" 
d="M1333 1434l-510 -881v-553h-270v553l-502 881h305l332 -654l340 654h305z" />
    <glyph glyph-name="Z" unicode="Z" horiz-adv-x="1187" 
d="M360 217h770v-217h-1079v217l760 1000h-715v217h1016v-217z" />
    <glyph glyph-name="bracketleft" unicode="[" horiz-adv-x="796" 
d="M154 -326v1805h536v-179h-295v-1450h301v-176h-542z" />
    <glyph glyph-name="backslash" unicode="\" horiz-adv-x="821" 
d="M791 -51h-201l-557 1536h200z" />
    <glyph glyph-name="bracketright" unicode="]" horiz-adv-x="796" 
d="M102 -326v176h299v1450h-295v179h537v-1805h-541z" />
    <glyph glyph-name="asciicircum" unicode="^" 
d="M1128 582h-225l-289 635l-288 -635h-226l416 852h197z" />
    <glyph glyph-name="underscore" unicode="_" horiz-adv-x="1404" 
d="M227 -305v168h951v-168h-951z" />
    <glyph glyph-name="grave" unicode="`" horiz-adv-x="690" 
d="M592 1155h-213l-277 307h297z" />
    <glyph glyph-name="a" unicode="a" horiz-adv-x="1120" 
d="M567 1044q125 0 214 -24.5t139.5 -72t73 -109t22.5 -142.5v-696h-250v141q-111 -161 -348 -161q-168 0 -262.5 85t-94.5 238q0 86 30 150t83 100t116 53t138 17h328v88q0 83 -49.5 120t-147.5 37q-96 0 -148.5 -36.5t-52.5 -108.5h-243q0 321 452 321zM504 162
q107 0 179.5 65t72.5 183v65h-234q-89 0 -141.5 -39t-52.5 -119t49 -117.5t127 -37.5z" />
    <glyph glyph-name="b" unicode="b" horiz-adv-x="1193" 
d="M715 1044q210 0 310.5 -128.5t100.5 -395.5q0 -276 -104.5 -408t-316.5 -132q-224 0 -330 151v-131h-250v1434h260v-537q56 71 141 109t189 38zM629 170q122 0 179.5 79t57.5 265q0 182 -56.5 260t-182.5 78q-105 0 -173.5 -61.5t-68.5 -165.5v-228q0 -102 69.5 -164.5
t174.5 -62.5z" />
    <glyph glyph-name="c" unicode="c" horiz-adv-x="1107" 
d="M582 -20q-272 0 -393 130.5t-121 401.5q0 272 121 402t393 130q229 0 348.5 -94t122.5 -280h-256q-3 96 -55 140t-160 44q-135 0 -192.5 -82t-57.5 -260q0 -181 58.5 -261.5t191.5 -80.5q109 0 160.5 44t54.5 136h256q-3 -184 -123 -277t-348 -93z" />
    <glyph glyph-name="d" unicode="d" horiz-adv-x="1189" 
d="M809 1434h260v-1434h-250v141q-115 -161 -348 -161q-203 0 -303 129.5t-100 396.5q0 277 106.5 407.5t321.5 130.5q207 0 313 -133v523zM561 172q109 0 178.5 61.5t69.5 165.5v230q0 101 -69 163t-175 62q-122 0 -179.5 -80t-57.5 -266q0 -179 55.5 -257.5t177.5 -78.5z
" />
    <glyph glyph-name="e" unicode="e" horiz-adv-x="1118" 
d="M328 446q8 -151 66 -217.5t186 -66.5q99 0 149 38t53 105h258q-3 -153 -126 -239t-345 -86q-138 0 -236 35t-155.5 105t-83.5 165.5t-26 224.5q0 267 121 400.5t384 133.5q255 0 371.5 -132.5t116.5 -397.5q0 -14 -1 -36.5t-1 -31.5h-731zM571 860q-117 0 -174 -61.5
t-67 -204.5h467q-10 143 -63.5 204.5t-162.5 61.5z" />
    <glyph glyph-name="f" unicode="f" horiz-adv-x="755" 
d="M635 1268q-87 0 -122.5 -37t-35.5 -111v-96h213v-190h-213v-834h-260v834h-164v190h164v106q0 176 95.5 250t275.5 74q76 0 141 -8v-186q-47 8 -94 8z" />
    <glyph glyph-name="g" unicode="g" horiz-adv-x="1171" 
d="M811 1024h250v-1044q0 -190 -120 -290t-359 -100q-95 0 -172 16.5t-140.5 53.5t-100 103t-38.5 157h254q3 -147 209 -147q111 0 159 46t48 156v193q-109 -129 -338 -129q-395 0 -395 479q0 526 419 526q220 0 324 -141v121zM553 223q118 0 183 60.5t65 165.5v180
q0 103 -67 164t-179 61q-115 0 -171 -78.5t-56 -253.5q0 -155 54 -227t171 -72z" />
    <glyph glyph-name="h" unicode="h" horiz-adv-x="1191" 
d="M723 1044q104 0 176 -28t112.5 -83.5t58 -126t17.5 -165.5v-641h-262v637q0 110 -45 162.5t-147 52.5q-110 0 -179 -63.5t-69 -167.5v-621h-260v1434h260v-539q55 72 143 110.5t195 38.5z" />
    <glyph glyph-name="i" unicode="i" horiz-adv-x="497" 
d="M117 1135v249h264v-249h-264zM119 0v1024h260v-1024h-260z" />
    <glyph glyph-name="j" unicode="j" horiz-adv-x="505" 
d="M125 1135v249h264v-249h-264zM-86 -410v201q102 0 156 43q57 50 57 137v1053h260v-1053q0 -211 -145 -307q-58 -38 -149.5 -56t-178.5 -18z" />
    <glyph glyph-name="k" unicode="k" horiz-adv-x="1148" 
d="M817 0l-311 483l-121 -114v-369h-260v1434h260v-768l371 358h329l-407 -381l446 -643h-307z" />
    <glyph glyph-name="l" unicode="l" horiz-adv-x="503" 
d="M121 0v1434h262v-1434h-262z" />
    <glyph glyph-name="m" unicode="m" horiz-adv-x="1806" 
d="M1354 1044q346 0 346 -403v-641h-258v637q0 99 -39 157t-139 58q-104 0 -165 -62t-61 -159v-631h-258v637q0 99 -39.5 157t-138.5 58q-102 0 -165.5 -66.5t-63.5 -164.5v-621h-258v1024h247v-145q103 165 334 165q229 0 305 -182q50 89 142 135.5t211 46.5z" />
    <glyph glyph-name="n" unicode="n" horiz-adv-x="1181" 
d="M723 1044q99 0 169.5 -29t110 -84.5t57 -126t17.5 -163.5v-641h-262v637q0 108 -44.5 161.5t-143.5 53.5q-114 0 -183 -63.5t-69 -167.5v-621h-260v1024h250v-143q116 163 358 163z" />
    <glyph glyph-name="o" unicode="o" horiz-adv-x="1157" 
d="M578 -20q-267 0 -388.5 131t-121.5 401q0 271 121 401.5t389 130.5q270 0 391 -130t121 -402q0 -270 -121.5 -401t-390.5 -131zM578 170q136 0 193.5 82t57.5 260q0 183 -57.5 262.5t-193.5 79.5q-135 0 -192.5 -82t-57.5 -260q0 -181 58 -261.5t192 -80.5z" />
    <glyph glyph-name="p" unicode="p" horiz-adv-x="1193" 
d="M721 1044q206 0 305.5 -129.5t99.5 -398.5q0 -276 -105.5 -406t-322.5 -130q-214 0 -313 120v-510h-260v1434h250v-141q115 161 346 161zM627 170q123 0 181 80t58 266q0 181 -56 258.5t-181 77.5q-105 0 -174.5 -62t-69.5 -165v-230q0 -108 68 -166.5t174 -58.5z" />
    <glyph glyph-name="q" unicode="q" horiz-adv-x="1185" 
d="M819 1024h250v-1434h-260v529q-108 -139 -334 -139q-207 0 -307 127.5t-100 396.5q0 276 105.5 408t315.5 132q225 0 330 -147v127zM563 172q111 0 178.5 58t67.5 169v228q0 102 -70 164.5t-176 62.5q-120 0 -177.5 -79t-57.5 -265q0 -180 56 -259t179 -79z" />
    <glyph glyph-name="r" unicode="r" horiz-adv-x="772" 
d="M655 1044q47 0 86 -8v-202q-48 10 -94 10q-120 0 -196 -81.5t-76 -227.5v-535h-260v1024h250v-166q50 91 126 138.5t164 47.5z" />
    <glyph glyph-name="s" unicode="s" horiz-adv-x="1048" 
d="M528 -20q-243 0 -354.5 85t-116.5 244h258q0 -81 58.5 -119t156.5 -38q103 0 155 40t52 111q0 120 -149 133l-146 17q-168 16 -258 84.5t-90 205.5q0 160 112 230.5t320 70.5q118 0 202.5 -20.5t135.5 -60.5t74.5 -94t24.5 -126h-244q0 136 -187 136q-89 0 -137.5 -32.5
t-48.5 -94.5q0 -108 146 -123l155 -17q76 -7 134 -25t107 -51.5t75 -90.5t26 -136q0 -329 -461 -329z" />
    <glyph glyph-name="t" unicode="t" horiz-adv-x="774" 
d="M705 834h-226v-519q0 -73 30 -103t107 -30q43 0 84 4v-196q-73 -8 -147 -8q-87 0 -145.5 13.5t-103 49t-65 100.5t-20.5 164v525h-176v190h176v289h260v-289h226v-190z" />
    <glyph glyph-name="u" unicode="u" horiz-adv-x="1163" 
d="M791 1024h258v-1024h-248v137q-53 -75 -138.5 -116t-193.5 -41q-193 0 -280 101t-87 296v647h258v-635q0 -120 51 -167.5t140 -47.5q100 0 170 59.5t70 163.5v627z" />
    <glyph glyph-name="v" unicode="v" horiz-adv-x="1103" 
d="M807 1024h270l-372 -1024h-306l-372 1024h272l254 -778z" />
    <glyph glyph-name="w" unicode="w" horiz-adv-x="1720" 
d="M1407 1024h270l-334 -1024h-278l-207 764l-213 -764h-280l-322 1024h270l211 -784l203 784h258l203 -784z" />
    <glyph glyph-name="x" unicode="x" horiz-adv-x="1112" 
d="M1083 0h-295l-237 397l-242 -397h-282l356 528l-322 496h283l209 -377l215 377h276l-319 -496z" />
    <glyph glyph-name="y" unicode="y" horiz-adv-x="1116" 
d="M819 1024h271l-543 -1434h-238l148 410h-39l-391 1024h272l256 -745z" />
    <glyph glyph-name="z" unicode="z" horiz-adv-x="1011" 
d="M387 197h569v-197h-909v197l574 630h-539v197h862v-197z" />
    <glyph glyph-name="braceleft" unicode="{" horiz-adv-x="825" 
d="M723 -324q-148 0 -250 41q-197 77 -197 320v315q0 64 -36 103t-95 39h-39v170h39q59 0 95 38.5t36 102.5v315q0 221 160 303q110 58 287 58v-174q-79 0 -129 -27q-82 -45 -82 -166v-289q0 -79 -39.5 -145t-107.5 -100q68 -35 107.5 -102t39.5 -146v-289q0 -125 84 -166
q50 -24 127 -24v-177z" />
    <glyph glyph-name="bar" unicode="|" horiz-adv-x="704" 
d="M246 -344v1880h213v-1880h-213z" />
    <glyph glyph-name="braceright" unicode="}" horiz-adv-x="825" 
d="M102 -324v177q78 0 127 24q86 42 86 166v289q0 79 39 146t107 102q-67 34 -106.5 99.5t-39.5 145.5v289q0 120 -84 166q-49 27 -129 27v174q177 0 287 -58q160 -82 160 -303v-315q0 -64 36 -102.5t95 -38.5h39v-170h-39q-59 0 -95 -39t-36 -103v-315q0 -243 -197 -320
q-102 -41 -250 -41z" />
    <glyph glyph-name="asciitilde" unicode="~" 
d="M96 371q0 146 71 226.5t198 80.5q63 0 159 -27l234 -76q59 -18 110 -18q66 0 103 32.5t37 92.5h125q0 -143 -70.5 -224t-194.5 -81q-61 0 -147 26l-232 74q-80 25 -124 25q-67 0 -104.5 -34.5t-37.5 -96.5h-127z" />
    <glyph glyph-name="uni00A0" unicode="&#xa0;" horiz-adv-x="509" 
 />
    <glyph glyph-name="exclamdown" unicode="&#xa1;" horiz-adv-x="610" 
d="M178 1024h254v-256h-254v256zM190 586h224l26 -996h-270z" />
    <glyph glyph-name="cent" unicode="&#xa2;" horiz-adv-x="1126" 
d="M573 172q109 0 160.5 44t54.5 134h254q-3 -323 -368 -364v-203h-205v205q-210 24 -305.5 153.5t-95.5 370.5q0 242 95.5 371t305.5 153v205h205v-203q365 -41 368 -368h-254q-3 96 -55 139t-160 43q-135 0 -192 -81.5t-57 -258.5q0 -181 58 -260.5t191 -79.5z" />
    <glyph glyph-name="sterling" unicode="&#xa3;" horiz-adv-x="1529" 
d="M643 207h715v-207h-1178v207h191v385h-191v199h191v147q0 96 10.5 167.5t41 140t82.5 111.5t139 69t206 26q137 0 231 -29t147 -87.5t76 -136t23 -185.5h-270q-1 127 -50 177t-155 50q-122 0 -165.5 -53t-43.5 -180v-217h592v-199h-592v-385z" />
    <glyph glyph-name="currency" unicode="&#xa4;" 
d="M1044 520q0 -125 -69 -231l129 -129l-137 -131l-129 129q-105 -62 -224 -62q-118 0 -223 62l-129 -129l-137 131l129 129q-68 108 -68 231q0 124 68 228l-129 129l137 131l127 -127q105 65 225 65q124 0 228 -63l125 125l137 -131l-127 -127q67 -103 67 -230zM614 287
q96 0 162 68.5t66 164.5t-66 165t-162 69q-94 0 -159.5 -69t-65.5 -165t65 -164.5t160 -68.5z" />
    <glyph glyph-name="yen" unicode="&#xa5;" horiz-adv-x="1513" 
d="M1391 1434l-318 -557h156v-183h-260l-76 -133v-59h336v-183h-336v-319h-281v319h-336v183h336v59l-75 133h-261v183h158l-311 557h315l316 -633l323 633h314z" />
    <glyph glyph-name="brokenbar" unicode="&#xa6;" horiz-adv-x="704" 
d="M246 770v766h213v-766h-213zM246 -344v766h213v-766h-213z" />
    <glyph glyph-name="section" unicode="&#xa7;" horiz-adv-x="1353" 
d="M1176 549q0 -163 -91 -264q64 -83 64 -224q0 -206 -130.5 -305.5t-361.5 -99.5q-150 0 -257.5 39t-171 126.5t-66.5 219.5h254q0 -197 243 -197q242 0 242 203q0 165 -172 182l-160 19q-39 4 -71 9.5t-71.5 17t-70 28t-61 43.5t-51 61t-33 83t-12.5 108q0 172 102 260
q-74 81 -74 229q0 365 461 365q227 0 347.5 -85t123.5 -257h-246q0 160 -215 160q-223 0 -223 -176q0 -78 42 -117.5t126 -48.5l170 -19q84 -9 147.5 -32t113.5 -64t76 -107.5t26 -156.5zM618 442l168 -18q63 -7 97 -16q43 46 43 124q0 89 -44.5 131t-125.5 52l-160 20
q-32 2 -80 13q-67 -42 -67 -142q0 -76 42.5 -115.5t126.5 -48.5z" />
    <glyph glyph-name="dieresis" unicode="&#xa8;" horiz-adv-x="831" 
d="M102 1145v219h226v-219h-226zM502 1145v219h227v-219h-227z" />
    <glyph glyph-name="copyright" unicode="&#xa9;" horiz-adv-x="1802" 
d="M901 -20q-332 0 -535.5 203t-203.5 534t203.5 534t535.5 203t535.5 -203t203.5 -534t-203.5 -534t-535.5 -203zM901 98q273 0 440.5 171.5t167.5 447.5t-167.5 447t-440.5 171q-274 0 -442 -171t-168 -447t168 -447.5t442 -171.5zM905 311q-187 0 -274.5 99.5
t-87.5 304.5q0 207 87 306t275 99q158 0 242 -69.5t84 -208.5h-160q-1 76 -41.5 110.5t-124.5 34.5q-106 0 -150 -64.5t-44 -207.5q0 -142 44.5 -205.5t149.5 -63.5q85 0 124 34.5t42 107.5h160q-1 -138 -85 -207.5t-241 -69.5z" />
    <glyph glyph-name="ordfeminine" unicode="&#xaa;" horiz-adv-x="804" 
d="M412 1456q167 0 237 -63.5t70 -180.5v-483h-172v100q-75 -110 -240 -110q-116 0 -181 58t-65 165q0 59 21 103t57.5 69t80 37t95.5 12h226v62q0 108 -138 108q-137 0 -137 -100h-168q0 223 314 223zM367 844q73 0 123.5 44.5t50.5 125.5v47h-162q-61 0 -97 -27.5
t-36 -83.5q0 -54 33 -80t88 -26z" />
    <glyph glyph-name="guillemotleft" unicode="&#xab;" horiz-adv-x="1232" 
d="M608 791l-360 -277l360 -276v-207l-502 381v204l502 383v-208zM1106 999v-208l-361 -277l361 -276v-207l-502 381v204z" />
    <glyph glyph-name="logicalnot" unicode="&#xac;" 
d="M1069 846v-567h-217v348h-692v219h909z" />
    <glyph glyph-name="uni00AD" unicode="&#xad;" horiz-adv-x="974" 
d="M164 487v205h647v-205h-647z" />
    <glyph glyph-name="registered" unicode="&#xae;" horiz-adv-x="1335" 
d="M668 1454q226 0 360.5 -134.5t134.5 -358.5q0 -225 -134.5 -359.5t-360.5 -134.5q-224 0 -359 135t-135 359q0 225 134.5 359t359.5 134zM668 549q185 0 295 112.5t110 299.5t-110 299t-295 112q-184 0 -294 -112.5t-110 -298.5q0 -187 110 -299.5t294 -112.5zM778 950
q41 -17 64 -88l55 -164h-106l-54 168q-11 32 -28 44t-54 12h-75v-224h-105v531h199q188 0 188 -148q0 -98 -84 -131zM672 1151h-92v-152h92q92 0 92 76t-92 76z" />
    <glyph glyph-name="macron" unicode="&#xaf;" horiz-adv-x="749" 
d="M102 1167v160h545v-160h-545z" />
    <glyph glyph-name="degree" unicode="&#xb0;" horiz-adv-x="1003" 
d="M502 889q-146 0 -219.5 67.5t-73.5 214.5q0 283 293 283q145 0 218 -69t73 -214q0 -148 -72.5 -215t-218.5 -67zM502 1008q72 0 105.5 38.5t33.5 122.5q0 90 -35 128t-104 38q-73 0 -107.5 -38.5t-34.5 -122.5q0 -90 36 -128t106 -38z" />
    <glyph glyph-name="plusminus" unicode="&#xb1;" 
d="M723 879h336v-220h-336v-313h-219v313h-336v220h336v307h219v-307zM174 0v219h881v-219h-881z" />
    <glyph glyph-name="uni00B2" unicode="&#xb2;" horiz-adv-x="708" 
d="M233 915v-69h426v-146h-610v226q0 117 57.5 173t165.5 75l105 18q56 13 77 36.5t21 65.5q0 62 -25.5 87.5t-84.5 25.5q-62 0 -88.5 -28t-26.5 -89h-184q0 135 79 193.5t222 58.5q292 0 292 -254q0 -107 -56.5 -164.5t-172.5 -76.5l-96 -19q-55 -13 -78 -40t-23 -73z" />
    <glyph glyph-name="uni00B3" unicode="&#xb3;" horiz-adv-x="724" 
d="M569 1143q59 -28 83 -79t24 -128q0 -122 -76 -184t-238 -62q-67 0 -119 10t-85 29t-55.5 41t-34 52.5t-15.5 57.5t-4 60h172q0 -59 33 -82.5t108 -23.5q79 0 110.5 29.5t31.5 92.5q0 67 -32 91t-110 24h-83v139h83q70 0 96.5 21.5t26.5 77.5q0 52 -29 76t-94 24
q-67 0 -94.5 -21.5t-27.5 -70.5h-183q1 37 7.5 65.5t26 60t51.5 52t88 34t132 13.5q304 0 304 -223q0 -133 -97 -176z" />
    <glyph glyph-name="acute" unicode="&#xb4;" horiz-adv-x="694" 
d="M102 1155l191 307h299l-279 -307h-211z" />
    <glyph glyph-name="paragraph" unicode="&#xb6;" horiz-adv-x="1452" 
d="M1296 1434v-162h-79v-1616h-218v1616h-176v-1616h-215v979h-73q-188 0 -292 101t-104 292q0 200 106.5 303t289.5 103h761z" />
    <glyph glyph-name="periodcentered" unicode="&#xb7;" horiz-adv-x="608" 
d="M158 461v319h291v-319h-291z" />
    <glyph glyph-name="cedilla" unicode="&#xb8;" horiz-adv-x="686" 
d="M379 -78q35 -1 61 -4t54.5 -13t47 -27t30.5 -46.5t12 -69.5q0 -190 -248 -190q-129 0 -181.5 47.5t-52.5 132.5h142q0 -61 88 -61q96 0 96 71q0 64 -84 64h-115l74 190h123z" />
    <glyph glyph-name="uni00B9" unicode="&#xb9;" horiz-adv-x="542" 
d="M428 1536v-836h-186v660l-193 -119v145l184 150h195z" />
    <glyph glyph-name="ordmasculine" unicode="&#xba;" horiz-adv-x="829" 
d="M414 719q-185 0 -270 90.5t-85 275.5q0 189 85 280t270 91t268.5 -91t83.5 -280q0 -185 -84 -275.5t-268 -90.5zM414 850q93 0 133.5 57t40.5 178q0 126 -41 183t-133 57q-95 0 -134.5 -57t-39.5 -183q0 -124 40.5 -179.5t133.5 -55.5z" />
    <glyph glyph-name="guillemotright" unicode="&#xbb;" horiz-adv-x="1232" 
d="M627 616v-204l-500 -381v207l360 276l-360 277v208zM625 999l499 -383v-204l-499 -381v207l360 276l-360 277v208z" />
    <glyph glyph-name="onequarter" unicode="&#xbc;" horiz-adv-x="1585" 
d="M1057 1468h172l-830 -1503h-170zM242 598v659l-193 -118v145l184 150h195v-836h-186zM1536 338v-139h-119v-199h-178v199h-383v139l348 498h213v-498h119zM1034 338h205v326z" />
    <glyph glyph-name="onehalf" unicode="&#xbd;" horiz-adv-x="1591" 
d="M1057 1468h172l-830 -1503h-170zM242 598v659l-193 -118v145l184 150h195v-836h-186zM1116 215v-70h424v-145h-610v225q0 117 58 173t167 75l102 19q57 13 79 37t22 65q0 62 -26.5 87.5t-86.5 25.5q-62 0 -88.5 -28t-26.5 -89h-184q1 135 80.5 193.5t222.5 58.5
q293 0 293 -254q0 -107 -57 -165t-174 -77l-97 -18q-54 -13 -76 -39.5t-22 -73.5z" />
    <glyph glyph-name="threequarters" unicode="&#xbe;" horiz-adv-x="1732" 
d="M1204 1468h172l-829 -1503h-170zM676 834q0 -122 -76 -184t-238 -62q-67 0 -119 10t-85 29t-55.5 41t-34 52.5t-15.5 57.5t-4 60h172q0 -59 33 -83t108 -24q79 0 110.5 30t31.5 93q0 67 -32 91t-110 24h-83v139h83q70 0 96.5 21t26.5 77q0 52 -29 76.5t-94 24.5
q-67 0 -94.5 -22t-27.5 -71h-183q1 37 7.5 66t26 60.5t51.5 52t88 34t132 13.5q304 0 304 -223q0 -134 -97 -177q59 -28 83 -78.5t24 -127.5zM1683 338v-139h-118v-199h-179v199h-382v139l348 498h213v-498h118zM1182 338h204v326z" />
    <glyph glyph-name="questiondown" unicode="&#xbf;" horiz-adv-x="1236" 
d="M838 1024v-256h-269v256h269zM817 598l6 -172q5 -150 -170 -203l-71 -22q-104 -35 -143.5 -73.5t-39.5 -123.5q0 -106 60.5 -156.5t181.5 -50.5q240 0 240 189h254q0 -200 -126.5 -304t-365.5 -104q-248 0 -382 108.5t-134 313.5q0 271 258 356l100 31q104 34 107 125v86
h225z" />
    <glyph glyph-name="Agrave" unicode="&#xc0;" horiz-adv-x="1429" 
d="M817 1559h-213l-276 307h297zM1094 0l-99 301h-561l-98 -301h-283l516 1434h289l518 -1434h-282zM502 506h426l-213 649z" />
    <glyph glyph-name="Aacute" unicode="&#xc1;" horiz-adv-x="1429" 
d="M1081 1872l-278 -307h-211l190 307h299zM1094 0l-99 301h-561l-98 -301h-283l516 1434h289l518 -1434h-282zM502 506h426l-213 649z" />
    <glyph glyph-name="Acircumflex" unicode="&#xc2;" horiz-adv-x="1429" 
d="M715 1735l-129 -174h-217l243 305h203l244 -305h-217zM1094 0l-99 301h-561l-98 -301h-283l516 1434h289l518 -1434h-282zM502 506h426l-213 649z" />
    <glyph glyph-name="Atilde" unicode="&#xc3;" horiz-adv-x="1429" 
d="M575 1638q-42 0 -66 -24t-24 -66h-133q0 118 53.5 185t147.5 67q55 0 113 -22l94 -37q49 -19 86 -19q41 0 64.5 22.5t23.5 63.5h139q0 -117 -54.5 -183t-150.5 -66q-58 0 -112 22l-99 39q-44 18 -82 18zM1094 0l-99 301h-561l-98 -301h-283l516 1434h289l518 -1434h-282z
M502 506h426l-213 649z" />
    <glyph glyph-name="Adieresis" unicode="&#xc4;" horiz-adv-x="1429" 
d="M629 1774v-220h-226v220h226zM1030 1774v-220h-227v220h227zM1094 0l-99 301h-561l-98 -301h-283l516 1434h289l518 -1434h-282zM502 506h426l-213 649z" />
    <glyph glyph-name="Aring" unicode="&#xc5;" horiz-adv-x="1429" 
d="M715 1513q-215 0 -215 207q0 209 211 209q116 0 165.5 -54t49.5 -151q0 -211 -211 -211zM715 1821q-50 0 -72 -24t-22 -75q0 -54 22.5 -77t69.5 -23q50 0 72 24t22 76t-23 75.5t-69 23.5zM1094 0l-99 301h-561l-98 -301h-283l516 1434h289l518 -1434h-282zM502 506h426
l-213 649z" />
    <glyph glyph-name="AE" unicode="&#xc6;" horiz-adv-x="1961" 
d="M1335 217h553v-217h-780l-57 389h-535l-172 -389h-291l672 1434h1139v-217h-682l57 -367h596v-219h-563zM606 596h416l-92 621h-51z" />
    <glyph glyph-name="Ccedilla" unicode="&#xc7;" horiz-adv-x="1347" 
d="M705 205q153 0 227.5 62t77.5 196h272q-3 -225 -139 -347t-383 -134l-29 -60q35 -1 61 -4t54.5 -13t47 -27t30.5 -46.5t12 -69.5q0 -190 -248 -190q-129 0 -181 47.5t-52 132.5h141q0 -61 88 -61q96 0 96 71q0 64 -84 64h-114l59 156q-282 19 -414.5 201t-132.5 536
q0 374 148.5 554.5t468.5 180.5q273 0 422 -122t149 -363h-272q0 138 -73.5 200t-225.5 62q-188 0 -264 -120.5t-76 -395.5q0 -277 75.5 -393.5t258.5 -116.5z" />
    <glyph glyph-name="Egrave" unicode="&#xc8;" horiz-adv-x="1198" 
d="M729 1559h-213l-276 307h297zM422 219h708v-219h-978v1434h954v-220h-684v-362h657v-219h-657v-414z" />
    <glyph glyph-name="Eacute" unicode="&#xc9;" horiz-adv-x="1198" 
d="M993 1872l-278 -307h-211l190 307h299zM422 219h708v-219h-978v1434h954v-220h-684v-362h657v-219h-657v-414z" />
    <glyph glyph-name="Ecircumflex" unicode="&#xca;" horiz-adv-x="1198" 
d="M627 1735l-129 -174h-217l243 305h203l244 -305h-217zM422 219h708v-219h-978v1434h954v-220h-684v-362h657v-219h-657v-414z" />
    <glyph glyph-name="Edieresis" unicode="&#xcb;" horiz-adv-x="1198" 
d="M539 1774v-220h-226v220h226zM940 1774v-220h-227v220h227zM422 219h708v-219h-978v1434h954v-220h-684v-362h657v-219h-657v-414z" />
    <glyph glyph-name="Igrave" unicode="&#xcc;" horiz-adv-x="555" 
d="M383 1559h-213l-276 307h296zM143 0v1434h271v-1434h-271z" />
    <glyph glyph-name="Iacute" unicode="&#xcd;" horiz-adv-x="555" 
d="M158 1565l190 307h299l-278 -307h-211zM143 0v1434h271v-1434h-271z" />
    <glyph glyph-name="Icircumflex" unicode="&#xce;" horiz-adv-x="555" 
d="M281 1735l-129 -174h-218l244 305h203l244 -305h-217zM143 0v1434h271v-1434h-271z" />
    <glyph glyph-name="Idieresis" unicode="&#xcf;" horiz-adv-x="555" 
d="M10 1554v220h209v-220h-209zM336 1554v220h209v-220h-209zM143 0v1434h271v-1434h-271z" />
    <glyph glyph-name="Eth" unicode="&#xd0;" horiz-adv-x="1388" 
d="M705 1434q143 0 248.5 -36t183.5 -117.5t117.5 -221t39.5 -338.5q0 -197 -39 -337t-117 -223.5t-184 -122t-249 -38.5h-562v616h-143v207h143v611h562zM705 223q75 0 129 21.5t97.5 74.5t65 153.5t21.5 248.5q0 124 -16 213.5t-42 142t-68.5 83t-85 40.5t-101.5 10h-291
v-387h340v-207h-340v-393h291z" />
    <glyph glyph-name="Ntilde" unicode="&#xd1;" horiz-adv-x="1443" 
d="M588 1638q-42 0 -66 -24t-24 -66h-133q0 118 53 185t147 67q55 0 113 -22l94 -37q49 -19 86 -19q41 0 64.5 22.5t23.5 63.5h139q0 -117 -54.5 -183t-149.5 -66q-59 0 -113 22l-98 39q-43 18 -82 18zM1030 1434h268v-1434h-274l-612 1032v-1032h-269v1434h299l588 -1006
v1006z" />
    <glyph glyph-name="Ograve" unicode="&#xd2;" horiz-adv-x="1419" 
d="M813 1559h-213l-276 307h297zM709 -20q-317 0 -466 183t-149 554q0 376 148 556.5t467 180.5q320 0 468 -180t148 -557q0 -372 -148.5 -554.5t-467.5 -182.5zM709 205q188 0 264 119.5t76 392.5q0 278 -77.5 396t-262.5 118q-186 0 -262 -121t-76 -393q0 -279 77 -395.5
t261 -116.5z" />
    <glyph glyph-name="Oacute" unicode="&#xd3;" horiz-adv-x="1419" 
d="M588 1565l190 307h299l-278 -307h-211zM709 -20q-317 0 -466 183t-149 554q0 376 148 556.5t467 180.5q320 0 468 -180t148 -557q0 -372 -148.5 -554.5t-467.5 -182.5zM709 205q188 0 264 119.5t76 392.5q0 278 -77.5 396t-262.5 118q-186 0 -262 -121t-76 -393
q0 -279 77 -395.5t261 -116.5z" />
    <glyph glyph-name="Ocircumflex" unicode="&#xd4;" horiz-adv-x="1419" 
d="M711 1735l-129 -174h-217l243 305h203l244 -305h-217zM709 1454q320 0 468 -180t148 -557q0 -372 -148.5 -554.5t-467.5 -182.5q-317 0 -466 183t-149 554q0 376 148 556.5t467 180.5zM709 205q188 0 264 119.5t76 392.5q0 278 -77.5 396t-262.5 118q-186 0 -262 -121
t-76 -393q0 -279 77 -395.5t261 -116.5z" />
    <glyph glyph-name="Otilde" unicode="&#xd5;" horiz-adv-x="1419" 
d="M348 1548q0 118 53.5 185t147.5 67q55 0 113 -22l94 -37q49 -19 86 -19q41 0 64.5 22.5t23.5 63.5h139q0 -117 -54.5 -183t-150.5 -66q-58 0 -112 22l-99 39q-43 18 -82 18q-42 0 -66 -24t-24 -66h-133zM709 -20q-317 0 -466 183t-149 554q0 376 148 556.5t467 180.5
q320 0 468 -180t148 -557q0 -372 -148.5 -554.5t-467.5 -182.5zM709 205q188 0 264 119.5t76 392.5q0 278 -77.5 396t-262.5 118q-186 0 -262 -121t-76 -393q0 -279 77 -395.5t261 -116.5z" />
    <glyph glyph-name="Odieresis" unicode="&#xd6;" horiz-adv-x="1419" 
d="M399 1554v220h226v-220h-226zM799 1554v220h227v-220h-227zM709 -20q-317 0 -466 183t-149 554q0 376 148 556.5t467 180.5q320 0 468 -180t148 -557q0 -372 -148.5 -554.5t-467.5 -182.5zM709 205q188 0 264 119.5t76 392.5q0 278 -77.5 396t-262.5 118
q-186 0 -262 -121t-76 -393q0 -279 77 -395.5t261 -116.5z" />
    <glyph glyph-name="multiply" unicode="&#xd7;" 
d="M1073 827l-303 -305l303 -303l-153 -156l-306 306l-303 -306l-155 156l305 303l-305 305l155 154l303 -303l306 303z" />
    <glyph glyph-name="Oslash" unicode="&#xd8;" horiz-adv-x="1419" 
d="M1159 1294q166 -181 166 -577q0 -372 -148.5 -554.5t-467.5 -182.5q-187 0 -312 61l-88 -143h-196l147 243q-166 181 -166 576q0 376 148 556.5t467 180.5q183 0 313 -59l86 141h199zM371 717q0 -215 43 -326l481 795q-68 45 -186 45q-186 0 -262 -121t-76 -393zM709 205
q188 0 264 119.5t76 392.5q0 214 -43 325l-484 -794q73 -43 187 -43z" />
    <glyph glyph-name="Ugrave" unicode="&#xd9;" horiz-adv-x="1376" 
d="M797 1559h-213l-277 307h297zM696 -20q-162 0 -274 40.5t-175.5 121t-90.5 187t-27 253.5v852h270v-852q0 -108 19.5 -182.5t59 -117t92.5 -61t126 -18.5q161 0 226 93.5t65 285.5v852h270v-852q0 -138 -26 -242t-72.5 -172t-117.5 -110.5t-154.5 -60t-190.5 -17.5z" />
    <glyph glyph-name="Uacute" unicode="&#xda;" horiz-adv-x="1376" 
d="M571 1565l191 307h299l-279 -307h-211zM696 -20q-162 0 -274 40.5t-175.5 121t-90.5 187t-27 253.5v852h270v-852q0 -108 19.5 -182.5t59 -117t92.5 -61t126 -18.5q161 0 226 93.5t65 285.5v852h270v-852q0 -138 -26 -242t-72.5 -172t-117.5 -110.5t-154.5 -60
t-190.5 -17.5z" />
    <glyph glyph-name="Ucircumflex" unicode="&#xdb;" horiz-adv-x="1376" 
d="M692 1735l-129 -174h-217l244 305h203l243 -305h-217zM987 1434h270v-852q0 -138 -26 -242t-72.5 -172t-117.5 -110.5t-154.5 -60t-190.5 -17.5q-162 0 -274 40.5t-175.5 121t-90.5 187t-27 253.5v852h270v-852q0 -108 19.5 -182.5t59 -117t92.5 -61t126 -18.5
q161 0 226 93.5t65 285.5v852z" />
    <glyph glyph-name="Udieresis" unicode="&#xdc;" horiz-adv-x="1376" 
d="M381 1554v220h225v-220h-225zM780 1554v220h228v-220h-228zM696 -20q-162 0 -274 40.5t-175.5 121t-90.5 187t-27 253.5v852h270v-852q0 -108 19.5 -182.5t59 -117t92.5 -61t126 -18.5q161 0 226 93.5t65 285.5v852h270v-852q0 -138 -26 -242t-72.5 -172t-117.5 -110.5
t-154.5 -60t-190.5 -17.5z" />
    <glyph glyph-name="Yacute" unicode="&#xdd;" horiz-adv-x="1384" 
d="M1059 1872l-279 -307h-211l191 307h299zM1333 1434l-510 -881v-553h-270v553l-502 881h305l332 -654l340 654h305z" />
    <glyph glyph-name="Thorn" unicode="&#xde;" horiz-adv-x="1239" 
d="M664 1192q255 0 379 -104.5t124 -325.5q0 -100 -25 -176t-68 -124.5t-107.5 -79.5t-138 -43.5t-164.5 -12.5h-250v-326h-271v1434h271v-242h250zM659 543q248 0 248 219q0 117 -66 165t-182 48h-245v-432h245z" />
    <glyph glyph-name="germandbls" unicode="&#xdf;" horiz-adv-x="1232" 
d="M889 805q126 -37 194 -129.5t68 -257.5q0 -125 -36 -211.5t-108 -135.5t-166 -70t-223 -21q-78 0 -133 8v184q66 -8 111 -8q163 0 232 65t69 203q0 74 -19.5 127.5t-47.5 81.5t-70.5 44.5t-75.5 20t-76 3.5h-123v184h107q124 0 175.5 46.5t51.5 147.5q0 94 -47.5 139.5
t-157.5 45.5q-62 0 -106 -16t-67 -38t-36 -58t-15.5 -63.5t-2.5 -66.5v-1030h-262v1020q0 43 2 74.5t12 80t28 83.5t54 74.5t85 64t125 41t171 16.5q475 0 475 -356q0 -222 -188 -293z" />
    <glyph glyph-name="agrave" unicode="&#xe0;" horiz-adv-x="1120" 
d="M674 1149h-213l-277 307h297zM567 1044q125 0 214 -24.5t139.5 -72t73 -109t22.5 -142.5v-696h-250v141q-111 -161 -348 -161q-168 0 -262.5 85t-94.5 238q0 86 30 150t83 100t116 53t138 17h328v88q0 83 -49.5 120t-147.5 37q-96 0 -148.5 -36.5t-52.5 -108.5h-243
q0 321 452 321zM504 162q107 0 179.5 65t72.5 183v65h-234q-89 0 -141.5 -39t-52.5 -119t49 -117.5t127 -37.5z" />
    <glyph glyph-name="aacute" unicode="&#xe1;" horiz-adv-x="1120" 
d="M938 1462l-279 -307h-210l190 307h299zM567 1044q125 0 214 -24.5t139.5 -72t73 -109t22.5 -142.5v-696h-250v141q-111 -161 -348 -161q-168 0 -262.5 85t-94.5 238q0 86 30 150t83 100t116 53t138 17h328v88q0 83 -49.5 120t-147.5 37q-96 0 -148.5 -36.5t-52.5 -108.5
h-243q0 321 452 321zM504 162q107 0 179.5 65t72.5 183v65h-234q-89 0 -141.5 -39t-52.5 -119t49 -117.5t127 -37.5z" />
    <glyph glyph-name="acircumflex" unicode="&#xe2;" horiz-adv-x="1120" 
d="M571 1325l-129 -174h-217l244 305h203l243 -305h-217zM567 1044q125 0 214 -24.5t139.5 -72t73 -109t22.5 -142.5v-696h-250v141q-111 -161 -348 -161q-168 0 -262.5 85t-94.5 238q0 86 30 150t83 100t116 53t138 17h328v88q0 83 -49.5 120t-147.5 37q-96 0 -148.5 -36.5
t-52.5 -108.5h-243q0 321 452 321zM504 162q107 0 179.5 65t72.5 183v65h-234q-89 0 -141.5 -39t-52.5 -119t49 -117.5t127 -37.5z" />
    <glyph glyph-name="atilde" unicode="&#xe3;" horiz-adv-x="1120" 
d="M434 1229q-42 0 -66 -24t-24 -66h-133q0 118 53.5 185t147.5 67q51 0 112 -23l94 -37q47 -18 87 -18q41 0 64.5 22.5t23.5 63.5h139q0 -117 -55 -183.5t-150 -66.5q-59 0 -113 22l-98 39q-46 19 -82 19zM567 1044q125 0 214 -24.5t139.5 -72t73 -109t22.5 -142.5v-696
h-250v141q-111 -161 -348 -161q-168 0 -262.5 85t-94.5 238q0 86 30 150t83 100t116 53t138 17h328v88q0 83 -49.5 120t-147.5 37q-96 0 -148.5 -36.5t-52.5 -108.5h-243q0 321 452 321zM504 162q107 0 179.5 65t72.5 183v65h-234q-89 0 -141.5 -39t-52.5 -119t49 -117.5
t127 -37.5z" />
    <glyph glyph-name="adieresis" unicode="&#xe4;" horiz-adv-x="1120" 
d="M485 1364v-219h-225v219h225zM887 1364v-219h-228v219h228zM567 1044q125 0 214 -24.5t139.5 -72t73 -109t22.5 -142.5v-696h-250v141q-111 -161 -348 -161q-168 0 -262.5 85t-94.5 238q0 86 30 150t83 100t116 53t138 17h328v88q0 83 -49.5 120t-147.5 37
q-96 0 -148.5 -36.5t-52.5 -108.5h-243q0 321 452 321zM504 162q107 0 179.5 65t72.5 183v65h-234q-89 0 -141.5 -39t-52.5 -119t49 -117.5t127 -37.5z" />
    <glyph glyph-name="aring" unicode="&#xe5;" horiz-adv-x="1120" 
d="M571 1104q-215 0 -215 207q0 209 211 209q116 0 165.5 -54t49.5 -151q0 -211 -211 -211zM571 1411q-50 0 -72 -24t-22 -74q0 -54 22.5 -77.5t69.5 -23.5q50 0 72.5 24.5t22.5 76.5t-23.5 75t-69.5 23zM567 1044q125 0 214 -24.5t139.5 -72t73 -109t22.5 -142.5v-696h-250
v141q-111 -161 -348 -161q-168 0 -262.5 85t-94.5 238q0 86 30 150t83 100t116 53t138 17h328v88q0 83 -49.5 120t-147.5 37q-96 0 -148.5 -36.5t-52.5 -108.5h-243q0 321 452 321zM504 162q107 0 179.5 65t72.5 183v65h-234q-89 0 -141.5 -39t-52.5 -119t49 -117.5
t127 -37.5z" />
    <glyph glyph-name="ae" unicode="&#xe6;" horiz-adv-x="1808" 
d="M1018 461q6 -159 64 -229t188 -70q99 0 149.5 37.5t53.5 103.5h258q-2 -150 -124.5 -235.5t-338.5 -85.5q-304 0 -410 198q-54 -97 -158 -147.5t-249 -50.5q-188 0 -289 85.5t-101 235.5q0 79 30 139t82.5 95t116.5 52t138 17h328v103q0 83 -49.5 120t-147.5 37
q-96 0 -148.5 -36.5t-52.5 -108.5h-243q0 71 22.5 127t61 92t93 59.5t114 33t129.5 9.5q263 0 348 -170q114 170 389 170q249 0 365 -130t116 -386q0 -25 -4 -65h-731zM1257 860q-111 0 -167 -59.5t-68 -194.5h467q-10 135 -64.5 194.5t-167.5 59.5zM504 162q108 0 180 64.5
t72 183.5v51h-234q-87 0 -140.5 -39t-53.5 -109q0 -78 48.5 -114.5t127.5 -36.5z" />
    <glyph glyph-name="ccedilla" unicode="&#xe7;" horiz-adv-x="1107" 
d="M582 170q109 0 160.5 44t54.5 136h256q-3 -174 -112 -267.5t-316 -102.5l-31 -60q35 -1 61 -4t54.5 -13t47 -27t30.5 -46.5t12 -69.5q0 -190 -248 -190q-129 0 -181.5 47.5t-52.5 132.5h142q0 -61 88 -61q96 0 96 71q0 64 -84 64h-115l62 158q-231 18 -334.5 148
t-103.5 382q0 272 121 402t393 130q229 0 348.5 -94t122.5 -280h-256q-3 96 -55 140t-160 44q-135 0 -192.5 -82t-57.5 -260q0 -181 58.5 -261.5t191.5 -80.5z" />
    <glyph glyph-name="egrave" unicode="&#xe8;" horiz-adv-x="1118" 
d="M674 1149h-213l-277 307h297zM328 446q8 -151 66 -217.5t186 -66.5q99 0 149 38t53 105h258q-3 -153 -126 -239t-345 -86q-138 0 -236 35t-155.5 105t-83.5 165.5t-26 224.5q0 267 121 400.5t384 133.5q255 0 371.5 -132.5t116.5 -397.5q0 -14 -1 -36.5t-1 -31.5h-731z
M571 860q-117 0 -174 -61.5t-67 -204.5h467q-10 143 -63.5 204.5t-162.5 61.5z" />
    <glyph glyph-name="eacute" unicode="&#xe9;" horiz-adv-x="1118" 
d="M938 1462l-279 -307h-210l190 307h299zM328 446q8 -151 66 -217.5t186 -66.5q99 0 149 38t53 105h258q-3 -153 -126 -239t-345 -86q-138 0 -236 35t-155.5 105t-83.5 165.5t-26 224.5q0 267 121 400.5t384 133.5q255 0 371.5 -132.5t116.5 -397.5q0 -14 -1 -36.5
t-1 -31.5h-731zM571 860q-117 0 -174 -61.5t-67 -204.5h467q-10 143 -63.5 204.5t-162.5 61.5z" />
    <glyph glyph-name="ecircumflex" unicode="&#xea;" horiz-adv-x="1118" 
d="M571 1325l-129 -174h-217l244 305h203l243 -305h-217zM328 446q8 -151 66 -217.5t186 -66.5q99 0 149 38t53 105h258q-3 -153 -126 -239t-345 -86q-138 0 -236 35t-155.5 105t-83.5 165.5t-26 224.5q0 267 121 400.5t384 133.5q255 0 371.5 -132.5t116.5 -397.5
q0 -14 -1 -36.5t-1 -31.5h-731zM571 860q-117 0 -174 -61.5t-67 -204.5h467q-10 143 -63.5 204.5t-162.5 61.5z" />
    <glyph glyph-name="edieresis" unicode="&#xeb;" horiz-adv-x="1118" 
d="M485 1364v-219h-225v219h225zM887 1364v-219h-228v219h228zM328 446q8 -151 66 -217.5t186 -66.5q99 0 149 38t53 105h258q-3 -153 -126 -239t-345 -86q-138 0 -236 35t-155.5 105t-83.5 165.5t-26 224.5q0 267 121 400.5t384 133.5q255 0 371.5 -132.5t116.5 -397.5
q0 -14 -1 -36.5t-1 -31.5h-731zM571 860q-117 0 -174 -61.5t-67 -204.5h467q-10 143 -63.5 204.5t-162.5 61.5z" />
    <glyph glyph-name="igrave" unicode="&#xec;" horiz-adv-x="497" 
d="M352 1149h-213l-276 307h297zM119 0v1024h260v-1024h-260z" />
    <glyph glyph-name="iacute" unicode="&#xed;" horiz-adv-x="497" 
d="M127 1155l190 307h299l-278 -307h-211zM119 0v1024h260v-1024h-260z" />
    <glyph glyph-name="icircumflex" unicode="&#xee;" horiz-adv-x="497" 
d="M250 1325l-129 -174h-217l243 305h203l244 -305h-217zM119 0v1024h260v-1024h-260z" />
    <glyph glyph-name="idieresis" unicode="&#xef;" horiz-adv-x="497" 
d="M-18 1145v219h208v-219h-208zM305 1145v219h209v-219h-209zM119 0v1024h260v-1024h-260z" />
    <glyph glyph-name="eth" unicode="&#xf0;" horiz-adv-x="1165" 
d="M850 1296q244 -226 244 -673q0 -641 -543 -641q-490 0 -490 481q0 103 25 186.5t75.5 147t134.5 98.5t196 35q218 0 335 -123q-27 234 -176 371l-209 -125l-69 104l166 100q-153 84 -355 84l101 152q264 0 456 -113l187 113l71 -107zM569 199q64 0 108.5 13.5t79.5 47.5
t53 96t21 156q-6 99 -75.5 158t-192.5 59q-120 0 -183 -65.5t-63 -192.5q0 -272 252 -272z" />
    <glyph glyph-name="ntilde" unicode="&#xf1;" horiz-adv-x="1181" 
d="M459 1229q-42 0 -66 -24t-24 -66h-133q0 118 53 185t147 67q52 0 113 -23l94 -37q47 -18 86 -18q41 0 64.5 22.5t23.5 63.5h139q0 -117 -54.5 -183.5t-149.5 -66.5q-59 0 -113 22l-98 39q-46 19 -82 19zM723 1044q99 0 169.5 -29t110 -84.5t57 -126t17.5 -163.5v-641
h-262v637q0 108 -44.5 161.5t-143.5 53.5q-114 0 -183 -63.5t-69 -167.5v-621h-260v1024h250v-143q116 163 358 163z" />
    <glyph glyph-name="ograve" unicode="&#xf2;" horiz-adv-x="1157" 
d="M684 1155h-213l-276 307h297zM578 -20q-267 0 -388.5 131t-121.5 401q0 271 121 401.5t389 130.5q270 0 391 -130t121 -402q0 -270 -121.5 -401t-390.5 -131zM578 170q136 0 193.5 82t57.5 260q0 183 -57.5 262.5t-193.5 79.5q-135 0 -192.5 -82t-57.5 -260
q0 -181 58 -261.5t192 -80.5z" />
    <glyph glyph-name="oacute" unicode="&#xf3;" horiz-adv-x="1157" 
d="M459 1161l190 307h299l-278 -307h-211zM578 -20q-267 0 -388.5 131t-121.5 401q0 271 121 401.5t389 130.5q270 0 391 -130t121 -402q0 -270 -121.5 -401t-390.5 -131zM578 170q136 0 193.5 82t57.5 260q0 183 -57.5 262.5t-193.5 79.5q-135 0 -192.5 -82t-57.5 -260
q0 -181 58 -261.5t192 -80.5z" />
    <glyph glyph-name="ocircumflex" unicode="&#xf4;" horiz-adv-x="1157" 
d="M582 1331l-129 -174h-217l243 305h203l244 -305h-217zM578 1044q270 0 391 -130t121 -402q0 -270 -121.5 -401t-390.5 -131q-267 0 -388.5 131t-121.5 401q0 271 121 401.5t389 130.5zM578 170q136 0 193.5 82t57.5 260q0 183 -57.5 262.5t-193.5 79.5q-135 0 -192.5 -82
t-57.5 -260q0 -181 58 -261.5t192 -80.5z" />
    <glyph glyph-name="otilde" unicode="&#xf5;" horiz-adv-x="1157" 
d="M221 1145q0 118 53.5 185t147.5 67q52 0 113 -23l94 -37q47 -18 86 -18q41 0 64.5 22.5t23.5 63.5h139q0 -117 -55 -183.5t-150 -66.5q-56 0 -112 23l-99 39q-44 18 -82 18q-42 0 -66 -24t-24 -66h-133zM578 -20q-267 0 -388.5 131t-121.5 401q0 271 121 401.5t389 130.5
q270 0 391 -130t121 -402q0 -270 -121.5 -401t-390.5 -131zM578 170q136 0 193.5 82t57.5 260q0 183 -57.5 262.5t-193.5 79.5q-135 0 -192.5 -82t-57.5 -260q0 -181 58 -261.5t192 -80.5z" />
    <glyph glyph-name="odieresis" unicode="&#xf6;" horiz-adv-x="1157" 
d="M270 1151v219h226v-219h-226zM670 1151v219h227v-219h-227zM578 -20q-267 0 -388.5 131t-121.5 401q0 271 121 401.5t389 130.5q270 0 391 -130t121 -402q0 -270 -121.5 -401t-390.5 -131zM578 170q136 0 193.5 82t57.5 260q0 183 -57.5 262.5t-193.5 79.5
q-135 0 -192.5 -82t-57.5 -260q0 -181 58 -261.5t192 -80.5z" />
    <glyph glyph-name="divide" unicode="&#xf7;" 
d="M506 809v258h225v-258h-225zM129 414v217h971v-217h-971zM506 -29v258h225v-258h-225z" />
    <glyph glyph-name="oslash" unicode="&#xf8;" horiz-adv-x="1157" 
d="M950 932q140 -128 140 -420q0 -270 -121.5 -401t-390.5 -131q-152 0 -248 38l-49 -71h-181l103 149q-135 129 -135 416q0 271 121 401.5t389 130.5q146 0 241 -36l55 82h183zM328 512q0 -118 24 -195l348 514q-50 23 -122 23q-135 0 -192.5 -82t-57.5 -260zM578 170
q136 0 193.5 82t57.5 260q0 129 -26 203l-352 -518q50 -27 127 -27z" />
    <glyph glyph-name="ugrave" unicode="&#xf9;" horiz-adv-x="1163" 
d="M674 1149h-213l-277 307h297zM791 1024h258v-1024h-248v137q-53 -75 -138.5 -116t-193.5 -41q-193 0 -280 101t-87 296v647h258v-635q0 -120 51 -167.5t140 -47.5q100 0 170 59.5t70 163.5v627z" />
    <glyph glyph-name="uacute" unicode="&#xfa;" horiz-adv-x="1163" 
d="M938 1462l-279 -307h-210l190 307h299zM791 1024h258v-1024h-248v137q-53 -75 -138.5 -116t-193.5 -41q-193 0 -280 101t-87 296v647h258v-635q0 -120 51 -167.5t140 -47.5q100 0 170 59.5t70 163.5v627z" />
    <glyph glyph-name="ucircumflex" unicode="&#xfb;" horiz-adv-x="1163" 
d="M571 1325l-129 -174h-217l244 305h203l243 -305h-217zM791 1024h258v-1024h-248v137q-53 -75 -138.5 -116t-193.5 -41q-193 0 -280 101t-87 296v647h258v-635q0 -120 51 -167.5t140 -47.5q100 0 170 59.5t70 163.5v627z" />
    <glyph glyph-name="udieresis" unicode="&#xfc;" horiz-adv-x="1163" 
d="M483 1364v-219h-225v219h225zM885 1364v-219h-228v219h228zM791 1024h258v-1024h-248v137q-53 -75 -138.5 -116t-193.5 -41q-193 0 -280 101t-87 296v647h258v-635q0 -120 51 -167.5t140 -47.5q100 0 170 59.5t70 163.5v627z" />
    <glyph glyph-name="yacute" unicode="&#xfd;" horiz-adv-x="1116" 
d="M930 1462l-279 -307h-211l191 307h299zM819 1024h271l-543 -1434h-238l148 410h-39l-391 1024h272l256 -745z" />
    <glyph glyph-name="thorn" unicode="&#xfe;" horiz-adv-x="1193" 
d="M721 1042q206 0 305.5 -129.5t99.5 -396.5q0 -275 -105.5 -404.5t-322.5 -129.5q-214 0 -313 120v-512h-260v1844h260v-539q56 71 142.5 109t193.5 38zM627 170q123 0 181 80t58 266q0 181 -56 258.5t-181 77.5q-105 0 -174.5 -62.5t-69.5 -164.5v-230q0 -107 68 -166
t174 -59z" />
    <glyph glyph-name="ydieresis" unicode="&#xff;" horiz-adv-x="1116" 
d="M475 1364v-219h-225v219h225zM877 1364v-219h-228v219h228zM819 1024h271l-543 -1434h-238l148 410h-39l-391 1024h272l256 -745z" />
    <glyph glyph-name="Amacron" unicode="&#x100;" horiz-adv-x="1429" 
d="M985 1737v-160h-545v160h545zM1094 0l-99 301h-561l-98 -301h-283l516 1434h289l518 -1434h-282zM502 506h426l-213 649z" />
    <glyph glyph-name="amacron" unicode="&#x101;" horiz-adv-x="1120" 
d="M842 1327v-160h-545v160h545zM567 1044q125 0 214 -24.5t139.5 -72t73 -109t22.5 -142.5v-696h-250v141q-111 -161 -348 -161q-168 0 -262.5 85t-94.5 238q0 86 30 150t83 100t116 53t138 17h328v88q0 83 -49.5 120t-147.5 37q-96 0 -148.5 -36.5t-52.5 -108.5h-243
q0 321 452 321zM504 162q107 0 179.5 65t72.5 183v65h-234q-89 0 -141.5 -39t-52.5 -119t49 -117.5t127 -37.5z" />
    <glyph glyph-name="Abreve" unicode="&#x102;" horiz-adv-x="1429" 
d="M713 1550q-95 0 -160 20t-102 59t-52.5 90t-15.5 120h172q0 -77 38.5 -111t117.5 -34q86 0 122.5 36.5t36.5 108.5h170q0 -83 -23.5 -141t-69.5 -89.5t-102 -45t-132 -13.5zM1094 0l-99 301h-561l-98 -301h-283l516 1434h289l518 -1434h-282zM502 506h426l-213 649z" />
    <glyph glyph-name="abreve" unicode="&#x103;" horiz-adv-x="1120" 
d="M569 1141q-95 0 -160 20t-101.5 59t-52 90t-15.5 120h172q0 -78 38 -112t117 -34q86 0 123 37t37 109h170q0 -83 -24 -141t-69.5 -89.5t-102 -45t-132.5 -13.5zM567 1044q125 0 214 -24.5t139.5 -72t73 -109t22.5 -142.5v-696h-250v141q-111 -161 -348 -161
q-168 0 -262.5 85t-94.5 238q0 86 30 150t83 100t116 53t138 17h328v88q0 83 -49.5 120t-147.5 37q-96 0 -148.5 -36.5t-52.5 -108.5h-243q0 321 452 321zM504 162q107 0 179.5 65t72.5 183v65h-234q-89 0 -141.5 -39t-52.5 -119t49 -117.5t127 -37.5z" />
    <glyph glyph-name="Aogonek" unicode="&#x104;" horiz-adv-x="1429" 
d="M1292 -274q52 0 113 20v-135q-93 -37 -176 -37q-108 0 -172 52.5t-64 135.5q0 139 172 238h-71l-99 301h-561l-98 -301h-283l516 1434h289l518 -1434h-63q-142 -92 -142 -186q0 -41 32 -64.5t89 -23.5zM502 506h426l-213 649z" />
    <glyph glyph-name="aogonek" unicode="&#x105;" horiz-adv-x="1120" 
d="M950 -274q52 0 113 20v-135q-93 -37 -176 -37q-108 0 -172 52.5t-64 135.5q0 139 174 238h-59v141q-111 -161 -348 -161q-168 0 -262.5 85t-94.5 238q0 86 30 150t83 100t116 53t138 17h328v88q0 83 -49.5 120t-147.5 37q-96 0 -148.5 -36.5t-52.5 -108.5h-243
q0 321 452 321q125 0 214 -24.5t139.5 -72t73 -109t22.5 -142.5v-696h-45q-142 -92 -142 -186q0 -41 32.5 -64.5t88.5 -23.5zM504 162q107 0 179.5 65t72.5 183v65h-234q-89 0 -141.5 -39t-52.5 -119t49 -117.5t127 -37.5z" />
    <glyph glyph-name="Cacute" unicode="&#x106;" horiz-adv-x="1347" 
d="M590 1565l190 307h299l-278 -307h-211zM705 -20q-315 0 -463 183t-148 556q0 374 148.5 554.5t468.5 180.5q273 0 422 -122t149 -363h-272q0 138 -73.5 200t-225.5 62q-188 0 -264 -120.5t-76 -395.5q0 -277 75.5 -393.5t258.5 -116.5q153 0 227.5 62t77.5 196h272
q-3 -238 -154 -360.5t-423 -122.5z" />
    <glyph glyph-name="cacute" unicode="&#x107;" horiz-adv-x="1107" 
d="M442 1155l191 307h299l-279 -307h-211zM582 -20q-272 0 -393 130.5t-121 401.5q0 272 121 402t393 130q229 0 348.5 -94t122.5 -280h-256q-3 96 -55 140t-160 44q-135 0 -192.5 -82t-57.5 -260q0 -181 58.5 -261.5t191.5 -80.5q109 0 160.5 44t54.5 136h256
q-3 -184 -123 -277t-348 -93z" />
    <glyph glyph-name="Ccircumflex" unicode="&#x108;" horiz-adv-x="1347" 
d="M711 1735l-129 -174h-217l243 305h203l244 -305h-217zM705 205q153 0 227.5 62t77.5 196h272q-3 -238 -154 -360.5t-423 -122.5q-315 0 -463 183t-148 556q0 374 148.5 554.5t468.5 180.5q273 0 422 -122t149 -363h-272q0 138 -73.5 200t-225.5 62q-188 0 -264 -120.5
t-76 -395.5q0 -277 75.5 -393.5t258.5 -116.5z" />
    <glyph glyph-name="ccircumflex" unicode="&#x109;" horiz-adv-x="1107" 
d="M563 1325l-129 -174h-217l244 305h203l243 -305h-217zM582 170q109 0 160.5 44t54.5 136h256q-3 -184 -123 -277t-348 -93q-272 0 -393 130.5t-121 401.5q0 272 121 402t393 130q229 0 348.5 -94t122.5 -280h-256q-3 96 -55 140t-160 44q-135 0 -192.5 -82t-57.5 -260
q0 -181 58.5 -261.5t191.5 -80.5z" />
    <glyph glyph-name="Cdotaccent" unicode="&#x10a;" horiz-adv-x="1347" 
d="M592 1548v228h235v-228h-235zM705 -20q-315 0 -463 183t-148 556q0 374 148.5 554.5t468.5 180.5q273 0 422 -122t149 -363h-272q0 138 -73.5 200t-225.5 62q-188 0 -264 -120.5t-76 -395.5q0 -277 75.5 -393.5t258.5 -116.5q153 0 227.5 62t77.5 196h272
q-3 -238 -154 -360.5t-423 -122.5z" />
    <glyph glyph-name="cdotaccent" unicode="&#x10b;" horiz-adv-x="1107" 
d="M444 1139v227h236v-227h-236zM582 -20q-272 0 -393 130.5t-121 401.5q0 272 121 402t393 130q229 0 348.5 -94t122.5 -280h-256q-3 96 -55 140t-160 44q-135 0 -192.5 -82t-57.5 -260q0 -181 58.5 -261.5t191.5 -80.5q109 0 160.5 44t54.5 136h256q-3 -184 -123 -277
t-348 -93z" />
    <glyph glyph-name="Ccaron" unicode="&#x10c;" horiz-adv-x="1347" 
d="M608 1567l-243 307h217l129 -174l127 174h217l-244 -307h-203zM705 205q153 0 227.5 62t77.5 196h272q-3 -238 -154 -360.5t-423 -122.5q-315 0 -463 183t-148 556q0 374 148.5 554.5t468.5 180.5q273 0 422 -122t149 -363h-272q0 138 -73.5 200t-225.5 62
q-188 0 -264 -120.5t-76 -395.5q0 -277 75.5 -393.5t258.5 -116.5z" />
    <glyph glyph-name="ccaron" unicode="&#x10d;" horiz-adv-x="1107" 
d="M461 1157l-244 307h217l129 -174l127 174h217l-243 -307h-203zM582 170q109 0 160.5 44t54.5 136h256q-3 -184 -123 -277t-348 -93q-272 0 -393 130.5t-121 401.5q0 272 121 402t393 130q229 0 348.5 -94t122.5 -280h-256q-3 96 -55 140t-160 44q-135 0 -192.5 -82
t-57.5 -260q0 -181 58.5 -261.5t191.5 -80.5z" />
    <glyph glyph-name="Dcaron" unicode="&#x10e;" horiz-adv-x="1388" 
d="M520 1567l-244 307h218l129 -174l127 174h217l-244 -307h-203zM705 1434q143 0 248.5 -36t183.5 -117.5t117.5 -221t39.5 -338.5q0 -197 -39 -337t-117 -223.5t-184 -122t-249 -38.5h-562v1434h562zM705 223q75 0 129 21.5t97.5 74.5t65 153.5t21.5 248.5
q0 124 -16 213.5t-42 142t-68.5 83t-85 40.5t-101.5 10h-291v-987h291z" />
    <glyph glyph-name="dcaron" unicode="&#x10f;" horiz-adv-x="1177" 
d="M809 911v523h260v-1434h-250v141q-115 -161 -348 -161q-203 0 -303 129.5t-100 396.5q0 277 106.5 407.5t321.5 130.5q207 0 313 -133zM1204 1434h242l-123 -568h-188zM561 172q109 0 178.5 61.5t69.5 165.5v230q0 101 -69 163t-175 62q-122 0 -179.5 -80t-57.5 -266
q0 -179 55.5 -257.5t177.5 -78.5z" />
    <glyph glyph-name="Dcroat" unicode="&#x110;" horiz-adv-x="1388" 
d="M705 1434q143 0 248.5 -36t183.5 -117.5t117.5 -221t39.5 -338.5q0 -197 -39 -337t-117 -223.5t-184 -122t-249 -38.5h-562v616h-143v207h143v611h562zM705 223q75 0 129 21.5t97.5 74.5t65 153.5t21.5 248.5q0 124 -16 213.5t-42 142t-68.5 83t-85 40.5t-101.5 10h-291
v-387h340v-207h-340v-393h291z" />
    <glyph glyph-name="dcroat" unicode="&#x111;" horiz-adv-x="1189" 
d="M1210 1276v-150h-141v-1126h-250v141q-115 -161 -348 -161q-203 0 -303 129.5t-100 396.5q0 277 106.5 407.5t321.5 130.5q207 0 313 -133v215h-305v150h305v158h260v-158h141zM561 172q109 0 178.5 61.5t69.5 165.5v230q0 101 -69 163t-175 62q-122 0 -179.5 -80
t-57.5 -266q0 -179 55.5 -257.5t177.5 -78.5z" />
    <glyph glyph-name="Emacron" unicode="&#x112;" horiz-adv-x="1198" 
d="M897 1737v-160h-545v160h545zM422 219h708v-219h-978v1434h954v-220h-684v-362h657v-219h-657v-414z" />
    <glyph glyph-name="emacron" unicode="&#x113;" horiz-adv-x="1118" 
d="M842 1327v-160h-545v160h545zM328 446q8 -151 66 -217.5t186 -66.5q99 0 149 38t53 105h258q-3 -153 -126 -239t-345 -86q-138 0 -236 35t-155.5 105t-83.5 165.5t-26 224.5q0 267 121 400.5t384 133.5q255 0 371.5 -132.5t116.5 -397.5q0 -14 -1 -36.5t-1 -31.5h-731z
M571 860q-117 0 -174 -61.5t-67 -204.5h467q-10 143 -63.5 204.5t-162.5 61.5z" />
    <glyph glyph-name="Ebreve" unicode="&#x114;" horiz-adv-x="1198" 
d="M625 1550q-95 0 -160 20t-102 59t-52.5 90t-15.5 120h172q0 -77 38.5 -111t117.5 -34q86 0 122.5 36.5t36.5 108.5h170q0 -83 -23.5 -141t-69.5 -89.5t-102 -45t-132 -13.5zM422 219h708v-219h-978v1434h954v-220h-684v-362h657v-219h-657v-414z" />
    <glyph glyph-name="ebreve" unicode="&#x115;" horiz-adv-x="1118" 
d="M571 1141q-95 0 -160 20t-101.5 59t-52 90t-15.5 120h172q0 -78 38 -112t117 -34q86 0 123 37t37 109h170q0 -83 -24 -141t-69.5 -89.5t-102 -45t-132.5 -13.5zM328 446q8 -151 66 -217.5t186 -66.5q99 0 149 38t53 105h258q-3 -153 -126 -239t-345 -86q-138 0 -236 35
t-155.5 105t-83.5 165.5t-26 224.5q0 267 121 400.5t384 133.5q255 0 371.5 -132.5t116.5 -397.5q0 -14 -1 -36.5t-1 -31.5h-731zM571 860q-117 0 -174 -61.5t-67 -204.5h467q-10 143 -63.5 204.5t-162.5 61.5z" />
    <glyph glyph-name="Edotaccent" unicode="&#x116;" horiz-adv-x="1198" 
d="M743 1776v-228h-235v228h235zM422 219h708v-219h-978v1434h954v-220h-684v-362h657v-219h-657v-414z" />
    <glyph glyph-name="edotaccent" unicode="&#x117;" horiz-adv-x="1118" 
d="M688 1366v-227h-235v227h235zM328 446q8 -151 66 -217.5t186 -66.5q99 0 149 38t53 105h258q-3 -153 -126 -239t-345 -86q-138 0 -236 35t-155.5 105t-83.5 165.5t-26 224.5q0 267 121 400.5t384 133.5q255 0 371.5 -132.5t116.5 -397.5q0 -14 -1 -36.5t-1 -31.5h-731z
M571 860q-117 0 -174 -61.5t-67 -204.5h467q-10 143 -63.5 204.5t-162.5 61.5z" />
    <glyph glyph-name="Eogonek" unicode="&#x118;" horiz-adv-x="1198" 
d="M1036 0q-139 -90 -139 -186q0 -41 32 -64.5t89 -23.5q49 0 110 20v-135q-93 -37 -176 -37q-107 0 -171 52.5t-64 135.5q0 139 174 238h-739v1434h954v-220h-684v-362h657v-219h-657v-414h708v-219h-94z" />
    <glyph glyph-name="eogonek" unicode="&#x119;" horiz-adv-x="1118" 
d="M328 446q8 -151 66 -217.5t186 -66.5q99 0 149 38t53 105h258q-3 -174 -161 -262l-54 -33q-71 -44 -114 -95t-43 -101q0 -41 31.5 -64.5t88.5 -23.5q52 0 113 20v-135q-93 -37 -178 -37q-107 0 -170.5 52.5t-63.5 135.5q0 125 144 220q-20 -2 -64 -2q-138 0 -236 35
t-155.5 105t-83.5 165.5t-26 224.5q0 267 121 400.5t384 133.5q255 0 371.5 -132.5t116.5 -397.5q0 -14 -1 -36.5t-1 -31.5h-731zM571 860q-117 0 -174 -61.5t-67 -204.5h467q-10 143 -63.5 204.5t-162.5 61.5z" />
    <glyph glyph-name="Ecaron" unicode="&#x11a;" horiz-adv-x="1198" 
d="M524 1567l-243 307h217l129 -174l127 174h217l-244 -307h-203zM422 219h708v-219h-978v1434h954v-220h-684v-362h657v-219h-657v-414z" />
    <glyph glyph-name="ecaron" unicode="&#x11b;" horiz-adv-x="1118" 
d="M469 1157l-244 307h217l129 -174l127 174h217l-243 -307h-203zM328 446q8 -151 66 -217.5t186 -66.5q99 0 149 38t53 105h258q-3 -153 -126 -239t-345 -86q-138 0 -236 35t-155.5 105t-83.5 165.5t-26 224.5q0 267 121 400.5t384 133.5q255 0 371.5 -132.5t116.5 -397.5
q0 -14 -1 -36.5t-1 -31.5h-731zM571 860q-117 0 -174 -61.5t-67 -204.5h467q-10 143 -63.5 204.5t-162.5 61.5z" />
    <glyph glyph-name="Gcircumflex" unicode="&#x11c;" horiz-adv-x="1423" 
d="M721 1735l-129 -174h-217l243 305h203l244 -305h-217zM1311 729v-729h-230v168q-118 -188 -424 -188q-123 0 -217.5 32.5t-159.5 92.5t-107 151t-60.5 202t-18.5 251q0 384 149.5 564.5t475.5 180.5q286 0 432.5 -124t146.5 -353h-274q0 254 -299 254q-196 0 -275 -117.5
t-79 -394.5q0 -281 81 -396.5t285 -115.5q49 0 91.5 6.5t85 24t72.5 45t48.5 71.5t18.5 101v84h-295v190h553z" />
    <glyph glyph-name="gcircumflex" unicode="&#x11d;" horiz-adv-x="1171" 
d="M588 1325l-129 -174h-217l243 305h203l244 -305h-217zM811 1024h250v-1044q0 -190 -120 -290t-359 -100q-95 0 -172 16.5t-140.5 53.5t-100 103t-38.5 157h254q3 -147 209 -147q111 0 159 46t48 156v193q-109 -129 -338 -129q-395 0 -395 479q0 526 419 526
q220 0 324 -141v121zM553 223q118 0 183 60.5t65 165.5v180q0 103 -67 164t-179 61q-115 0 -171 -78.5t-56 -253.5q0 -155 54 -227t171 -72z" />
    <glyph glyph-name="Gbreve" unicode="&#x11e;" horiz-adv-x="1423" 
d="M721 1550q-95 0 -160 20t-102 59t-52.5 90t-15.5 120h172q0 -77 38.5 -111t117.5 -34q86 0 123 36.5t37 108.5h170q0 -83 -24 -141t-69.5 -89.5t-102 -45t-132.5 -13.5zM1311 729v-729h-230v168q-118 -188 -424 -188q-123 0 -217.5 32.5t-159.5 92.5t-107 151t-60.5 202
t-18.5 251q0 384 149.5 564.5t475.5 180.5q286 0 432.5 -124t146.5 -353h-274q0 254 -299 254q-196 0 -275 -117.5t-79 -394.5q0 -281 81 -396.5t285 -115.5q49 0 91.5 6.5t85 24t72.5 45t48.5 71.5t18.5 101v84h-295v190h553z" />
    <glyph glyph-name="gbreve" unicode="&#x11f;" horiz-adv-x="1171" 
d="M586 1141q-95 0 -160 20t-102 59t-52.5 90t-15.5 120h172q0 -78 38.5 -112t117.5 -34q86 0 122.5 37t36.5 109h170q0 -83 -23.5 -141t-69.5 -89.5t-102 -45t-132 -13.5zM811 1024h250v-1044q0 -190 -120 -290t-359 -100q-95 0 -172 16.5t-140.5 53.5t-100 103t-38.5 157
h254q3 -147 209 -147q111 0 159 46t48 156v193q-109 -129 -338 -129q-395 0 -395 479q0 526 419 526q220 0 324 -141v121zM553 223q118 0 183 60.5t65 165.5v180q0 103 -67 164t-179 61q-115 0 -171 -78.5t-56 -253.5q0 -155 54 -227t171 -72z" />
    <glyph glyph-name="Gdotaccent" unicode="&#x120;" horiz-adv-x="1423" 
d="M838 1776v-228h-236v228h236zM1311 729v-729h-230v168q-118 -188 -424 -188q-123 0 -217.5 32.5t-159.5 92.5t-107 151t-60.5 202t-18.5 251q0 384 149.5 564.5t475.5 180.5q286 0 432.5 -124t146.5 -353h-274q0 254 -299 254q-196 0 -275 -117.5t-79 -394.5
q0 -281 81 -396.5t285 -115.5q49 0 91.5 6.5t85 24t72.5 45t48.5 71.5t18.5 101v84h-295v190h553z" />
    <glyph glyph-name="gdotaccent" unicode="&#x121;" horiz-adv-x="1171" 
d="M702 1366v-227h-235v227h235zM811 1024h250v-1044q0 -190 -120 -290t-359 -100q-95 0 -172 16.5t-140.5 53.5t-100 103t-38.5 157h254q3 -147 209 -147q111 0 159 46t48 156v193q-109 -129 -338 -129q-395 0 -395 479q0 526 419 526q220 0 324 -141v121zM553 223
q118 0 183 60.5t65 165.5v180q0 103 -67 164t-179 61q-115 0 -171 -78.5t-56 -253.5q0 -155 54 -227t171 -72z" />
    <glyph glyph-name="uni0122" unicode="&#x122;" horiz-adv-x="1423" 
d="M1311 729v-729h-230v168q-118 -188 -424 -188q-123 0 -217.5 32.5t-159.5 92.5t-107 151t-60.5 202t-18.5 251q0 384 149.5 564.5t475.5 180.5q286 0 432.5 -124t146.5 -353h-274q0 254 -299 254q-196 0 -275 -117.5t-79 -394.5q0 -281 81 -396.5t285 -115.5
q49 0 91.5 6.5t85 24t72.5 45t48.5 71.5t18.5 101v84h-295v190h553zM627 -279v199h217v-199l-111 -210h-117l80 210h-69z" />
    <glyph glyph-name="uni0123" unicode="&#x123;" horiz-adv-x="1171" 
d="M686 1303v-199h-217v199l111 210h116l-80 -210h70zM811 1024h250v-1044q0 -190 -120 -290t-359 -100q-95 0 -172 16.5t-140.5 53.5t-100 103t-38.5 157h254q3 -147 209 -147q111 0 159 46t48 156v193q-109 -129 -338 -129q-395 0 -395 479q0 526 419 526q220 0 324 -141
v121zM553 223q118 0 183 60.5t65 165.5v180q0 103 -67 164t-179 61q-115 0 -171 -78.5t-56 -253.5q0 -155 54 -227t171 -72z" />
    <glyph glyph-name="Hcircumflex" unicode="&#x124;" horiz-adv-x="1429" 
d="M709 1735l-129 -174h-218l244 305h203l244 -305h-217zM1016 1434h270v-1434h-270v629h-602v-629h-271v1434h271v-588h602v588z" />
    <glyph glyph-name="hcircumflex" unicode="&#x125;" horiz-adv-x="1191" 
d="M254 1735l-129 -174h-217l244 305h202l244 -305h-217zM723 1044q104 0 176 -28t112.5 -83.5t58 -126t17.5 -165.5v-641h-262v637q0 110 -45 162.5t-147 52.5q-110 0 -179 -63.5t-69 -167.5v-621h-260v1434h260v-539q55 72 143 110.5t195 38.5z" />
    <glyph glyph-name="Hbar" unicode="&#x126;" horiz-adv-x="1429" 
d="M1430 1227v-148h-144v-1079h-270v629h-602v-629h-271v1079h-143v148h143v207h271v-207h602v207h270v-207h144zM1016 846v233h-602v-233h602z" />
    <glyph glyph-name="hbar" unicode="&#x127;" horiz-adv-x="1191" 
d="M723 1044q104 0 176 -28t112.5 -83.5t58 -126t17.5 -165.5v-641h-262v637q0 110 -45 162.5t-147 52.5q-110 0 -179 -63.5t-69 -167.5v-621h-260v1126h-133v150h133v158h260v-158h326v-150h-326v-231q55 72 143 110.5t195 38.5z" />
    <glyph glyph-name="Itilde" unicode="&#x128;" horiz-adv-x="555" 
d="M-82 1548q0 118 53.5 185t147.5 67q54 0 112 -22l95 -37q49 -19 86 -19q41 0 64.5 22.5t23.5 63.5h139q0 -117 -54.5 -183t-150.5 -66q-58 0 -112 22l-99 39q-43 18 -82 18q-42 0 -66 -24t-24 -66h-133zM143 0v1434h271v-1434h-271z" />
    <glyph glyph-name="itilde" unicode="&#x129;" horiz-adv-x="497" 
d="M-96 1139q0 118 50.5 185t139.5 67q48 0 109 -23l90 -37q43 -18 78 -18q39 0 60.5 22.5t21.5 63.5h137q0 -117 -52 -183.5t-143 -66.5q-47 0 -108 22l-94 39q-51 19 -72 19q-40 0 -63 -24t-23 -66h-131zM119 0v1024h260v-1024h-260z" />
    <glyph glyph-name="Imacron" unicode="&#x12a;" horiz-adv-x="555" 
d="M6 1577v160h545v-160h-545zM143 0v1434h271v-1434h-271z" />
    <glyph glyph-name="imacron" unicode="&#x12b;" horiz-adv-x="497" 
d="M-25 1167v160h545v-160h-545zM119 0v1024h260v-1024h-260z" />
    <glyph glyph-name="Iogonek" unicode="&#x12e;" horiz-adv-x="555" 
d="M342 -274q50 0 111 20v-135q-93 -37 -177 -37q-107 0 -171 52.5t-64 135.5q0 139 174 238h-72v1434h271v-1434h-54q-141 -91 -141 -186q0 -41 33 -64.5t90 -23.5z" />
    <glyph glyph-name="iogonek" unicode="&#x12f;" horiz-adv-x="497" 
d="M381 1384v-249h-264v249h264zM297 -274q50 0 111 20v-135q-93 -37 -177 -37q-107 0 -171 52.5t-64 135.5q0 139 174 238h-51v1024h260v-1024h-64q-139 -90 -139 -186q0 -41 32 -64.5t89 -23.5z" />
    <glyph glyph-name="Idotaccent" unicode="&#x130;" horiz-adv-x="555" 
d="M162 1548v228h235v-228h-235zM143 0v1434h271v-1434h-271z" />
    <glyph glyph-name="dotlessi" unicode="&#x131;" horiz-adv-x="497" 
d="M119 0v1024h260v-1024h-260z" />
    <glyph glyph-name="IJ" unicode="&#x132;" horiz-adv-x="1695" 
d="M143 0v1434h271v-1434h-271zM1092 -20q-114 0 -199.5 19.5t-139.5 54t-86.5 87t-45.5 112.5t-13 138h273q0 -102 49.5 -145t154.5 -43q115 0 160 51t45 176v1004h273v-1004q0 -106 -23 -185.5t-63 -129.5t-100.5 -80.5t-129 -42.5t-155.5 -12z" />
    <glyph glyph-name="ij" unicode="&#x133;" horiz-adv-x="1001" 
d="M117 1135v249h264v-249h-264zM623 1135v249h264v-249h-264zM119 0v1024h260v-1024h-260zM412 -410v201q101 0 155 43q58 51 58 137v1053h260v-1053q0 -210 -146 -307q-58 -38 -149 -56t-178 -18z" />
    <glyph glyph-name="Jcircumflex" unicode="&#x134;" horiz-adv-x="1138" 
d="M870 1735l-129 -174h-217l244 305h203l243 -305h-217zM735 430v1004h273v-1004q0 -106 -23 -185.5t-63 -129.5t-100.5 -80.5t-129 -42.5t-155.5 -12q-114 0 -199.5 19.5t-139.5 54t-86.5 87t-45.5 112.5t-13 138h273q0 -102 49.5 -145t154.5 -43q115 0 160 51t45 176z
" />
    <glyph glyph-name="jcircumflex" unicode="&#x135;" horiz-adv-x="505" 
d="M365 1456l243 -305h-217l-127 174l-129 -174h-217l244 305h203zM127 -29v1053h260v-1053q0 -211 -145 -307q-58 -38 -149.5 -56t-178.5 -18v201q102 0 156 43q57 50 57 137z" />
    <glyph glyph-name="uni0136" unicode="&#x136;" horiz-adv-x="1343" 
d="M719 856l575 -856h-350l-399 670l-131 -140v-530h-271v1434h271v-578l487 578h354zM561 -279v199h217v-199l-110 -210h-117l80 210h-70z" />
    <glyph glyph-name="uni0137" unicode="&#x137;" horiz-adv-x="1148" 
d="M678 643l446 -643h-307l-311 483l-121 -114v-369h-260v1434h260v-768l371 358h329zM469 -279v199h217v-199l-111 -210h-116l80 210h-70z" />
    <glyph glyph-name="Lacute" unicode="&#x139;" horiz-adv-x="1120" 
d="M647 1872l-278 -307h-211l190 307h299zM414 219h657v-219h-928v1434h271v-1215z" />
    <glyph glyph-name="lacute" unicode="&#x13a;" horiz-adv-x="503" 
d="M133 1565l191 307h299l-279 -307h-211zM121 0v1434h262v-1434h-262z" />
    <glyph glyph-name="uni013B" unicode="&#x13b;" horiz-adv-x="1120" 
d="M414 219h657v-219h-928v1434h271v-1215zM508 -279v199h217v-199l-111 -210h-116l80 210h-70z" />
    <glyph glyph-name="uni013C" unicode="&#x13c;" horiz-adv-x="503" 
d="M121 1434h262v-1434h-262v1434zM154 -279v199h217v-199l-111 -210h-117l80 210h-69z" />
    <glyph glyph-name="Lcaron" unicode="&#x13d;" horiz-adv-x="1120" 
d="M414 219h657v-219h-928v1434h271v-1215zM991 1434l-123 -568h-188l70 568h241z" />
    <glyph glyph-name="lcaron" unicode="&#x13e;" horiz-adv-x="501" 
d="M121 0v1434h262v-1434h-262zM449 866l69 568h242l-123 -568h-188z" />
    <glyph glyph-name="Ldot" unicode="&#x13f;" horiz-adv-x="1120" 
d="M414 219h657v-219h-928v1434h271v-1215zM850 842v-234h-242v234h242z" />
    <glyph glyph-name="ldot" unicode="&#x140;" horiz-adv-x="823" 
d="M121 0v1434h262v-1434h-262zM545 598v236h241v-236h-241z" />
    <glyph glyph-name="Lslash" unicode="&#x141;" horiz-adv-x="1120" 
d="M414 219h657v-219h-928v524l-143 -69v221l143 69v689h271v-555l362 178v-221l-362 -179v-438z" />
    <glyph glyph-name="lslash" unicode="&#x142;" horiz-adv-x="503" 
d="M504 979v-246l-121 -76v-657h-262v496l-121 -76v246l121 75v693h262v-531z" />
    <glyph glyph-name="Nacute" unicode="&#x143;" horiz-adv-x="1443" 
d="M1094 1872l-279 -307h-211l191 307h299zM1030 1434h268v-1434h-274l-612 1032v-1032h-269v1434h299l588 -1006v1006z" />
    <glyph glyph-name="nacute" unicode="&#x144;" horiz-adv-x="1181" 
d="M963 1462l-279 -307h-211l191 307h299zM723 1044q99 0 169.5 -29t110 -84.5t57 -126t17.5 -163.5v-641h-262v637q0 108 -44.5 161.5t-143.5 53.5q-114 0 -183 -63.5t-69 -167.5v-621h-260v1024h250v-143q116 163 358 163z" />
    <glyph glyph-name="uni0145" unicode="&#x145;" horiz-adv-x="1443" 
d="M1030 1434h268v-1434h-274l-612 1032v-1032h-269v1434h299l588 -1006v1006zM625 -279v199h217v-199l-111 -210h-117l80 210h-69z" />
    <glyph glyph-name="uni0146" unicode="&#x146;" horiz-adv-x="1181" 
d="M723 1044q99 0 169.5 -29t110 -84.5t57 -126t17.5 -163.5v-641h-262v637q0 108 -44.5 161.5t-143.5 53.5q-114 0 -183 -63.5t-69 -167.5v-621h-260v1024h250v-143q116 163 358 163zM494 -279v199h217v-199l-111 -210h-117l80 210h-69z" />
    <glyph glyph-name="Ncaron" unicode="&#x147;" horiz-adv-x="1443" 
d="M625 1567l-244 307h217l129 -174l127 174h217l-244 -307h-202zM1030 1434h268v-1434h-274l-612 1032v-1032h-269v1434h299l588 -1006v1006z" />
    <glyph glyph-name="ncaron" unicode="&#x148;" horiz-adv-x="1181" 
d="M494 1157l-244 307h217l129 -174l127 174h217l-244 -307h-202zM723 1044q99 0 169.5 -29t110 -84.5t57 -126t17.5 -163.5v-641h-262v637q0 108 -44.5 161.5t-143.5 53.5q-114 0 -183 -63.5t-69 -167.5v-621h-260v1024h250v-143q116 163 358 163z" />
    <glyph glyph-name="Eng" unicode="&#x14a;" horiz-adv-x="1443" 
d="M1030 1434h270v-1448q0 -233 -126.5 -323.5t-432.5 -90.5v223q77 0 126 7t88.5 27t57 59t17.5 100v18l-618 1028v-1034h-269v1434h295l592 -994v994z" />
    <glyph glyph-name="eng" unicode="&#x14b;" horiz-adv-x="1181" 
d="M721 1042q80 0 142 -19.5t102 -54t65.5 -86t36 -110t10.5 -131.5v-670q0 -195 -124.5 -288t-346.5 -93v195q97 0 153 47t56 139v666q0 108 -44.5 160.5t-145.5 52.5q-114 0 -182 -63t-68 -166v-621h-260v1024h250v-143q55 77 146 119t210 42z" />
    <glyph glyph-name="Omacron" unicode="&#x14c;" horiz-adv-x="1419" 
d="M436 1577v160h545v-160h-545zM709 -20q-317 0 -466 183t-149 554q0 376 148 556.5t467 180.5q320 0 468 -180t148 -557q0 -372 -148.5 -554.5t-467.5 -182.5zM709 205q188 0 264 119.5t76 392.5q0 278 -77.5 396t-262.5 118q-186 0 -262 -121t-76 -393q0 -279 77 -395.5
t261 -116.5z" />
    <glyph glyph-name="omacron" unicode="&#x14d;" horiz-adv-x="1157" 
d="M307 1174v159h545v-159h-545zM578 -20q-267 0 -388.5 131t-121.5 401q0 271 121 401.5t389 130.5q270 0 391 -130t121 -402q0 -270 -121.5 -401t-390.5 -131zM578 170q136 0 193.5 82t57.5 260q0 183 -57.5 262.5t-193.5 79.5q-135 0 -192.5 -82t-57.5 -260
q0 -181 58 -261.5t192 -80.5z" />
    <glyph glyph-name="Obreve" unicode="&#x14e;" horiz-adv-x="1419" 
d="M709 1550q-95 0 -160 20t-102 59t-52.5 90t-15.5 120h172q0 -77 38.5 -111t117.5 -34q86 0 122.5 36.5t36.5 108.5h170q0 -83 -23.5 -141t-69.5 -89.5t-102 -45t-132 -13.5zM709 -20q-317 0 -466 183t-149 554q0 376 148 556.5t467 180.5q320 0 468 -180t148 -557
q0 -372 -148.5 -554.5t-467.5 -182.5zM709 205q188 0 264 119.5t76 392.5q0 278 -77.5 396t-262.5 118q-186 0 -262 -121t-76 -393q0 -279 77 -395.5t261 -116.5z" />
    <glyph glyph-name="obreve" unicode="&#x14f;" horiz-adv-x="1157" 
d="M582 1147q-95 0 -160 20t-102 59t-52.5 90t-15.5 120h172q0 -78 38.5 -112t117.5 -34q86 0 122.5 37t36.5 109h170q0 -83 -23.5 -141t-69.5 -89.5t-102 -45t-132 -13.5zM578 -20q-267 0 -388.5 131t-121.5 401q0 271 121 401.5t389 130.5q270 0 391 -130t121 -402
q0 -270 -121.5 -401t-390.5 -131zM578 170q136 0 193.5 82t57.5 260q0 183 -57.5 262.5t-193.5 79.5q-135 0 -192.5 -82t-57.5 -260q0 -181 58 -261.5t192 -80.5z" />
    <glyph glyph-name="Ohungarumlaut" unicode="&#x150;" horiz-adv-x="1419" 
d="M428 1565l217 307h262l-278 -307h-201zM801 1565l215 307h264l-279 -307h-200zM709 -20q-317 0 -466 183t-149 554q0 376 148 556.5t467 180.5q320 0 468 -180t148 -557q0 -372 -148.5 -554.5t-467.5 -182.5zM709 205q188 0 264 119.5t76 392.5q0 278 -77.5 396
t-262.5 118q-186 0 -262 -121t-76 -393q0 -279 77 -395.5t261 -116.5z" />
    <glyph glyph-name="ohungarumlaut" unicode="&#x151;" horiz-adv-x="1157" 
d="M299 1161l217 307h262l-278 -307h-201zM672 1161l215 307h264l-279 -307h-200zM578 -20q-267 0 -388.5 131t-121.5 401q0 271 121 401.5t389 130.5q270 0 391 -130t121 -402q0 -270 -121.5 -401t-390.5 -131zM578 170q136 0 193.5 82t57.5 260q0 183 -57.5 262.5
t-193.5 79.5q-135 0 -192.5 -82t-57.5 -260q0 -181 58 -261.5t192 -80.5z" />
    <glyph glyph-name="OE" unicode="&#x152;" horiz-adv-x="2117" 
d="M1335 219h709v-219h-973v90q-144 -108 -375 -108q-299 0 -450.5 185t-151.5 550q0 735 602 735q234 0 375 -106v88h948v-220h-684v-362h658v-219h-658v-414zM719 205q186 0 262 120.5t76 391.5q0 276 -77 394t-261 118q-193 0 -270.5 -120.5t-77.5 -391.5
q0 -277 78.5 -394.5t269.5 -117.5z" />
    <glyph glyph-name="oe" unicode="&#x153;" horiz-adv-x="1882" 
d="M1092 446q8 -151 65 -217.5t186 -66.5q99 0 149.5 37.5t53.5 103.5h258q-3 -150 -126.5 -235.5t-344.5 -85.5q-252 0 -375 120q-123 -120 -380 -120q-267 0 -388.5 130t-121.5 400t121.5 400t388.5 130q260 0 385 -122q125 122 372 122q253 0 371.5 -127.5t118.5 -379.5
q0 -60 -2 -89h-731zM1335 860q-115 0 -171.5 -58.5t-69.5 -195.5h465q-12 136 -65 195t-159 59zM578 170q136 0 193.5 82t57.5 260q0 183 -57.5 262.5t-193.5 79.5q-135 0 -192.5 -82t-57.5 -260q0 -181 58 -261.5t192 -80.5z" />
    <glyph glyph-name="Racute" unicode="&#x154;" horiz-adv-x="1316" 
d="M983 1872l-278 -307h-211l190 307h299zM1112 440l150 -440h-285l-143 451q-27 89 -73.5 119t-148.5 30h-198v-600h-271v1434h521q503 0 503 -400q0 -270 -227 -352q62 -25 99 -80t73 -162zM659 1217h-245v-410h245q246 0 246 207q0 203 -246 203z" />
    <glyph glyph-name="racute" unicode="&#x155;" horiz-adv-x="772" 
d="M754 1462l-279 -307h-211l191 307h299zM365 858q50 91 126 138.5t164 47.5q47 0 86 -8v-202q-48 10 -94 10q-120 0 -196 -81.5t-76 -227.5v-535h-260v1024h250v-166z" />
    <glyph glyph-name="uni0156" unicode="&#x156;" horiz-adv-x="1316" 
d="M1112 440l150 -440h-285l-143 451q-27 89 -73.5 119t-148.5 30h-198v-600h-271v1434h521q503 0 503 -400q0 -270 -227 -352q62 -25 99 -80t73 -162zM659 1217h-245v-410h245q246 0 246 207q0 203 -246 203zM565 -279v199h217v-199l-110 -210h-117l80 210h-70z" />
    <glyph glyph-name="uni0157" unicode="&#x157;" horiz-adv-x="772" 
d="M655 1044q47 0 86 -8v-202q-48 10 -94 10q-120 0 -196 -81.5t-76 -227.5v-535h-260v1024h250v-166q50 91 126 138.5t164 47.5zM141 -279v199h217v-199l-110 -210h-117l80 210h-70z" />
    <glyph glyph-name="Rcaron" unicode="&#x158;" horiz-adv-x="1316" 
d="M512 1567l-244 307h217l129 -174l127 174h217l-243 -307h-203zM1112 440l150 -440h-285l-143 451q-27 89 -73.5 119t-148.5 30h-198v-600h-271v1434h521q503 0 503 -400q0 -270 -227 -352q62 -25 99 -80t73 -162zM659 1217h-245v-410h245q246 0 246 207q0 203 -246 203z
" />
    <glyph glyph-name="rcaron" unicode="&#x159;" horiz-adv-x="772" 
d="M285 1157l-244 307h217l129 -174l127 174h217l-244 -307h-202zM655 1044q47 0 86 -8v-202q-48 10 -94 10q-120 0 -196 -81.5t-76 -227.5v-535h-260v1024h250v-166q50 91 126 138.5t164 47.5z" />
    <glyph glyph-name="Sacute" unicode="&#x15a;" horiz-adv-x="1253" 
d="M504 1565l190 307h299l-278 -307h-211zM623 -20q-263 0 -410.5 109.5t-151.5 328.5h287q0 -219 277 -219q272 0 272 221q0 96 -51.5 142t-147.5 56l-178 19q-97 11 -171.5 37.5t-131.5 73.5t-87 120.5t-30 171.5q0 109 38 189.5t109 129t166.5 72t217.5 23.5
q253 0 386 -97t134 -292h-274q0 180 -242 180q-254 0 -254 -201q0 -82 48 -121.5t146 -50.5l193 -20q410 -47 410 -422q0 -229 -147.5 -339.5t-407.5 -110.5z" />
    <glyph glyph-name="sacute" unicode="&#x15b;" horiz-adv-x="1048" 
d="M406 1155l190 307h299l-279 -307h-210zM528 -20q-243 0 -354.5 85t-116.5 244h258q0 -81 58.5 -119t156.5 -38q103 0 155 40t52 111q0 120 -149 133l-146 17q-168 16 -258 84.5t-90 205.5q0 160 112 230.5t320 70.5q118 0 202.5 -20.5t135.5 -60.5t74.5 -94t24.5 -126
h-244q0 136 -187 136q-89 0 -137.5 -32.5t-48.5 -94.5q0 -108 146 -123l155 -17q76 -7 134 -25t107 -51.5t75 -90.5t26 -136q0 -329 -461 -329z" />
    <glyph glyph-name="Scircumflex" unicode="&#x15c;" horiz-adv-x="1253" 
d="M627 1735l-129 -174h-217l243 305h203l244 -305h-217zM768 852q410 -47 410 -422q0 -229 -147.5 -339.5t-407.5 -110.5q-263 0 -410.5 109.5t-151.5 328.5h287q0 -219 277 -219q272 0 272 221q0 96 -51.5 142t-147.5 56l-178 19q-97 11 -171.5 37.5t-131.5 73.5
t-87 120.5t-30 171.5q0 109 38 189.5t109 129t166.5 72t217.5 23.5q253 0 386 -97t134 -292h-274q0 180 -242 180q-254 0 -254 -201q0 -82 48 -121.5t146 -50.5z" />
    <glyph glyph-name="scircumflex" unicode="&#x15d;" horiz-adv-x="1048" 
d="M526 1325l-129 -174h-217l244 305h203l243 -305h-217zM647 612q76 -7 134 -25t107 -51.5t75 -90.5t26 -136q0 -329 -461 -329q-243 0 -354.5 85t-116.5 244h258q0 -81 58.5 -119t156.5 -38q103 0 155 40t52 111q0 120 -149 133l-146 17q-168 16 -258 84.5t-90 205.5
q0 160 112 230.5t320 70.5q118 0 202.5 -20.5t135.5 -60.5t74.5 -94t24.5 -126h-244q0 136 -187 136q-89 0 -137.5 -32.5t-48.5 -94.5q0 -108 146 -123z" />
    <glyph glyph-name="Scedilla" unicode="&#x15e;" horiz-adv-x="1253" 
d="M1178 430q0 -110 -35.5 -194t-102 -137.5t-157 -82.5t-205.5 -34l-29 -60q35 -1 61 -4t54.5 -13t47 -27t30.5 -46.5t12 -69.5q0 -190 -248 -190q-129 0 -181 47.5t-52 132.5h141q0 -61 88 -61q96 0 96 71q0 64 -84 64h-114l59 156q-234 12 -364 121t-134 315h287
q0 -219 277 -219q272 0 272 221q0 96 -51.5 142t-147.5 56l-178 19q-97 11 -171.5 37.5t-131.5 73.5t-87 120.5t-30 171.5q0 109 38 189.5t109 129t166.5 72t217.5 23.5q253 0 386 -97t134 -292h-274q0 180 -242 180q-254 0 -254 -201q0 -82 48 -121.5t146 -50.5l193 -20
q410 -47 410 -422z" />
    <glyph glyph-name="scedilla" unicode="&#x15f;" horiz-adv-x="1048" 
d="M989 309q0 -308 -401 -327l-29 -60q35 -1 61 -4t54.5 -13t47 -27t30.5 -46.5t12 -69.5q0 -190 -248 -190q-129 0 -181 47.5t-52 132.5h141q0 -61 88 -61q96 0 96 71q0 64 -84 64h-114l59 156q-402 19 -412 327h258q0 -81 58.5 -119t156.5 -38q103 0 155 40t52 111
q0 120 -149 133l-146 17q-168 16 -258 84.5t-90 205.5q0 160 112 230.5t320 70.5q118 0 202.5 -20.5t135.5 -60.5t74.5 -94t24.5 -126h-244q0 136 -187 136q-89 0 -137.5 -32.5t-48.5 -94.5q0 -108 146 -123l155 -17q76 -7 134 -25t107 -51.5t75 -90.5t26 -136z" />
    <glyph glyph-name="Scaron" unicode="&#x160;" horiz-adv-x="1253" 
d="M524 1567l-243 307h217l129 -174l127 174h217l-244 -307h-203zM768 852q410 -47 410 -422q0 -229 -147.5 -339.5t-407.5 -110.5q-263 0 -410.5 109.5t-151.5 328.5h287q0 -219 277 -219q272 0 272 221q0 96 -51.5 142t-147.5 56l-178 19q-97 11 -171.5 37.5t-131.5 73.5
t-87 120.5t-30 171.5q0 109 38 189.5t109 129t166.5 72t217.5 23.5q253 0 386 -97t134 -292h-274q0 180 -242 180q-254 0 -254 -201q0 -82 48 -121.5t146 -50.5z" />
    <glyph glyph-name="scaron" unicode="&#x161;" horiz-adv-x="1048" 
d="M424 1157l-244 307h217l129 -174l127 174h217l-243 -307h-203zM647 612q76 -7 134 -25t107 -51.5t75 -90.5t26 -136q0 -329 -461 -329q-243 0 -354.5 85t-116.5 244h258q0 -81 58.5 -119t156.5 -38q103 0 155 40t52 111q0 120 -149 133l-146 17q-168 16 -258 84.5
t-90 205.5q0 160 112 230.5t320 70.5q118 0 202.5 -20.5t135.5 -60.5t74.5 -94t24.5 -126h-244q0 136 -187 136q-89 0 -137.5 -32.5t-48.5 -94.5q0 -108 146 -123z" />
    <glyph glyph-name="uni0162" unicode="&#x162;" horiz-adv-x="1236" 
d="M756 0h-76l-39 -78q35 -1 61 -4t54.5 -13t47 -27t30.5 -46.5t12 -69.5q0 -190 -248 -190q-129 0 -181 47.5t-52 132.5h141q0 -61 88 -61q96 0 96 71q0 64 -84 64h-114l67 174h-76v1214h-436v220h1143v-220h-434v-1214z" />
    <glyph glyph-name="uni0163" unicode="&#x163;" horiz-adv-x="774" 
d="M537 -78q44 -1 76 -7t63.5 -21.5t48 -48.5t16.5 -83q0 -190 -247 -190q-129 0 -181.5 47.5t-52.5 132.5h141q0 -61 88 -61q97 0 97 71q0 64 -84 64h-115l64 162q-120 16 -176 87.5t-56 233.5v525h-176v190h176v289h260v-289h226v-190h-226v-519q0 -73 30 -103t107 -30
q43 0 84 4v-196q-65 -8 -135 -8z" />
    <glyph glyph-name="Tcaron" unicode="&#x164;" horiz-adv-x="1236" 
d="M516 1567l-244 307h217l129 -174l127 174h218l-244 -307h-203zM1190 1434v-220h-434v-1214h-273v1214h-436v220h1143z" />
    <glyph glyph-name="tcaron" unicode="&#x165;" horiz-adv-x="774" 
d="M623 1454h243l-100 -373h-201zM479 1313v-289h226v-190h-226v-519q0 -73 30 -103t107 -30q43 0 84 4v-196q-73 -8 -147 -8q-87 0 -145.5 13.5t-103 49t-65 100.5t-20.5 164v525h-176v190h176v289h260z" />
    <glyph glyph-name="Tbar" unicode="&#x166;" horiz-adv-x="1236" 
d="M1190 1214h-434v-407h303v-148h-303v-659h-273v659h-303v148h303v407h-436v220h1143v-220z" />
    <glyph glyph-name="tbar" unicode="&#x167;" horiz-adv-x="774" 
d="M705 834h-226v-177h223v-147h-223v-195q0 -73 30 -103t107 -30q43 0 84 4v-196q-73 -8 -147 -8q-87 0 -145.5 13.5t-103 49t-65 100.5t-20.5 164v201h-176v147h176v177h-176v190h176v289h260v-289h226v-190z" />
    <glyph glyph-name="Utilde" unicode="&#x168;" horiz-adv-x="1376" 
d="M332 1548q0 118 53 185t147 67q55 0 113 -22l94 -37q49 -19 86 -19q41 0 64.5 22.5t23.5 63.5h140q0 -117 -54.5 -183t-150.5 -66q-59 0 -113 22l-98 39q-44 18 -82 18q-42 0 -66 -24t-24 -66h-133zM696 -20q-162 0 -274 40.5t-175.5 121t-90.5 187t-27 253.5v852h270
v-852q0 -108 19.5 -182.5t59 -117t92.5 -61t126 -18.5q161 0 226 93.5t65 285.5v852h270v-852q0 -138 -26 -242t-72.5 -172t-117.5 -110.5t-154.5 -60t-190.5 -17.5z" />
    <glyph glyph-name="utilde" unicode="&#x169;" horiz-adv-x="1163" 
d="M432 1229q-42 0 -66 -24t-24 -66h-133q0 118 53.5 185t147.5 67q51 0 112 -23l94 -37q47 -18 86 -18q42 0 65.5 22.5t23.5 63.5h139q0 -117 -55 -183.5t-150 -66.5q-59 0 -113 22l-98 39q-46 19 -82 19zM791 1024h258v-1024h-248v137q-53 -75 -138.5 -116t-193.5 -41
q-193 0 -280 101t-87 296v647h258v-635q0 -120 51 -167.5t140 -47.5q100 0 170 59.5t70 163.5v627z" />
    <glyph glyph-name="Umacron" unicode="&#x16a;" horiz-adv-x="1376" 
d="M418 1577v160h545v-160h-545zM696 -20q-162 0 -274 40.5t-175.5 121t-90.5 187t-27 253.5v852h270v-852q0 -108 19.5 -182.5t59 -117t92.5 -61t126 -18.5q161 0 226 93.5t65 285.5v852h270v-852q0 -138 -26 -242t-72.5 -172t-117.5 -110.5t-154.5 -60t-190.5 -17.5z" />
    <glyph glyph-name="umacron" unicode="&#x16b;" horiz-adv-x="1163" 
d="M842 1327v-160h-545v160h545zM791 1024h258v-1024h-248v137q-53 -75 -138.5 -116t-193.5 -41q-193 0 -280 101t-87 296v647h258v-635q0 -120 51 -167.5t140 -47.5q100 0 170 59.5t70 163.5v627z" />
    <glyph glyph-name="Ubreve" unicode="&#x16c;" horiz-adv-x="1376" 
d="M692 1550q-95 0 -160 20t-102 59t-52.5 90t-15.5 120h173q0 -78 38 -111.5t117 -33.5q86 0 123 36.5t37 108.5h170q0 -83 -24 -141t-69.5 -89.5t-102 -45t-132.5 -13.5zM696 -20q-162 0 -274 40.5t-175.5 121t-90.5 187t-27 253.5v852h270v-852q0 -108 19.5 -182.5
t59 -117t92.5 -61t126 -18.5q161 0 226 93.5t65 285.5v852h270v-852q0 -138 -26 -242t-72.5 -172t-117.5 -110.5t-154.5 -60t-190.5 -17.5z" />
    <glyph glyph-name="ubreve" unicode="&#x16d;" horiz-adv-x="1163" 
d="M569 1141q-95 0 -160 20t-101.5 59t-52 90t-15.5 120h172q0 -78 38 -112t117 -34q86 0 123 37t37 109h170q0 -83 -24 -141t-69.5 -89.5t-102 -45t-132.5 -13.5zM791 1024h258v-1024h-248v137q-53 -75 -138.5 -116t-193.5 -41q-193 0 -280 101t-87 296v647h258v-635
q0 -120 51 -167.5t140 -47.5q100 0 170 59.5t70 163.5v627z" />
    <glyph glyph-name="Uring" unicode="&#x16e;" horiz-adv-x="1376" 
d="M694 1513q-215 0 -215 207q0 209 211 209q116 0 165.5 -54t49.5 -151q0 -211 -211 -211zM692 1622q50 0 72 24t22 76t-23 75.5t-69 23.5q-50 0 -72 -24t-22 -75q0 -54 22.5 -77t69.5 -23zM696 -20q-162 0 -274 40.5t-175.5 121t-90.5 187t-27 253.5v852h270v-852
q0 -108 19.5 -182.5t59 -117t92.5 -61t126 -18.5q161 0 226 93.5t65 285.5v852h270v-852q0 -138 -26 -242t-72.5 -172t-117.5 -110.5t-154.5 -60t-190.5 -17.5z" />
    <glyph glyph-name="uring" unicode="&#x16f;" horiz-adv-x="1163" 
d="M571 1104q-215 0 -215 207q0 209 211 209q116 0 165.5 -54t49.5 -151q0 -211 -211 -211zM571 1411q-50 0 -72 -24t-22 -74q0 -54 22.5 -77.5t69.5 -23.5q50 0 72.5 24.5t22.5 76.5t-23.5 75t-69.5 23zM791 1024h258v-1024h-248v137q-53 -75 -138.5 -116t-193.5 -41
q-193 0 -280 101t-87 296v647h258v-635q0 -120 51 -167.5t140 -47.5q100 0 170 59.5t70 163.5v627z" />
    <glyph glyph-name="Uhungarumlaut" unicode="&#x170;" horiz-adv-x="1376" 
d="M410 1565l217 307h262l-279 -307h-200zM782 1565l215 307h265l-279 -307h-201zM696 -20q-162 0 -274 40.5t-175.5 121t-90.5 187t-27 253.5v852h270v-852q0 -108 19.5 -182.5t59 -117t92.5 -61t126 -18.5q161 0 226 93.5t65 285.5v852h270v-852q0 -138 -26 -242
t-72.5 -172t-117.5 -110.5t-154.5 -60t-190.5 -17.5z" />
    <glyph glyph-name="uhungarumlaut" unicode="&#x171;" horiz-adv-x="1163" 
d="M768 1462l-279 -307h-200l217 307h262zM862 1155h-200l215 307h264zM791 397v627h258v-1024h-248v137q-53 -75 -138.5 -116t-193.5 -41q-193 0 -280 101t-87 296v647h258v-635q0 -120 51 -167.5t140 -47.5q100 0 170 59.5t70 163.5z" />
    <glyph glyph-name="Uogonek" unicode="&#x172;" horiz-adv-x="1376" 
d="M987 1434h270v-852q0 -155 -31.5 -267.5t-93.5 -181t-144.5 -104t-194.5 -45.5q-115 -83 -115 -170q0 -41 32 -64.5t89 -23.5q49 0 110 20v-135q-93 -37 -176 -37q-107 0 -171 52.5t-64 135.5q0 123 143 220q-145 7 -246 50t-158.5 123.5t-82.5 183.5t-25 243v852h270
v-852q0 -108 19.5 -182.5t59 -117t92.5 -61t126 -18.5q161 0 226 93.5t65 285.5v852z" />
    <glyph glyph-name="uogonek" unicode="&#x173;" horiz-adv-x="1163" 
d="M985 -274q52 0 113 20v-135q-93 -37 -176 -37q-108 0 -172 52.5t-64 135.5q0 139 172 238h-57v137q-53 -75 -138.5 -116t-193.5 -41q-193 0 -280 101t-87 296v647h258v-635q0 -120 51 -167.5t140 -47.5q100 0 170 59.5t70 163.5v627h258v-1024h-43q-142 -92 -142 -186
q0 -41 32 -64.5t89 -23.5z" />
    <glyph glyph-name="Wcircumflex" unicode="&#x174;" horiz-adv-x="1990" 
d="M995 1735l-129 -174h-217l244 305h203l243 -305h-217zM1657 1434h282l-403 -1434h-276l-265 1120l-264 -1120h-276l-404 1434h283l262 -1112l268 1112h262l269 -1115z" />
    <glyph glyph-name="wcircumflex" unicode="&#x175;" horiz-adv-x="1720" 
d="M858 1325l-129 -174h-217l244 305h202l244 -305h-217zM1407 1024h270l-334 -1024h-278l-207 764l-213 -764h-280l-322 1024h270l211 -784l203 784h258l203 -784z" />
    <glyph glyph-name="Ycircumflex" unicode="&#x176;" horiz-adv-x="1384" 
d="M690 1735l-129 -174h-217l244 305h203l243 -305h-217zM1333 1434l-510 -881v-553h-270v553l-502 881h305l332 -654l340 654h305z" />
    <glyph glyph-name="ycircumflex" unicode="&#x177;" horiz-adv-x="1116" 
d="M561 1325l-129 -174h-217l244 305h203l243 -305h-217zM819 1024h271l-543 -1434h-238l148 410h-39l-391 1024h272l256 -745z" />
    <glyph glyph-name="Ydieresis" unicode="&#x178;" horiz-adv-x="1384" 
d="M604 1774v-220h-225v220h225zM1006 1774v-220h-228v220h228zM1333 1434l-510 -881v-553h-270v553l-502 881h305l332 -654l340 654h305z" />
    <glyph glyph-name="Zacute" unicode="&#x179;" horiz-adv-x="1187" 
d="M954 1872l-278 -307h-211l190 307h299zM360 217h770v-217h-1079v217l760 1000h-715v217h1016v-217z" />
    <glyph glyph-name="zacute" unicode="&#x17a;" horiz-adv-x="1011" 
d="M870 1462l-278 -307h-211l190 307h299zM387 197h569v-197h-909v197l574 630h-539v197h862v-197z" />
    <glyph glyph-name="Zdotaccent" unicode="&#x17b;" horiz-adv-x="1187" 
d="M705 1776v-228h-236v228h236zM360 217h770v-217h-1079v217l760 1000h-715v217h1016v-217z" />
    <glyph glyph-name="zdotaccent" unicode="&#x17c;" horiz-adv-x="1011" 
d="M618 1366v-227h-235v227h235zM387 197h569v-197h-909v197l574 630h-539v197h862v-197z" />
    <glyph glyph-name="Zcaron" unicode="&#x17d;" horiz-adv-x="1187" 
d="M485 1567l-243 307h217l129 -174l127 174h217l-244 -307h-203zM360 217h770v-217h-1079v217l760 1000h-715v217h1016v-217z" />
    <glyph glyph-name="zcaron" unicode="&#x17e;" horiz-adv-x="1011" 
d="M401 1157l-243 307h217l129 -174l127 174h217l-244 -307h-203zM387 197h569v-197h-909v197l574 630h-539v197h862v-197z" />
    <glyph glyph-name="uni018F" unicode="&#x18f;" horiz-adv-x="1413" 
d="M705 1454q319 0 466.5 -180t147.5 -557q0 -371 -148.5 -554t-465.5 -183q-319 0 -468 183t-149 554q0 59 6 117h944q-13 212 -91.5 304.5t-241.5 92.5q-64 0 -113.5 -11.5t-90.5 -38.5t-68.5 -74.5t-41.5 -115.5h-278q35 227 178 345t414 118zM705 201q168 0 245.5 98
t89.5 315h-673q13 -221 92 -317t246 -96z" />
    <glyph glyph-name="florin" unicode="&#x192;" horiz-adv-x="1030" 
d="M786 1266q-87 0 -122 -36.5t-35 -111.5v-250h211v-192h-211v-707q0 -180 -99.5 -275.5t-277.5 -101.5q-15 0 -47.5 -1t-50.5 -1v207q10 0 29 1t28 1q156 12 156 170v707h-181v192h181v265q0 173 96 246t274 73q76 0 144 -8v-187q-56 9 -95 9z" />
    <glyph glyph-name="uni01CD" unicode="&#x1cd;" horiz-adv-x="1429" 
d="M612 1567l-243 307h217l129 -174l127 174h217l-244 -307h-203zM1094 0l-99 301h-561l-98 -301h-283l516 1434h289l518 -1434h-282zM502 506h426l-213 649z" />
    <glyph glyph-name="uni01CE" unicode="&#x1ce;" horiz-adv-x="1120" 
d="M469 1153l-244 305h217l129 -174l127 174h217l-243 -305h-203zM567 1044q125 0 214 -24.5t139.5 -72t73 -109t22.5 -142.5v-696h-250v141q-111 -161 -348 -161q-168 0 -262.5 85t-94.5 238q0 86 30 150t83 100t116 53t138 17h328v88q0 83 -49.5 120t-147.5 37
q-96 0 -148.5 -36.5t-52.5 -108.5h-243q0 321 452 321zM504 162q107 0 179.5 65t72.5 183v65h-234q-89 0 -141.5 -39t-52.5 -119t49 -117.5t127 -37.5z" />
    <glyph glyph-name="uni01CF" unicode="&#x1cf;" horiz-adv-x="555" 
d="M178 1567l-244 307h218l129 -174l127 174h217l-244 -307h-203zM143 0v1434h271v-1434h-271z" />
    <glyph glyph-name="uni01D0" unicode="&#x1d0;" horiz-adv-x="497" 
d="M147 1157l-243 307h217l129 -174l127 174h217l-244 -307h-203zM119 0v1024h260v-1024h-260z" />
    <glyph glyph-name="uni01D1" unicode="&#x1d1;" horiz-adv-x="1419" 
d="M608 1567l-243 307h217l129 -174l127 174h217l-244 -307h-203zM709 1454q320 0 468 -180t148 -557q0 -372 -148.5 -554.5t-467.5 -182.5q-317 0 -466 183t-149 554q0 376 148 556.5t467 180.5zM709 205q188 0 264 119.5t76 392.5q0 278 -77.5 396t-262.5 118
q-186 0 -262 -121t-76 -393q0 -279 77 -395.5t261 -116.5z" />
    <glyph glyph-name="uni01D2" unicode="&#x1d2;" horiz-adv-x="1157" 
d="M479 1163l-243 307h217l129 -174l127 174h217l-244 -307h-203zM578 1044q270 0 391 -130t121 -402q0 -270 -121.5 -401t-390.5 -131q-267 0 -388.5 131t-121.5 401q0 271 121 401.5t389 130.5zM578 170q136 0 193.5 82t57.5 260q0 183 -57.5 262.5t-193.5 79.5
q-135 0 -192.5 -82t-57.5 -260q0 -181 58 -261.5t192 -80.5z" />
    <glyph glyph-name="uni01D3" unicode="&#x1d3;" horiz-adv-x="1376" 
d="M590 1567l-244 307h217l129 -174l127 174h217l-243 -307h-203zM987 1434h270v-852q0 -138 -26 -242t-72.5 -172t-117.5 -110.5t-154.5 -60t-190.5 -17.5q-162 0 -274 40.5t-175.5 121t-90.5 187t-27 253.5v852h270v-852q0 -108 19.5 -182.5t59 -117t92.5 -61t126 -18.5
q161 0 226 93.5t65 285.5v852z" />
    <glyph glyph-name="uni01D4" unicode="&#x1d4;" horiz-adv-x="1163" 
d="M469 1157l-244 307h217l129 -174l127 174h217l-243 -307h-203zM791 1024h258v-1024h-248v137q-53 -75 -138.5 -116t-193.5 -41q-193 0 -280 101t-87 296v647h258v-635q0 -120 51 -167.5t140 -47.5q100 0 170 59.5t70 163.5v627z" />
    <glyph glyph-name="uni01D5" unicode="&#x1d5;" horiz-adv-x="1376" 
d="M422 1862v159h545v-159h-545zM381 1554v220h225v-220h-225zM780 1554v220h228v-220h-228zM696 -20q-162 0 -274 40.5t-175.5 121t-90.5 187t-27 253.5v852h270v-852q0 -108 19.5 -182.5t59 -117t92.5 -61t126 -18.5q161 0 226 93.5t65 285.5v852h270v-852
q0 -138 -26 -242t-72.5 -172t-117.5 -110.5t-154.5 -60t-190.5 -17.5z" />
    <glyph glyph-name="uni01D6" unicode="&#x1d6;" horiz-adv-x="1163" 
d="M844 1612v-160h-545v160h545zM483 1364v-219h-225v219h225zM657 1145v219h228v-219h-228zM791 1024h258v-1024h-248v137q-53 -75 -138.5 -116t-193.5 -41q-193 0 -280 101t-87 296v647h258v-635q0 -120 51 -167.5t140 -47.5q100 0 170 59.5t70 163.5v627z" />
    <glyph glyph-name="uni01D7" unicode="&#x1d7;" horiz-adv-x="1376" 
d="M573 1849l193 305h297l-277 -305h-213zM381 1554v220h225v-220h-225zM780 1554v220h228v-220h-228zM696 -20q-162 0 -274 40.5t-175.5 121t-90.5 187t-27 253.5v852h270v-852q0 -108 19.5 -182.5t59 -117t92.5 -61t126 -18.5q161 0 226 93.5t65 285.5v852h270v-852
q0 -138 -26 -242t-72.5 -172t-117.5 -110.5t-154.5 -60t-190.5 -17.5z" />
    <glyph glyph-name="uni01D8" unicode="&#x1d8;" horiz-adv-x="1163" 
d="M940 1745l-276 -305h-213l192 305h297zM483 1364v-219h-225v219h225zM657 1145v219h228v-219h-228zM791 1024h258v-1024h-248v137q-53 -75 -138.5 -116t-193.5 -41q-193 0 -280 101t-87 296v647h258v-635q0 -120 51 -167.5t140 -47.5q100 0 170 59.5t70 163.5v627z" />
    <glyph glyph-name="uni01D9" unicode="&#x1d9;" horiz-adv-x="1376" 
d="M594 1851l-244 306h217l129 -175l127 175h217l-243 -306h-203zM381 1554v220h225v-220h-225zM780 1554v220h228v-220h-228zM987 1434h270v-852q0 -138 -26 -242t-72.5 -172t-117.5 -110.5t-154.5 -60t-190.5 -17.5q-162 0 -274 40.5t-175.5 121t-90.5 187t-27 253.5v852
h270v-852q0 -108 19.5 -182.5t59 -117t92.5 -61t126 -18.5q161 0 226 93.5t65 285.5v852z" />
    <glyph glyph-name="uni01DA" unicode="&#x1da;" horiz-adv-x="1163" 
d="M471 1442l-244 305h217l129 -174l127 174h218l-244 -305h-203zM258 1145v219h225v-219h-225zM657 1145v219h228v-219h-228zM791 1024h258v-1024h-248v137q-53 -75 -138.5 -116t-193.5 -41q-193 0 -280 101t-87 296v647h258v-635q0 -120 51 -167.5t140 -47.5
q100 0 170 59.5t70 163.5v627z" />
    <glyph glyph-name="uni01DB" unicode="&#x1db;" horiz-adv-x="1376" 
d="M799 1843h-213l-277 307h297zM381 1554v220h225v-220h-225zM780 1554v220h228v-220h-228zM696 -20q-162 0 -274 40.5t-175.5 121t-90.5 187t-27 253.5v852h270v-852q0 -108 19.5 -182.5t59 -117t92.5 -61t126 -18.5q161 0 226 93.5t65 285.5v852h270v-852
q0 -138 -26 -242t-72.5 -172t-117.5 -110.5t-154.5 -60t-190.5 -17.5z" />
    <glyph glyph-name="uni01DC" unicode="&#x1dc;" horiz-adv-x="1163" 
d="M676 1434h-213l-277 307h297zM258 1145v219h225v-219h-225zM657 1145v219h228v-219h-228zM791 1024h258v-1024h-248v137q-53 -75 -138.5 -116t-193.5 -41q-193 0 -280 101t-87 296v647h258v-635q0 -120 51 -167.5t140 -47.5q100 0 170 59.5t70 163.5v627z" />
    <glyph glyph-name="uni01DE" unicode="&#x1de;" horiz-adv-x="1429" 
d="M989 2021v-159h-545v159h545zM629 1774v-220h-226v220h226zM803 1554v220h227v-220h-227zM1094 0l-99 301h-561l-98 -301h-283l516 1434h289l518 -1434h-282zM502 506h426l-213 649z" />
    <glyph glyph-name="uni01DF" unicode="&#x1df;" horiz-adv-x="1120" 
d="M846 1612v-160h-545v160h545zM485 1364v-219h-225v219h225zM659 1145v219h228v-219h-228zM567 1044q125 0 214 -24.5t139.5 -72t73 -109t22.5 -142.5v-696h-250v141q-111 -161 -348 -161q-168 0 -262.5 85t-94.5 238q0 86 30 150t83 100t116 53t138 17h328v88
q0 83 -49.5 120t-147.5 37q-96 0 -148.5 -36.5t-52.5 -108.5h-243q0 321 452 321zM504 162q107 0 179.5 65t72.5 183v65h-234q-89 0 -141.5 -39t-52.5 -119t49 -117.5t127 -37.5z" />
    <glyph glyph-name="Gcaron" unicode="&#x1e6;" horiz-adv-x="1423" 
d="M618 1567l-243 307h217l129 -174l127 174h217l-244 -307h-203zM1311 729v-729h-230v168q-118 -188 -424 -188q-123 0 -217.5 32.5t-159.5 92.5t-107 151t-60.5 202t-18.5 251q0 384 149.5 564.5t475.5 180.5q286 0 432.5 -124t146.5 -353h-274q0 254 -299 254
q-196 0 -275 -117.5t-79 -394.5q0 -281 81 -396.5t285 -115.5q49 0 91.5 6.5t85 24t72.5 45t48.5 71.5t18.5 101v84h-295v190h553z" />
    <glyph glyph-name="gcaron" unicode="&#x1e7;" horiz-adv-x="1171" 
d="M485 1157l-243 307h217l129 -174l127 174h217l-244 -307h-203zM811 1024h250v-1044q0 -190 -120 -290t-359 -100q-95 0 -172 16.5t-140.5 53.5t-100 103t-38.5 157h254q3 -147 209 -147q111 0 159 46t48 156v193q-109 -129 -338 -129q-395 0 -395 479q0 526 419 526
q220 0 324 -141v121zM553 223q118 0 183 60.5t65 165.5v180q0 103 -67 164t-179 61q-115 0 -171 -78.5t-56 -253.5q0 -155 54 -227t171 -72z" />
    <glyph glyph-name="Oslashacute" unicode="&#x1fe;" horiz-adv-x="1419" 
d="M1053 1872l-279 -307h-211l191 307h299zM1159 1294q166 -181 166 -577q0 -372 -148.5 -554.5t-467.5 -182.5q-187 0 -312 61l-88 -143h-196l147 243q-166 181 -166 576q0 376 148 556.5t467 180.5q183 0 313 -59l86 141h199zM371 717q0 -215 43 -326l481 795
q-68 45 -186 45q-186 0 -262 -121t-76 -393zM709 205q188 0 264 119.5t76 392.5q0 214 -43 325l-484 -794q73 -43 187 -43z" />
    <glyph glyph-name="oslashacute" unicode="&#x1ff;" horiz-adv-x="1157" 
d="M924 1468l-279 -307h-211l191 307h299zM950 932q140 -128 140 -420q0 -270 -121.5 -401t-390.5 -131q-152 0 -248 38l-49 -71h-181l103 149q-135 129 -135 416q0 271 121 401.5t389 130.5q146 0 241 -36l55 82h183zM328 512q0 -118 24 -195l348 514q-50 23 -122 23
q-135 0 -192.5 -82t-57.5 -260zM578 170q136 0 193.5 82t57.5 260q0 129 -26 203l-352 -518q50 -27 127 -27z" />
    <glyph glyph-name="uni0218" unicode="&#x218;" horiz-adv-x="1253" 
d="M768 852q410 -47 410 -422q0 -229 -147.5 -339.5t-407.5 -110.5q-263 0 -410.5 109.5t-151.5 328.5h287q0 -219 277 -219q272 0 272 221q0 96 -51.5 142t-147.5 56l-178 19q-97 11 -171.5 37.5t-131.5 73.5t-87 120.5t-30 171.5q0 109 38 189.5t109 129t166.5 72
t217.5 23.5q253 0 386 -97t134 -292h-274q0 180 -242 180q-254 0 -254 -201q0 -82 48 -121.5t146 -50.5zM524 -279v199h217v-199l-110 -210h-117l80 210h-70z" />
    <glyph glyph-name="uni0219" unicode="&#x219;" horiz-adv-x="1048" 
d="M647 612q76 -7 134 -25t107 -51.5t75 -90.5t26 -136q0 -329 -461 -329q-243 0 -354.5 85t-116.5 244h258q0 -81 58.5 -119t156.5 -38q103 0 155 40t52 111q0 120 -149 133l-146 17q-168 16 -258 84.5t-90 205.5q0 160 112 230.5t320 70.5q118 0 202.5 -20.5t135.5 -60.5
t74.5 -94t24.5 -126h-244q0 136 -187 136q-89 0 -137.5 -32.5t-48.5 -94.5q0 -108 146 -123zM434 -279v199h217v-199l-110 -210h-117l80 210h-70z" />
    <glyph glyph-name="uni021A" unicode="&#x21a;" horiz-adv-x="1236" 
d="M1190 1434v-220h-434v-1214h-273v1214h-436v220h1143zM516 -279v199h217v-199l-110 -210h-117l80 210h-70z" />
    <glyph glyph-name="uni021B" unicode="&#x21b;" horiz-adv-x="774" 
d="M705 834h-226v-519q0 -73 30 -103t107 -30q43 0 84 4v-196q-73 -8 -147 -8q-87 0 -145.5 13.5t-103 49t-65 100.5t-20.5 164v525h-176v190h176v289h260v-289h226v-190zM412 -279v199h217v-199l-111 -210h-117l80 210h-69z" />
    <glyph glyph-name="uni0228" unicode="&#x228;" horiz-adv-x="1198" 
d="M1130 0h-415l-39 -78q35 -1 61 -4t54.5 -13t47 -27t30.5 -46.5t12 -69.5q0 -190 -248 -190q-129 0 -181.5 47.5t-52.5 132.5h142q0 -61 88 -61q96 0 96 71q0 64 -84 64h-115l68 174h-442v1434h954v-220h-684v-362h657v-219h-657v-414h708v-219z" />
    <glyph glyph-name="uni0229" unicode="&#x229;" horiz-adv-x="1118" 
d="M328 446q8 -151 66 -217.5t186 -66.5q99 0 149 38t53 105h258q-3 -140 -107 -225t-292 -98l-31 -60q35 -1 61 -4t54.5 -13t47 -27t30.5 -46.5t12 -69.5q0 -190 -248 -190q-129 0 -181 47.5t-52 132.5h141q0 -61 88 -61q96 0 96 71q0 64 -84 64h-114l59 156
q-243 12 -347.5 144.5t-104.5 383.5q0 267 121 400.5t384 133.5q255 0 371.5 -132.5t116.5 -397.5q0 -14 -1 -36.5t-1 -31.5h-731zM571 860q-117 0 -174 -61.5t-67 -204.5h467q-10 143 -63.5 204.5t-162.5 61.5z" />
    <glyph glyph-name="uni0237" unicode="&#x237;" horiz-adv-x="505" 
d="M-86 -410v201q102 0 156 43q57 50 57 137v1053h260v-1053q0 -211 -145 -307q-58 -38 -149.5 -56t-178.5 -18z" />
    <glyph glyph-name="uni0259" unicode="&#x259;" horiz-adv-x="1118" 
d="M549 1044q138 0 236 -35t156 -105t84 -165.5t26 -224.5q0 -267 -121.5 -400.5t-384.5 -133.5q-255 0 -371.5 132.5t-116.5 397.5q0 14 1 36.5t1 31.5h732q-8 151 -66 217.5t-186 66.5q-99 0 -149.5 -38t-53.5 -105h-258q3 153 126 239t345 86zM547 164q117 0 174 61.5
t67 204.5h-466q10 -143 63.5 -204.5t161.5 -61.5z" />
    <glyph glyph-name="circumflex" unicode="&#x2c6;" horiz-adv-x="894" 
d="M793 1151h-218l-126 174l-130 -174h-217l244 305h203z" />
    <glyph glyph-name="caron" unicode="&#x2c7;" horiz-adv-x="897" 
d="M575 1458h218l-244 -305h-203l-244 305h217l130 -174z" />
    <glyph glyph-name="breve" unicode="&#x2d8;" horiz-adv-x="862" 
d="M432 1141q-95 0 -160 20t-102 59t-52.5 90t-15.5 120h172q0 -78 38.5 -112t117.5 -34q86 0 123 37t37 109h170q0 -83 -24 -141t-69.5 -89.5t-102 -45t-132.5 -13.5z" />
    <glyph glyph-name="dotaccent" unicode="&#x2d9;" horiz-adv-x="468" 
d="M115 1139v227h235v-227h-235z" />
    <glyph glyph-name="ring" unicode="&#x2da;" horiz-adv-x="630" 
d="M317 1104q-215 0 -215 207q0 209 211 209q116 0 165.5 -54t49.5 -151q0 -211 -211 -211zM315 1212q50 0 72.5 24.5t22.5 76.5t-23.5 75t-69.5 23q-50 0 -72 -24t-22 -74q0 -54 22.5 -77.5t69.5 -23.5z" />
    <glyph glyph-name="ogonek" unicode="&#x2db;" horiz-adv-x="616" 
d="M338 -426q-107 0 -171.5 52.5t-64.5 135.5q0 144 193 248h143q-71 -42 -114 -93.5t-43 -102.5q0 -41 32.5 -64.5t89.5 -23.5q50 0 111 20v-135q-93 -37 -176 -37z" />
    <glyph glyph-name="tilde" unicode="&#x2dc;" horiz-adv-x="925" 
d="M102 1139q0 118 53.5 185t147.5 67q52 0 113 -23l94 -37q47 -18 86 -18q41 0 64.5 22.5t23.5 63.5h139q0 -117 -55 -183.5t-150 -66.5q-58 0 -112 22l-98 39q-46 19 -82 19q-42 0 -66 -24t-24 -66h-134z" />
    <glyph glyph-name="hungarumlaut" unicode="&#x2dd;" horiz-adv-x="1056" 
d="M102 1155l217 307h263l-279 -307h-201zM475 1155l215 307h264l-278 -307h-201z" />
    <glyph glyph-name="gravecomb" unicode="&#x300;" horiz-adv-x="0" 
d="M-102 1149h-213l-277 307h297z" />
    <glyph glyph-name="acutecomb" unicode="&#x301;" horiz-adv-x="0" 
d="M-596 1155l190 307h300l-279 -307h-211z" />
    <glyph glyph-name="uni0302" unicode="&#x302;" horiz-adv-x="0" 
d="M-106 1151h-218l-127 174l-129 -174h-217l244 305h203z" />
    <glyph glyph-name="tildecomb" unicode="&#x303;" horiz-adv-x="0" 
d="M-827 1139q0 118 53 185t147 67q52 0 113 -23l94 -37q47 -18 86 -18q41 0 64.5 22.5t23.5 63.5h140q0 -117 -55 -183.5t-150 -66.5q-59 0 -113 22l-98 39q-46 19 -82 19q-42 0 -66 -24t-24 -66h-133z" />
    <glyph glyph-name="uni0304" unicode="&#x304;" horiz-adv-x="0" 
d="M-651 1167v160h545v-160h-545z" />
    <glyph glyph-name="uni0306" unicode="&#x306;" horiz-adv-x="0" 
d="M-434 1141q-95 0 -160 20t-102 59t-52.5 90t-15.5 120h172q0 -78 38.5 -112t117.5 -34q86 0 123 37t37 109h170q0 -83 -24 -141t-69.5 -89.5t-102 -45t-132.5 -13.5z" />
    <glyph glyph-name="uni0307" unicode="&#x307;" horiz-adv-x="0" 
d="M-358 1139v227h235v-227h-235z" />
    <glyph glyph-name="uni0308" unicode="&#x308;" horiz-adv-x="0" 
d="M-733 1145v219h225v-219h-225zM-334 1145v219h228v-219h-228z" />
    <glyph glyph-name="uni030A" unicode="&#x30a;" horiz-adv-x="0" 
d="M-317 1104q-215 0 -215 207q0 209 210 209q216 0 216 -205q0 -211 -211 -211zM-319 1212q50 0 72 24.5t22 76.5t-23 75t-69 23q-50 0 -72.5 -24t-22.5 -74q0 -54 23 -77.5t70 -23.5z" />
    <glyph glyph-name="uni030B" unicode="&#x30b;" horiz-adv-x="0" 
d="M-958 1155l217 307h262l-279 -307h-200zM-586 1155l215 307h265l-279 -307h-201z" />
    <glyph glyph-name="uni030C" unicode="&#x30c;" horiz-adv-x="0" 
d="M-328 1464h217l-243 -307h-203l-244 307h217l129 -174z" />
    <glyph glyph-name="uni0312" unicode="&#x312;" horiz-adv-x="0" 
d="M-111 1444l-79 -211h69v-199h-217v199l111 211h116z" />
    <glyph glyph-name="dotbelowcomb" unicode="&#x323;" horiz-adv-x="0" 
d="M-358 -367v228h235v-228h-235z" />
    <glyph glyph-name="uni0326" unicode="&#x326;" horiz-adv-x="0" 
d="M-319 -80h217v-199l-111 -210h-117l80 210h-69v199z" />
    <glyph glyph-name="uni0327" unicode="&#x327;" horiz-adv-x="0" 
d="M-311 -78q35 -1 61 -4t54.5 -13t47 -27t30.5 -46.5t12 -69.5q0 -190 -248 -190q-129 0 -181.5 47.5t-52.5 132.5h142q0 -61 88 -61q96 0 96 71q0 64 -84 64h-115l74 190h123z" />
    <glyph glyph-name="uni0328" unicode="&#x328;" horiz-adv-x="0" 
d="M-283 -426q-107 0 -171 52.5t-64 135.5q0 145 192 248h144q-71 -42 -114.5 -93.5t-43.5 -102.5q0 -41 33 -64.5t90 -23.5q50 0 111 20v-135q-93 -37 -177 -37z" />
    <glyph glyph-name="uni032D" unicode="&#x32d;" horiz-adv-x="0" 
d="M-106 -389h-218l-127 174l-129 -174h-217l244 305h203z" />
    <glyph glyph-name="uni0331" unicode="&#x331;" horiz-adv-x="0" 
d="M-707 -348v160h601v-160h-601z" />
    <glyph glyph-name="uni0401" unicode="&#x401;" horiz-adv-x="1198" 
d="M539 1774v-220h-226v220h226zM940 1774v-220h-227v220h227zM422 219h708v-219h-978v1434h954v-220h-684v-362h657v-219h-657v-414z" />
    <glyph glyph-name="uni0402" unicode="&#x402;" horiz-adv-x="1697" 
d="M1118 940q244 0 376 -133.5t132 -378.5q0 -253 -151.5 -397t-421.5 -144v215q148 0 225.5 81.5t77.5 236.5q0 309 -275 309q-152 0 -325 -102v-627h-273v1214h-436v220h1198v-220h-489v-364q184 90 362 90z" />
    <glyph glyph-name="uni0403" unicode="&#x403;" horiz-adv-x="1044" 
d="M956 1872l-278 -307h-211l190 307h299zM997 1434v-220h-583v-1214h-271v1434h854z" />
    <glyph glyph-name="uni0404" unicode="&#x404;" horiz-adv-x="1347" 
d="M705 205q153 0 227.5 62t77.5 196h272q-4 -238 -155 -360.5t-422 -122.5q-315 0 -463 183t-148 556q0 374 148.5 554.5t468.5 180.5q273 0 422 -122t149 -363h-272q0 138 -73.5 200t-225.5 62q-168 0 -246 -96t-90 -308h518v-219h-520q13 -216 90.5 -309.5t241.5 -93.5z
" />
    <glyph glyph-name="uni0405" unicode="&#x405;" horiz-adv-x="1253" 
d="M623 -20q-263 0 -410.5 109.5t-151.5 328.5h287q0 -219 277 -219q272 0 272 221q0 96 -51.5 142t-147.5 56l-178 19q-97 11 -171.5 37.5t-131.5 73.5t-87 120.5t-30 171.5q0 109 38 189.5t109 129t166.5 72t217.5 23.5q253 0 386 -97t134 -292h-274q0 180 -242 180
q-254 0 -254 -201q0 -82 48 -121.5t146 -50.5l193 -20q410 -47 410 -422q0 -229 -147.5 -339.5t-407.5 -110.5z" />
    <glyph glyph-name="uni0406" unicode="&#x406;" horiz-adv-x="555" 
d="M143 0v1434h271v-1434h-271z" />
    <glyph glyph-name="uni0407" unicode="&#x407;" horiz-adv-x="555" 
d="M10 1554v220h209v-220h-209zM336 1554v220h209v-220h-209zM143 0v1434h271v-1434h-271z" />
    <glyph glyph-name="uni0408" unicode="&#x408;" horiz-adv-x="1138" 
d="M537 -20q-114 0 -199.5 19.5t-139.5 54t-86.5 87t-45.5 112.5t-13 138h273q0 -102 49.5 -145t154.5 -43q115 0 160 51t45 176v1004h273v-1004q0 -106 -23 -185.5t-63 -129.5t-100.5 -80.5t-129 -42.5t-155.5 -12z" />
    <glyph glyph-name="uni0409" unicode="&#x409;" horiz-adv-x="2068" 
d="M1485 911q254 0 384 -117t130 -343q0 -221 -130 -336t-384 -115h-516v1214h-418l-19 -538q-4 -100 -8 -161t-16.5 -144t-32.5 -133t-56 -106t-86.5 -86.5t-124.5 -50.5t-169 -20v248q36 0 65 6.5t50.5 22.5t37 33.5t26.5 51t18 62.5t12 79t7 91t5 107l29 758h952v-523
h244zM1442 215q140 0 214.5 61.5t74.5 176.5q0 120 -74 182.5t-215 62.5h-201v-483h201z" />
    <glyph glyph-name="uni040A" unicode="&#x40a;" horiz-adv-x="2115" 
d="M1530 879q254 0 384 -113.5t130 -331.5q0 -212 -130 -323t-384 -111h-514v662h-602v-662h-271v1434h271v-555h602v555h270v-555h244zM1487 217q141 0 215 56.5t74 162.5q0 110 -74 168t-215 58h-201v-445h201z" />
    <glyph glyph-name="uni040B" unicode="&#x40b;" horiz-adv-x="1677" 
d="M1106 913q235 0 360 -112t125 -334v-467h-270v453q0 121 -68.5 185t-199.5 64q-167 0 -297 -65v-637h-273v1214h-436v220h1198v-220h-489v-366q152 65 350 65z" />
    <glyph glyph-name="uni040C" unicode="&#x40c;" horiz-adv-x="1386" 
d="M1071 1872l-278 -307h-211l190 307h299zM999 0l-417 633h-168v-633h-271v1434h271v-584h166l405 584h322l-510 -691l538 -743h-336z" />
    <glyph glyph-name="uni040D" unicode="&#x40d;" horiz-adv-x="1441" 
d="M821 1559h-213l-276 307h297zM1300 1434v-1434h-270v1032l-612 -1032h-275v1434h269v-1006l587 1006h301z" />
    <glyph glyph-name="uni040E" unicode="&#x40e;" horiz-adv-x="1396" 
d="M698 1550q-95 0 -160 20t-101.5 59t-52 90t-15.5 120h172q0 -78 38 -111.5t117 -33.5q86 0 123 36.5t37 108.5h170q0 -83 -24 -141t-69.5 -89.5t-102 -45t-132.5 -13.5zM1040 1434h306l-785 -1434h-293l260 514l-477 920h305l324 -660z" />
    <glyph glyph-name="uni040F" unicode="&#x40f;" horiz-adv-x="1443" 
d="M1030 1434h273v-1434h-445v-315h-272v315h-443v1434h271v-1215h616v1215z" />
    <glyph glyph-name="uni0410" unicode="&#x410;" horiz-adv-x="1429" 
d="M1094 0l-99 301h-561l-98 -301h-283l516 1434h289l518 -1434h-282zM502 506h426l-213 649z" />
    <glyph glyph-name="uni0411" unicode="&#x411;" horiz-adv-x="1245" 
d="M657 911q254 0 384 -117t130 -343q0 -221 -130 -336t-384 -115h-514v1434h887v-213h-616v-310h243zM614 215q141 0 215 61t74 177q0 120 -74 182.5t-215 62.5h-200v-483h200z" />
    <glyph glyph-name="uni0412" unicode="&#x412;" horiz-adv-x="1288" 
d="M952 739q126 -32 190 -112.5t64 -223.5q0 -113 -36 -193t-104 -125t-153 -65t-196 -20h-574v1434h531q481 0 481 -377q0 -232 -203 -318zM647 1221h-233v-383h258q112 0 164.5 47.5t52.5 142.5q0 105 -62.5 149t-179.5 44zM670 213q132 0 199 53t67 166q0 60 -18 101.5
t-53 64.5t-79 33t-102 10h-270v-428h256z" />
    <glyph glyph-name="uni0413" unicode="&#x413;" horiz-adv-x="1044" 
d="M997 1434v-220h-583v-1214h-271v1434h854z" />
    <glyph glyph-name="uni0414" unicode="&#x414;" horiz-adv-x="1560" 
d="M1298 219h213v-534h-272v315h-926v-315h-270v534q46 0 82.5 14.5t62 37.5t44.5 62t30 77.5t18.5 95t11 104t5.5 113.5l25 711h976v-1215zM463 219h565v995h-442l-17 -497q-15 -346 -106 -498z" />
    <glyph glyph-name="uni0415" unicode="&#x415;" horiz-adv-x="1198" 
d="M422 219h708v-219h-978v1434h954v-220h-684v-362h657v-219h-657v-414z" />
    <glyph glyph-name="uni0416" unicode="&#x416;" horiz-adv-x="2215" 
d="M1829 0l-418 633h-168v-633h-270v633h-168l-418 -633h-336l537 741l-508 693h319l408 -584h166v584h270v-584h166l408 584h319l-508 -693l539 -741h-338z" />
    <glyph glyph-name="uni0417" unicode="&#x417;" horiz-adv-x="1202" 
d="M922 737q107 -43 153.5 -125.5t46.5 -214.5q0 -215 -134 -315t-398 -100q-144 0 -247.5 28.5t-164 84t-88 127.5t-27.5 167h261q0 -106 63.5 -151t202.5 -45q154 0 211 48t57 171q0 126 -57.5 171.5t-214.5 45.5h-140v211h140q143 0 198.5 44t55.5 154q0 112 -60.5 157.5
t-193.5 45.5q-126 0 -183.5 -42.5t-58.5 -139.5h-260q1 92 28.5 162.5t86 123.5t158 81t237.5 28q253 0 379.5 -95.5t126.5 -305.5q0 -123 -41.5 -200t-136.5 -116z" />
    <glyph glyph-name="uni0418" unicode="&#x418;" horiz-adv-x="1441" 
d="M1300 1434v-1434h-270v1032l-612 -1032h-275v1434h269v-1006l587 1006h301z" />
    <glyph glyph-name="uni0419" unicode="&#x419;" horiz-adv-x="1441" 
d="M717 1550q-95 0 -160 20t-102 59t-52.5 90t-15.5 120h172q0 -77 38.5 -111t117.5 -34q86 0 122.5 36.5t36.5 108.5h170q0 -83 -23.5 -141t-69.5 -89.5t-102 -45t-132 -13.5zM1300 1434v-1434h-270v1032l-612 -1032h-275v1434h269v-1006l587 1006h301z" />
    <glyph glyph-name="uni041A" unicode="&#x41a;" horiz-adv-x="1386" 
d="M999 0l-417 633h-168v-633h-271v1434h271v-584h166l405 584h322l-510 -691l538 -743h-336z" />
    <glyph glyph-name="uni041B" unicode="&#x41b;" horiz-adv-x="1382" 
d="M1241 1434v-1434h-272v1214h-418l-19 -538q-4 -100 -8 -161t-16.5 -144t-32.5 -133t-56 -106t-86.5 -86.5t-124.5 -50.5t-169 -20v248q36 0 65 6.5t50.5 22.5t37 33.5t26.5 51t18 62.5t12 79t7 91t5 107l29 758h952z" />
    <glyph glyph-name="uni041C" unicode="&#x41c;" horiz-adv-x="1767" 
d="M1624 1434v-1434h-264v1096l-352 -1096h-246l-354 1098v-1098h-265v1434h398l344 -1125l342 1125h397z" />
    <glyph glyph-name="uni041D" unicode="&#x41d;" horiz-adv-x="1429" 
d="M1016 1434h270v-1434h-270v629h-602v-629h-271v1434h271v-588h602v588z" />
    <glyph glyph-name="uni041E" unicode="&#x41e;" horiz-adv-x="1419" 
d="M709 -20q-317 0 -466 183t-149 554q0 376 148 556.5t467 180.5q320 0 468 -180t148 -557q0 -372 -148.5 -554.5t-467.5 -182.5zM709 205q188 0 264 119.5t76 392.5q0 278 -77.5 396t-262.5 118q-186 0 -262 -121t-76 -393q0 -279 77 -395.5t261 -116.5z" />
    <glyph glyph-name="uni041F" unicode="&#x41f;" horiz-adv-x="1443" 
d="M1303 1434v-1434h-273v1214h-616v-1214h-271v1434h1160z" />
    <glyph glyph-name="uni0420" unicode="&#x420;" horiz-adv-x="1239" 
d="M664 1434q255 0 379 -104.5t124 -325.5q0 -99 -25 -175t-68 -125t-107.5 -80t-138 -44t-164.5 -13h-250v-567h-271v1434h521zM659 784q248 0 248 220q0 117 -66 165t-182 48h-245v-433h245z" />
    <glyph glyph-name="uni0421" unicode="&#x421;" horiz-adv-x="1347" 
d="M705 -20q-315 0 -463 183t-148 556q0 374 148.5 554.5t468.5 180.5q273 0 422 -122t149 -363h-272q0 138 -73.5 200t-225.5 62q-188 0 -264 -120.5t-76 -395.5q0 -277 75.5 -393.5t258.5 -116.5q153 0 227.5 62t77.5 196h272q-3 -238 -154 -360.5t-423 -122.5z" />
    <glyph glyph-name="uni0422" unicode="&#x422;" horiz-adv-x="1236" 
d="M1190 1434v-220h-434v-1214h-273v1214h-436v220h1143z" />
    <glyph glyph-name="uni0423" unicode="&#x423;" horiz-adv-x="1396" 
d="M1040 1434h306l-785 -1434h-293l260 514l-477 920h305l324 -660z" />
    <glyph glyph-name="uni0424" unicode="&#x424;" horiz-adv-x="1796" 
d="M1128 1257q309 0 448.5 -130t139.5 -408q0 -280 -139.5 -411.5t-448.5 -131.5h-94v-176h-270v176h-94q-309 0 -449.5 132t-140.5 411q0 278 140.5 408t449.5 130h94v177h270v-177h94zM659 381h105v670h-105q-166 0 -238.5 -83t-72.5 -251t73 -252t238 -84zM1137 381
q165 0 238 84t73 252t-72.5 251t-238.5 83h-103v-670h103z" />
    <glyph glyph-name="uni0425" unicode="&#x425;" horiz-adv-x="1359" 
d="M1309 0h-303l-324 569l-315 -569h-316l463 745l-426 689h309l289 -535l289 535h313l-434 -691z" />
    <glyph glyph-name="uni0426" unicode="&#x426;" horiz-adv-x="1527" 
d="M1266 219h213v-534h-273v315h-1063v1434h271v-1215h581v1215h271v-1215z" />
    <glyph glyph-name="uni0427" unicode="&#x427;" horiz-adv-x="1337" 
d="M924 1434h270v-1434h-270v578q-155 -66 -351 -66q-236 0 -361.5 113.5t-125.5 332.5v476h270v-461q0 -119 68.5 -181.5t200.5 -62.5q168 0 299 64v641z" />
    <glyph glyph-name="uni0428" unicode="&#x428;" horiz-adv-x="2058" 
d="M1647 1434h270v-1434h-1774v1434h271v-1215h481v1215h270v-1215h482v1215z" />
    <glyph glyph-name="uni0429" unicode="&#x429;" horiz-adv-x="2179" 
d="M1917 219h211v-534h-270v315h-1715v1434h271v-1215h481v1215h270v-1215h482v1215h270v-1215z" />
    <glyph glyph-name="uni042A" unicode="&#x42a;" horiz-adv-x="1413" 
d="M827 911q254 0 384 -117t130 -343q0 -221 -130 -336t-384 -115h-514v1214h-266v220h537v-523h243zM784 215q141 0 215 61t74 177q0 120 -73.5 182.5t-215.5 62.5h-200v-483h200z" />
    <glyph glyph-name="uni042B" unicode="&#x42b;" horiz-adv-x="1740" 
d="M657 911q254 0 384 -117t130 -343q0 -221 -130 -336t-384 -115h-514v1434h271v-523h243zM1327 1434h272v-1434h-272v1434zM614 215q141 0 215 61t74 177q0 120 -74 182.5t-215 62.5h-200v-483h200z" />
    <glyph glyph-name="uni042C" unicode="&#x42c;" horiz-adv-x="1243" 
d="M657 911q254 0 384 -117t130 -343q0 -221 -130 -336t-384 -115h-514v1434h271v-523h243zM614 215q141 0 215 61t74 177q0 120 -74 182.5t-215 62.5h-200v-483h200z" />
    <glyph glyph-name="uni042D" unicode="&#x42d;" horiz-adv-x="1347" 
d="M637 1454q318 0 467 -180.5t149 -554.5q0 -373 -148 -556t-464 -183q-270 0 -422 122.5t-156 360.5h273q3 -134 78 -196t227 -62q165 0 243 93.5t91 309.5h-520v219h518q-12 212 -90 308t-248 96q-151 0 -225 -62t-74 -200h-273q0 240 150 362.5t424 122.5z" />
    <glyph glyph-name="uni042E" unicode="&#x42e;" horiz-adv-x="2021" 
d="M1311 1454q320 0 468 -180t148 -557q0 -372 -148.5 -554.5t-467.5 -182.5q-298 0 -447 161t-166 488h-284v-629h-271v1434h271v-588h286q23 309 172 458.5t439 149.5zM1311 205q188 0 264 119.5t76 392.5q0 278 -77.5 396t-262.5 118q-186 0 -262 -121t-76 -393
q0 -279 77 -395.5t261 -116.5z" />
    <glyph glyph-name="uni042F" unicode="&#x42f;" horiz-adv-x="1312" 
d="M1169 1434v-1434h-270v571h-207l-356 -571h-285l379 596q-285 82 -285 403q0 205 128 320t374 115h522zM653 770h246v447h-246q-113 0 -179 -56t-66 -166q0 -108 64.5 -166.5t180.5 -58.5z" />
    <glyph glyph-name="uni0430" unicode="&#x430;" horiz-adv-x="1120" 
d="M567 1044q125 0 214 -24.5t139.5 -72t73 -109t22.5 -142.5v-696h-250v141q-111 -161 -348 -161q-168 0 -262.5 85t-94.5 238q0 86 30 150t83 100t116 53t138 17h328v88q0 83 -49.5 120t-147.5 37q-96 0 -148.5 -36.5t-52.5 -108.5h-243q0 321 452 321zM504 162
q107 0 179.5 65t72.5 183v65h-234q-89 0 -141.5 -39t-52.5 -119t49 -117.5t127 -37.5z" />
    <glyph glyph-name="uni0431" unicode="&#x431;" horiz-adv-x="1157" 
d="M645 948q447 0 447 -469q0 -256 -122 -377.5t-386 -121.5q-516 0 -516 575q0 150 16.5 261t54 198.5t100.5 147t152.5 98.5t214.5 61q132 28 164 45q40 24 41 68h242q0 -46 -8.5 -82.5t-23 -63.5t-40 -49t-52.5 -36.5t-68.5 -27t-80.5 -21t-94 -17.5q-178 -30 -251.5 -99
t-92.5 -217q43 60 122 93.5t181 33.5zM580 170q135 0 192 71.5t57 233.5q0 159 -58 227t-191 68q-131 0 -187.5 -68t-56.5 -221q0 -168 57 -239.5t187 -71.5z" />
    <glyph glyph-name="uni0432" unicode="&#x432;" horiz-adv-x="1093" 
d="M834 535q99 -25 148.5 -84.5t49.5 -161.5q0 -81 -30 -138t-86.5 -89.5t-128 -47t-164.5 -14.5h-508v1024h477q91 0 161 -13.5t125.5 -43.5t85 -83t29.5 -128q0 -153 -159 -221zM557 854h-182v-248h194q86 0 124 31t38 94q0 67 -43.5 95t-130.5 28zM573 172q195 0 195 137
q0 79 -47.5 110.5t-140.5 31.5h-205v-279h198z" />
    <glyph glyph-name="uni0433" unicode="&#x433;" horiz-adv-x="835" 
d="M803 1024v-201h-428v-823h-260v1024h688z" />
    <glyph glyph-name="uni0434" unicode="&#x434;" horiz-adv-x="1236" 
d="M1206 201v-467h-252v266h-673v-266h-252v467q52 0 87.5 21.5t55.5 66t29.5 99t13.5 134.5l23 502h809v-823h159zM397 201h389v628h-305l-14 -309q-10 -215 -70 -319z" />
    <glyph glyph-name="uni0435" unicode="&#x435;" horiz-adv-x="1118" 
d="M328 446q8 -151 66 -217.5t186 -66.5q99 0 149 38t53 105h258q-3 -153 -126 -239t-345 -86q-138 0 -236 35t-155.5 105t-83.5 165.5t-26 224.5q0 267 121 400.5t384 133.5q255 0 371.5 -132.5t116.5 -397.5q0 -14 -1 -36.5t-1 -31.5h-731zM571 860q-117 0 -174 -61.5
t-67 -204.5h467q-10 143 -63.5 204.5t-162.5 61.5z" />
    <glyph glyph-name="uni0436" unicode="&#x436;" horiz-adv-x="1710" 
d="M1374 0l-280 432h-109v-432h-260v432h-107l-282 -432h-309l389 520l-371 504h291l280 -418h109v418h260v-418h109l280 418h291l-369 -504l387 -520h-309z" />
    <glyph glyph-name="uni0437" unicode="&#x437;" horiz-adv-x="1042" 
d="M797 539q184 -64 184 -258q0 -146 -118.5 -225t-346.5 -79q-126 0 -217 25.5t-143 72t-75.5 104.5t-23.5 130h246q0 -151 213 -151q209 0 209 143q0 73 -53.5 111.5t-155.5 38.5h-184v165h184q88 0 135 36.5t47 95.5q0 124 -182 124q-183 0 -186 -133h-256
q0 138 105.5 221.5t336.5 83.5q214 0 327 -73.5t113 -210.5q0 -81 -36.5 -135.5t-122.5 -85.5z" />
    <glyph glyph-name="uni0438" unicode="&#x438;" horiz-adv-x="1200" 
d="M1085 1024v-1024h-258v672l-446 -672h-266v1024h258v-684l448 684h264z" />
    <glyph glyph-name="uni0439" unicode="&#x439;" horiz-adv-x="1200" 
d="M602 1141q-95 0 -160 20t-102 59t-52.5 90t-15.5 120h172q0 -78 38.5 -112t117.5 -34q86 0 123 37t37 109h170q0 -83 -24 -141t-69.5 -89.5t-102 -45t-132.5 -13.5zM1085 1024v-1024h-258v672l-446 -672h-266v1024h258v-684l448 684h264z" />
    <glyph glyph-name="uni043A" unicode="&#x43a;" horiz-adv-x="1099" 
d="M764 0l-281 432h-108v-432h-260v1024h260v-418h108l281 418h291l-369 -504l387 -520h-309z" />
    <glyph glyph-name="uni043B" unicode="&#x43b;" horiz-adv-x="1159" 
d="M1044 1024v-1024h-262v823h-315l-16 -346q-3 -69 -7 -113t-15 -101.5t-28 -93t-48 -74t-73.5 -60t-104.5 -35.5t-142 -14v211q41 0 69.5 12.5t45.5 33t27 62t14.5 82.5t7.5 111l24 526h823z" />
    <glyph glyph-name="uni043C" unicode="&#x43c;" horiz-adv-x="1488" 
d="M1374 1024v-1024h-254v752l-266 -752h-215l-270 756v-756h-254v1024h360l270 -776l269 776h360z" />
    <glyph glyph-name="uni043D" unicode="&#x43d;" horiz-adv-x="1189" 
d="M815 1024h260v-1024h-260v412h-440v-412h-260v1024h260v-412h440v412z" />
    <glyph glyph-name="uni043E" unicode="&#x43e;" horiz-adv-x="1157" 
d="M578 -20q-267 0 -388.5 131t-121.5 401q0 271 121 401.5t389 130.5q270 0 391 -130t121 -402q0 -270 -121.5 -401t-390.5 -131zM578 170q136 0 193.5 82t57.5 260q0 183 -57.5 262.5t-193.5 79.5q-135 0 -192.5 -82t-57.5 -260q0 -181 58 -261.5t192 -80.5z" />
    <glyph glyph-name="uni043F" unicode="&#x43f;" horiz-adv-x="1189" 
d="M1075 1024v-1024h-260v823h-440v-823h-260v1024h960z" />
    <glyph glyph-name="uni0440" unicode="&#x440;" horiz-adv-x="1193" 
d="M721 1044q206 0 305.5 -129.5t99.5 -398.5q0 -276 -105.5 -406t-322.5 -130q-214 0 -313 120v-510h-260v1434h250v-141q115 161 346 161zM627 170q123 0 181 80t58 266q0 181 -56 258.5t-181 77.5q-105 0 -174.5 -62t-69.5 -165v-230q0 -108 68 -166.5t174 -58.5z" />
    <glyph glyph-name="uni0441" unicode="&#x441;" horiz-adv-x="1107" 
d="M582 -20q-272 0 -393 130.5t-121 401.5q0 272 121 402t393 130q229 0 348.5 -94t122.5 -280h-256q-3 96 -55 140t-160 44q-135 0 -192.5 -82t-57.5 -260q0 -181 58.5 -261.5t191.5 -80.5q109 0 160.5 44t54.5 136h256q-3 -184 -123 -277t-348 -93z" />
    <glyph glyph-name="uni0442" unicode="&#x442;" horiz-adv-x="1044" 
d="M1010 1024v-201h-359v-823h-260v823h-356v201h975z" />
    <glyph glyph-name="uni0443" unicode="&#x443;" horiz-adv-x="1116" 
d="M819 1024h271l-543 -1434h-238l148 410h-39l-391 1024h272l256 -745z" />
    <glyph glyph-name="uni0444" unicode="&#x444;" horiz-adv-x="1474" 
d="M883 1044q274 0 399 -128.5t125 -401.5q0 -272 -125.5 -403t-398.5 -131h-15v-390h-262v390h-14q-273 0 -398.5 131t-125.5 403q0 273 125 401.5t399 128.5h14v390h262v-390h15zM592 174h14v676h-14q-142 0 -203 -79t-61 -257q0 -181 62 -260.5t202 -79.5zM883 174
q140 0 202 82t62 258q0 182 -61.5 259t-202.5 77h-15v-676h15z" />
    <glyph glyph-name="uni0445" unicode="&#x445;" horiz-adv-x="1112" 
d="M1083 0h-295l-237 397l-242 -397h-282l356 528l-322 496h283l209 -377l215 377h276l-319 -496z" />
    <glyph glyph-name="uni0446" unicode="&#x446;" horiz-adv-x="1267" 
d="M1075 201h160v-467h-260v266h-860v1024h260v-823h440v823h260v-823z" />
    <glyph glyph-name="uni0447" unicode="&#x447;" horiz-adv-x="1112" 
d="M737 1024h260v-1024h-260v338q-112 -45 -260 -45q-196 0 -302.5 96.5t-106.5 286.5v348h262v-330q0 -111 52 -156.5t146 -45.5q127 0 209 36v496z" />
    <glyph glyph-name="uni0448" unicode="&#x448;" horiz-adv-x="1779" 
d="M1405 1024h260v-1024h-1550v1024h260v-823h385v823h260v-823h385v823z" />
    <glyph glyph-name="uni0449" unicode="&#x449;" horiz-adv-x="1857" 
d="M1665 201h160v-467h-260v266h-1450v1024h260v-823h385v823h260v-823h385v823h260v-823z" />
    <glyph glyph-name="uni044A" unicode="&#x44a;" horiz-adv-x="1232" 
d="M745 733q225 0 330 -90.5t105 -282.5q0 -185 -108.5 -272.5t-332.5 -87.5h-485v823h-219v201h481v-291h229zM696 180q116 0 169 44.5t53 140.5q0 97 -51.5 142.5t-164.5 45.5h-186v-373h180z" />
    <glyph glyph-name="uni044B" unicode="&#x44b;" horiz-adv-x="1538" 
d="M604 733q227 0 331.5 -90t104.5 -283q0 -185 -108 -272.5t-332 -87.5h-485v1024h260v-291h229zM1161 1024h262v-1024h-262v1024zM557 180q115 0 168 44.5t53 140.5q0 98 -51 143t-164 45h-188v-373h182z" />
    <glyph glyph-name="uni044C" unicode="&#x44c;" horiz-adv-x="1093" 
d="M604 733q227 0 331.5 -90t104.5 -283q0 -185 -108 -272.5t-332 -87.5h-485v1024h260v-291h229zM557 180q115 0 168 44.5t53 140.5q0 98 -51 143t-164 45h-188v-373h182z" />
    <glyph glyph-name="uni044D" unicode="&#x44d;" horiz-adv-x="1107" 
d="M526 1044q272 0 394 -130t122 -402q0 -271 -122 -401.5t-394 -130.5q-230 0 -349.5 91t-119.5 273h254q0 -91 52 -132.5t163 -41.5q116 0 175.5 60t72.5 192h-407v182h407q-14 129 -72.5 189.5t-175.5 60.5q-110 0 -162.5 -42t-52.5 -138h-254q0 370 469 370z" />
    <glyph glyph-name="uni044E" unicode="&#x44e;" horiz-adv-x="1650" 
d="M1071 1044q270 0 391 -130t121 -402q0 -270 -121.5 -401t-390.5 -131q-241 0 -363.5 107t-144.5 325h-188v-412h-260v1024h260v-412h188q21 219 143 325.5t365 106.5zM1071 170q137 0 194.5 82.5t57.5 259.5q0 182 -58.5 262t-193.5 80t-192.5 -82t-57.5 -260
q0 -181 58 -261.5t192 -80.5z" />
    <glyph glyph-name="uni044F" unicode="&#x44f;" horiz-adv-x="1114" 
d="M999 1024v-1024h-260v389h-161l-252 -389h-299l309 403q-244 55 -244 299q0 154 102 238t310 84h495zM549 559h190v291h-190q-195 0 -195 -148q0 -143 195 -143z" />
    <glyph glyph-name="uni0451" unicode="&#x451;" horiz-adv-x="1118" 
d="M485 1364v-219h-225v219h225zM887 1364v-219h-228v219h228zM328 446q8 -151 66 -217.5t186 -66.5q99 0 149 38t53 105h258q-3 -153 -126 -239t-345 -86q-138 0 -236 35t-155.5 105t-83.5 165.5t-26 224.5q0 267 121 400.5t384 133.5q255 0 371.5 -132.5t116.5 -397.5
q0 -14 -1 -36.5t-1 -31.5h-731zM571 860q-117 0 -174 -61.5t-67 -204.5h467q-10 143 -63.5 204.5t-162.5 61.5z" />
    <glyph glyph-name="uni0452" unicode="&#x452;" horiz-adv-x="1236" 
d="M678 930q236 0 364.5 -133t128.5 -375q0 -249 -147 -391t-410 -142v191q145 0 221 86t76 250q0 161 -67 245t-201 84q-127 0 -266 -77v-668h-260v1094h-125v159h125v181h260v-181h440v-159h-440v-230q153 66 301 66z" />
    <glyph glyph-name="uni0453" unicode="&#x453;" horiz-adv-x="835" 
d="M827 1462l-278 -307h-211l190 307h299zM803 1024v-201h-428v-823h-260v1024h688z" />
    <glyph glyph-name="uni0454" unicode="&#x454;" horiz-adv-x="1107" 
d="M582 170q111 0 163 41.5t52 132.5h256q0 -182 -120.5 -273t-350.5 -91q-272 0 -393 130.5t-121 401.5q0 272 121 402t393 130q471 0 471 -370h-256q0 96 -52.5 138t-162.5 42q-117 0 -175.5 -60.5t-72.5 -189.5h407v-182h-407q13 -132 72.5 -192t175.5 -60z" />
    <glyph glyph-name="uni0455" unicode="&#x455;" horiz-adv-x="1048" 
d="M528 -20q-243 0 -354.5 85t-116.5 244h258q0 -81 58.5 -119t156.5 -38q103 0 155 40t52 111q0 120 -149 133l-146 17q-168 16 -258 84.5t-90 205.5q0 160 112 230.5t320 70.5q118 0 202.5 -20.5t135.5 -60.5t74.5 -94t24.5 -126h-244q0 136 -187 136q-89 0 -137.5 -32.5
t-48.5 -94.5q0 -108 146 -123l155 -17q76 -7 134 -25t107 -51.5t75 -90.5t26 -136q0 -329 -461 -329z" />
    <glyph glyph-name="uni0456" unicode="&#x456;" horiz-adv-x="497" 
d="M117 1135v249h264v-249h-264zM119 0v1024h260v-1024h-260z" />
    <glyph glyph-name="uni0457" unicode="&#x457;" horiz-adv-x="497" 
d="M-18 1145v219h208v-219h-208zM305 1145v219h209v-219h-209zM119 0v1024h260v-1024h-260z" />
    <glyph glyph-name="uni0458" unicode="&#x458;" horiz-adv-x="505" 
d="M125 1135v249h264v-249h-264zM-86 -410v201q102 0 156 43q57 50 57 137v1053h260v-1053q0 -211 -145 -307q-58 -38 -149.5 -56t-178.5 -18z" />
    <glyph glyph-name="uni0459" unicode="&#x459;" horiz-adv-x="1761" 
d="M1251 733q235 0 346 -90.5t111 -282.5q0 -186 -111.5 -273t-349.5 -87h-465v823h-315l-16 -346q-3 -69 -7 -113t-15 -101.5t-28 -93t-48 -74t-73.5 -60t-104.5 -35.5t-142 -14v211q41 0 69.5 12.5t45.5 33t27 62t14.5 82.5t7.5 111l24 526h823v-291h207zM1206 180
q124 0 182 45t58 140q0 97 -56.5 142.5t-177.5 45.5h-168v-373h162z" />
    <glyph glyph-name="uni045A" unicode="&#x45a;" horiz-adv-x="1792" 
d="M1282 670q236 0 346.5 -82t110.5 -258q0 -168 -113.5 -249t-347.5 -81h-463v489h-440v-489h-260v1024h260v-354h440v354h260v-354h207zM1237 178q125 0 182.5 37t57.5 119q0 83 -56 121.5t-176 38.5h-170v-316h162z" />
    <glyph glyph-name="uni045B" unicode="&#x45b;" horiz-adv-x="1183" 
d="M715 930q104 0 175.5 -28.5t112 -83.5t57.5 -126t17 -166v-526h-260v522q0 111 -45 163t-147 52q-110 0 -179 -63.5t-69 -167.5v-506h-260v1094h-125v159h125v181h260v-181h440v-159h-440v-314q56 72 143.5 111t194.5 39z" />
    <glyph glyph-name="uni045C" unicode="&#x45c;" horiz-adv-x="1099" 
d="M944 1462l-278 -307h-211l190 307h299zM764 0l-281 432h-108v-432h-260v1024h260v-418h108l281 418h291l-369 -504l387 -520h-309z" />
    <glyph glyph-name="uni045D" unicode="&#x45d;" horiz-adv-x="1200" 
d="M707 1149h-213l-277 307h297zM1085 1024v-1024h-258v672l-446 -672h-266v1024h258v-684l448 684h264z" />
    <glyph glyph-name="uni045E" unicode="&#x45e;" horiz-adv-x="1116" 
d="M561 1141q-95 0 -160 20t-102 59t-52.5 90t-15.5 120h172q0 -78 38.5 -112t117.5 -34q86 0 123 37t37 109h170q0 -83 -24 -141t-69.5 -89.5t-102 -45t-132.5 -13.5zM819 1024h271l-543 -1434h-238l148 410h-39l-391 1024h272l256 -745z" />
    <glyph glyph-name="uni045F" unicode="&#x45f;" horiz-adv-x="1189" 
d="M815 1024h260v-1024h-350v-266h-260v266h-350v1024h260v-823h440v823z" />
    <glyph glyph-name="uni0490" unicode="&#x490;" horiz-adv-x="1044" 
d="M741 1657h256v-443h-583v-1214h-271v1434h598v223z" />
    <glyph glyph-name="uni0491" unicode="&#x491;" horiz-adv-x="835" 
d="M561 1241h242v-418h-428v-823h-260v1024h446v217z" />
    <glyph glyph-name="uni0492" unicode="&#x492;" horiz-adv-x="1044" 
d="M997 1214h-583v-368h381v-217h-381v-629h-271v629h-137v217h137v588h854v-220z" />
    <glyph glyph-name="uni0493" unicode="&#x493;" horiz-adv-x="835" 
d="M803 823h-428v-248h276v-157h-276v-418h-260v418h-115v157h115v449h688v-201z" />
    <glyph glyph-name="uni0496" unicode="&#x496;" horiz-adv-x="2340" 
d="M2292 219v-534h-273v315h-190l-418 633h-168v-633h-270v633h-168l-418 -633h-336l537 741l-508 693h319l408 -584h166v584h270v-584h166l408 584h319l-508 -693l379 -522h285z" />
    <glyph glyph-name="uni0497" unicode="&#x497;" horiz-adv-x="1783" 
d="M1534 201h219v-467h-254v266h-125l-280 432h-109v-432h-260v432h-107l-282 -432h-309l389 520l-371 504h291l280 -418h109v418h260v-418h109l280 418h291l-369 -504z" />
    <glyph glyph-name="uni049A" unicode="&#x49a;" horiz-adv-x="1511" 
d="M1460 219v-534h-270v315h-191l-417 633h-168v-633h-271v1434h271v-584h166l405 584h322l-510 -691l381 -524h282z" />
    <glyph glyph-name="uni049B" unicode="&#x49b;" horiz-adv-x="1206" 
d="M924 201h250v-467h-252v266h-158l-281 432h-108v-432h-260v1024h260v-418h108l281 418h291l-369 -504z" />
    <glyph glyph-name="uni049C" unicode="&#x49c;" horiz-adv-x="1667" 
d="M1278 0l-395 633h-97v-283h-235v283h-137v-633h-271v1434h271v-584h137v280h235v-280h95l385 584h321l-489 -691l518 -743h-338z" />
    <glyph glyph-name="uni049D" unicode="&#x49d;" horiz-adv-x="1232" 
d="M901 0l-260 432h-27v-182h-174v182h-65v-432h-260v1024h260v-418h65v195h174v-195h25l262 418h287l-348 -502l366 -522h-305z" />
    <glyph glyph-name="uni04A2" unicode="&#x4a2;" horiz-adv-x="1548" 
d="M1286 219h213v-534h-272v315h-211v629h-602v-629h-271v1434h271v-588h602v588h270v-1215z" />
    <glyph glyph-name="uni04A3" unicode="&#x4a3;" horiz-adv-x="1267" 
d="M1075 201h160v-467h-252v266h-168v412h-440v-412h-260v1024h260v-412h440v412h260v-823z" />
    <glyph glyph-name="uni04AE" unicode="&#x4ae;" horiz-adv-x="1384" 
d="M1333 1434l-510 -881v-553h-270v553l-502 881h305l332 -654l340 654h305z" />
    <glyph glyph-name="uni04AF" unicode="&#x4af;" horiz-adv-x="1103" 
d="M807 1024h270l-395 -1024v-410h-260v410l-395 1024h272l254 -733z" />
    <glyph glyph-name="uni04B0" unicode="&#x4b0;" horiz-adv-x="1384" 
d="M1333 1434l-358 -619h250v-219h-377l-25 -43v-553h-270v553l-25 43h-368v219h243l-352 619h305l332 -654l340 654h305z" />
    <glyph glyph-name="uni04B1" unicode="&#x4b1;" horiz-adv-x="1103" 
d="M1077 1024l-334 -864h195v-160h-256v-410h-260v410h-258v160h196l-333 864h272l254 -733l254 733h270z" />
    <glyph glyph-name="uni04B2" unicode="&#x4b2;" horiz-adv-x="1517" 
d="M1468 219v-534h-270v315h-192l-324 569l-315 -569h-316l463 745l-426 689h309l289 -535l289 535h313l-434 -691l322 -524h292z" />
    <glyph glyph-name="uni04B3" unicode="&#x4b3;" horiz-adv-x="1218" 
d="M948 201h238v-467h-252v266h-146l-237 397l-242 -397h-282l356 528l-322 496h283l209 -377l215 377h276l-319 -496z" />
    <glyph glyph-name="uni04B6" unicode="&#x4b6;" horiz-adv-x="1456" 
d="M1194 219h213v-534h-272v315h-211v578q-155 -66 -351 -66q-236 0 -361.5 113.5t-125.5 332.5v476h270v-461q0 -119 68.5 -181.5t200.5 -62.5q168 0 299 64v641h270v-1215z" />
    <glyph glyph-name="uni04B7" unicode="&#x4b7;" horiz-adv-x="1187" 
d="M997 201h160v-467h-252v266h-168v338q-112 -45 -260 -45q-196 0 -302.5 96.5t-106.5 286.5v348h262v-330q0 -111 52 -156.5t146 -45.5q127 0 209 36v496h260v-823z" />
    <glyph glyph-name="uni04B8" unicode="&#x4b8;" horiz-adv-x="1437" 
d="M1026 1434h270v-1434h-270v588q-106 -43 -217 -60v-241h-236v227q-236 11 -361.5 124.5t-125.5 319.5v476h270v-461q0 -99 55 -159t162 -77v381h236v-381q115 14 217 58v639z" />
    <glyph glyph-name="uni04B9" unicode="&#x4b9;" horiz-adv-x="1163" 
d="M788 1024h261v-1024h-261v340q-70 -26 -143 -37v-151h-172v141q-194 8 -299.5 104t-105.5 279v348h262v-330q0 -166 143 -196v266h172v-268q74 8 143 34v494z" />
    <glyph glyph-name="uni04BA" unicode="&#x4ba;" horiz-adv-x="1337" 
d="M764 922q236 0 361.5 -114t125.5 -333v-475h-270v461q0 119 -68 181.5t-200 62.5q-168 0 -299 -64v-641h-271v1434h271v-578q155 66 350 66z" />
    <glyph glyph-name="uni04BB" unicode="&#x4bb;" horiz-adv-x="1191" 
d="M723 1044q104 0 176 -28t112.5 -83.5t58 -126t17.5 -165.5v-641h-262v637q0 110 -45 162.5t-147 52.5q-110 0 -179 -63.5t-69 -167.5v-621h-260v1434h260v-539q55 72 143 110.5t195 38.5z" />
    <glyph glyph-name="uni04C0" unicode="&#x4c0;" horiz-adv-x="555" 
d="M143 0v1434h271v-1434h-271z" />
    <glyph glyph-name="uni04CF" unicode="&#x4cf;" horiz-adv-x="514" 
d="M121 0v1434h272v-1434h-272z" />
    <glyph glyph-name="uni04D8" unicode="&#x4d8;" horiz-adv-x="1413" 
d="M705 1454q319 0 466.5 -180t147.5 -557q0 -371 -148.5 -554t-465.5 -183q-319 0 -468 183t-149 554q0 59 6 117h944q-13 212 -91.5 304.5t-241.5 92.5q-64 0 -113.5 -11.5t-90.5 -38.5t-68.5 -74.5t-41.5 -115.5h-278q35 227 178 345t414 118zM705 201q168 0 245.5 98
t89.5 315h-673q13 -221 92 -317t246 -96z" />
    <glyph glyph-name="uni04D9" unicode="&#x4d9;" horiz-adv-x="1118" 
d="M549 1044q138 0 236 -35t156 -105t84 -165.5t26 -224.5q0 -267 -121.5 -400.5t-384.5 -133.5q-255 0 -371.5 132.5t-116.5 397.5q0 14 1 36.5t1 31.5h732q-8 151 -66 217.5t-186 66.5q-99 0 -149.5 -38t-53.5 -105h-258q3 153 126 239t345 86zM547 164q117 0 174 61.5
t67 204.5h-466q10 -143 63.5 -204.5t161.5 -61.5z" />
    <glyph glyph-name="uni04E2" unicode="&#x4e2;" horiz-adv-x="1441" 
d="M989 1737v-160h-545v160h545zM1300 1434v-1434h-270v1032l-612 -1032h-275v1434h269v-1006l587 1006h301z" />
    <glyph glyph-name="uni04E3" unicode="&#x4e3;" horiz-adv-x="1200" 
d="M874 1327v-160h-544v160h544zM1085 1024v-1024h-258v672l-446 -672h-266v1024h258v-684l448 684h264z" />
    <glyph glyph-name="uni04E8" unicode="&#x4e8;" horiz-adv-x="1419" 
d="M709 1454q320 0 468 -180t148 -557q0 -372 -148.5 -554.5t-467.5 -182.5q-317 0 -466 183t-149 554q0 376 148 556.5t467 180.5zM709 1231q-163 0 -241 -92t-93 -293h669q-17 206 -95 295.5t-240 89.5zM709 205q172 0 249.5 100t88.5 324h-674q10 -228 88.5 -326
t247.5 -98z" />
    <glyph glyph-name="uni04E9" unicode="&#x4e9;" horiz-adv-x="1157" 
d="M578 1044q270 0 391 -130t121 -402q0 -270 -121.5 -401t-390.5 -131q-267 0 -388.5 131t-121.5 401q0 271 121 401.5t389 130.5zM578 854q-117 0 -175.5 -60.5t-70.5 -189.5h493q-12 132 -70.5 191t-176.5 59zM578 170q118 0 176.5 61t70.5 191h-493q12 -132 70.5 -192
t175.5 -60z" />
    <glyph glyph-name="uni04EE" unicode="&#x4ee;" horiz-adv-x="1396" 
d="M971 1737v-160h-545v160h545zM1040 1434h306l-785 -1434h-293l260 514l-477 920h305l324 -660z" />
    <glyph glyph-name="uni04EF" unicode="&#x4ef;" horiz-adv-x="1116" 
d="M831 1327v-160h-544v160h544zM819 1024h271l-543 -1434h-238l148 410h-39l-391 1024h272l256 -745z" />
    <glyph glyph-name="uni1E04" unicode="&#x1e04;" horiz-adv-x="1288" 
d="M952 739q126 -32 190 -112.5t64 -223.5q0 -113 -36 -193t-104 -125t-153 -65t-196 -20h-574v1434h531q481 0 481 -377q0 -232 -203 -318zM647 1221h-233v-383h258q112 0 164.5 47.5t52.5 142.5q0 105 -62.5 149t-179.5 44zM670 213q132 0 199 53t67 166q0 60 -18 101.5
t-53 64.5t-79 33t-102 10h-270v-428h256zM526 -367v228h236v-228h-236z" />
    <glyph glyph-name="uni1E05" unicode="&#x1e05;" horiz-adv-x="1193" 
d="M715 1044q210 0 310.5 -128.5t100.5 -395.5q0 -276 -104.5 -408t-316.5 -132q-224 0 -330 151v-131h-250v1434h260v-537q56 71 141 109t189 38zM629 170q122 0 179.5 79t57.5 265q0 182 -56.5 260t-182.5 78q-105 0 -173.5 -61.5t-68.5 -165.5v-228q0 -102 69.5 -164.5
t174.5 -62.5zM553 -367v228h235v-228h-235z" />
    <glyph glyph-name="uni1E0C" unicode="&#x1e0c;" horiz-adv-x="1388" 
d="M705 1434q143 0 248.5 -36t183.5 -117.5t117.5 -221t39.5 -338.5q0 -197 -39 -337t-117 -223.5t-184 -122t-249 -38.5h-562v1434h562zM705 223q75 0 129 21.5t97.5 74.5t65 153.5t21.5 248.5q0 124 -16 213.5t-42 142t-68.5 83t-85 40.5t-101.5 10h-291v-987h291z
M512 -367v228h236v-228h-236z" />
    <glyph glyph-name="uni1E0D" unicode="&#x1e0d;" horiz-adv-x="1189" 
d="M809 1434h260v-1434h-250v141q-115 -161 -348 -161q-203 0 -303 129.5t-100 396.5q0 277 106.5 407.5t321.5 130.5q207 0 313 -133v523zM561 172q109 0 178.5 61.5t69.5 165.5v230q0 101 -69 163t-175 62q-122 0 -179.5 -80t-57.5 -266q0 -179 55.5 -257.5t177.5 -78.5z
M455 -367v228h235v-228h-235z" />
    <glyph glyph-name="uni1E0E" unicode="&#x1e0e;" horiz-adv-x="1388" 
d="M705 1434q143 0 248.5 -36t183.5 -117.5t117.5 -221t39.5 -338.5q0 -197 -39 -337t-117 -223.5t-184 -122t-249 -38.5h-562v1434h562zM705 223q75 0 129 21.5t97.5 74.5t65 153.5t21.5 248.5q0 124 -16 213.5t-42 142t-68.5 83t-85 40.5t-101.5 10h-291v-987h291z
M334 -348v160h600v-160h-600z" />
    <glyph glyph-name="uni1E0F" unicode="&#x1e0f;" horiz-adv-x="1189" 
d="M809 1434h260v-1434h-250v141q-115 -161 -348 -161q-203 0 -303 129.5t-100 396.5q0 277 106.5 407.5t321.5 130.5q207 0 313 -133v523zM561 172q109 0 178.5 61.5t69.5 165.5v230q0 101 -69 163t-175 62q-122 0 -179.5 -80t-57.5 -266q0 -179 55.5 -257.5t177.5 -78.5z
M276 -348v160h601v-160h-601z" />
    <glyph glyph-name="uni1E12" unicode="&#x1e12;" horiz-adv-x="1388" 
d="M705 1434q143 0 248.5 -36t183.5 -117.5t117.5 -221t39.5 -338.5q0 -197 -39 -337t-117 -223.5t-184 -122t-249 -38.5h-562v1434h562zM705 223q75 0 129 21.5t97.5 74.5t65 153.5t21.5 248.5q0 124 -16 213.5t-42 142t-68.5 83t-85 40.5t-101.5 10h-291v-987h291z
M733 -84l244 -305h-217l-127 174l-129 -174h-217l243 305h203z" />
    <glyph glyph-name="uni1E13" unicode="&#x1e13;" horiz-adv-x="1189" 
d="M809 1434h260v-1434h-250v141q-115 -161 -348 -161q-203 0 -303 129.5t-100 396.5q0 277 106.5 407.5t321.5 130.5q207 0 313 -133v523zM561 172q109 0 178.5 61.5t69.5 165.5v230q0 101 -69 163t-175 62q-122 0 -179.5 -80t-57.5 -266q0 -179 55.5 -257.5t177.5 -78.5z
M676 -84l244 -305h-218l-127 174l-129 -174h-217l244 305h203z" />
    <glyph glyph-name="uni1E24" unicode="&#x1e24;" horiz-adv-x="1429" 
d="M1016 1434h270v-1434h-270v629h-602v-629h-271v1434h271v-588h602v588zM588 -367v228h235v-228h-235z" />
    <glyph glyph-name="uni1E25" unicode="&#x1e25;" horiz-adv-x="1191" 
d="M723 1044q104 0 176 -28t112.5 -83.5t58 -126t17.5 -165.5v-641h-262v637q0 110 -45 162.5t-147 52.5q-110 0 -179 -63.5t-69 -167.5v-621h-260v1434h260v-539q55 72 143 110.5t195 38.5zM485 -367v228h236v-228h-236z" />
    <glyph glyph-name="uni1E2E" unicode="&#x1e2e;" horiz-adv-x="555" 
d="M160 1849l192 305h297l-276 -305h-213zM-33 1554v220h226v-220h-226zM367 1554v220h227v-220h-227zM143 0v1434h271v-1434h-271z" />
    <glyph glyph-name="uni1E2F" unicode="&#x1e2f;" horiz-adv-x="497" 
d="M115 1456l190 307h297l-276 -307h-211zM-18 1145v219h208v-219h-208zM305 1145v219h211v-219h-211zM119 0v1024h260v-1024h-260z" />
    <glyph glyph-name="uni1E36" unicode="&#x1e36;" horiz-adv-x="1120" 
d="M414 219h657v-219h-928v1434h271v-1215zM489 -367v228h236v-228h-236z" />
    <glyph glyph-name="uni1E37" unicode="&#x1e37;" horiz-adv-x="503" 
d="M121 0v1434h262v-1434h-262zM135 -367v228h236v-228h-236z" />
    <glyph glyph-name="uni1E3C" unicode="&#x1e3c;" horiz-adv-x="1120" 
d="M414 219h657v-219h-928v1434h271v-1215zM709 -84l243 -305h-217l-127 174l-129 -174h-217l244 305h203z" />
    <glyph glyph-name="uni1E3D" unicode="&#x1e3d;" horiz-adv-x="503" 
d="M383 1434v-1434h-262v1434h262zM598 -389h-217l-127 174l-129 -174h-217l244 305h202z" />
    <glyph glyph-name="uni1E3E" unicode="&#x1e3e;" horiz-adv-x="1767" 
d="M1253 1872l-278 -307h-211l190 307h299zM1624 1434v-1434h-264v1096l-352 -1096h-246l-354 1098v-1098h-265v1434h398l344 -1125l342 1125h397z" />
    <glyph glyph-name="uni1E3F" unicode="&#x1e3f;" horiz-adv-x="1806" 
d="M1272 1462l-279 -307h-211l191 307h299zM1354 1044q346 0 346 -403v-641h-258v637q0 99 -39 157t-139 58q-104 0 -165 -62t-61 -159v-631h-258v637q0 99 -39.5 157t-138.5 58q-102 0 -165.5 -66.5t-63.5 -164.5v-621h-258v1024h247v-145q103 165 334 165q229 0 305 -182
q50 89 142 135.5t211 46.5z" />
    <glyph glyph-name="uni1E44" unicode="&#x1e44;" horiz-adv-x="1443" 
d="M844 1776v-228h-236v228h236zM1030 1434h268v-1434h-274l-612 1032v-1032h-269v1434h299l588 -1006v1006z" />
    <glyph glyph-name="uni1E45" unicode="&#x1e45;" horiz-adv-x="1181" 
d="M713 1366v-227h-236v227h236zM723 1044q99 0 169.5 -29t110 -84.5t57 -126t17.5 -163.5v-641h-262v637q0 108 -44.5 161.5t-143.5 53.5q-114 0 -183 -63.5t-69 -167.5v-621h-260v1024h250v-143q116 163 358 163z" />
    <glyph glyph-name="uni1E46" unicode="&#x1e46;" horiz-adv-x="1443" 
d="M1030 1434h268v-1434h-274l-612 1032v-1032h-269v1434h299l588 -1006v1006zM606 -367v228h236v-228h-236z" />
    <glyph glyph-name="uni1E47" unicode="&#x1e47;" horiz-adv-x="1181" 
d="M723 1044q99 0 169.5 -29t110 -84.5t57 -126t17.5 -163.5v-641h-262v637q0 108 -44.5 161.5t-143.5 53.5q-114 0 -183 -63.5t-69 -167.5v-621h-260v1024h250v-143q116 163 358 163zM475 -367v228h236v-228h-236z" />
    <glyph glyph-name="uni1E4A" unicode="&#x1e4a;" horiz-adv-x="1443" 
d="M1030 1434h268v-1434h-274l-612 1032v-1032h-269v1434h299l588 -1006v1006zM827 -84l244 -305h-217l-127 174l-129 -174h-217l244 305h202z" />
    <glyph glyph-name="uni1E4B" unicode="&#x1e4b;" horiz-adv-x="1181" 
d="M723 1044q99 0 169.5 -29t110 -84.5t57 -126t17.5 -163.5v-641h-262v637q0 108 -44.5 161.5t-143.5 53.5q-114 0 -183 -63.5t-69 -167.5v-621h-260v1024h250v-143q116 163 358 163zM696 -84l244 -305h-217l-127 174l-129 -174h-217l244 305h202z" />
    <glyph glyph-name="uni1E4C" unicode="&#x1e4c;" horiz-adv-x="1419" 
d="M559 1872l193 305h297l-279 -305h-211zM348 1548q0 118 53.5 185t147.5 67q55 0 113 -22l94 -37q49 -19 86 -19q41 0 64.5 22.5t23.5 63.5h139q0 -117 -54.5 -183t-150.5 -66q-58 0 -112 22l-99 39q-43 18 -82 18q-42 0 -66 -24t-24 -66h-133zM709 -20q-317 0 -466 183
t-149 554q0 376 148 556.5t467 180.5q320 0 468 -180t148 -557q0 -372 -148.5 -554.5t-467.5 -182.5zM709 205q188 0 264 119.5t76 392.5q0 278 -77.5 396t-262.5 118q-186 0 -262 -121t-76 -393q0 -279 77 -395.5t261 -116.5z" />
    <glyph glyph-name="uni1E4D" unicode="&#x1e4d;" horiz-adv-x="1157" 
d="M430 1468l193 306h297l-279 -306h-211zM219 1145q0 118 53.5 185t147.5 67q51 0 112 -23l95 -37q47 -18 86 -18q41 0 64.5 22.5t23.5 63.5h139q0 -117 -55 -183.5t-150 -66.5q-56 0 -112 23l-99 39q-44 18 -82 18q-42 0 -66 -24t-24 -66h-133zM578 -20q-267 0 -388.5 131
t-121.5 401q0 271 121 401.5t389 130.5q270 0 391 -130t121 -402q0 -270 -121.5 -401t-390.5 -131zM578 170q136 0 193.5 82t57.5 260q0 183 -57.5 262.5t-193.5 79.5q-135 0 -192.5 -82t-57.5 -260q0 -181 58 -261.5t192 -80.5z" />
    <glyph glyph-name="uni1E50" unicode="&#x1e50;" horiz-adv-x="1419" 
d="M862 1864h-211l-276 305h297zM436 1577v160h545v-160h-545zM709 -20q-317 0 -466 183t-149 554q0 376 148 556.5t467 180.5q320 0 468 -180t148 -557q0 -372 -148.5 -554.5t-467.5 -182.5zM709 205q188 0 264 119.5t76 392.5q0 278 -77.5 396t-262.5 118
q-186 0 -262 -121t-76 -393q0 -279 77 -395.5t261 -116.5z" />
    <glyph glyph-name="uni1E51" unicode="&#x1e51;" horiz-adv-x="1157" 
d="M733 1460h-211l-276 305h297zM307 1174v159h545v-159h-545zM578 -20q-267 0 -388.5 131t-121.5 401q0 271 121 401.5t389 130.5q270 0 391 -130t121 -402q0 -270 -121.5 -401t-390.5 -131zM578 170q136 0 193.5 82t57.5 260q0 183 -57.5 262.5t-193.5 79.5
q-135 0 -192.5 -82t-57.5 -260q0 -181 58 -261.5t192 -80.5z" />
    <glyph glyph-name="uni1E52" unicode="&#x1e52;" horiz-adv-x="1419" 
d="M563 1864l193 305h297l-277 -305h-213zM436 1577v160h545v-160h-545zM709 -20q-317 0 -466 183t-149 554q0 376 148 556.5t467 180.5q320 0 468 -180t148 -557q0 -372 -148.5 -554.5t-467.5 -182.5zM709 205q188 0 264 119.5t76 392.5q0 278 -77.5 396t-262.5 118
q-186 0 -262 -121t-76 -393q0 -279 77 -395.5t261 -116.5z" />
    <glyph glyph-name="uni1E53" unicode="&#x1e53;" horiz-adv-x="1157" 
d="M434 1460l193 305h297l-277 -305h-213zM307 1174v159h545v-159h-545zM578 -20q-267 0 -388.5 131t-121.5 401q0 271 121 401.5t389 130.5q270 0 391 -130t121 -402q0 -270 -121.5 -401t-390.5 -131zM578 170q136 0 193.5 82t57.5 260q0 183 -57.5 262.5t-193.5 79.5
q-135 0 -192.5 -82t-57.5 -260q0 -181 58 -261.5t192 -80.5z" />
    <glyph glyph-name="uni1E62" unicode="&#x1e62;" horiz-adv-x="1253" 
d="M623 -20q-263 0 -410.5 109.5t-151.5 328.5h287q0 -219 277 -219q272 0 272 221q0 96 -51.5 142t-147.5 56l-178 19q-97 11 -171.5 37.5t-131.5 73.5t-87 120.5t-30 171.5q0 109 38 189.5t109 129t166.5 72t217.5 23.5q253 0 386 -97t134 -292h-274q0 180 -242 180
q-254 0 -254 -201q0 -82 48 -121.5t146 -50.5l193 -20q410 -47 410 -422q0 -229 -147.5 -339.5t-407.5 -110.5zM506 -367v228h235v-228h-235z" />
    <glyph glyph-name="uni1E63" unicode="&#x1e63;" horiz-adv-x="1048" 
d="M528 -20q-243 0 -354.5 85t-116.5 244h258q0 -81 58.5 -119t156.5 -38q103 0 155 40t52 111q0 120 -149 133l-146 17q-168 16 -258 84.5t-90 205.5q0 160 112 230.5t320 70.5q118 0 202.5 -20.5t135.5 -60.5t74.5 -94t24.5 -126h-244q0 136 -187 136q-89 0 -137.5 -32.5
t-48.5 -94.5q0 -108 146 -123l155 -17q76 -7 134 -25t107 -51.5t75 -90.5t26 -136q0 -329 -461 -329zM416 -367v228h235v-228h-235z" />
    <glyph glyph-name="uni1E6C" unicode="&#x1e6c;" horiz-adv-x="1236" 
d="M1190 1434v-220h-434v-1214h-273v1214h-436v220h1143zM500 -367v228h235v-228h-235z" />
    <glyph glyph-name="uni1E6D" unicode="&#x1e6d;" horiz-adv-x="774" 
d="M705 834h-226v-519q0 -73 30 -103t107 -30q43 0 84 4v-196q-73 -8 -147 -8q-87 0 -145.5 13.5t-103 49t-65 100.5t-20.5 164v525h-176v190h176v289h260v-289h226v-190zM393 -367v228h236v-228h-236z" />
    <glyph glyph-name="uni1E6E" unicode="&#x1e6e;" horiz-adv-x="1236" 
d="M1190 1434v-220h-434v-1214h-273v1214h-436v220h1143zM319 -348v160h601v-160h-601z" />
    <glyph glyph-name="uni1E6F" unicode="&#x1e6f;" horiz-adv-x="774" 
d="M219 309v525h-176v190h176v289h260v-289h226v-190h-226v-519q0 -73 30 -103t107 -30q43 0 84 4v-196q-73 -8 -147 -8q-87 0 -145.5 13.5t-103 49t-65 100.5t-20.5 164zM213 -188h600v-160h-600v160z" />
    <glyph glyph-name="uni1E70" unicode="&#x1e70;" horiz-adv-x="1236" 
d="M1190 1434v-220h-434v-1214h-273v1214h-436v220h1143zM719 -84l244 -305h-218l-127 174l-129 -174h-217l244 305h203z" />
    <glyph glyph-name="uni1E71" unicode="&#x1e71;" horiz-adv-x="774" 
d="M219 309v525h-176v190h176v289h260v-289h226v-190h-226v-519q0 -73 30 -103t107 -30q43 0 84 4v-196q-73 -8 -147 -8q-87 0 -145.5 13.5t-103 49t-65 100.5t-20.5 164zM858 -389h-217l-127 174l-129 -174h-217l244 305h202z" />
    <glyph glyph-name="Wgrave" unicode="&#x1e80;" horiz-adv-x="1990" 
d="M1098 1559h-213l-277 307h297zM1657 1434h282l-403 -1434h-276l-265 1120l-264 -1120h-276l-404 1434h283l262 -1112l268 1112h262l269 -1115z" />
    <glyph glyph-name="wgrave" unicode="&#x1e81;" horiz-adv-x="1720" 
d="M961 1149h-213l-277 307h297zM1407 1024h270l-334 -1024h-278l-207 764l-213 -764h-280l-322 1024h270l211 -784l203 784h258l203 -784z" />
    <glyph glyph-name="Wacute" unicode="&#x1e82;" horiz-adv-x="1990" 
d="M1364 1872l-279 -307h-211l191 307h299zM1657 1434h282l-403 -1434h-276l-265 1120l-264 -1120h-276l-404 1434h283l262 -1112l268 1112h262l269 -1115z" />
    <glyph glyph-name="wacute" unicode="&#x1e83;" horiz-adv-x="1720" 
d="M1225 1462l-279 -307h-211l191 307h299zM1407 1024h270l-334 -1024h-278l-207 764l-213 -764h-280l-322 1024h270l211 -784l203 784h258l203 -784z" />
    <glyph glyph-name="Wdieresis" unicode="&#x1e84;" horiz-adv-x="1990" 
d="M909 1774v-220h-225v220h225zM1311 1774v-220h-228v220h228zM1657 1434h282l-403 -1434h-276l-265 1120l-264 -1120h-276l-404 1434h283l262 -1112l268 1112h262l269 -1115z" />
    <glyph glyph-name="wdieresis" unicode="&#x1e85;" horiz-adv-x="1720" 
d="M772 1364v-219h-225v219h225zM1174 1364v-219h-228v219h228zM1407 1024h270l-334 -1024h-278l-207 764l-213 -764h-280l-322 1024h270l211 -784l203 784h258l203 -784z" />
    <glyph glyph-name="uni1E92" unicode="&#x1e92;" horiz-adv-x="1187" 
d="M360 217h770v-217h-1079v217l760 1000h-715v217h1016v-217zM492 -367v228h235v-228h-235z" />
    <glyph glyph-name="uni1E93" unicode="&#x1e93;" horiz-adv-x="1011" 
d="M387 197h569v-197h-909v197l574 630h-539v197h862v-197zM383 -367v228h235v-228h-235z" />
    <glyph glyph-name="uni1E9E" unicode="&#x1e9e;" horiz-adv-x="1296" 
d="M874 809q84 -13 146.5 -40t100.5 -62t61.5 -82.5t32 -94.5t8.5 -104q0 -446 -559 -446q-74 0 -152 10v211q66 -8 131 -8q161 0 230 64.5t69 188.5q0 126 -73 183.5t-246 60.5v139l231 291q-57 90 -213 90h-227v-1210h-271v1434h504q226 0 348 -88.5t133 -225.5z" />
    <glyph glyph-name="uni1EA1" unicode="&#x1ea1;" horiz-adv-x="1120" 
d="M567 1044q125 0 214 -24.5t139.5 -72t73 -109t22.5 -142.5v-696h-250v141q-111 -161 -348 -161q-168 0 -262.5 85t-94.5 238q0 86 30 150t83 100t116 53t138 17h328v88q0 83 -49.5 120t-147.5 37q-96 0 -148.5 -36.5t-52.5 -108.5h-243q0 321 452 321zM504 162
q107 0 179.5 65t72.5 183v65h-234q-89 0 -141.5 -39t-52.5 -119t49 -117.5t127 -37.5zM414 -367v228h235v-228h-235z" />
    <glyph glyph-name="uni1EAC" unicode="&#x1eac;" horiz-adv-x="1429" 
d="M715 1735l-129 -174h-217l243 305h203l244 -305h-217zM1376 0h-282l-99 301h-561l-98 -301h-283l516 1434h289zM502 506h426l-213 649zM598 -367v228h236v-228h-236z" />
    <glyph glyph-name="uni1EAD" unicode="&#x1ead;" horiz-adv-x="1120" 
d="M571 1325l-129 -174h-217l244 305h203l243 -305h-217zM567 1044q125 0 214 -24.5t139.5 -72t73 -109t22.5 -142.5v-696h-250v141q-111 -161 -348 -161q-168 0 -262.5 85t-94.5 238q0 86 30 150t83 100t116 53t138 17h328v88q0 83 -49.5 120t-147.5 37q-96 0 -148.5 -36.5
t-52.5 -108.5h-243q0 321 452 321zM504 162q107 0 179.5 65t72.5 183v65h-234q-89 0 -141.5 -39t-52.5 -119t49 -117.5t127 -37.5zM414 -367v228h235v-228h-235z" />
    <glyph glyph-name="uni1EB8" unicode="&#x1eb8;" horiz-adv-x="1198" 
d="M422 219h708v-219h-978v1434h954v-220h-684v-362h657v-219h-657v-414zM535 -367v228h235v-228h-235z" />
    <glyph glyph-name="uni1EB9" unicode="&#x1eb9;" horiz-adv-x="1118" 
d="M328 446q8 -151 66 -217.5t186 -66.5q99 0 149 38t53 105h258q-3 -153 -126 -239t-345 -86q-138 0 -236 35t-155.5 105t-83.5 165.5t-26 224.5q0 267 121 400.5t384 133.5q255 0 371.5 -132.5t116.5 -397.5q0 -14 -1 -36.5t-1 -31.5h-731zM571 860q-117 0 -174 -61.5
t-67 -204.5h467q-10 143 -63.5 204.5t-162.5 61.5zM467 -367v228h235v-228h-235z" />
    <glyph glyph-name="uni1EBC" unicode="&#x1ebc;" horiz-adv-x="1198" 
d="M487 1638q-42 0 -66 -24t-24 -66h-133q0 118 53.5 185t147.5 67q55 0 113 -22l94 -37q49 -19 86 -19q41 0 64.5 22.5t23.5 63.5h139q0 -117 -54.5 -183t-150.5 -66q-58 0 -112 22l-99 39q-44 18 -82 18zM422 219h708v-219h-978v1434h954v-220h-684v-362h657v-219h-657
v-414z" />
    <glyph glyph-name="uni1EBD" unicode="&#x1ebd;" horiz-adv-x="1118" 
d="M434 1229q-42 0 -66 -24t-24 -66h-133q0 118 53.5 185t147.5 67q51 0 112 -23l94 -37q47 -18 87 -18q41 0 64.5 22.5t23.5 63.5h139q0 -117 -55 -183.5t-150 -66.5q-59 0 -113 22l-98 39q-46 19 -82 19zM328 446q8 -151 66 -217.5t186 -66.5q99 0 149 38t53 105h258
q-3 -153 -126 -239t-345 -86q-138 0 -236 35t-155.5 105t-83.5 165.5t-26 224.5q0 267 121 400.5t384 133.5q255 0 371.5 -132.5t116.5 -397.5q0 -14 -1 -36.5t-1 -31.5h-731zM571 860q-117 0 -174 -61.5t-67 -204.5h467q-10 143 -63.5 204.5t-162.5 61.5z" />
    <glyph glyph-name="uni1EC6" unicode="&#x1ec6;" horiz-adv-x="1198" 
d="M627 1735l-129 -174h-217l243 305h203l244 -305h-217zM422 219h708v-219h-978v1434h954v-220h-684v-362h657v-219h-657v-414zM535 -367v228h235v-228h-235z" />
    <glyph glyph-name="uni1EC7" unicode="&#x1ec7;" horiz-adv-x="1118" 
d="M571 1325l-129 -174h-217l244 305h203l243 -305h-217zM328 446q8 -151 66 -217.5t186 -66.5q99 0 149 38t53 105h258q-3 -153 -126 -239t-345 -86q-138 0 -236 35t-155.5 105t-83.5 165.5t-26 224.5q0 267 121 400.5t384 133.5q255 0 371.5 -132.5t116.5 -397.5
q0 -14 -1 -36.5t-1 -31.5h-731zM571 860q-117 0 -174 -61.5t-67 -204.5h467q-10 143 -63.5 204.5t-162.5 61.5zM467 -367v228h235v-228h-235z" />
    <glyph glyph-name="uni1ECA" unicode="&#x1eca;" horiz-adv-x="555" 
d="M143 0v1434h271v-1434h-271zM160 -367v228h235v-228h-235z" />
    <glyph glyph-name="uni1ECB" unicode="&#x1ecb;" horiz-adv-x="497" 
d="M117 1135v249h264v-249h-264zM119 0v1024h260v-1024h-260zM129 -367v228h236v-228h-236z" />
    <glyph glyph-name="uni1ECC" unicode="&#x1ecc;" horiz-adv-x="1419" 
d="M709 -20q-317 0 -466 183t-149 554q0 376 148 556.5t467 180.5q320 0 468 -180t148 -557q0 -372 -148.5 -554.5t-467.5 -182.5zM709 205q188 0 264 119.5t76 392.5q0 278 -77.5 396t-262.5 118q-186 0 -262 -121t-76 -393q0 -279 77 -395.5t261 -116.5zM590 -367v228h235
v-228h-235z" />
    <glyph glyph-name="uni1ECD" unicode="&#x1ecd;" horiz-adv-x="1157" 
d="M578 -20q-267 0 -388.5 131t-121.5 401q0 271 121 401.5t389 130.5q270 0 391 -130t121 -402q0 -270 -121.5 -401t-390.5 -131zM578 170q136 0 193.5 82t57.5 260q0 183 -57.5 262.5t-193.5 79.5q-135 0 -192.5 -82t-57.5 -260q0 -181 58 -261.5t192 -80.5zM461 -367v228
h235v-228h-235z" />
    <glyph glyph-name="uni1ED8" unicode="&#x1ed8;" horiz-adv-x="1419" 
d="M711 1735l-129 -174h-217l243 305h203l244 -305h-217zM709 1454q320 0 468 -180t148 -557q0 -372 -148.5 -554.5t-467.5 -182.5q-317 0 -466 183t-149 554q0 376 148 556.5t467 180.5zM709 205q188 0 264 119.5t76 392.5q0 278 -77.5 396t-262.5 118q-186 0 -262 -121
t-76 -393q0 -279 77 -395.5t261 -116.5zM590 -367v228h235v-228h-235z" />
    <glyph glyph-name="uni1ED9" unicode="&#x1ed9;" horiz-adv-x="1157" 
d="M582 1331l-129 -174h-217l243 305h203l244 -305h-217zM578 1044q270 0 391 -130t121 -402q0 -270 -121.5 -401t-390.5 -131q-267 0 -388.5 131t-121.5 401q0 271 121 401.5t389 130.5zM578 170q136 0 193.5 82t57.5 260q0 183 -57.5 262.5t-193.5 79.5q-135 0 -192.5 -82
t-57.5 -260q0 -181 58 -261.5t192 -80.5zM461 -367v228h235v-228h-235z" />
    <glyph glyph-name="uni1EE4" unicode="&#x1ee4;" horiz-adv-x="1376" 
d="M696 -20q-162 0 -274 40.5t-175.5 121t-90.5 187t-27 253.5v852h270v-852q0 -108 19.5 -182.5t59 -117t92.5 -61t126 -18.5q161 0 226 93.5t65 285.5v852h270v-852q0 -138 -26 -242t-72.5 -172t-117.5 -110.5t-154.5 -60t-190.5 -17.5zM573 -367v228h236v-228h-236z" />
    <glyph glyph-name="uni1EE5" unicode="&#x1ee5;" horiz-adv-x="1163" 
d="M791 1024h258v-1024h-248v137q-53 -75 -138.5 -116t-193.5 -41q-193 0 -280 101t-87 296v647h258v-635q0 -120 51 -167.5t140 -47.5q100 0 170 59.5t70 163.5v627zM483 -367v228h236v-228h-236z" />
    <glyph glyph-name="Ygrave" unicode="&#x1ef2;" horiz-adv-x="1384" 
d="M795 1559h-213l-277 307h297zM1333 1434l-510 -881v-553h-270v553l-502 881h305l332 -654l340 654h305z" />
    <glyph glyph-name="ygrave" unicode="&#x1ef3;" horiz-adv-x="1116" 
d="M666 1149h-213l-277 307h297zM819 1024h271l-543 -1434h-238l148 410h-39l-391 1024h272l256 -745z" />
    <glyph glyph-name="endash" unicode="&#x2013;" horiz-adv-x="1277" 
d="M164 487v205h950v-205h-950z" />
    <glyph glyph-name="emdash" unicode="&#x2014;" horiz-adv-x="1912" 
d="M164 487v205h1585v-205h-1585z" />
    <glyph glyph-name="quoteleft" unicode="&#x2018;" horiz-adv-x="608" 
d="M492 1618l-138 -365h97v-319h-291v319l176 365h156z" />
    <glyph glyph-name="quoteright" unicode="&#x2019;" horiz-adv-x="608" 
d="M158 1606h291v-320l-177 -364h-155l135 364h-94v320z" />
    <glyph glyph-name="quotesinglbase" unicode="&#x201a;" horiz-adv-x="608" 
d="M158 319h291v-319l-177 -365h-155l135 365h-94v319z" />
    <glyph glyph-name="quotedblleft" unicode="&#x201c;" horiz-adv-x="1083" 
d="M336 1618h156l-138 -365h97v-319h-291v319zM969 1618l-138 -365h95v-319h-289v319l174 365h158z" />
    <glyph glyph-name="quotedblright" unicode="&#x201d;" horiz-adv-x="1083" 
d="M158 1286v320h291v-320l-177 -364h-155l135 364h-94zM635 1606h289v-320l-176 -364h-156l135 364h-92v320z" />
    <glyph glyph-name="quotedblbase" unicode="&#x201e;" horiz-adv-x="1083" 
d="M158 0v319h291v-319l-177 -365h-155l135 365h-94zM635 319h289v-319l-176 -365h-156l135 365h-92v319z" />
    <glyph glyph-name="dagger" unicode="&#x2020;" horiz-adv-x="1202" 
d="M1081 1020v-203h-362v-1155h-236v1155h-362v203h362v448h236v-448h362z" />
    <glyph glyph-name="daggerdbl" unicode="&#x2021;" horiz-adv-x="1259" 
d="M1110 817h-362v-504h362v-200h-362v-451h-236v451h-362v200h362v504h-362v203h362v448h236v-448h362v-203z" />
    <glyph glyph-name="bullet" unicode="&#x2022;" horiz-adv-x="950" 
d="M475 315q-147 0 -218 78t-71 211q0 147 79 218t212 71q146 0 216.5 -77.5t70.5 -213.5q0 -147 -78 -217t-211 -70z" />
    <glyph glyph-name="ellipsis" unicode="&#x2026;" horiz-adv-x="2101" 
d="M205 0v319h289v-319h-289zM905 0v319h289v-319h-289zM1606 0v319h288v-319h-288z" />
    <glyph glyph-name="perthousand" unicode="&#x2030;" horiz-adv-x="2566" 
d="M438 -35l772 1503h179l-771 -1503h-180zM453 639q-165 0 -231 93.5t-66 309.5q0 222 68 313t231 91q165 0 231 -94t66 -310q0 -220 -68.5 -311.5t-230.5 -91.5zM453 786q71 0 98 54t27 202t-27 203t-98 55q-70 0 -96.5 -55t-26.5 -203q0 -147 26.5 -201.5t96.5 -54.5z
M1384 -14q-165 0 -231 93.5t-66 309.5q0 221 67 312.5t230 91.5q165 0 231 -94t66 -310q0 -221 -67.5 -312t-229.5 -91zM2109 -14q-166 0 -232.5 94t-66.5 309q0 221 68 312.5t231 91.5q165 0 231 -94t66 -310q0 -221 -67.5 -312t-229.5 -91zM1384 133q71 0 97 53.5
t26 202.5t-26 202.5t-97 53.5t-96.5 -53.5t-25.5 -202.5t25.5 -202.5t96.5 -53.5zM2109 133q71 0 97 53.5t26 202.5t-26 202.5t-97 53.5t-96.5 -53.5t-25.5 -202.5t25.5 -202.5t96.5 -53.5z" />
    <glyph glyph-name="guilsinglleft" unicode="&#x2039;" horiz-adv-x="735" 
d="M608 999v-208l-360 -277l360 -276v-207l-502 381v204z" />
    <glyph glyph-name="guilsinglright" unicode="&#x203a;" horiz-adv-x="735" 
d="M127 999l500 -383v-204l-500 -381v207l360 276l-360 277v208z" />
    <glyph glyph-name="fraction" unicode="&#x2044;" horiz-adv-x="305" 
d="M-348 -35l827 1503h172l-827 -1503h-172z" />
    <glyph glyph-name="Euro" unicode="&#x20ac;" horiz-adv-x="1640" 
d="M899 215q287 0 293 250h268q-3 -238 -151 -360.5t-414 -122.5q-261 0 -403 126.5t-181 383.5h-147v151h133q-2 25 -2 76v61h-131v152h143q37 263 180.5 391.5t411.5 128.5q269 0 415 -121.5t146 -363.5h-268q0 131 -71.5 192.5t-213.5 61.5q-146 0 -222 -68.5
t-101 -220.5h434v-152h-449v-63q0 -51 2 -74h447v-151h-432q25 -146 98.5 -211.5t214.5 -65.5z" />
    <glyph glyph-name="uni20B9" unicode="&#x20b9;" 
d="M1157 1251h-219q45 -62 57 -155h162v-183h-166q-37 -189 -227 -251q65 -24 103 -78t75 -164l139 -420h-284l-127 422q-27 90 -73.5 119.5t-150.5 29.5h-299v209h347q182 0 231 133h-578v183h582q-39 135 -235 135h-347v203h1010v-183z" />
    <glyph glyph-name="uni20BA" unicode="&#x20ba;" 
d="M932 483h252q-3 -238 -145.5 -360.5t-401.5 -122.5h-471v371l-141 -74v211l141 74v139l-141 -74v211l141 74v502h272v-363l439 227v-211l-439 -227v-139l439 227v-211l-439 -227v-291h199q146 0 218.5 64.5t76.5 199.5z" />
    <glyph glyph-name="uni20BD" unicode="&#x20bd;" horiz-adv-x="1282" 
d="M709 573h-252v-182h374v-207h-374v-184h-271v184h-151v207h151v182h-149v215h149v646h523q254 0 377.5 -103.5t123.5 -324.5q0 -123 -36.5 -209t-106 -134t-156.5 -69t-202 -21zM457 1219v-431h245q250 0 250 220q0 115 -66 163t-184 48h-245z" />
    <glyph glyph-name="trademark" unicode="&#x2122;" horiz-adv-x="1792" 
d="M709 1434v-111h-220v-614h-137v614h-219v111h576zM1546 1434v-725h-135v553l-178 -553h-123l-180 559v-559h-135v725h202l174 -568l175 568h200z" />
    <glyph glyph-name="uni2153" unicode="&#x2153;" horiz-adv-x="1605" 
d="M1057 1468h172l-830 -1503h-170zM242 598v659l-193 -118v145l184 150h195v-836h-186zM1450 442q60 -28 84.5 -78.5t24.5 -127.5q0 -246 -316 -246q-79 0 -137.5 15t-91.5 38t-52.5 58t-25.5 67t-6 72h172q0 -59 33 -83t108 -24q80 0 110.5 30t30.5 93q0 67 -31.5 91
t-109.5 24h-82v139h82q72 0 98.5 21t26.5 77q0 52 -30 76.5t-95 24.5q-67 0 -94 -22t-29 -71h-180q1 37 7 66t26 60t52 52t88 34.5t132 13.5q301 0 301 -224q0 -66 -21.5 -109t-74.5 -67z" />
    <glyph glyph-name="uni2154" unicode="&#x2154;" horiz-adv-x="1755" 
d="M1219 1468h174l-830 -1503h-170zM659 743v-145h-610v225q0 117 57.5 173t165.5 75l105 19q56 13 77 36.5t21 65.5q0 62 -25.5 87.5t-84.5 25.5q-62 0 -88.5 -28t-26.5 -89h-184q0 135 79 193.5t222 58.5q292 0 292 -254q0 -107 -56.5 -165t-172.5 -77l-96 -18
q-55 -13 -78 -40t-23 -73v-70h426zM1599 442q59 -28 83 -78.5t24 -127.5q0 -122 -76 -184t-237 -62q-80 0 -138.5 15t-91.5 38t-52.5 58t-25.5 67t-6 72h172q0 -59 33.5 -83t108.5 -24q79 0 110 30t31 93q0 67 -31.5 91t-109.5 24h-84v139h84q70 0 96.5 21t26.5 77
q0 52 -29 76.5t-94 24.5q-67 0 -95 -22t-28 -71h-183q2 47 13.5 82.5t42 70.5t93.5 54t157 19q303 0 303 -224q0 -133 -97 -176z" />
    <glyph glyph-name="oneeighth" unicode="&#x215b;" horiz-adv-x="1607" 
d="M1057 1468h172l-830 -1503h-170zM242 598v659l-193 -118v145l184 150h195v-836h-186zM1423 440q138 -51 138 -207q0 -58 -14 -100t-48.5 -76t-98.5 -51.5t-157 -17.5q-158 0 -235.5 55.5t-77.5 189.5q0 156 135 205q-123 46 -123 183q0 221 301 221q90 0 152 -17t95 -49
t46.5 -69t13.5 -86q0 -135 -127 -181zM1245 713q-68 0 -99.5 -28.5t-31.5 -76.5q0 -102 131 -102q133 0 133 102q0 105 -133 105zM1245 123q82 0 116 33t34 94q0 64 -36.5 94.5t-113.5 30.5q-81 0 -114 -31.5t-33 -93.5q0 -65 35.5 -96t111.5 -31z" />
    <glyph glyph-name="threeeighths" unicode="&#x215c;" horiz-adv-x="1757" 
d="M1204 1468h172l-827 -1503h-172zM676 834q0 -122 -76 -184t-238 -62q-67 0 -119 10t-85 29t-55.5 41t-34 52.5t-15.5 57.5t-4 60h172q0 -59 33 -83t108 -24q79 0 110.5 30t31.5 93q0 67 -32 91t-110 24h-83v139h83q70 0 96.5 21t26.5 77q0 52 -29 76.5t-94 24.5
q-67 0 -94.5 -22t-27.5 -71h-183q1 37 7.5 66t26 60.5t51.5 52t88 34t132 13.5q304 0 304 -223q0 -134 -97 -177q59 -28 83 -78.5t24 -127.5zM1573 440q135 -51 135 -207q0 -58 -14 -100t-48 -76t-97 -51.5t-156 -17.5q-158 0 -236 55.5t-78 189.5q0 153 135 205
q-124 45 -124 183q0 221 303 221q90 0 152 -17t94 -49t45.5 -69t13.5 -86q0 -135 -125 -181zM1395 713q-68 0 -100.5 -28.5t-32.5 -76.5q0 -102 133 -102t133 102q0 105 -133 105zM1395 123q80 0 114.5 33t34.5 94q0 64 -36 94.5t-113 30.5q-81 0 -114.5 -31.5t-33.5 -93.5
q0 -65 36 -96t112 -31z" />
    <glyph glyph-name="fiveeighths" unicode="&#x215d;" horiz-adv-x="1757" 
d="M1204 1468h172l-827 -1503h-172zM676 889q0 -90 -21 -150.5t-64.5 -93.5t-97.5 -46t-131 -13q-92 0 -154.5 16.5t-96.5 50t-48 76t-14 102.5h168q0 -57 33.5 -80.5t107.5 -23.5q84 0 118 34.5t34 115.5q0 86 -33.5 119.5t-107.5 33.5q-131 0 -131 -92h-175v496h562v-142
h-387v-176q65 47 180 47q142 0 200 -70t58 -204zM1573 440q135 -51 135 -207q0 -58 -14 -100t-48 -76t-97 -51.5t-156 -17.5q-158 0 -236 55.5t-78 189.5q0 153 135 205q-124 45 -124 183q0 221 303 221q90 0 152 -17t94 -49t45.5 -69t13.5 -86q0 -135 -125 -181zM1395 713
q-68 0 -100.5 -28.5t-32.5 -76.5q0 -102 133 -102t133 102q0 105 -133 105zM1395 123q80 0 114.5 33t34.5 94q0 64 -36 94.5t-113 30.5q-81 0 -114.5 -31.5t-33.5 -93.5q0 -65 36 -96t112 -31z" />
    <glyph glyph-name="seveneighths" unicode="&#x215e;" horiz-adv-x="1611" 
d="M1061 1468h172l-830 -1503h-170zM303 598h-184l309 690h-379v144h557v-144zM1427 440q138 -51 138 -207q0 -58 -14.5 -100t-49 -76t-98 -51.5t-156.5 -17.5q-158 0 -235.5 55.5t-77.5 189.5q0 156 135 205q-123 46 -123 183q0 221 301 221q90 0 152 -17t95 -49t46.5 -69
t13.5 -86q0 -135 -127 -181zM1249 713q-68 0 -99.5 -28.5t-31.5 -76.5q0 -102 131 -102q133 0 133 102q0 105 -133 105zM1249 123q82 0 116 33t34 94q0 64 -36.5 94.5t-113.5 30.5q-81 0 -114 -31.5t-33 -93.5q0 -65 35.5 -96t111.5 -31z" />
    <glyph glyph-name="minus" unicode="&#x2212;" 
d="M98 414v217h1032v-217h-1032z" />
    <glyph glyph-name="approxequal" unicode="&#x2248;" 
d="M94 594q0 146 70 226.5t198 80.5q64 0 160 -27l232 -75q65 -19 112 -19q66 0 103 32.5t37 92.5h124q0 -143 -70 -224t-194 -81q-61 0 -147 27l-232 73q-84 25 -125 25q-67 0 -105 -34.5t-38 -96.5h-125zM94 178q0 146 70 226.5t198 80.5q67 0 160 -26l232 -76
q61 -18 112 -18q66 0 103 32t37 92h124q0 -143 -70 -223t-194 -80q-67 0 -147 25l-232 74q-70 24 -125 24q-68 0 -105.5 -34t-37.5 -97h-125z" />
    <glyph glyph-name="notequal" unicode="&#x2260;" 
d="M1130 627h-362l-109 -234h471v-219h-575l-121 -258h-203l123 258h-256v219h359l110 234h-469v219h574l125 266h200l-125 -266h258v-219z" />
    <glyph glyph-name="lessequal" unicode="&#x2264;" 
d="M1069 498v-211l-909 327v213l909 328v-209l-668 -223zM156 190h915v-190h-915v190z" />
    <glyph glyph-name="greaterequal" unicode="&#x2265;" 
d="M160 1169l911 -325v-215l-911 -328v211l669 225l-669 224v208zM528 0v190h174v-190h-174z" />
    <glyph glyph-name="fi" unicode="&#xfb01;" horiz-adv-x="1280" 
d="M1161 1024v-1024h-260v834h-424v-834h-260v834h-164v190h164v106q0 176 95.5 250t275.5 74q76 0 141 -8v-186q-47 8 -94 8q-87 0 -122.5 -37t-35.5 -111v-96h684zM899 1384h264v-249h-264v249z" />
    <glyph glyph-name="fl" unicode="&#xfb02;" horiz-adv-x="1284" 
d="M217 1130q0 176 95.5 250t275.5 74q76 0 141 -8v-186q-47 8 -94 8q-87 0 -122.5 -37t-35.5 -111v-96h213v-190h-213v-834h-260v834h-164v190h164v106zM901 1434h260v-1434h-260v1434z" />
    <glyph glyph-name="Iacute_J.loclNLD" horiz-adv-x="1695" 
d="M182 1565l193 307h297l-277 -307h-213zM1327 1565l193 307h297l-277 -307h-213zM143 0v1434h271v-1434h-271zM1092 -20q-114 0 -199.5 19.5t-139.5 54t-86.5 87t-45.5 112.5t-13 138h273q0 -102 49.5 -145t154.5 -43q115 0 160 51t45 176v1004h273v-1004
q0 -106 -23 -185.5t-63 -129.5t-100.5 -80.5t-129 -42.5t-155.5 -12z" />
    <glyph glyph-name="R.ss01" horiz-adv-x="1312" 
d="M956 0l-294 600h-248v-600h-271v1434h521q254 0 378.5 -103t124.5 -315q0 -301 -249 -381l339 -635h-301zM414 1217v-402h245q248 0 248 203q0 199 -248 199h-245z" />
    <glyph glyph-name="Racute.ss01" horiz-adv-x="1312" 
d="M983 1872l-278 -307h-211l190 307h299zM956 0l-294 600h-248v-600h-271v1434h521q254 0 378.5 -103t124.5 -315q0 -301 -249 -381l339 -635h-301zM414 1217v-402h245q248 0 248 203q0 199 -248 199h-245z" />
    <glyph glyph-name="Rcaron.ss01" horiz-adv-x="1312" 
d="M514 1567l-244 307h217l129 -174l127 174h218l-244 -307h-203zM956 0l-294 600h-248v-600h-271v1434h521q254 0 378.5 -103t124.5 -315q0 -301 -249 -381l339 -635h-301zM414 1217v-402h245q248 0 248 203q0 199 -248 199h-245z" />
    <glyph glyph-name="uni0156.ss01" horiz-adv-x="1312" 
d="M918 635l339 -635h-301l-294 600h-248v-600h-271v1434h521q254 0 378.5 -103t124.5 -315q0 -301 -249 -381zM414 1217v-402h245q248 0 248 203q0 199 -248 199h-245zM565 -279v199h217v-199l-110 -210h-117l80 210h-70z" />
    <glyph glyph-name="i.loclTRK" horiz-adv-x="497" 
d="M131 1139v227h236v-227h-236zM119 0v1024h260v-1024h-260z" />
    <glyph glyph-name="i.locl.TRK" horiz-adv-x="536" 
d="M156 1135v249h264v-249h-264zM158 0v1024h260v-1024h-260z" />
    <glyph glyph-name="iacute_j.loclNLD" horiz-adv-x="1003" 
d="M127 1155l190 307h299l-278 -307h-211zM641 1155l190 307h299l-278 -307h-211zM119 0v1024h260v-1024h-260zM412 -410v201q101 0 155 43q58 51 58 137v1053h260v-1053q0 -210 -146 -307q-58 -38 -149 -56t-178 -18z" />
    <glyph glyph-name="a.ss02" horiz-adv-x="1171" 
d="M807 1024h250v-1024h-248v143q-115 -161 -344 -161q-200 0 -298.5 129t-98.5 395q0 536 421 536q216 0 318 -135v117zM555 172q106 0 174 62t68 165v230q0 100 -68 162.5t-172 62.5q-118 0 -174.5 -80.5t-56.5 -265.5q0 -180 54.5 -258t174.5 -78z" />
    <glyph glyph-name="aacute.ss02" horiz-adv-x="1171" 
d="M940 1462l-278 -307h-211l190 307h299zM807 1024h250v-1024h-248v143q-115 -161 -344 -161q-200 0 -298.5 129t-98.5 395q0 536 421 536q216 0 318 -135v117zM555 172q106 0 174 62t68 165v230q0 100 -68 162.5t-172 62.5q-118 0 -174.5 -80.5t-56.5 -265.5
q0 -180 54.5 -258t174.5 -78z" />
    <glyph glyph-name="abreve.ss02" horiz-adv-x="1171" 
d="M571 1141q-95 0 -160 20t-101.5 59t-52 90t-15.5 120h172q0 -78 38 -112t117 -34q86 0 123 37t37 109h170q0 -83 -24 -141t-69.5 -89.5t-102 -45t-132.5 -13.5zM807 1024h250v-1024h-248v143q-115 -161 -344 -161q-200 0 -298.5 129t-98.5 395q0 536 421 536
q216 0 318 -135v117zM555 172q106 0 174 62t68 165v230q0 100 -68 162.5t-172 62.5q-118 0 -174.5 -80.5t-56.5 -265.5q0 -180 54.5 -258t174.5 -78z" />
    <glyph glyph-name="uni01CE.ss02" horiz-adv-x="1171" 
d="M469 1157l-244 307h217l129 -174l127 174h217l-243 -307h-203zM807 1024h250v-1024h-248v143q-115 -161 -344 -161q-200 0 -298.5 129t-98.5 395q0 536 421 536q216 0 318 -135v117zM555 172q106 0 174 62t68 165v230q0 100 -68 162.5t-172 62.5q-118 0 -174.5 -80.5
t-56.5 -265.5q0 -180 54.5 -258t174.5 -78z" />
    <glyph glyph-name="acircumflex.ss02" horiz-adv-x="1171" 
d="M571 1325l-129 -174h-217l244 305h203l243 -305h-217zM807 1024h250v-1024h-248v143q-115 -161 -344 -161q-200 0 -298.5 129t-98.5 395q0 536 421 536q216 0 318 -135v117zM555 172q106 0 174 62t68 165v230q0 100 -68 162.5t-172 62.5q-118 0 -174.5 -80.5
t-56.5 -265.5q0 -180 54.5 -258t174.5 -78z" />
    <glyph glyph-name="uni1EAD.ss02" horiz-adv-x="1171" 
d="M571 1325l-129 -174h-217l244 305h203l243 -305h-217zM807 1024h250v-1024h-248v143q-115 -161 -344 -161q-200 0 -298.5 129t-98.5 395q0 536 421 536q216 0 318 -135v117zM555 172q106 0 174 62t68 165v230q0 100 -68 162.5t-172 62.5q-118 0 -174.5 -80.5
t-56.5 -265.5q0 -180 54.5 -258t174.5 -78zM475 -367v228h236v-228h-236z" />
    <glyph glyph-name="adieresis.ss02" horiz-adv-x="1171" 
d="M485 1364v-219h-225v219h225zM887 1364v-219h-228v219h228zM807 1024h250v-1024h-248v143q-115 -161 -344 -161q-200 0 -298.5 129t-98.5 395q0 536 421 536q216 0 318 -135v117zM555 172q106 0 174 62t68 165v230q0 100 -68 162.5t-172 62.5q-118 0 -174.5 -80.5
t-56.5 -265.5q0 -180 54.5 -258t174.5 -78z" />
    <glyph glyph-name="uni01DF.ss02" horiz-adv-x="1171" 
d="M846 1612v-160h-545v160h545zM485 1364v-219h-225v219h225zM659 1145v219h228v-219h-228zM807 1024h250v-1024h-248v143q-115 -161 -344 -161q-200 0 -298.5 129t-98.5 395q0 536 421 536q216 0 318 -135v117zM555 172q106 0 174 62t68 165v230q0 100 -68 162.5
t-172 62.5q-118 0 -174.5 -80.5t-56.5 -265.5q0 -180 54.5 -258t174.5 -78z" />
    <glyph glyph-name="uni1EA1.ss02" horiz-adv-x="1171" 
d="M807 1024h250v-1024h-248v143q-115 -161 -344 -161q-200 0 -298.5 129t-98.5 395q0 536 421 536q216 0 318 -135v117zM555 172q106 0 174 62t68 165v230q0 100 -68 162.5t-172 62.5q-118 0 -174.5 -80.5t-56.5 -265.5q0 -180 54.5 -258t174.5 -78zM475 -367v228h236v-228
h-236z" />
    <glyph glyph-name="agrave.ss02" horiz-adv-x="1171" 
d="M676 1149h-213l-277 307h297zM807 1024h250v-1024h-248v143q-115 -161 -344 -161q-200 0 -298.5 129t-98.5 395q0 536 421 536q216 0 318 -135v117zM555 172q106 0 174 62t68 165v230q0 100 -68 162.5t-172 62.5q-118 0 -174.5 -80.5t-56.5 -265.5q0 -180 54.5 -258
t174.5 -78z" />
    <glyph glyph-name="amacron.ss02" horiz-adv-x="1171" 
d="M844 1327v-160h-545v160h545zM807 1024h250v-1024h-248v143q-115 -161 -344 -161q-200 0 -298.5 129t-98.5 395q0 536 421 536q216 0 318 -135v117zM555 172q106 0 174 62t68 165v230q0 100 -68 162.5t-172 62.5q-118 0 -174.5 -80.5t-56.5 -265.5q0 -180 54.5 -258
t174.5 -78z" />
    <glyph glyph-name="aogonek.ss02" horiz-adv-x="1171" 
d="M993 -274q52 0 113 20v-135q-93 -37 -178 -37q-107 0 -170.5 52.5t-63.5 135.5q0 139 172 238h-57v143q-115 -161 -344 -161q-200 0 -298.5 129t-98.5 395q0 536 421 536q216 0 318 -135v117h250v-1024h-43q-142 -92 -142 -186q0 -41 32 -64.5t89 -23.5zM555 172
q106 0 174 62t68 165v230q0 100 -68 162.5t-172 62.5q-118 0 -174.5 -80.5t-56.5 -265.5q0 -180 54.5 -258t174.5 -78z" />
    <glyph glyph-name="aring.ss02" horiz-adv-x="1171" 
d="M573 1104q-215 0 -215 207q0 209 211 209q116 0 165.5 -54t49.5 -151q0 -211 -211 -211zM573 1411q-50 0 -72 -24t-22 -74q0 -54 22.5 -77.5t69.5 -23.5q50 0 72.5 24.5t22.5 76.5t-23.5 75t-69.5 23zM807 1024h250v-1024h-248v143q-115 -161 -344 -161
q-200 0 -298.5 129t-98.5 395q0 536 421 536q216 0 318 -135v117zM555 172q106 0 174 62t68 165v230q0 100 -68 162.5t-172 62.5q-118 0 -174.5 -80.5t-56.5 -265.5q0 -180 54.5 -258t174.5 -78z" />
    <glyph glyph-name="atilde.ss02" horiz-adv-x="1171" 
d="M434 1229q-42 0 -66 -24t-24 -66h-133q0 118 53.5 185t147.5 67q51 0 112 -23l94 -37q47 -18 87 -18q41 0 64.5 22.5t23.5 63.5h139q0 -117 -55 -183.5t-150 -66.5q-59 0 -113 22l-98 39q-46 19 -82 19zM807 1024h250v-1024h-248v143q-115 -161 -344 -161
q-200 0 -298.5 129t-98.5 395q0 536 421 536q216 0 318 -135v117zM555 172q106 0 174 62t68 165v230q0 100 -68 162.5t-172 62.5q-118 0 -174.5 -80.5t-56.5 -265.5q0 -180 54.5 -258t174.5 -78z" />
    <glyph glyph-name="ae.ss02" horiz-adv-x="1847" 
d="M1059 446q8 -151 65 -217.5t185 -66.5q99 0 149 37.5t55 103.5h256q-2 -150 -107 -235.5t-290 -85.5q-204 0 -315 127v-109h-250v139q-55 -76 -143.5 -116.5t-198.5 -40.5q-200 0 -298.5 128.5t-98.5 395.5q0 275 104.5 405.5t316.5 130.5q215 0 318 -143v125h250v-109
q108 127 303 127q230 0 331 -130.5t101 -395.5q0 -12 -4 -70h-729zM1298 860q-116 0 -171.5 -62t-65.5 -204h467q-11 141 -64.5 203.5t-165.5 62.5zM555 172q106 0 174 62t68 165v230q0 100 -68 162.5t-172 62.5q-119 0 -175 -80t-56 -266q0 -180 54.5 -258t174.5 -78z" />
    <glyph glyph-name="ae.ss03" horiz-adv-x="1755" 
d="M1239 162q98 0 145.5 35.5t47.5 99.5h256q0 -83 -34.5 -144.5t-97 -98.5t-143 -54.5t-178.5 -17.5q-282 0 -381 188q-54 -92 -157.5 -140t-245.5 -48q-188 0 -289 84t-101 231q0 78 30 137t82.5 93.5t116.5 51.5t138 17h328v113q0 83 -49.5 120t-147.5 37
q-96 0 -148.5 -36.5t-52.5 -108.5h-243q0 71 22.5 127t61 92t93 59.5t114 33t129.5 9.5q263 0 346 -159q113 159 379 159q223 0 331.5 -88.5t108.5 -236.5q0 -97 -68.5 -154t-217.5 -84t-406 -30q7 -159 63 -223t168 -64zM1257 860q-112 0 -173 -60t-74 -204
q166 1 259.5 16.5t130 45t36.5 79.5q0 66 -51 94.5t-128 28.5zM504 162q108 0 180 60.5t72 176.5v52h-234q-88 0 -141 -37t-53 -107q0 -77 48.5 -111t127.5 -34z" />
    <glyph glyph-name="e.ss03" horiz-adv-x="1095" 
d="M571 162q197 0 197 135h260q0 -83 -35.5 -144.5t-99 -98.5t-145.5 -54.5t-183 -17.5q-260 0 -378.5 131t-118.5 395q0 144 34 248t102 166t160.5 91t217.5 29q236 0 347 -91.5t111 -252.5q0 -109 -69.5 -173t-222 -94.5t-414.5 -33.5q13 -129 70.5 -182t166.5 -53z
M584 860q-121 0 -183 -68.5t-71 -234.5q174 1 271.5 18.5t136 50.5t38.5 91q0 143 -192 143z" />
    <glyph glyph-name="eacute.ss03" horiz-adv-x="1095" 
d="M926 1462l-279 -307h-211l191 307h299zM571 162q197 0 197 135h260q0 -83 -35.5 -144.5t-99 -98.5t-145.5 -54.5t-183 -17.5q-260 0 -378.5 131t-118.5 395q0 144 34 248t102 166t160.5 91t217.5 29q236 0 347 -91.5t111 -252.5q0 -109 -69.5 -173t-222 -94.5
t-414.5 -33.5q13 -129 70.5 -182t166.5 -53zM584 860q-121 0 -183 -68.5t-71 -234.5q174 1 271.5 18.5t136 50.5t38.5 91q0 143 -192 143z" />
    <glyph glyph-name="ebreve.ss03" horiz-adv-x="1095" 
d="M557 1141q-95 0 -160 20t-102 59t-52.5 90t-15.5 120h172q0 -78 38.5 -112t117.5 -34q86 0 123 37t37 109h170q0 -83 -24 -141t-69.5 -89.5t-102 -45t-132.5 -13.5zM571 162q197 0 197 135h260q0 -83 -35.5 -144.5t-99 -98.5t-145.5 -54.5t-183 -17.5q-260 0 -378.5 131
t-118.5 395q0 144 34 248t102 166t160.5 91t217.5 29q236 0 347 -91.5t111 -252.5q0 -109 -69.5 -173t-222 -94.5t-414.5 -33.5q13 -129 70.5 -182t166.5 -53zM584 860q-121 0 -183 -68.5t-71 -234.5q174 1 271.5 18.5t136 50.5t38.5 91q0 143 -192 143z" />
    <glyph glyph-name="ecaron.ss03" horiz-adv-x="1095" 
d="M455 1157l-244 307h217l129 -174l127 174h217l-244 -307h-202zM571 162q197 0 197 135h260q0 -83 -35.5 -144.5t-99 -98.5t-145.5 -54.5t-183 -17.5q-260 0 -378.5 131t-118.5 395q0 144 34 248t102 166t160.5 91t217.5 29q236 0 347 -91.5t111 -252.5q0 -109 -69.5 -173
t-222 -94.5t-414.5 -33.5q13 -129 70.5 -182t166.5 -53zM584 860q-121 0 -183 -68.5t-71 -234.5q174 1 271.5 18.5t136 50.5t38.5 91q0 143 -192 143z" />
    <glyph glyph-name="uni0229.ss03" horiz-adv-x="1095" 
d="M571 162q197 0 197 135h260q0 -149 -108 -225.5t-291 -87.5l-31 -62q35 -1 61 -4t54.5 -13t47 -27t30.5 -46.5t12 -69.5q0 -190 -248 -190q-129 0 -181 47.5t-52 132.5h141q0 -61 88 -61q96 0 96 71q0 64 -84 64h-114l61 158q-230 13 -336 143.5t-106 380.5q0 144 34 248
t102 166t160.5 91t217.5 29q236 0 347 -91.5t111 -252.5q0 -109 -69.5 -173t-222 -94.5t-414.5 -33.5q13 -129 70.5 -182t166.5 -53zM584 860q-121 0 -183 -68.5t-71 -234.5q174 1 271.5 18.5t136 50.5t38.5 91q0 143 -192 143z" />
    <glyph glyph-name="ecircumflex.ss03" horiz-adv-x="1095" 
d="M557 1325l-129 -174h-217l244 305h202l244 -305h-217zM571 162q197 0 197 135h260q0 -83 -35.5 -144.5t-99 -98.5t-145.5 -54.5t-183 -17.5q-260 0 -378.5 131t-118.5 395q0 144 34 248t102 166t160.5 91t217.5 29q236 0 347 -91.5t111 -252.5q0 -109 -69.5 -173
t-222 -94.5t-414.5 -33.5q13 -129 70.5 -182t166.5 -53zM584 860q-121 0 -183 -68.5t-71 -234.5q174 1 271.5 18.5t136 50.5t38.5 91q0 143 -192 143z" />
    <glyph glyph-name="uni1EC7.ss03" horiz-adv-x="1095" 
d="M557 1325l-129 -174h-217l244 305h202l244 -305h-217zM571 162q197 0 197 135h260q0 -83 -35.5 -144.5t-99 -98.5t-145.5 -54.5t-183 -17.5q-260 0 -378.5 131t-118.5 395q0 144 34 248t102 166t160.5 91t217.5 29q236 0 347 -91.5t111 -252.5q0 -109 -69.5 -173
t-222 -94.5t-414.5 -33.5q13 -129 70.5 -182t166.5 -53zM584 860q-121 0 -183 -68.5t-71 -234.5q174 1 271.5 18.5t136 50.5t38.5 91q0 143 -192 143zM455 -367v228h235v-228h-235z" />
    <glyph glyph-name="edieresis.ss03" horiz-adv-x="1095" 
d="M471 1364v-219h-225v219h225zM872 1364v-219h-227v219h227zM571 162q197 0 197 135h260q0 -83 -35.5 -144.5t-99 -98.5t-145.5 -54.5t-183 -17.5q-260 0 -378.5 131t-118.5 395q0 144 34 248t102 166t160.5 91t217.5 29q236 0 347 -91.5t111 -252.5q0 -109 -69.5 -173
t-222 -94.5t-414.5 -33.5q13 -129 70.5 -182t166.5 -53zM584 860q-121 0 -183 -68.5t-71 -234.5q174 1 271.5 18.5t136 50.5t38.5 91q0 143 -192 143z" />
    <glyph glyph-name="edotaccent.ss03" horiz-adv-x="1095" 
d="M674 1366v-227h-236v227h236zM571 162q197 0 197 135h260q0 -83 -35.5 -144.5t-99 -98.5t-145.5 -54.5t-183 -17.5q-260 0 -378.5 131t-118.5 395q0 144 34 248t102 166t160.5 91t217.5 29q236 0 347 -91.5t111 -252.5q0 -109 -69.5 -173t-222 -94.5t-414.5 -33.5
q13 -129 70.5 -182t166.5 -53zM584 860q-121 0 -183 -68.5t-71 -234.5q174 1 271.5 18.5t136 50.5t38.5 91q0 143 -192 143z" />
    <glyph glyph-name="uni1EB9.ss03" horiz-adv-x="1095" 
d="M571 162q197 0 197 135h260q0 -83 -35.5 -144.5t-99 -98.5t-145.5 -54.5t-183 -17.5q-260 0 -378.5 131t-118.5 395q0 144 34 248t102 166t160.5 91t217.5 29q236 0 347 -91.5t111 -252.5q0 -109 -69.5 -173t-222 -94.5t-414.5 -33.5q13 -129 70.5 -182t166.5 -53z
M584 860q-121 0 -183 -68.5t-71 -234.5q174 1 271.5 18.5t136 50.5t38.5 91q0 143 -192 143zM455 -367v228h235v-228h-235z" />
    <glyph glyph-name="egrave.ss03" horiz-adv-x="1095" 
d="M659 1149h-213l-276 307h297zM571 162q197 0 197 135h260q0 -83 -35.5 -144.5t-99 -98.5t-145.5 -54.5t-183 -17.5q-260 0 -378.5 131t-118.5 395q0 144 34 248t102 166t160.5 91t217.5 29q236 0 347 -91.5t111 -252.5q0 -109 -69.5 -173t-222 -94.5t-414.5 -33.5
q13 -129 70.5 -182t166.5 -53zM584 860q-121 0 -183 -68.5t-71 -234.5q174 1 271.5 18.5t136 50.5t38.5 91q0 143 -192 143z" />
    <glyph glyph-name="emacron.ss03" horiz-adv-x="1095" 
d="M827 1327v-160h-544v160h544zM571 162q197 0 197 135h260q0 -83 -35.5 -144.5t-99 -98.5t-145.5 -54.5t-183 -17.5q-260 0 -378.5 131t-118.5 395q0 144 34 248t102 166t160.5 91t217.5 29q236 0 347 -91.5t111 -252.5q0 -109 -69.5 -173t-222 -94.5t-414.5 -33.5
q13 -129 70.5 -182t166.5 -53zM584 860q-121 0 -183 -68.5t-71 -234.5q174 1 271.5 18.5t136 50.5t38.5 91q0 143 -192 143z" />
    <glyph glyph-name="eogonek.ss03" horiz-adv-x="1095" 
d="M571 162q197 0 197 135h260q0 -174 -154 -254l-65 -41q-158 -100 -158 -197q0 -42 32 -65t89 -23q45 0 113 19v-135q-93 -37 -178 -37q-107 0 -170.5 53.5t-63.5 136.5q0 130 158 230q-20 -2 -66 -2q-260 0 -378.5 131t-118.5 395q0 144 34 248t102 166t160.5 91
t217.5 29q236 0 347 -91.5t111 -252.5q0 -109 -69.5 -173t-222 -94.5t-414.5 -33.5q13 -129 70.5 -182t166.5 -53zM584 860q-121 0 -183 -68.5t-71 -234.5q174 1 271.5 18.5t136 50.5t38.5 91q0 143 -192 143z" />
    <glyph glyph-name="uni1EBD.ss03" horiz-adv-x="1095" 
d="M420 1229q-42 0 -66 -24t-24 -66h-133q0 118 53 185t147 67q52 0 113 -23l94 -37q46 -18 86 -18q41 0 64.5 22.5t23.5 63.5h140q0 -117 -55 -183.5t-150 -66.5q-59 0 -113 22l-98 39q-46 19 -82 19zM571 162q197 0 197 135h260q0 -83 -35.5 -144.5t-99 -98.5
t-145.5 -54.5t-183 -17.5q-260 0 -378.5 131t-118.5 395q0 144 34 248t102 166t160.5 91t217.5 29q236 0 347 -91.5t111 -252.5q0 -109 -69.5 -173t-222 -94.5t-414.5 -33.5q13 -129 70.5 -182t166.5 -53zM584 860q-121 0 -183 -68.5t-71 -234.5q174 1 271.5 18.5t136 50.5
t38.5 91q0 143 -192 143z" />
    <glyph glyph-name="oe.ss03" horiz-adv-x="1857" 
d="M1331 162q102 0 150.5 36.5t48.5 100.5h260q0 -83 -35.5 -145t-99 -99t-146 -55t-182.5 -18q-248 0 -371 120q-123 -120 -378 -120q-267 0 -388.5 130.5t-121.5 399.5q0 270 121.5 400t388.5 130q262 0 383 -124q124 124 382 124q236 0 346.5 -91.5t110.5 -252.5
q0 -108 -69 -172t-221.5 -95t-413.5 -34q17 -130 73 -182.5t162 -52.5zM1343 860q-120 0 -183 -69.5t-70 -233.5q177 1 274.5 18.5t134.5 50.5t37 91q0 77 -54 110t-139 33zM578 172q136 0 193.5 82t57.5 258q0 181 -57.5 260.5t-193.5 79.5q-135 0 -192.5 -81.5
t-57.5 -258.5q0 -181 58 -260.5t192 -79.5z" />
    <glyph glyph-name="g.ss04" horiz-adv-x="1153" 
d="M592 211q270 -6 394 -69.5t124 -225.5q0 -178 -132.5 -252t-402.5 -74q-121 0 -213 13.5t-152 37t-97 59.5t-52.5 78t-15.5 95q0 182 184 236q-71 49 -71 141q0 88 69 147q-139 77 -139 285q0 195 112 278.5t359 83.5q126 0 213 -20h324v-158h-101q35 -75 35 -180
q0 -188 -112.5 -271t-356.5 -83q-86 0 -164 10q-32 -25 -32 -61q0 -43 43.5 -54t183.5 -16zM561 868q-127 0 -178 -43.5t-51 -136.5q0 -99 55 -140.5t172 -41.5q126 0 177.5 43.5t51.5 134.5q0 100 -55 142t-172 42zM573 -233q107 0 168.5 17.5t83 47t21.5 76.5
q0 24 -4.5 43t-16 32.5t-23.5 24t-33 17t-38 10.5t-46.5 6.5t-50.5 3.5t-56 2q-33 0 -91 4q-98 -10 -137 -45.5t-39 -95.5q0 -81 63.5 -112t198.5 -31z" />
    <glyph glyph-name="gbreve.ss04" horiz-adv-x="1153" 
d="M565 1141q-95 0 -160 20t-101.5 59t-52 90t-15.5 120h172q0 -78 38 -112t117 -34q86 0 123 37t37 109h170q0 -83 -24 -141t-69.5 -89.5t-102 -45t-132.5 -13.5zM592 211q270 -6 394 -69.5t124 -225.5q0 -178 -132.5 -252t-402.5 -74q-121 0 -213 13.5t-152 37t-97 59.5
t-52.5 78t-15.5 95q0 182 184 236q-71 49 -71 141q0 88 69 147q-139 77 -139 285q0 195 112 278.5t359 83.5q126 0 213 -20h324v-158h-101q35 -75 35 -180q0 -188 -112.5 -271t-356.5 -83q-86 0 -164 10q-32 -25 -32 -61q0 -43 43.5 -54t183.5 -16zM561 868
q-127 0 -178 -43.5t-51 -136.5q0 -99 55 -140.5t172 -41.5q126 0 177.5 43.5t51.5 134.5q0 100 -55 142t-172 42zM573 -233q107 0 168.5 17.5t83 47t21.5 76.5q0 24 -4.5 43t-16 32.5t-23.5 24t-33 17t-38 10.5t-46.5 6.5t-50.5 3.5t-56 2q-33 0 -91 4q-98 -10 -137 -45.5
t-39 -95.5q0 -81 63.5 -112t198.5 -31z" />
    <glyph glyph-name="gcaron.ss04" horiz-adv-x="1153" 
d="M465 1157l-244 307h217l129 -174l127 174h217l-243 -307h-203zM592 211q270 -6 394 -69.5t124 -225.5q0 -178 -132.5 -252t-402.5 -74q-121 0 -213 13.5t-152 37t-97 59.5t-52.5 78t-15.5 95q0 182 184 236q-71 49 -71 141q0 88 69 147q-139 77 -139 285q0 195 112 278.5
t359 83.5q126 0 213 -20h324v-158h-101q35 -75 35 -180q0 -188 -112.5 -271t-356.5 -83q-86 0 -164 10q-32 -25 -32 -61q0 -43 43.5 -54t183.5 -16zM561 868q-127 0 -178 -43.5t-51 -136.5q0 -99 55 -140.5t172 -41.5q126 0 177.5 43.5t51.5 134.5q0 100 -55 142t-172 42z
M573 -233q107 0 168.5 17.5t83 47t21.5 76.5q0 24 -4.5 43t-16 32.5t-23.5 24t-33 17t-38 10.5t-46.5 6.5t-50.5 3.5t-56 2q-33 0 -91 4q-98 -10 -137 -45.5t-39 -95.5q0 -81 63.5 -112t198.5 -31z" />
    <glyph glyph-name="gcircumflex.ss04" horiz-adv-x="1153" 
d="M567 1325l-129 -174h-217l244 305h203l243 -305h-217zM592 211q270 -6 394 -69.5t124 -225.5q0 -178 -132.5 -252t-402.5 -74q-121 0 -213 13.5t-152 37t-97 59.5t-52.5 78t-15.5 95q0 182 184 236q-71 49 -71 141q0 88 69 147q-139 77 -139 285q0 195 112 278.5
t359 83.5q126 0 213 -20h324v-158h-101q35 -75 35 -180q0 -188 -112.5 -271t-356.5 -83q-86 0 -164 10q-32 -25 -32 -61q0 -43 43.5 -54t183.5 -16zM561 868q-127 0 -178 -43.5t-51 -136.5q0 -99 55 -140.5t172 -41.5q126 0 177.5 43.5t51.5 134.5q0 100 -55 142t-172 42z
M573 -233q107 0 168.5 17.5t83 47t21.5 76.5q0 24 -4.5 43t-16 32.5t-23.5 24t-33 17t-38 10.5t-46.5 6.5t-50.5 3.5t-56 2q-33 0 -91 4q-98 -10 -137 -45.5t-39 -95.5q0 -81 63.5 -112t198.5 -31z" />
    <glyph glyph-name="uni0123.ss04" horiz-adv-x="1153" 
d="M668 1303v-199h-217v199l110 210h117l-80 -210h70zM592 211q270 -6 394 -69.5t124 -225.5q0 -178 -132.5 -252t-402.5 -74q-121 0 -213 13.5t-152 37t-97 59.5t-52.5 78t-15.5 95q0 182 184 236q-71 49 -71 141q0 88 69 147q-139 77 -139 285q0 195 112 278.5t359 83.5
q126 0 213 -20h324v-158h-101q35 -75 35 -180q0 -188 -112.5 -271t-356.5 -83q-86 0 -164 10q-32 -25 -32 -61q0 -43 43.5 -54t183.5 -16zM561 868q-127 0 -178 -43.5t-51 -136.5q0 -99 55 -140.5t172 -41.5q126 0 177.5 43.5t51.5 134.5q0 100 -55 142t-172 42zM573 -233
q107 0 168.5 17.5t83 47t21.5 76.5q0 24 -4.5 43t-16 32.5t-23.5 24t-33 17t-38 10.5t-46.5 6.5t-50.5 3.5t-56 2q-33 0 -91 4q-98 -10 -137 -45.5t-39 -95.5q0 -81 63.5 -112t198.5 -31z" />
    <glyph glyph-name="gdotaccent.ss04" horiz-adv-x="1153" 
d="M684 1366v-227h-235v227h235zM592 211q270 -6 394 -69.5t124 -225.5q0 -178 -132.5 -252t-402.5 -74q-121 0 -213 13.5t-152 37t-97 59.5t-52.5 78t-15.5 95q0 182 184 236q-71 49 -71 141q0 88 69 147q-139 77 -139 285q0 195 112 278.5t359 83.5q126 0 213 -20h324
v-158h-101q35 -75 35 -180q0 -188 -112.5 -271t-356.5 -83q-86 0 -164 10q-32 -25 -32 -61q0 -43 43.5 -54t183.5 -16zM561 868q-127 0 -178 -43.5t-51 -136.5q0 -99 55 -140.5t172 -41.5q126 0 177.5 43.5t51.5 134.5q0 100 -55 142t-172 42zM573 -233q107 0 168.5 17.5
t83 47t21.5 76.5q0 24 -4.5 43t-16 32.5t-23.5 24t-33 17t-38 10.5t-46.5 6.5t-50.5 3.5t-56 2q-33 0 -91 4q-98 -10 -137 -45.5t-39 -95.5q0 -81 63.5 -112t198.5 -31z" />
    <glyph glyph-name="y.ss05" horiz-adv-x="1163" 
d="M795 1024h258v-1047q0 -190 -120.5 -289.5t-359.5 -99.5q-95 0 -171.5 16.5t-140 53.5t-99.5 103t-39 157h254q3 -149 209 -149q113 0 161 47t48 157v211q-113 -145 -326 -145q-193 0 -280 100.5t-87 294.5v590h260v-578q0 -120 50 -167.5t141 -47.5q100 0 171 60t71 164
v569z" />
    <glyph glyph-name="yacute.ss05" horiz-adv-x="1163" 
d="M956 1462l-278 -307h-211l190 307h299zM795 1024h258v-1047q0 -190 -120.5 -289.5t-359.5 -99.5q-95 0 -171.5 16.5t-140 53.5t-99.5 103t-39 157h254q3 -149 209 -149q113 0 161 47t48 157v211q-113 -145 -326 -145q-193 0 -280 100.5t-87 294.5v590h260v-578
q0 -120 50 -167.5t141 -47.5q100 0 171 60t71 164v569z" />
    <glyph glyph-name="ycircumflex.ss05" horiz-adv-x="1163" 
d="M590 1325l-129 -174h-217l243 305h203l244 -305h-217zM795 1024h258v-1047q0 -190 -120.5 -289.5t-359.5 -99.5q-95 0 -171.5 16.5t-140 53.5t-99.5 103t-39 157h254q3 -149 209 -149q113 0 161 47t48 157v211q-113 -145 -326 -145q-193 0 -280 100.5t-87 294.5v590h260
v-578q0 -120 50 -167.5t141 -47.5q100 0 171 60t71 164v569z" />
    <glyph glyph-name="ydieresis.ss05" horiz-adv-x="1163" 
d="M502 1364v-219h-226v219h226zM903 1364v-219h-227v219h227zM795 1024h258v-1047q0 -190 -120.5 -289.5t-359.5 -99.5q-95 0 -171.5 16.5t-140 53.5t-99.5 103t-39 157h254q3 -149 209 -149q113 0 161 47t48 157v211q-113 -145 -326 -145q-193 0 -280 100.5t-87 294.5v590
h260v-578q0 -120 50 -167.5t141 -47.5q100 0 171 60t71 164v569z" />
    <glyph glyph-name="ygrave.ss05" horiz-adv-x="1163" 
d="M692 1149h-213l-276 307h297zM795 1024h258v-1047q0 -190 -120.5 -289.5t-359.5 -99.5q-95 0 -171.5 16.5t-140 53.5t-99.5 103t-39 157h254q3 -149 209 -149q113 0 161 47t48 157v211q-113 -145 -326 -145q-193 0 -280 100.5t-87 294.5v590h260v-578q0 -120 50 -167.5
t141 -47.5q100 0 171 60t71 164v569z" />
    <glyph glyph-name="f_f_j" horiz-adv-x="2009" 
d="M1890 1024v-1053q0 -211 -145 -307q-58 -38 -149.5 -56t-178.5 -18v201q102 0 156 43q57 50 57 137v863h-424v-834h-260v834h-469v-834h-260v834h-164v190h164v106q0 176 95.5 250t275.5 74q76 0 141 -8v-186q-47 8 -94 8q-87 0 -122.5 -37t-35.5 -111v-96h469v106
q0 176 95.5 250t273.5 74q75 0 143 -8v-186q-49 8 -94 8q-87 0 -122.5 -37t-35.5 -111v-96h684zM1628 1384h264v-249h-264v249z" />
    <glyph glyph-name="f_j" horiz-adv-x="1280" 
d="M1161 1024v-1053q0 -210 -143 -307q-58 -38 -150.5 -56t-179.5 -18v201q102 0 156 43q57 48 57 137v863h-424v-834h-260v834h-164v190h164v106q0 176 95.5 250t275.5 74q76 0 141 -8v-186q-47 8 -94 8q-87 0 -122.5 -37t-35.5 -111v-96h684zM899 1384h264v-249h-264v249z
" />
    <glyph glyph-name="a_e" horiz-adv-x="1820" 
d="M1300 162q199 0 199 135h254q0 -82 -31 -144.5t-86.5 -99t-125 -54t-152.5 -17.5q-191 0 -301 110v-92h-250v139q-55 -76 -143.5 -116.5t-198.5 -40.5q-200 0 -298.5 128.5t-98.5 395.5q0 275 104.5 405.5t316.5 130.5q215 0 318 -143v125h250v-96q111 114 305 114
q206 0 303.5 -91.5t97.5 -252.5q0 -108 -67.5 -172t-219 -95t-411.5 -34q16 -128 75 -181.5t160 -53.5zM1313 860q-119 0 -181 -69.5t-71 -233.5q177 3 274 20.5t133.5 50t36.5 89.5q0 143 -192 143zM555 172q106 0 174 62t68 165v230q0 100 -68 162.5t-172 62.5
q-119 0 -175 -80t-56 -266q0 -180 54.5 -258t174.5 -78z" />
    <glyph glyph-name="uni0414.loclBGR" horiz-adv-x="1650" 
d="M1430 219h172v-534h-271v315h-1009v-315h-273v534h170l434 1215h338zM522 219h606l-305 930z" />
    <glyph glyph-name="uni041B.loclBGR" horiz-adv-x="1380" 
d="M1329 0h-295l-346 1139l-342 -1139h-295l475 1434h322z" />
    <glyph glyph-name="uni0424.loclBGR" horiz-adv-x="1794" 
d="M1032 1362q347 0 507.5 -158t160.5 -487q0 -327 -160.5 -486t-507.5 -159v-138h-270v138q-346 0 -507 159t-161 486q0 329 160.5 487t507.5 158v137h270v-137zM762 293v850q-218 0 -306.5 -100.5t-88.5 -325.5q0 -227 91.5 -325.5t303.5 -98.5zM1032 293
q212 0 303.5 98.5t91.5 325.5q0 226 -88 326t-307 100v-850z" />
    <glyph glyph-name="uni0432.loclBGR" horiz-adv-x="1177" 
d="M883 750q229 -91 229 -349q0 -207 -126 -314t-372 -107q-250 0 -375.5 118.5t-125.5 370.5v524q0 461 479 461q469 0 469 -387q0 -224 -178 -317zM373 993v-155h207q105 0 163 54t58 157q0 215 -211 215q-112 0 -164.5 -62.5t-52.5 -208.5zM612 170q120 0 179 59t59 183
q0 235 -258 235h-219v-180q0 -160 57.5 -228.5t181.5 -68.5z" />
    <glyph glyph-name="uni0433.loclBGR" horiz-adv-x="1048" 
d="M520 -20q-461 0 -461 329q0 79 26 136t75 90.5t107 51.5t134 25l158 17q146 15 146 123q0 62 -49.5 94.5t-139.5 32.5q-184 0 -184 -136h-246q3 147 105.5 224t330.5 77q208 0 320 -70.5t112 -230.5q0 -137 -90 -205.5t-258 -84.5l-145 -17q-71 -6 -110.5 -39.5
t-39.5 -93.5q0 -71 52.5 -111t156.5 -40q98 0 155.5 38t57.5 119h258q-5 -159 -116.5 -244t-354.5 -85z" />
    <glyph glyph-name="uni0434.loclBGR" horiz-adv-x="1171" 
d="M811 1024h250v-1044q0 -190 -120 -290t-359 -100q-95 0 -172 16.5t-140.5 53.5t-100 103t-38.5 157h254q3 -147 209 -147q111 0 159 46t48 156v193q-109 -129 -338 -129q-395 0 -395 479q0 526 419 526q220 0 324 -141v121zM553 223q118 0 183 60.5t65 165.5v180
q0 103 -67 164t-179 61q-115 0 -171 -78.5t-56 -253.5q0 -155 54 -227t171 -72z" />
    <glyph glyph-name="uni0436.loclBGR" horiz-adv-x="1646" 
d="M1374 0l-280 432h-109v-432h-260v432h-107l-282 -432h-309l389 520l-371 504h291l280 -418h109v828h260v-828h109l280 418h291l-369 -504l387 -520h-309z" />
    <glyph glyph-name="uni0437.loclBGR" horiz-adv-x="1062" 
d="M799 356q103 -40 151.5 -121t48.5 -212q0 -214 -124 -323.5t-367 -109.5q-230 0 -340.5 86.5t-110.5 266.5h254q0 -84 52 -124t157 -40q113 0 166 57.5t53 175.5q0 242 -219 242h-170v186h170q94 0 145.5 54.5t51.5 158.5q0 101 -49 151t-152 50q-94 0 -139.5 -40.5
t-48.5 -127.5h-256q0 177 116 267.5t332 90.5q226 0 340.5 -98t114.5 -289q0 -224 -176 -301z" />
    <glyph glyph-name="uni0438.loclBGR" horiz-adv-x="1163" 
d="M791 1024h258v-1024h-248v137q-53 -75 -138.5 -116t-193.5 -41q-193 0 -280 101t-87 296v647h258v-635q0 -120 51 -167.5t140 -47.5q100 0 170 59.5t70 163.5v627z" />
    <glyph glyph-name="uni0439.loclBGR" horiz-adv-x="1163" 
d="M569 1141q-95 0 -160 20t-101.5 59t-52 90t-15.5 120h172q0 -78 38 -112t117 -34q86 0 123 37t37 109h170q0 -83 -24 -141t-69.5 -89.5t-102 -45t-132.5 -13.5zM791 1024h258v-1024h-248v137q-53 -75 -138.5 -116t-193.5 -41q-193 0 -280 101t-87 296v647h258v-635
q0 -120 51 -167.5t140 -47.5q100 0 170 59.5t70 163.5v627z" />
    <glyph glyph-name="uni045D.loclBGR" horiz-adv-x="1163" 
d="M674 1149h-213l-277 307h297zM791 1024h258v-1024h-248v137q-53 -75 -138.5 -116t-193.5 -41q-193 0 -280 101t-87 296v647h258v-635q0 -120 51 -167.5t140 -47.5q100 0 170 59.5t70 163.5v627z" />
    <glyph glyph-name="uni043A.loclBGR" horiz-adv-x="1110" 
d="M774 0l-280 432h-109v-432h-260v1434h260v-828h109l280 418h291l-369 -504l387 -520h-309z" />
    <glyph glyph-name="uni043B.loclBGR" horiz-adv-x="1103" 
d="M1077 0h-270l-254 778l-254 -778h-272l372 1024h306z" />
    <glyph glyph-name="uni043F.loclBGR" horiz-adv-x="1181" 
d="M723 1044q99 0 169.5 -29t110 -84.5t57 -126t17.5 -163.5v-641h-262v637q0 108 -44.5 161.5t-143.5 53.5q-114 0 -183 -63.5t-69 -167.5v-621h-260v1024h250v-143q116 163 358 163z" />
    <glyph glyph-name="uni0442.loclBGR" horiz-adv-x="1806" 
d="M1354 1044q346 0 346 -403v-641h-258v637q0 99 -39 157t-139 58q-104 0 -165 -62t-61 -159v-631h-258v637q0 99 -39.5 157t-138.5 58q-102 0 -165.5 -66.5t-63.5 -164.5v-621h-258v1024h247v-145q103 165 334 165q229 0 305 -182q50 89 142 135.5t211 46.5z" />
    <glyph glyph-name="uni0446.loclBGR" horiz-adv-x="1241" 
d="M1049 201h161v-467h-252v266h-157v137q-53 -75 -138.5 -116t-193.5 -41q-193 0 -280 101t-87 296v647h258v-635q0 -120 51 -167.5t140 -47.5q100 0 170 59.5t70 163.5v627h258v-823z" />
    <glyph glyph-name="uni0448.loclBGR" horiz-adv-x="1806" 
d="M1434 1024h258v-1024h-248v145q-103 -165 -334 -165q-229 0 -305 182q-50 -89 -141.5 -135.5t-210.5 -46.5q-347 0 -347 403v641h259v-637q0 -99 39 -157t139 -58q104 0 164.5 62t60.5 159v631h258v-637q0 -99 39.5 -157t138.5 -58q102 0 166 66.5t64 164.5v621z" />
    <glyph glyph-name="uni0449.loclBGR" horiz-adv-x="1884" 
d="M1692 201h159v-467h-252v266h-155v147q-101 -167 -334 -167q-229 0 -305 182q-50 -89 -141.5 -135.5t-210.5 -46.5q-347 0 -347 403v641h259v-637q0 -47 7.5 -83t26.5 -67t54.5 -48t87.5 -17q105 0 166 62t61 159v631h258v-637q0 -100 38.5 -157.5t137.5 -57.5
q103 0 167.5 66.5t64.5 164.5v621h258v-823z" />
    <glyph glyph-name="uni044C.loclBGR" horiz-adv-x="1093" 
d="M631 739q196 0 302.5 -97.5t106.5 -279.5q0 -382 -462 -382q-227 0 -345 93.5t-118 260.5v690h260v-340q107 55 256 55zM578 160q101 0 150.5 49.5t49.5 152.5q0 197 -198 197q-93 0 -149 -39.5t-56 -103.5v-70q0 -186 203 -186z" />
    <glyph glyph-name="uni044A.loclBGR" horiz-adv-x="1232" 
d="M770 739q196 0 303 -97.5t107 -279.5q0 -382 -463 -382q-225 0 -344 93.5t-119 260.5v489h-219v201h481v-340q107 55 254 55zM719 160q199 0 199 202q0 197 -197 197q-94 0 -149.5 -39.5t-55.5 -103.5v-70q0 -186 203 -186z" />
    <glyph glyph-name="uni044E.loclBGR" horiz-adv-x="1660" 
d="M1081 1044q270 0 391 -130t121 -402q0 -270 -121.5 -401t-390.5 -131q-241 0 -363.5 107t-144.5 325h-188v-412h-260v1434h260v-822h188q21 219 143 325.5t365 106.5zM1081 170q137 0 194.5 82.5t57.5 259.5q0 182 -58.5 262t-193.5 80t-192.5 -82t-57.5 -260
q0 -181 58 -261.5t192 -80.5z" />
    <glyph glyph-name="uni0431.loclSRB" horiz-adv-x="1157" 
d="M866 897q118 -73 171 -180.5t53 -257.5q0 -244 -121.5 -361.5t-390.5 -117.5q-267 0 -388.5 118t-121.5 361q0 216 93.5 332.5t299.5 140.5l-113 67q-79 48 -119.5 100.5t-40.5 123.5q0 92 71.5 151.5t191.5 59.5h507v-197h-430q-65 0 -65 -49q0 -23 12 -38t45 -36z
M578 170q136 0 193.5 71t57.5 224q0 157 -58 226t-193 69t-192.5 -70.5t-57.5 -224.5q0 -155 58 -225t192 -70z" />
    <glyph glyph-name="zero.lf" horiz-adv-x="1185" 
d="M592 -20q-145 0 -242.5 41.5t-157.5 133.5t-86 226t-26 330q0 209 28 350t91.5 229t158 126t234.5 38q146 0 244 -42t158 -134.5t86 -229t26 -337.5q0 -273 -53 -432.5t-163.5 -229t-297.5 -69.5zM592 205q95 0 146.5 45t74.5 152.5t23 308.5q0 206 -23 316.5t-74 156
t-147 45.5q-95 0 -145.5 -45t-73.5 -155.5t-23 -317.5q0 -200 22.5 -307.5t74 -153t145.5 -45.5z" />
    <glyph glyph-name="one.lf" horiz-adv-x="755" 
d="M629 1434v-1434h-269v1163l-319 -205v228l303 248h285z" />
    <glyph glyph-name="two.lf" horiz-adv-x="1110" 
d="M334 365v-148h710v-217h-978v379q0 99 25.5 173t74.5 122t111.5 77t146.5 46l176 37q100 23 139 69.5t39 132.5q0 116 -48.5 163.5t-158.5 47.5q-114 0 -161.5 -52t-47.5 -169h-270q1 95 25 168.5t65.5 122t102.5 80t132 44.5t158 13q472 0 472 -426q0 -131 -42 -216
t-119.5 -131t-207.5 -75l-162 -37q-99 -24 -140.5 -73t-41.5 -131z" />
    <glyph glyph-name="three.lf" horiz-adv-x="1150" 
d="M883 758q104 -47 146 -135t42 -228q0 -217 -121.5 -315t-384.5 -98q-128 0 -222 24.5t-147.5 62.5t-85 95t-41.5 111t-10 122h252q0 -110 58.5 -153t195.5 -43q144 0 199 49.5t55 171.5q0 134 -55 180.5t-199 46.5h-141v211h141q129 0 178.5 44.5t49.5 154.5
q0 107 -50.5 147.5t-177.5 40.5q-124 0 -173.5 -39.5t-51.5 -134.5h-262q1 44 6.5 81t19.5 77.5t36.5 71.5t59.5 60.5t87 48.5t120.5 30.5t157.5 11.5q252 0 370 -90t118 -289q0 -123 -38.5 -200t-131.5 -117z" />
    <glyph glyph-name="four.lf" horiz-adv-x="1191" 
d="M1145 571v-211h-203v-360h-258v360h-635v211l582 863h311v-863h203zM307 571h377v603z" />
    <glyph glyph-name="five.lf" horiz-adv-x="1144" 
d="M664 958q96 0 168 -21.5t119.5 -60.5t77 -99t42 -131t12.5 -163q0 -149 -35 -249.5t-104.5 -155t-156.5 -76.5t-209 -22q-118 0 -206 18.5t-144.5 52t-91 85t-48.5 111.5t-14 138h241q0 -104 60.5 -146t195.5 -42q148 0 208.5 61.5t60.5 208.5q0 162 -59 225.5t-193 63.5
q-125 0 -181.5 -41.5t-56.5 -128.5h-250v848h904v-211h-654v-349q113 84 314 84z" />
    <glyph glyph-name="six.lf" horiz-adv-x="1161" 
d="M686 940q116 0 197.5 -33.5t127 -97.5t65.5 -145.5t20 -190.5q0 -112 -24 -197.5t-65.5 -141t-104 -90t-133 -48.5t-157.5 -14q-127 0 -220 31.5t-152.5 87.5t-94.5 147.5t-49 198t-14 251.5q0 183 25 317t68 217.5t110.5 134t143 69t175.5 18.5q233 0 343 -94t110 -256
h-252q0 74 -54 113.5t-147 39.5q-132 0 -194 -100.5t-72 -347.5q115 131 348 131zM600 199q134 0 192 65.5t58 206.5q0 151 -56 211.5t-180 60.5q-122 0 -194.5 -63t-81.5 -164q7 -177 68.5 -247t193.5 -70z" />
    <glyph glyph-name="seven.lf" horiz-adv-x="983" 
d="M37 1434h905v-217l-512 -1217h-264l516 1217h-645v217z" />
    <glyph glyph-name="eight.lf" horiz-adv-x="1165" 
d="M848 750q121 -39 182.5 -128.5t61.5 -238.5q0 -76 -13.5 -134.5t-48.5 -110.5t-92 -85.5t-146.5 -53t-209.5 -19.5q-125 0 -215 20t-158 66t-101.5 126.5t-33.5 196.5q0 135 54 226.5t183 134.5q-219 73 -219 317q0 109 35.5 186t103.5 120t154 62t199 19
q136 0 233 -27.5t152 -79.5t79.5 -119.5t24.5 -156.5q0 -244 -225 -321zM584 1255q-240 0 -240 -204q0 -98 58 -146.5t182 -48.5q129 0 183 50.5t54 144.5q0 106 -60 155t-177 49zM584 188q147 0 207.5 56.5t60.5 171.5q0 122 -63.5 177.5t-204.5 55.5q-147 0 -208 -57.5
t-61 -175.5q0 -120 64 -174t205 -54z" />
    <glyph glyph-name="nine.lf" horiz-adv-x="1161" 
d="M547 1454q128 0 221 -31.5t153 -88t95 -148t49 -198t14 -251.5q0 -183 -25 -317t-68 -217.5t-111 -133.5t-143 -68.5t-175 -18.5q-233 0 -343 94t-110 256h252q0 -75 53 -114.5t146 -39.5q132 0 194 100.5t72 346.5q-116 -129 -346 -129q-93 0 -164 22t-117 61.5t-75 99
t-41 128.5t-12 156q0 112 23.5 197.5t65 141t103 90t132 48.5t157.5 14zM545 692q123 0 196 63.5t82 164.5q-7 177 -68.5 247t-193.5 70q-134 0 -193 -66t-59 -206q0 -151 56.5 -212t179.5 -61z" />
    <glyph glyph-name="zero.osf" horiz-adv-x="1193" 
d="M598 -20q-148 0 -247 30t-159.5 96.5t-86 164t-25.5 241.5q0 289 119.5 410.5t398.5 121.5q147 0 245.5 -30t159 -96.5t86 -164t25.5 -241.5q0 -289 -118.5 -410.5t-397.5 -121.5zM598 178q138 0 192 75.5t54 258.5q0 187 -56 259.5t-190 72.5q-139 0 -193.5 -75
t-54.5 -257q0 -189 55.5 -261.5t192.5 -72.5z" />
    <glyph glyph-name="one.osf" horiz-adv-x="737" 
d="M612 1024v-1024h-266v797l-305 -150v193l291 184h280z" />
    </font>
</defs>
</svg>
