<svg width="347" height="577" fill="none" xmlns="http://www.w3.org/2000/svg"><path opacity=".15" d="M173.513 577c4.15-8.3 10.388-14.531 17.649-19.715 31.166-21.8 51.952-57.076 59.221-96.523H347V43.592c-51.935 25.946-86.22 83.022-93.489 142.167l-14.547 117.276 7.269-1.039c15.587 0 29.095 14.523 29.095 29.045 0 13.501-10.397 24.899-23.896 28.015l-17.667 4.154c-29.095-54.991-45.713-108.968-45.713-161.89 0-47.747 7.278-95.476 7.278-144.244 0-21.8-8.309-41.507-21.817-57.076-13.516 15.57-21.826 35.276-21.826 57.076 1.04 48.768 7.278 96.497 7.278 144.244 0 52.922-16.618 106.891-45.713 161.89l-17.667-4.154c-13.507-3.116-23.896-14.523-23.896-28.015 0-14.531 13.516-29.045 29.095-29.045l7.278 1.039-14.547-117.276C89.355 126.614 51.951 69.529 0 43.592v417.17h96.617c7.278 39.447 29.095 73.693 59.229 96.523 7.27 5.184 13.508 11.415 17.667 19.715zm97.656-297.842l11.428-96.498c3.12-30.1 16.636-57.076 35.334-78.876v212.735h-16.619c-4.159-15.561-15.587-29.045-30.134-37.361h-.009zm-10.388 107.921c19.737-6.215 35.324-21.775 40.523-41.507h16.618v86.137h-65.451c0-14.53-2.088-28.031-5.19-41.506l13.5-3.124zM29.095 103.784c18.706 21.8 31.166 48.776 35.333 78.876l11.428 96.498c-14.547 8.316-25.975 21.8-30.126 37.361H29.095V103.784zm65.45 327.934h-65.45V345.58H45.73c5.19 19.732 20.769 35.284 40.507 41.507l13.507 3.124c-3.119 13.475-5.19 26.976-5.19 41.507h-.008zm93.498 90.292v-61.248h32.214c-5.19 22.839-16.618 43.593-32.214 61.248zm36.365-90.292h-36.365c0-17.646 13.516-33.216 31.166-35.276 3.119 11.407 5.19 22.822 5.19 35.276h.009zm-50.895-132.837c7.269 24.916 18.698 48.776 31.157 71.615-12.459 3.099-22.848 11.407-31.157 20.745-8.318-9.347-18.707-17.646-31.166-20.745 12.459-22.839 23.888-46.699 31.166-71.615zM158.965 522.01c-15.587-17.655-27.015-38.4-32.214-61.248h32.214v61.248zm-36.373-90.292c0-12.454 2.088-23.869 5.19-35.276 17.676 2.06 31.175 17.63 31.175 35.276h-36.373.008z" fill="#fff"/></svg>