<svg width="290" height="26" fill="none" xmlns="http://www.w3.org/2000/svg"><path d="M85.61 4.077h14.535v21.615H85.609V4.077zm-59.996 9.14c0 3.088-1.762 4.54-5.538 4.54-3.777 0-5.538-1.452-5.538-4.54v-9.14H0v9.665C0 22.789 5.251 26 20.074 26c14.822 0 20.074-3.21 20.074-12.258V4.077H25.612v9.14h.002zm76.069-1.112h12.167v13.587h14.536V12.107h12.166v-8.03h-38.867v8.03l-.002-.002zm-32.271 3.18L58.046 4.078h-16.04v21.615h14.343v-11.21l11.366 11.209h16.04V4.077H69.413v11.209zM253.15 8.646C253.15 2.75 247.74 0 236.342 0c-12.293 0-17.48 3.15-17.48 10.684h11.429c0-2.594 1.889-3.52 5.634-3.52 3.744 0 4.802.616 4.802 1.573 0 1.266-.416 1.266-9.605 3.336-10.181 2.316-13.351 6.885-13.351 11.3v2.317h34.545v-7.01h-20.201c1.216-1.113 4.675-1.421 12.325-2.842 5.091-.927 8.708-2.624 8.708-7.195l.002.003zM142.088 25.692h33.072v-6.454h-19.178v-1.822h13.64v-5.065h-13.64v-1.822h19.178V4.077h-33.072v21.615zM290 14.205v7.226h-5.187v4.26H273v-4.26h-19.497v-7.288L267.492.867h17.319v13.338H290zm-17-7.102l-7.46 7.102H273V7.103zm-54.746 7.781c0 7.256-4.738 10.808-14.503 10.808h-26.734V4.077h26.734c9.765 0 14.503 3.552 14.503 10.807zm-14.183 0c0-2.438-1.409-3.581-4.355-3.581H191.2v7.163h8.516c2.944 0 4.355-1.143 4.355-3.582z" fill="#fff"/></svg>