<svg width="282" height="27" fill="none" xmlns="http://www.w3.org/2000/svg"><path d="M83.017 4.234h14.096v21.668H83.017V4.234zm-58.18 9.163c0 3.095-1.707 4.55-5.37 4.55-3.661 0-5.37-1.454-5.37-4.55V4.234H0v9.688c0 9.07 5.092 12.29 19.466 12.29 14.373 0 19.466-3.22 19.466-12.29V4.234H24.836v9.163h.002zm73.767-1.115h11.798v13.62h14.096V12.284h11.798v-8.05h-37.69v8.05l-.002-.002zM67.31 15.47L56.288 4.234H40.733v21.668h13.91V14.666l11.021 11.236H81.22V4.234H67.31V15.47zm178.174-6.655c0-5.913-5.247-8.669-16.299-8.669-11.921 0-16.951 3.159-16.951 10.711h11.083c0-2.6 1.832-3.53 5.463-3.53 3.632 0 4.657.619 4.657 1.579 0 1.268-.403 1.268-9.314 3.343-9.872 2.322-12.947 6.903-12.947 11.33V25.9h33.499v-7.027h-19.589c1.179-1.115 4.533-1.425 11.952-2.849 4.936-.93 8.444-2.63 8.444-7.213l.002.004zM137.785 25.902h32.07v-6.47h-18.596v-1.826h13.226v-5.078h-13.226v-1.826h18.596V4.234h-32.07v21.668zm143.433-11.515v7.244h-5.03v4.271h-11.455v-4.271h-18.907v-7.306l13.565-13.31h16.796v13.372h5.031zm-16.485-7.12l-7.234 7.12h7.234v-7.12zm-53.089 7.801c0 7.274-4.594 10.834-14.063 10.834h-25.924V4.234h25.924c9.469 0 14.063 3.56 14.063 10.834zm-13.753 0c0-2.445-1.366-3.59-4.223-3.59h-8.258v7.18h8.258c2.855 0 4.223-1.145 4.223-3.59z" fill="#000"/></svg>