<svg width="148" height="23" fill="none" xmlns="http://www.w3.org/2000/svg"><path d="M11.896 23c7.508 0 11.786-3.58 11.786-11.71V0H20.64v11.29c0 6.097-2.693 9.42-8.745 9.42-6.463 0-8.744-3.323-8.744-9.42V0H.109v11.29C.11 19.42 3.975 23 11.896 23zm30.954-.42h4.183L34.486 9.066 46.4 0h-4.34L29.005 10.226V0h-3.041v22.58h3.041v-9.354l3.232-2.452L42.85 22.581zm22.955-8.128c-.475-.968-.982-1.807-1.901-2.355 2.154-.807 3.77-2.516 3.77-5.742 0-5-3.992-6.355-7.92-6.355H47.745v22.58h3.041v-9.838h8.428c2.534 0 2.978 1.29 3.928 3.193l3.296 6.646h3.421l-4.055-8.13zM59.753 2.29c3.232 0 4.88 1.29 4.88 4.065 0 2.774-1.648 4.097-4.88 4.097h-8.966V2.29h8.966zm33.23 20.29h3.295L84.872 0h-3.485L70.013 22.58h3.295l2.661-5.451h14.353l2.661 5.452zm-15.905-7.74L83.13 2.452l6.051 12.387H77.078zm20.275 7.74h3.041V0h-3.041v22.58zM122.31 0v19.194L106.12 0h-3.612v22.58h3.042V3.517l16.095 19.065h3.707V0h-3.042zm8.197 20.29v-8.354h15.367v-2.26h-15.367V2.29h16V0h-19.041v22.58h19.643v-2.29h-16.602z" fill="#000"/></svg>